<svg xmlns="http://www.w3.org/2000/svg" viewBox="142.92 33.879 314.159 160.218"><g fill="#59260b" stroke="#fff" stroke-width=".2"><path d="m250.14 138.273-.871.064-.197-.296.217-.155.564-.102.051-.168.14-.009.096.666ZM272.659 129.228l.121.992.88-.114.08.699-1.481.193-.063-.515-.32.041-.023-.186-.674.088-.121-.99 1.601-.208Z"/><path d="m273.66 130.106-.88.114-.121-.992.889-.116Z"/><path d="m274.198 130.745-.458.06-.08-.7-.112-.993.457-.06v.001Z"/><path d="m274.683 130.682-.485.063-.193-1.692.486-.063Z"/><path d="m275.17 130.619-.487.063-.192-1.692.486-.064ZM253.54 131.558l.263 2.832-1.68.075-.125-1.05-.69.033-.042-.416-.185.02-.102-1.22 2.561-.274ZM250.653 138.236l-.256.019-.089-.731-.168-.263.066-.029.005-.15-.255.009-.106-.315.71-.033.093 1.493Z"/><path d="m251.224 138.194-.571.042-.093-1.493.573-.026.09 1.477ZM249.733 136.902l-.426.25-.063.06-.51.295-.138-.251 1.039-.596Z"/><path d="m249.733 136.902-.426.25-.063.06-.51.295-.138-.251 1.039-.596Z"/><path d="m249.733 136.902-.426.25-.063.06-.51.295-.138-.251 1.039-.596Z"/><path d="m249.635 136.66-1.039.596-.139-.25 1.07-.613Z"/><path d="m249.635 136.66-1.039.596-.139-.25 1.07-.613Z"/><path d="m249.635 136.66-1.039.596-.139-.25 1.07-.613Z"/><path d="m249.635 136.66-1.039.596-.139-.25 1.07-.613ZM249.527 136.393l-1.07.612-.138-.251 1.1-.63ZM247.996 132.151l.107 1.221-.317.044-.185-.614-.108.031-.001-.01-.002-.01-.003-.01-.004-.01-.005-.009-.006-.009-.006-.008-.007-.007-.008-.007-.008-.006-.009-.006-.009-.004-.01-.004-.01-.003-.01-.002-.01-.001h-.02l-.086-.26-.053-.192-.054-.184-.03-.101.666-.235.188.396Z"/><path d="m247.053 131.69.089.3.03.101-.834.327-.16-.409.868-.34ZM271.876 130.524l.32-.041.063.515-.995.13-.085-.702.674-.088ZM266.574 130.019l.64 6.781-1.494.156-.129-1.371h-.036l-1.717.182-.773.081.128 1.372-3.049.319-5.434.399-.596-6.441 5.14-.55 7.32-.928ZM250.308 137.524l.09.73-.258.02-.096-.667-.113-.254.209-.092Z"/><path d="m249.931 137.353.113.254-.14.01-.05.167-.565.102-.217.155-.191-.288.507-.292.05-.05.408-.251ZM263.966 137.14l-.773.08-.128-1.372.773-.081.128 1.372ZM265.72 136.956l-1.754.183-.128-1.372 1.717-.182h.036l.129 1.371ZM249.418 136.125l-1.1.629-.664-1.202 1.494-.423.254.955Z"/><path d="m249.85 136.776.106.315.255-.01-.005.151-.066.03-.209.091-.085-.193-.113-.258-.098-.242-.108-.267-.109-.268-.016-.041-.254-.955.278-.079Z"/><path d="m253.845 134.851.29 3.129-2.911.214-.091-1.477-.573.026-.71.033-.424-1.726 4.419-.199ZM274.689 135.996l-2.88.293-.15-1.552 1.222-.146 1.652-.197.156 1.602ZM252.124 134.465l-.711.032-.105-1.049.69-.033.126 1.05ZM248.42 134.632l-1.189.054-.446-1.132 1.001-.138.317-.044.19-.026.127 1.286Z"/><path d="m249.236 134.595-.816.037-.127-1.286.29-.04.526-.054.127 1.343ZM250.74 134.528l-1.504.067-.127-1.343.5-.05.843-.087.154-.015.135 1.427Z"/><path d="m251.308 133.448.105 1.049-.672.03-.135-1.427.475-.049.185-.019ZM248.293 133.346l-.19.026-.107-1.22.503-.054.083 1.208ZM247.226 132.275l.053.191.086.262.01-.001h.01l.01.001.01.002.01.003.01.004.01.004.008.006.008.006.008.007.007.007.006.008.006.01.005.008.004.01.003.01.002.01.001.01.108-.031.185.614-1 .138-.448-1.136.834-.327ZM249.11 133.252l-.528.054-.083-1.208.496-.054Z"/><path d="m249.61 133.201-.5.051-.115-1.207.501-.054Z"/><path d="m250.452 133.115-.843.086-.113-1.21.83-.089Z"/><path d="m250.606 133.1-.154.015-.126-1.213.653-.07.102 1.22ZM268.74 129.724l.042.345.228-.029.117.958-.29.036.134 1.026 1.8-.223.13 1.072-3.433.444-.324-3.43 1.596-.199Z"/><path d="m270.486 129.507.284 2.33-1.8.223-.132-1.026.29-.036-.118-.958-.228.029-.042-.345 1.746-.217ZM276.959 130.386l-1.79.233-.192-1.692 2.013-.263ZM247.808 131.755l-.666.235-.09-.3.617-.216.002-.001.014.026.014.027.013.026.013.027ZM249.846 137.16l-.408.251-.05.05-.507.292-.029-.043-.028-.042-.09-.161.51-.294.063-.061.426-.25ZM271.24 136.38l-3.453.36-.32-3.387 3.434-.444.003.022.002.022Z"/><path d="m276.959 130.386-.1 5.389-2.17.22-.156-1.601-1.652.197-1.222.146-.057-.584-.117-1.21-.003-.026-.003-.027-.215-1.763.995-.13 1.481-.192.458-.06.485-.063.486-.063 1.79-.233ZM247.67 131.473h-.001l-.616.218-.007-.023-.869.341-.47-1.193v-.002l-.006-.016-.004-.016-.004-.015-.003-.017-.002-.016v-.049l.002-.016.003-.016.004-.016.004-.016.006-.015.006-.015.007-.015.008-.014.01-.014.009-.013.01-.013.01-.012.012-.012.013-.01.013-.01.013-.01.014-.009.014-.007.015-.007.015-.006.016-.006.015-.004.016-.003.016-.003.017-.001.016-.001H245.99l.043.003.043.003.043.004.043.005.043.006.042.008.043.007.042.009.042.01.042.01.041.012.042.012.04.013.042.015.04.015.04.016.04.016.039.018.04.018.038.02.038.02.038.02.037.022.037.023.036.023.036.024.035.025.035.025.034.027.034.027.033.027.033.029.032.03.03.03.032.03.03.031.029.032.028.032.028.033.027.034.027.034.026.035.025.035.024.036.023.036.023.037.022.037Z"/></g></svg>