<svg viewBox="142.92036732050474 33.879346293600975 314.1592653589905 160.21752962021856" xmlns="http://www.w3.org/2000/svg" xmlns:xlink="http://www.w3.org/1999/xlink"><g><path fill="#59260b" stroke="white" stroke-width="0.2" d="M250.1396555249521,138.27347911670222L249.26860485467478,138.33748633167124L249.26846891688183,138.3373039882281L249.07213046975085,138.04148976015858L249.2891724842193,137.88605000515236L249.85343288088916,137.78439738464658L249.90428171670646,137.616272334737L250.04363509712857,137.6071107822936L250.13962550030556,138.27327031921595Z"/><path fill="#59260b" stroke="white" stroke-width="0.2" d="M272.6590033134271,129.22814888478024L272.7801412460976,130.2201475785405L273.6606919745682,130.10554779853555L273.7402547780657,130.80492797057377L272.258836414112,130.9977275710553L272.19596131151775,130.48284135232097L271.8758885076095,130.52449825496296L271.85314444298274,130.33822927693836L271.17870504708844,130.42600956259412L271.0578610180819,129.43645720250788L272.65899209771305,129.22803879197454Z"/><path fill="#59260b" stroke="white" stroke-width="0.2" d="M273.6606919745682,130.10554779853555L272.7801412460976,130.2201475785405L272.6590033134271,129.22814888478024L272.65899209771305,129.22803879197454L273.5477119256684,129.11237367079593L273.54771557767526,129.11248375452124Z"/><path fill="#59260b" stroke="white" stroke-width="0.2" d="M274.19753996806685,130.74541390949162L273.7402547780657,130.80492797057377L273.6606919745682,130.10554779853555L273.54771557767526,129.11248375452124L273.5477119256684,129.11237367079593L274.0049999267794,129.05286271337536L274.00500357864075,129.05297279712977Z"/><path fill="#59260b" stroke="white" stroke-width="0.2" d="M274.6834078290558,130.68218058589264L274.19753996806685,130.74541390949162L274.00500357864075,129.05297279712977L274.0049999267794,129.05286271337536L274.4908707793802,128.98962865426438L274.4908744309796,128.9897387380188Z"/><path fill="#59260b" stroke="white" stroke-width="0.2" d="M275.169275911001,130.6189519216714L274.6834078290558,130.68218058589264L274.4908744309796,128.9897387380188L274.4908707793802,128.98962865426438L274.97674185296637,128.92639925453113L274.97674550439115,128.92650933834375Z"/><path fill="#59260b" stroke="white" stroke-width="0.2" d="M253.54053114718408,131.55797081560013L253.80256805068348,134.38967065006727L252.12376069967286,134.46524056009366L252.1237382310792,134.46503935969668L251.99811700664577,133.41466229828075L251.3078986913024,133.44805764136254L251.2662571016117,133.03230483204243L251.0813673787634,133.05115565750748L250.97929667439894,131.8321216768236L250.97929301322438,131.83201159449527L253.5402513719455,131.5579097714799L253.54052370536374,131.55786072878982Z"/><path fill="#59260b" stroke="white" stroke-width="0.2" d="M250.65262799224,138.2357828860986L250.3972309170058,138.2545523683948L250.39720467414008,138.2543435751868L250.30849304571166,137.523656983627L250.13973151394748,137.26147883050726L250.20553996460512,137.23244934540708L250.2106661235448,137.08156328691985L249.9555244788935,137.09053676461917L249.8496235566854,136.77637653972488L250.5600832972268,136.74325825841515L250.65261687585735,138.2355741095089Z"/><path fill="#59260b" stroke="white" stroke-width="0.2" d="M251.22351613995852,138.19383201832534L250.65262799224,138.2357828860986L250.65261687585735,138.2355741095089L250.5600832972268,136.74325825841515L251.1328827024554,136.71655655108043L251.2235050239833,138.193623241561Z"/><path fill="#59260b" stroke="white" stroke-width="0.2" d="M249.73283267361694,136.90167454333277L249.30693192142644,137.15185460093198L249.24394003057387,137.2128892063629L248.73484374320833,137.50653085380327L248.59621103911195,137.25595221706317L248.59616576737608,137.25585347850574L249.63491503850673,136.65976344744558Z"/><path fill="#59260b" stroke="white" stroke-width="0.2" d="M249.73283267361694,136.90167454333277L249.30693192142644,137.15185460093198L249.24394003057387,137.2128892063629L248.73484374320833,137.50653085380327L248.59621103911195,137.25595221706317L248.59616576737608,137.25585347850574L249.63491503850673,136.65976344744558Z"/><path fill="#59260b" stroke="white" stroke-width="0.2" d="M249.73283267361694,136.90167454333277L249.30693192142644,137.15185460093198L249.24394003057387,137.2128892063629L248.73484374320833,137.50653085380327L248.59621103911195,137.25595221706317L248.59616576737608,137.25585347850574L249.63491503850673,136.65976344744558Z"/><path fill="#59260b" stroke="white" stroke-width="0.2" d="M249.63491503850673,136.65976344744558L248.59616576737608,137.25585347850574L248.45748374116374,137.00518732739147L248.45743846936966,137.00508858863031L249.52688978190417,136.39286889706273Z"/><path fill="#59260b" stroke="white" stroke-width="0.2" d="M249.63491503850673,136.65976344744558L248.59616576737608,137.25585347850574L248.45748374116374,137.00518732739147L248.45743846936966,137.00508858863031L249.52688978190417,136.39286889706273Z"/><path fill="#59260b" stroke="white" stroke-width="0.2" d="M249.63491503850673,136.65976344744558L248.59616576737608,137.25585347850574L248.45748374116374,137.00518732739147L248.45743846936966,137.00508858863031L249.52688978190417,136.39286889706273Z"/><path fill="#59260b" stroke="white" stroke-width="0.2" d="M249.63491503850673,136.65976344744558L248.59616576737608,137.25585347850574L248.45748374116374,137.00518732739147L248.45743846936966,137.00508858863031L249.52688978190417,136.39286889706273Z"/><path fill="#59260b" stroke="white" stroke-width="0.2" d="M249.52688978190417,136.39286889706273L248.45743846936966,137.00508858863031L248.31853729559225,136.7540158953634L248.31849202371086,136.75391715671867L249.41838156722952,136.1247817352414Z"/><path fill="#59260b" stroke="white" stroke-width="0.2" d="M247.99627386845532,132.1513437112444L247.99627753082314,132.15145379351452L248.10275408395682,133.37206528134993L247.78645279622287,133.4156600201677L247.60094379406655,132.80161056449288L247.49328806548147,132.83308179082815L247.49200961837778,132.82282796534128L247.48981963284314,132.8127249777608L247.48674070008565,132.8028639514232L247.48279543180251,132.79331703163916L247.47801778058056,132.78416017096606L247.47244169889018,132.775469322165L247.46611248829868,132.76731665513944L247.4590830260131,132.75976296022418L247.45140997084673,132.75286903150845L247.44315376333543,132.74669566817465L247.43437864622683,132.74128469373682L247.42515642129,132.7366817361617L247.41556267612032,132.7329286316235L247.40567301900592,132.73004823725205L247.39556683559204,132.72806721026427L247.38532352386392,132.72700082007213L247.37502626769128,132.72686054513906L247.3647809571703,132.7276427045872L247.27922029103502,132.46622424400994L247.2261625623796,132.2749379776942L247.1716330591007,132.09124158869963L247.14157246684772,131.98997861536918L247.8081006182765,131.75525882130023L247.8082708583388,131.755198274157L247.80830856380635,131.75530080209137L247.99617952478002,132.1511614099145Z"/><path fill="#59260b" stroke="white" stroke-width="0.2" d="M247.0526867491426,131.6905370996683L247.14157246684772,131.98997861536918L247.1716330591007,132.09124158869963L246.33827441709582,132.41791691206163L246.17731778643792,132.00914336161804L246.1772800803592,132.00904083409114L247.04613052131026,131.66845355016994Z"/><path fill="#59260b" stroke="white" stroke-width="0.2" d="M271.8758885076095,130.52449825496296L272.19596131151775,130.48284135232097L272.258836414112,130.9977275710553L271.26432652716176,131.12716796508175L271.17871626335545,130.42611965481774L271.17870504708844,130.42600956259412L271.85314444298274,130.33822927693836Z"/><path fill="#59260b" stroke="white" stroke-width="0.2" d="M266.5742351944209,130.01866225065896L267.21372667263495,136.80041242786683L265.7196025115845,136.95638766081538L265.7195838523621,136.95617128247977L265.5910119256878,135.5848443620489L265.55488565244013,135.58540229056962L263.83767670192174,135.7667785427766L263.0648141001002,135.8484099888301L263.1934136277705,137.21990142474533L263.1934322890593,137.220117802819L260.14419088102295,137.53850786131807L254.7096763861191,137.9376917546033L254.70965389866615,137.93750953488052L254.1136561886815,131.496627166518L254.1136525288166,131.49651708384044L259.2541156329098,130.9463906416495L266.57395919787814,130.01860499288887L266.57422775792656,130.01855216291733Z"/><path fill="#59260b" stroke="white" stroke-width="0.2" d="M250.30849304571166,137.523656983627L250.39720467414008,138.2543435751868L250.3972309170058,138.2545523683948L250.1396555249521,138.27347911670222L250.13962550030556,138.27327031921595L250.04363509712857,137.6071107822936L249.93128521653125,137.35342517256504L250.13973151394748,137.26147883050726Z"/><path fill="#59260b" stroke="white" stroke-width="0.2" d="M249.93128521653125,137.35342517256504L250.04363509712857,137.6071107822936L249.90428171670646,137.616272334737L249.85343288088916,137.78439738464658L249.2891724842193,137.88605000515236L249.07213046975085,138.04148976015858L248.88080906157847,137.75325711086043L249.38783900777344,137.46080559684196L249.43784766891622,137.4111592026602L249.84559391700896,137.15993100218475Z"/><path fill="#59260b" stroke="white" stroke-width="0.2" d="M263.9663769249746,137.1394209797436L263.1934322890593,137.220117802819L263.1934136277705,137.21990142474533L263.0648141001002,135.8484099888301L263.83767670192174,135.7667785427766L263.9663582642097,137.13920460172812Z"/><path fill="#59260b" stroke="white" stroke-width="0.2" d="M265.7196025115845,136.95638766081538L263.9663769249746,137.1394209797436L263.9663582642097,137.13920460172812L263.83767670192174,135.7667785427766L265.55488565244013,135.58540229056962L265.5910119256878,135.5848443620489L265.7195838523621,136.95617128247977Z"/><path fill="#59260b" stroke="white" stroke-width="0.2" d="M249.41838156722952,136.1247817352414L248.31849202371086,136.75391715671867L247.65367785733542,135.55221767633338L247.65363637069822,135.55211514572147L249.14839312821277,135.12854480810347L249.14841191645246,135.1286549057986L249.401726856624,136.08362896955805Z"/><path fill="#59260b" stroke="white" stroke-width="0.2" d="M249.8496235566854,136.77637653972488L249.9555244788935,137.09053676461917L250.2106661235448,137.08156328691985L250.20553996460512,137.23244934540708L250.13973151394748,137.26147883050726L249.93128521653125,137.35342517256504L249.84559391700896,137.15993100218475L249.73283267361694,136.90167454333277L249.63491503850673,136.65976344744558L249.52688978190417,136.39286889706273L249.41838156722952,136.1247817352414L249.401726856624,136.08362896955805L249.14841191645246,135.1286549057986L249.14839312821277,135.12854480810347L249.42570453925873,135.0499616054003L249.4257233274111,135.05007170300814Z"/><path fill="#59260b" stroke="white" stroke-width="0.2" d="M253.84526306652697,134.8511049693043L254.13479351132992,137.97992687448277L251.22351613995852,138.19383201832534L251.2235050239833,138.193623241561L251.1328827024554,136.71655655108043L250.5600832972268,136.74325825841515L249.8496235566854,136.77637653972488L249.4257233274111,135.05007170300814L249.42570453925873,135.0499616054003L253.8449833157356,134.85102494677994L253.84525562493945,134.85099488386186Z"/><path fill="#59260b" stroke="white" stroke-width="0.2" d="M274.6886605779582,135.9957872692903L271.8092940186616,136.28919314418454L271.809267769946,136.2890033259464L271.6587735284993,134.7373113669746L271.65876609415864,134.737201280921L272.8805156748858,134.5913165093807L274.533314443368,134.39397072256543L274.6886381441727,135.99557088501751Z"/><path fill="#59260b" stroke="white" stroke-width="0.2" d="M252.12376069967286,134.46524056009366L251.412978363398,134.49724246872938L251.41295967585756,134.49704127243604L251.3078986913024,133.44805764136254L251.99811700664577,133.41466229828075L252.1237382310792,134.46503935969668Z"/><path fill="#59260b" stroke="white" stroke-width="0.2" d="M248.41953930060845,134.63202416224522L247.23114323997288,134.68554219041835L247.2310640148644,134.6853674989543L246.78548756043892,133.5537232698698L246.7854536405066,133.55361695107422L247.78645279622287,133.4156600201677L248.10275408395682,133.37206528134993L248.29284731045482,133.3458694786823L248.41952061079792,134.6318229661556Z"/><path fill="#59260b" stroke="white" stroke-width="0.2" d="M249.2363588262233,134.59524163932656L248.41953930060845,134.63202416224522L248.41952061079792,134.6318229661556L248.29284731045482,133.3458694786823L248.5823367506382,133.30597345417482L249.10921443684492,133.25224781877478L249.23634013708215,134.59504044326604Z"/><path fill="#59260b" stroke="white" stroke-width="0.2" d="M250.74059661384672,134.52751214447198L249.2363588262233,134.59524163932656L249.23634013708215,134.59504044326604L249.10921443684492,133.25224781877478L249.60910358992987,133.20127588926698L250.4521426750871,133.11531327324337L250.60590976267122,133.09963517915457L250.74057792581152,134.52731094826595Z"/><path fill="#59260b" stroke="white" stroke-width="0.2" d="M251.3078986913024,133.44805764136254L251.41295967585756,134.49704127243604L251.412978363398,134.49724246872938L250.74059661384672,134.52751214447198L250.74057792581152,134.52731094826595L250.60590976267122,133.09963517915457L251.0813673787634,133.05115565750748L251.2662571016117,133.03230483204243Z"/><path fill="#59260b" stroke="white" stroke-width="0.2" d="M248.29284731045482,133.3458694786823L248.10275408395682,133.37206528134993L247.99627753082314,132.15145379351452L247.99627386845532,132.1513437112444L248.49900417457684,132.09752196798217L248.4990040550474,132.09763204600313L248.5823367506382,133.30597345417482Z"/><path fill="#59260b" stroke="white" stroke-width="0.2" d="M247.2261625623796,132.2749379776942L247.27922029103502,132.46622424400994L247.3647809571703,132.7276427045872L247.37502626769128,132.72686054513906L247.38532352386392,132.72700082007213L247.39556683559204,132.72806721026427L247.40567301900592,132.73004823725205L247.41556267612032,132.7329286316235L247.42515642129,132.7366817361617L247.43437864622683,132.74128469373682L247.44315376333543,132.74669566817465L247.45140997084673,132.75286903150845L247.4590830260131,132.75976296022418L247.46611248829868,132.76731665513944L247.47244169889018,132.775469322165L247.47801778058056,132.78416017096606L247.48279543180251,132.79331703163916L247.48674070008565,132.8028639514232L247.48981963284314,132.8127249777608L247.49200961837778,132.82282796534128L247.49328806548147,132.83308179082815L247.60094379406655,132.80161056449288L247.78645279622287,133.4156600201677L246.7854536405066,133.55361695107422L246.33831212308723,132.41801943958853L246.33827441709582,132.41791691206163L247.1716330591007,132.09124158869963Z"/><path fill="#59260b" stroke="white" stroke-width="0.2" d="M249.10921443684492,133.25224781877478L248.5823367506382,133.30597345417482L248.4990040550474,132.09763204600313L248.49900417457684,132.09752196798217L248.99487017898355,132.0444414075755L248.9948738409439,132.0445514898165Z"/><path fill="#59260b" stroke="white" stroke-width="0.2" d="M249.60910358992987,133.20127588926698L249.10921443684492,133.25224781877478L248.9948738409439,132.0445514898165L248.99487017898355,132.0444414075755L249.49638304443215,131.99075302755227L249.49638670615968,131.99086310982239Z"/><path fill="#59260b" stroke="white" stroke-width="0.2" d="M250.4521426750871,133.11531327324337L249.60910358992987,133.20127588926698L249.49638670615968,131.99086310982239L249.49638304443215,131.99075302755227L250.325841473561,131.90196204261156L250.3258451349975,131.90207212499809Z"/><path fill="#59260b" stroke="white" stroke-width="0.2" d="M250.60590976267122,133.09963517915457L250.4521426750871,133.11531327324337L250.3258451349975,131.90207212499809L250.325841473561,131.90196204261156L250.97929301322438,131.83201159449527L250.97929667439894,131.8321216768236L251.0813673787634,133.05115565750748Z"/><path fill="#59260b" stroke="white" stroke-width="0.2" d="M268.73961797822267,129.72422903531697L268.7816828711366,130.06863228580914L269.0104695362679,130.0402337348496L269.12741363365785,130.99781764979707L268.8378968340985,131.03375180307194L268.97084849051316,132.06003972070175L270.7700741708395,131.8367327506421L270.77033514447976,131.83669889546582L270.7703463608632,131.83680898699095L270.90133403177606,132.90941635271884L270.90107305921265,132.90945020774961L267.4675254788017,133.35273054349818L267.1440525392536,129.9222725040454L267.1440451029048,129.92216241627466L268.7396067609079,129.72411894303514Z"/><path fill="#59260b" stroke="white" stroke-width="0.2" d="M270.48589259086293,129.5074914933066L270.77033514447976,131.83669889546582L270.7700741708395,131.8367327506421L268.97084849051316,132.06003972070175L268.8378968340985,131.03375180307194L269.12741363365785,130.99781764979707L269.0104695362679,130.0402337348496L268.7816828711366,130.06863228580914L268.73961797822267,129.72422903531697L268.7396067609079,129.72411894303514L270.4856165945821,129.50743423131644L270.4858813742758,129.50738140082103Z"/><path fill="#59260b" stroke="white" stroke-width="0.2" d="M276.95878228149377,130.38607395099825L276.9584910479025,130.3861115599575L275.169275911001,130.6189519216714L274.97674550439115,128.92650933834375L274.97674185296637,128.92639925453113L276.99035192420706,128.66437326205778L276.99064696390997,128.66431667818688L276.9906430511328,128.66442675309372Z"/><path fill="#59260b" stroke="white" stroke-width="0.2" d="M247.8082708583388,131.755198274157L247.8081006182765,131.75525882130023L247.14157246684772,131.98997861536918L247.0526867491426,131.6905370996683L247.66870738760917,131.47360205257428L247.6706897302065,131.4729057852819L247.6708448396239,131.4728490173875L247.67088632687228,131.4729515494255L247.68490680793184,131.49916931524058L247.69858284774818,131.52567138941959L247.71186916090664,131.55237041856162L247.72476199886296,131.57923603229574L247.7247959227825,131.57933855615556Z"/><path fill="#59260b" stroke="white" stroke-width="0.2" d="M249.84559391700896,137.15993100218475L249.43784766891622,137.4111592026602L249.38783900777344,137.46080559684196L248.88080906157847,137.75325711086043L248.85236147753312,137.71042159371427L248.8239214559726,137.66757848957786L248.7348890148569,137.50662959215697L248.73484374320833,137.50653085380327L249.24394003057387,137.2128892063629L249.30693192142644,137.15185460093198L249.73283267361694,136.90167454333277Z"/><path fill="#59260b" stroke="white" stroke-width="0.2" d="M271.2390824664035,136.38023727881955L267.7869743282499,136.740571984672L267.7869518583175,136.74038217158522L267.4675329149468,133.35284062978462L267.4675254788017,133.35273054349818L270.90107305921265,132.90945020774961L270.90133403177606,132.90941635271884L270.9013452481013,132.9095264438074L270.9040197141876,132.9314616653428L270.9064823818917,132.9534194106527Z"/><path fill="#59260b" stroke="white" stroke-width="0.2" d="M276.9587783687748,130.3861840252066L276.8590450116608,135.7746442667558L274.6886605779582,135.9957872692903L274.6886381441727,135.99557088501751L274.533314443368,134.39397072256543L272.8805156748858,134.5913165093807L271.65876609415864,134.737201280921L271.6021429487155,134.15344395500142L271.6021355143748,134.1533338689187L271.4847521779884,132.9431307745108L271.48474474356044,132.9430206877296L271.482177665981,132.91661035173456L271.4793534234632,132.89021109734313L271.26433774339966,131.12727805692703L271.26432652716176,131.12716796508175L272.258836414112,130.9977275710553L273.7402547780657,130.80492797057377L274.19753996806685,130.74541390949162L274.6834078290558,130.68218058589264L275.169275911001,130.6189519216714L276.9584910479025,130.3861115599575L276.95878228149377,130.38607395099825Z"/><path fill="#59260b" stroke="white" stroke-width="0.2" d="M247.6708448396239,131.4728490173875L247.6706897302065,131.4729057852819L247.66870738760917,131.47360205257428L247.0526867491426,131.6905370996683L247.04613052131026,131.66845355016994L246.1772800803592,132.00904083409114L245.70767495475593,130.816415556852L245.7065926292562,130.813613069884L245.7011900912039,130.79818100770353L245.69666520459577,130.7824652090494L245.69303682478494,130.76651503980975L245.69031245808583,130.75038364957436L245.68849961084197,130.73412418770022L245.68760578951333,130.71778980398085L245.6876271594083,130.70142983965343L245.68857879040297,130.6850974528934L245.69044549876708,130.66884576846496L245.69322723153164,130.65272413211642L245.6969088051992,130.63678566896124L245.70148638106184,130.62108351648203L245.7069372162223,130.60566699586343L245.71324991274741,130.59058544042637L245.72040173583082,130.575880579534L245.72836993445526,130.56160932645435L245.73713177375612,130.54781341025955L245.7466531698301,130.5345383445383L245.75690761426813,130.52181826287415L245.7678648007859,130.50970247818623L245.7794830861094,130.49823269975604L245.791728406708,130.48743546166224L245.80457424602355,130.47735248933895L245.81795628296095,130.46801407969906L245.83184423134662,130.45945056685014L245.84619267852395,130.45169226828148L245.86095622804714,130.44475431815954L245.87608568140422,130.43867082585348L245.89153564616572,130.43345312957535L245.90725315839518,130.42912015132606L245.92318903590785,130.42569081683178L245.93929411686258,130.423165072978L245.9555154372065,130.42156184150372L245.97180005768314,130.42087726926547L245.98809502235963,130.42112268623896L245.99040929728653,130.42122388698044L246.03346864439663,130.42360501055373L246.07646649098024,130.4269084597472L246.11938393244054,130.43113041800098L246.16220205192803,130.4362784565892L246.20490195276216,130.44234116727603L246.24742669294938,130.44951966687222L246.28986011870438,130.45721051027067L246.33208436027053,130.46600571778254L246.37411097466247,130.4757079189876L246.4159096631629,130.48635883489624L246.45749571587658,130.49780664907303L246.49881603344693,130.51019554471713L246.53986311765038,130.52346478024265L246.5805497811525,130.53780784780974L246.6210619636695,130.55263280068175L246.6611759244115,130.56851636065403L246.70094482335844,130.58525740655023L246.74003981496207,130.60270754341036L246.74034976001712,130.6028483257105L246.7790581114241,130.6211369234661L246.7793680523173,130.62128150177887L246.81767843459966,130.64039336433052L246.81798080392764,130.64054552602465L246.8558743126341,130.66047683704528L246.85617667375482,130.66063659032807L246.8936381941603,130.68137594527798L246.8939367653802,130.6815432861622L246.93094361553085,130.70308306833613L246.93124217851437,130.70325800092542L246.967783025495,130.72558681020746L246.96807780265226,130.72576553447288L247.00410723348614,130.74891368771205L247.00439822071348,130.7490999995207L247.03998066700296,130.772934712586L247.04026786840404,130.77312481607078L247.075312451052,130.79775606861222L247.07559208097518,130.7979537555657L247.11009885329986,130.82333220139844L247.11037468907307,130.8235412716167L247.1443360998528,130.84965551475761L247.14460437229718,130.84986457691411L247.1780015253462,130.87670320880716L247.17826978955418,130.876919862465L247.21108757460024,130.90446768313996L247.21134827134665,130.9046881244285L247.2435715738975,130.93293372937478L247.24382848481764,130.93315796242678L247.27569909728481,130.96231797611108L247.30693742696894,130.99216054889257L247.33753215352772,131.02266289296676L247.3673243035155,131.05395768838935L247.39673789890367,131.08560508184019L247.42532247904455,131.11801453042426L247.4532105703256,131.15103054966312L247.48038706262014,131.18463793917908L247.50684440913028,131.2188215071801L247.53256372216856,131.25356225369615L247.5575412325852,131.28884878646932L247.58175805275096,131.3246621057333L247.60521796860849,131.36099841925898L247.6278832088865,131.397815931472L247.649761333043,131.43511844598106Z"/></g></svg>