<svg xmlns="http://www.w3.org/2000/svg" viewBox="142.92 33.879 314.159 160.218"><path d="m247.996 132.151.107 1.221-.317.044-.185-.614-.108.031-.001-.01-.002-.01-.003-.01-.004-.01-.005-.009-.006-.009-.006-.008-.007-.007-.008-.007-.008-.006-.009-.006-.009-.004-.01-.004-.01-.003-.01-.002-.01-.001h-.02l-.086-.26-.053-.192-.054-.184-.03-.101.666-.235.188.396Z"/><path d="m247.053 131.69.089.3.03.101-.834.327-.16-.409.868-.34ZM263.966 137.14l-.773.08-.128-1.372.773-.081.128 1.372ZM265.72 136.956l-1.754.183-.128-1.372 1.717-.182h.036l.129 1.371ZM248.42 134.632l-1.189.054-.446-1.132 1.001-.138.317-.044.19-.026.127 1.286Z"/><path d="m247.226 132.275.053.191.086.262.01-.001h.01l.01.001.01.002.01.003.01.004.01.004.008.006.008.006.008.007.007.007.006.008.006.01.005.008.004.01.003.01.002.01.001.01.108-.031.185.614-1 .138-.448-1.136.834-.327ZM247.808 131.755l-.666.235-.09-.3.617-.216.002-.001.014.026.014.027.013.026.013.027Z"/><path d="M247.67 131.473h-.001l-.616.218-.007-.023-.869.341-.47-1.193v-.002l-.006-.016-.004-.016-.004-.015-.003-.017-.002-.016v-.049l.002-.016.003-.016.004-.016.004-.016.006-.015.006-.015.007-.015.008-.014.01-.014.009-.013.01-.013.01-.012.012-.012.013-.01.013-.01.013-.01.014-.009.014-.007.015-.007.015-.006.016-.006.015-.004.016-.003.016-.003.017-.001.016-.001H245.99l.043.003.043.003.043.004.043.005.043.006.042.008.043.007.042.009.042.01.042.01.041.012.042.012.04.013.042.015.04.015.04.016.04.016.039.018.04.018.038.02.038.02.038.02.037.022.037.023.036.023.036.024.035.025.035.025.034.027.034.027.033.027.033.029.032.03.03.03.032.03.03.031.029.032.028.032.028.033.027.034.027.034.026.035.025.035.024.036.023.036.023.037.022.037Z"/></svg>