<svg xmlns="http://www.w3.org/2000/svg" viewBox="142.92 33.879 314.159 160.218"><path d="m259.257 122.124-.147-3.376 1.61-.157.029 3.337-1.521.236ZM291.049 62.109l.507 8.06-5.301.428-3.38.267-.746.146.213-.666.264-.82v-.213l.001-.702.001-.694.001-.695v-.674l.002-.672.391.01.166-.516.168-.52.165-.51.163-.506.76.258.438.149 1.397.474.096-.518.09-.49.149-.8.108-.588.097-.52.221-1.194 4.029 1.505ZM273.967 120.674l-3.91.44-.292-3.14 2.708-.258ZM267.278 62.816l.671.256-.197.527-1.116-.414.199-.538ZM265.555 62.784l.54.2-.205.559-.395 1.071-.54-.202.394-1.07-.54-.2.205-.559ZM265.275 58.573l.043.016-.513 1.396-.47-.174.513-1.399ZM269.236 59.578l-.16.428-.528-.2.158-.43.36-.978.534.2-.364.98ZM263.107 58.58l-.254.684-.687-.254.176-.713Z"/><path d="m264.76 58.379.088.033-.514 1.399-.49-.181.515-1.402ZM268.706 59.377l-.158.43-.464-.175-.086-.033.159-.432.358-.974.551.205ZM271.76 49.52l-.01.005-.577-.07-.288-.035-.183-1.058.187-.035.644-.12Z"/><path d="m272.308 49.26-.549.26-.226-1.313.582-.109.139.833Z"/><path d="m272.818 48.834-.564.097-.139-.833.567-.106ZM273.603 47.82l-.413 1.126-.372-.112-.136-.842.92-.172ZM266.796 54.586l-.4 1.09-.554-.206.4-1.09.554.206ZM271.128 54.475l-.402 1.085-.526-.196.402-1.085.525.196Z"/><path d="m266.242 54.38-.4 1.09-.541-.202.401-1.09.54.202ZM268.418 55.192l-.401 1.088-.538-.2.4-1.089.539.201ZM271.004 53.194l-.402 1.085-.527-.197.399-1.086.53.198ZM266.815 52.865l.54.201-.4 1.086-.577-.216.39-1.089ZM270.474 52.996l-.4 1.086-.538-.201.401-1.085.537.2ZM272.172 51.655l-.482 1.302-1.057-.395.48-1.303 1.059.396ZM266.14 51.378l-.395 1.087-.429-.16-.475-.178.537-1.034ZM270.633 52.562l-.548-.205.487-1.3.54.202ZM264.76 55.067l-.399 1.086-.536-.2.399-1.086Z"/><path d="m267.88 54.991-.4 1.088-.543-.202.396-1.09.546.204Z"/><path d="m267.333 54.787-.396 1.09-.542-.201.4-1.09.538.201ZM262.96 59.996l-.408 1.111-.492-.156.287-1.181.612.226Z"/><path d="m262.347 59.77-.287 1.181-.345-.108.295-1.198ZM268.548 59.807l.528.199-.2.538-.991-.378.199-.534ZM270.602 54.279l-.402 1.085-.525-.196.4-1.086ZM265.702 54.178l-.401 1.09-.54-.2.4-1.092.541.202ZM270.075 54.082l-.4 1.086-.54-.202.4-1.085ZM262.006 64.426l-.161.435-1.01-.38.097-.452Z"/><path d="m262.589 64.144-.322.873-.422-.156.16-.435.163-.44.42.158ZM266.128 67.937l-.41 1.095-1.082-.406.392-1.095 1.1.406Z"/><path d="m266.128 67.937-.41 1.095-1.082-.406.392-1.095 1.1.406Z"/><path d="m266.128 67.937-.41 1.095-1.082-.406.392-1.095 1.1.406ZM262.168 63.986l-.162.44-1.074-.397.1-.469ZM266.43 63.743l-.395 1.074-.54-.202.395-1.072ZM267.752 63.6l-.209.556-1.112-.413.11-.297.095-.26 1.116.413ZM266.636 63.185l-.096.26-.032-.012.096-.26ZM265.35 63.342l-.395 1.07-.54-.202.394-1.069Z"/><path d="m266.604 63.173-.096.26.032.013-.11.297-.54-.2.206-.558ZM266.331 67.395l-.203.542-1.1-.406.198-.552 1.105.416Z"/><path d="m264.686 66.776.54.203-.198.552-.392 1.095-.648-.243.603-1.642ZM264.155 66.577l.436.164-.603 1.642-.514-.192.604-1.643Z"/><path d="m264.078 66.548-.604 1.643-.459-.172.54-1.476.062-.169Z"/><path d="m263.555 66.543-.54 1.476-.54-.202.541-1.473ZM266.026 66.536l.548.21-.243.649-1.105-.416.236-.658ZM261.097 66.487l-.26.716-.918-.344.28-.697Z"/><path d="m261.097 66.487-.26.716-.918-.344.28-.697Z"/><path d="m261.097 66.487-.26.716-.918-.344.28-.697Z"/><path d="m261.097 66.487-.26.716-.918-.344.28-.697Z"/><path d="m261.097 66.487-.26.716-.918-.344.28-.697Z"/><path d="m261.097 66.487-.26.716-.918-.344.28-.697Z"/><path d="m261.097 66.487-.26.716-.918-.344.28-.697Z"/><path d="m261.097 66.487-.26.716-.918-.344.28-.697ZM261.869 66.096l-.484 1.312-.548-.205.26-.716.155-.426.062-.17Z"/><path d="m261.252 66.061-.155.426-.898-.325.17-.425ZM266.938 65.773l-.364.972-.548-.209.35-.974.562.21Z"/><path d="m266.375 65.562-.349.974-.564-.215.348-.97v-.001l.565.212ZM261.964 65.84l-.095.256-.555-.205-.062.17-.882-.324.17-.424Z"/><path d="m262.725 65.428 1.084.4-.192.546-.062.17-.539-.2-.54 1.472-1.09-.408.483-1.312.095-.257.156-.423.068-.186Z"/><path d="m262.725 65.428 1.084.4-.192.546-.062.17-.539-.2-.54 1.472-1.09-.408.483-1.312.095-.257.156-.423.068-.186Z"/><path d="m262.725 65.428 1.084.4-.192.546-.062.17-.539-.2-.54 1.472-1.09-.408.483-1.312.095-.257.156-.423.068-.186Z"/><path d="m262.725 65.428 1.084.4-.192.546-.062.17-.539-.2-.54 1.472-1.09-.408.483-1.312.095-.257.156-.423.068-.186Z"/><path d="m262.725 65.428 1.084.4-.192.546-.062.17-.539-.2-.54 1.472-1.09-.408.483-1.312.095-.257.156-.423.068-.186Z"/><path d="m262.725 65.428 1.084.4-.192.546-.062.17-.539-.2-.54 1.472-1.09-.408.483-1.312.095-.257.156-.423.068-.186Z"/><path d="m262.725 65.428 1.084.4-.192.546-.062.17-.539-.2-.54 1.472-1.09-.408.483-1.312.095-.257.156-.423.068-.186Z"/><path d="m262.725 65.428 1.084.4-.192.546-.062.17-.539-.2-.54 1.472-1.09-.408.483-1.312.095-.257.156-.423.068-.186ZM265.462 66.321l-.236.658-.54-.203.584-1.628.54.202Z"/><path d="m265.27 65.148-.584 1.628-.095-.035-.436-.164.591-1.625.524.196ZM262.12 65.416l-.156.423-1.424-.526.168-.418ZM262.659 62.297l-.41 1.102-.527-.198.342-.934Z"/><path d="m262.064 62.267-.342.934-.537-.201.189-.768ZM266.276 52.663l-.39 1.09-.486-.182.39-1.09ZM269.378 52.587l-.4 1.085-.54-.201.4-1.086.54.202ZM262.821 61.86l-.162.437-.595-.03-.69-.035.19-.77ZM266.835 62.647l-.199.538-.032-.012-.508-.188.593-1.61v-.001l.54.2Z"/><path d="m266.689 61.374-.593 1.61-.541-.2.593-1.61.54.2Z"/><path d="m266.148 61.174-.593 1.61-.54-.2.06-.165.143-.388.389-1.057.54.2ZM262.06 60.951l.492.156.49.155-.214.579-.007.019-1.258-.398.152-.62Z"/><path d="m265.607 60.974-.39 1.057-.467-.173.381-1.06.476.176Z"/><path d="m265.131 60.799-.38 1.059-.488-.18.381-1.06.487.18ZM267.458 59.396l-.508 1.381-.56-.207.51-1.385ZM266.9 59.185l-.51 1.385-.54-.2.51-1.388Z"/><path d="m266.36 58.982-.51 1.388-.542-.2.512-1.392Z"/><path d="m265.82 58.778-.512 1.393-.503-.186.513-1.396ZM264.22 58.175l.14.053-.516 1.402-.49-.181.516-1.406ZM268.157 59.167l-.16.432-.539-.203.159-.432.357-.972.54.201ZM263.25 58.193l-.143.387-.765-.283.098-.4Z"/><path d="m263.707 57.982.163.061-.516 1.405-.5-.184.253-.684.143-.387.125-.336ZM267.617 58.964l-.159.432-.558-.21.158-.432.357-.97.56.208Z"/><path d="m267.058 58.754-.158.431-.54-.203.158-.431.357-.969.54.202ZM263.15 57.772l.225.085-.125.336-.81-.296.088-.36Z"/><path d="m266.518 58.55-.158.432-.54-.204.159-.43.355-.967.54.201Z"/><path d="m265.979 58.348-.159.43-.502-.189-.043-.016.158-.43.355-.965.546.203ZM263.307 57.343l-.158.429-.62-.234.106-.433Z"/><path d="m265.433 58.143-.158.43-.427-.16-.088-.034.158-.43.354-.963.516.192ZM270.162 57.078l-.299.812-.102.273-.525-.195.401-1.085.525.195Z"/><path d="m264.918 57.949-.158.43-.4-.151-.14-.053.158-.43.353-.96.54.2ZM265.745 52.465l.045.017-.39 1.089-.474-.177.39-1.089ZM267.754 51.98l-.4 1.086-.54-.201.4-1.086.54.202Z"/><path d="m267.214 51.779-.4 1.086-.045-.018-.493-.184.39-1.089.548.205Z"/><path d="m266.666 51.574-.39 1.09-.486-.182-.045-.017.394-1.087.527.196ZM269.637 56.883l-.401 1.085-.526-.196.403-1.084ZM263.865 57.553l-.158.429-.332-.125-.226-.085.158-.43.352-.957.559.208ZM268.572 56.486l-.402 1.085-.553-.206.4-1.085Z"/><path d="m263.659 56.385-.352.958-.672-.238.248-1.009ZM268.017 56.28l-.4 1.085-.537-.2.4-1.086Z"/><path d="m267.48 56.08-.4 1.085-.538-.2.395-1.088ZM270.565 55.994l-.403 1.084-.525-.195.402-1.085.526.196Z"/><path d="m266.937 55.877-.395 1.088-.546-.203.4-1.086ZM270.04 55.798l-.403 1.085-.524-.195.403-1.086.523.196ZM266.395 55.676l-.399 1.085-.554-.206.4-1.085ZM269.516 55.602l-.403 1.086-.541-.202.402-1.086.542.202Z"/><path d="m265.842 55.47-.4 1.085-.54-.2v-.001l.399-1.086ZM268.974 55.4l-.402 1.086-.555-.206.4-1.088.557.208ZM265.301 55.268l-.4 1.086-.54-.201.4-1.086ZM265.162 53.976l-.401 1.091-.537-.2.401-1.091.537.2ZM269.536 53.88l-.402 1.086-.556-.208.4-1.086Z"/><path d="m264.625 53.776-.401 1.091-.4 1.086-.812-.302 1.077-2.075ZM268.978 53.672l-.4 1.086-.539-.201.4-1.086ZM267.773 50.259l-.4 1.085-.527-.196.288-.782.094-.064.206.077.084-.215ZM272.594 50.57l-.202.55-1.08-.404.205-.557 1.076.41Z"/><path d="m267.914 51.546-.54-.202.399-1.085.08-.217.54.201ZM267.852 50.042l-.08.217-.254-.095.085-.215.25.093ZM266.58 50.06l-.32.869-.667-.25.43-.827Z"/><path d="m267.518 50.164-.084.215-.206-.077-.094.064-.288.782-.585-.22.319-.868.569.213.16-.434.294.11ZM272.793 50.026l-.2.543-1.076-.41.2-.543 1.076.41Z"/><path d="m271.75 49.525-.033.091-.2.543-.205.557-.536-.2.397-1.06ZM267.308 49.838l-.16.435-.568-.213-.558-.208.215-.414ZM270.885 49.42l.288.035-.397 1.06-.534-.198.343-.933ZM270.585 49.384l-.343.933-.555-.208.29-.798ZM272.984 49.506l-.19.52h-.001l-1.076-.41.033-.091.01-.004.548-.261.676.246ZM268.062 49.502l-.861-.321.066-.185.872-.162.043.332ZM273.19 48.946l-.206.56-.676-.246-.054-.33.564-.096.372.111ZM269.143 49.906l-.54-.202.172-.467-.069-.508.567-.104.107.637Z"/><path d="m269.687 50.109-.544-.203.237-.644-.107-.637.567-.105.137.79Z"/><path d="m270.702 48.362.183 1.058-.3-.036-.608-.073-.137-.79.862-.16ZM261.845 64.861l.422.156-.079.213-.068.186-1.412-.522.083-.206.045-.207ZM264.191 64.744l-.382 1.085-1.084-.4.41-1.08v-.001l1.057.396Z"/><path d="m263.135 64.348-.41 1.08-.537-.198.079-.213.322-.873.546.204ZM267.543 64.156l-.402 1.075-1.106-.414.396-1.074 1.112.413ZM263.814 62.355l.075.004-.55 1.448-.537-.201.469-1.278ZM263.27 62.328l-.468 1.278-.552-.207.409-1.102ZM269.538 52.153l-.54-.202.478-1.303.54.202ZM268.35 62l-.4 1.072h-.001l-.67-.256.4-1.072.671.256ZM267.678 61.744l-.4 1.072-.443-.169.395-1.073.448.17ZM266.769 52.847l-.39 1.09-.493-.184.39-1.09ZM269.937 52.796l-.401 1.085-.558-.209.4-1.085.56.209ZM263.6 61.431l-.225.612-.547-.202.215-.579.403-1.086.541.2ZM268.877 60.544l-.313.842-.992-.378.313-.842.991.378Z"/><path d="m263.446 60.176-.403 1.086-.491-.155.407-1.11v-.001l.487.18ZM268.838 52.385l-.4 1.086-.551-.206.395-1.087.556.207ZM265.316 52.305l-.39 1.089-.622-.232.537-1.034Z"/><path d="m268.282 52.178-.395 1.087-.532-.199.399-1.085.528.197Z"/><path d="m268.282 52.178-.395 1.087-.532-.199.399-1.085.528.197ZM264.378 57.746l-.158.43-.35-.133-.163-.061.158-.43.353-.959.513.191ZM269.113 56.688l-.403 1.084-.54-.201.402-1.085ZM268.438 53.47l-.399 1.087-.548-.205.396-1.087ZM271.53 53.39l-.402 1.085-.526-.196.402-1.085.525.196Z"/><path d="m267.887 53.265-.395 1.087-.536-.2.399-1.086ZM268.997 51.95l-.547-.204.473-1.305.553.207ZM268.45 51.746l-.536-.2.479-1.302.53.197Z"/><path d="m268.45 51.746-.536-.2.479-1.302.53.197ZM264.746 64.952l-.591 1.625-.077-.03-.461-.173.192-.545.382-1.085.555.208ZM270.085 52.357l-.547-.204.479-1.303.555.207ZM267.998 59.6l.086.032-.199.534-.313.842-.026-.01-.027-.01-.569-.21.508-1.382ZM268.603 49.704l-.54-.201.119-.337-.043-.332.059-.011.058-.011.45-.083.069.508ZM264.644 60.619l-.38 1.058-.178-.065-.486-.18.387-1.056.487.18.17.063Z"/><path d="m264.263 61.677.487.18.468.174-.143.388-.06.164-.206.558-.394 1.069-1.075-.403.549-1.448-.075-.004-.543-.027-.612-.031.162-.437.007-.02.547.203.225-.612.486.18ZM256.833 130.624l-.476.05-.126-1.36v-.001l.48-.058.122 1.368ZM258.78 130.415l-1 .107-.151-1.38.963-.118ZM261.596 130.066l-.457.058-.166-1.391.458-.057.165 1.39Z"/><path d="m262.045 130.01-.449.056-.165-1.39.457-.056.157 1.39Z"/><path d="m262.494 129.953-.45.057-.156-1.39.449-.055.157 1.387Z"/><path d="m263.2 128.846-.142.018-.01.002-.01.003-.01.003-.01.005h-.001l-.015.009-.014.009-.014.01-.013.01-.013.012-.012.012-.012.013-.01.013-.01.014-.01.015-.008.015-.008.015-.006.016-.006.016-.005.016-.004.017-.004.017v.02l.1.768-.46.059-.156-1.388.033-.004.034-.004Z"/><path d="m263.676 129.803-.724.092-.1-.769v-.015l.001-.005.004-.017.004-.017.005-.016.006-.016.006-.016.008-.015.009-.015.009-.015.01-.014.01-.013.012-.013.012-.012.013-.011.013-.011.014-.01.014-.01.015-.008h.001l.01-.005.01-.003.01-.003.01-.002.143-.018.346-.044.129 1ZM264.819 129.658l-.47.06-.129-1.001.47-.06.129 1ZM258.562 128.795l-1.43.175-.12-1.333 1.372-.16ZM255.44 130.773l-1.38.147-.122-1.326 1.377-.169.124 1.348Z"/></svg>