<svg xmlns="http://www.w3.org/2000/svg" viewBox="142.92 33.879 314.159 160.218"><path d="m263.34 143.043-.58.005.003.1-.582.005.022 1.056-1.738.014-.035-2.24 1.616-.013-.248-2.341 1.16-.141ZM251.939 111.225l-.51.038-.046-.592-.045-.585.902-.065.078 1.176Z"/><path d="m252.582 111.178-.264.019-.078-1.176.815-.059.079 1.175ZM274.417 149.627l-1.168.116-.29-2.025 1.11-.117.348 2.026ZM312.155 108.213l.62 2.433-1.115.294-.584-2.29-.043-.169 1.061-.272ZM265.04 149.427l-.826.069-.12-.951.859-.075ZM254.976 127.35l-1.228.144-.122-1.321 1.196-.155.154 1.332ZM254.506 124.201l-1.052.103-.058-.627 1.077-.07Z"/><path d="m254.473 123.607-1.077.07-.055-.59 1.099-.077ZM269.107 138.328l-1.159.123-.107-1.134 1.159-.121ZM267.909 144.17l.324 3.446-3.392.38-.231-1.87-.7.093-.18-1.464 4.178-.585ZM259.298 122.104l-.112-1.346-1.113.075-.112-1.308 1.198-.373-.307-2.354 4.678-.411.055 1.42.696-.075.028.374h.39l.278 2.204-.584.075.195 1.27-5.235.449ZM260.146 126.737l-1.258.154-.185-1.374-.03-.23 1.26-.157.028.23.185 1.376Z"/><path d="m261.52 126.568-1.374.169-.185-1.377-.028-.23.81-.1.557-.07.034.229.185 1.379ZM256.725 140.766l-.586.018-.06-.957.566-.002.08.94ZM255.49 139.645l-.658.05-.08-1.296.658-.049ZM259.298 122.104l-.112-1.346-1.113.075-.112-1.308 1.198-.373-.307-2.354 4.678-.411.055 1.42.696-.075.028.374h.39l.278 2.204-.584.075.195 1.27-5.235.449ZM272.732 149.795l-3.828.39-.145-2.025 3.683-.388Z"/><path d="m272.732 149.795-3.828.39-.145-2.025 3.683-.388Z"/></svg>