<svg xmlns="http://www.w3.org/2000/svg" viewBox="142.92 33.879 314.159 160.218"><path d="m272.51 137.688-.558.068-.087-.89v-.001l.56-.057ZM298.078 90.082l-.55.144-.29-1.154.357-.176.158-.078.325 1.264ZM265.131 60.799l-.38 1.059-.488-.18.381-1.06.487.18ZM252.657 112.319l-.643.047-.075-1.141.38-.028.263-.02.075 1.142ZM257.19 122.296l-.587.04-.087-1.047.576-.05.099 1.056ZM247.4 128.126l-.921.092-.121-1.181-.01-.102.936-.087Z"/><path d="m252.014 112.366-1.558.115-.29-1.125 1.263-.093.51-.038.075 1.141ZM270.486 129.507l.284 2.33-1.8.223-.132-1.026.29-.036-.118-.958-.228.029-.042-.345 1.746-.217ZM255.752 129.139l-1.836.224-.125-1.35 1.837-.215.124 1.34ZM274.216 154.029l-.588.037-.084-1 .58-.043ZM255.512 117.114l.043 1.088.013.35-.021.002-.615.045-.507.037-.342.025-.32.023-1.652.121-.432-1.633 1.203-.106.965-.085.574-.05.611-.055.47-.041ZM264.394 126.214l-1.49.184-.197-1.38-.03-.23 1.902-.236.025.23.109.821.075.563-.182.022-.03.004ZM272.77 128.63l-1.78.232-.177-1.34 1.78-.22.177 1.328Z"/><path d="m273.811 128.495-1.04.135h-.001l-.177-1.328 1.042-.128.176 1.32Z"/><path d="m274.954 128.346-1.143.149-.175-1.32 1.144-.142.174 1.313ZM276.968 128.084l-2.014.262-.174-1.313 1.858-.228ZM262.833 115.226l.065 1.192.532-.025.09-.004.075 1.364.68-.051.02.359 1.194-.105.016.176-.768.071.118 1.34.04-.004.077.798-.56.054.12 1.25v.001l-5.286.51-.032-.457-.032-.464-.037-.517-1.078.124-.181-1.253-.024-.157.857-.052.097-.065.084-.08.069-.095.052-.105.033-.112.01-.063.003-.094-.04-.49-.049.002-.002-.035-.05-.69v-.002l-.052-.696-.283.015-.013-.185-.087-1.192 4.342-.263ZM261.763 150.586l-1.312.054-1.156-2.014 2.32-.02.148 1.98ZM274.689 135.996l-2.88.293-.15-1.552 1.222-.146 1.652-.197.156 1.602ZM260.33 127.239l.158 1.32.388-.048.029.23.034-.004.034-.004.166 1.391-1.787.227-.218-1.626-.177-1.317 1.374-.17ZM268.74 129.724l.042.345.228-.029.117.958-.29.036.134 1.026 1.8-.223.13 1.072-3.433.444-.324-3.43 1.596-.199ZM288.367 108.59l3.701 8.717.64 2.61.001.009.001.011v.023l-.003.012-.002.011-.004.011-.004.011-.005.01-.404.72-.007.011-.007.01-.007.008-.008.008-.01.008-.009.006-.01.006-.01.005-.01.005-.012.003-4.737 1.228-1.28.305-.199-1.002-.202-1.022-.224-1.132-.208-1.047-.286-1.445-1.499.314-1.027.214-.543.114-.8.167-.451.095-1.336.29-1.05.23-.685.149-.62.134-1.382.302-1.85.403-2.474-4.9-1.435-2.294-.004-.007-.005-.009-.003-.01-.003-.01-.002-.01v-.03l.002-.01.003-.01.004-.01.005-.009.005-.008.006-.009.007-.007.007-.007.008-.006.009-.006.009-.005 1.845-.85 4.052-1.83.998 2.225 1.663-.764-.994-2.215.025-.012.025-.011 4.827-3.434 3.131-.776h.003l.016-.004.016-.001.016-.001h.032l.017.003.015.002.016.004.016.005.015.005.916.396.009.005.01.006.009.007.008.008.008.009.008.009.006.01.006.01.005.01 1.69 4.029ZM267.514 139.987l-2.784.289-.247-2.609 2.785-.29ZM259.84 141.134l.048 3.094-3.79.03-.054-1.726h-.264l-.122-1.27 4.182-.128ZM263.34 143.043l-.58.005.003.1-.582.005.022 1.056-1.738.014-.035-2.24 1.616-.013-.248-2.341 1.16-.141Z"/><path d="m262.784 144.205-.581.004-.022-1.056.582-.004.021 1.056ZM263.466 144.2l-.682.005-.021-1.056-.002-.101.58-.005.125 1.156ZM267.514 139.987l-2.784.289-.247-2.609 2.785-.29Z"/><path d="m264.483 137.667.247 2.609 2.784-.289.34 3.606-4.326.606h-.062l-.125-1.156-.384-3.555-1.159.141.248 2.34-1.616.014-.06-3.886 4.113-.43ZM256.357 130.675l-.918.098-.124-1.348.916-.112.126 1.361Z"/></svg>