<svg xmlns="http://www.w3.org/2000/svg" viewBox="142.92 33.879 314.159 160.218"><path d="m251.888 119.762-1.403.13-.091-.912-.883.082-.097.009-.107-.571-.087-.47 2.16-.187ZM277.027 140.391l-1.113.127-.133-1.016 1.206-.145ZM277.637 146.643l-1.467.155-.203-1.75 1.45-.153ZM290.876 130.438l-.572.065-.126-1.143.57-.065ZM266.148 61.174l-.593 1.61-.54-.2.06-.165.143-.388.389-1.057.54.2ZM264.84 147.996l-.7.078-.23-1.855.7-.092.23 1.868ZM252.882 117.066l-1.203.106-.299-1.128 1.408-.111ZM257.373 107.46l-.54.042-.09-1.093 1.12-.082.09 1.09ZM239.127 111.379l-.921.25-.954.26-.036-.124-.347.028-.365-1.886 1.586-.213.575-.078.116.443ZM268.129 114.22l-.866.041-.054-1.027.584-.028.235-.01.1 1.024ZM284.964 139.17l.03 1.377-.578.017-.008-.39-1.152.017-.021-.982 1.729-.04ZM259.82 139.81l-.853.004-.582.003-.562.002-.095-1.523 2.066-.152Z"/><path d="m252.882 117.066-1.203.106-.299-1.128 1.408-.111ZM275.789 119.233l-.19.176.138.62-1.3.297-.618-1.224 1.85-.403ZM264.612 128.052l-1.386.17-.157-1.32 1.373-.169.17 1.318ZM264.813 126.163l-.025.003-.075-.563-.11-.821-.024-.23.947-.118.557-.07.012.232.05.423.112.954v.006l-.603.08-.84.104ZM272.978 152.527l-.822.06-.05-.613-.194-.09-.174.016-.043-.628.265-.023.505-.045.398-.036Z"/><path d="m264.612 128.052-1.386.17-.157-1.32 1.373-.169.17 1.318ZM264.813 126.163l-.025.003-.075-.563-.11-.821-.024-.23.947-.118.557-.07.012.232.05.423.112.954v.006l-.603.08-.84.104ZM270.486 129.507l.284 2.33-1.8.223-.132-1.026.29-.036-.118-.958-.228.029-.042-.345 1.746-.217ZM270.787 152.688l-.366.027-.035-.507.18-.44-.027-.393.156-.014.092 1.327ZM271.738 151.9l.05.714-.03.002-.028.002-.073-1.052-.43.04.072 1.044-.512.038-.092-1.327.163-.014.467-.042.313-.028.057-.005Z"/><path d="m271.73 152.618-.431.032-.072-1.045.43-.04.073 1.053ZM266.204 114.311l-.47.023-.095-1.026.501-.024.064 1.027ZM267.47 116.068l-.76.062-.104-1.142.807-.039ZM264.813 126.163l-.025.003-.075-.563-.11-.821-.024-.23.947-.118.557-.07.012.232.05.423.112.954v.006l-.603.08-.84.104ZM262.31 128.335l-.907.112-.157-1.321.915-.113.15 1.322Z"/><path d="m263.401 122.275.178 1.154.908-.103.445-.05.481-.056.077.867.01.117.026.23-.947.118-1.902.237-1.377.171-.557.07-.81.1-1.26.157-.03-.229-.295-2.295 5.053-.489ZM268.997 115.945l.14 1.508-2.61.25-.071-.772-.478.046-.072-.782-.107-1.17.807-.038.105 1.143.76-.062.69-.056-.058-1.095.794-.038ZM257.919 123.948l-1.106.027-.023-.418 1.07-.07ZM270.962 144.99l.062.578.06.58.03.297.089.876-2.396.252-.326-3.474 2.363-.259ZM256.958 126.562l.57-.07.025.591h-.517ZM272.963 139.374l-.845.102-.1-1.029.823-.096.122 1.023ZM274.095 139.238l-.558.067-.122-1.021.558-.066.122 1.02ZM277.637 146.643l-1.467.155-.203-1.75 1.45-.153ZM273.51 141.938l-1.138.11-.053-.534 1.136-.14ZM275.709 141.572l.118 1.189-1.158.112-.167-1.694 1.157-.112ZM282.694 140.882l.025 1.162-2.51.037-.043-1.149.762-.015.6-.012 1.166-.023ZM277.027 140.391l-1.113.127-.133-1.016 1.206-.145Z"/><path d="m280.166 140.932.044 1.148-2.541.037-.108-2.856 2.54-.051ZM275.66 141.067l-1.158.112.167 1.693-1.056.102-.102-1.036-.056-.564-.064-.57.684-.077.463-.053.462-.052.608-.07Z"/><path d="m277.067 141.441-1.358.131-.05-.505-.05-.515.305-.034 1.112-.127ZM273.916 145.264l-.088.009-1.12.118-.059-.575.618-.065.583-.06ZM281.386 146.058l-2.16.343-.178-1.14.559-.096-.142-.96.928-.141.66-.101.333 2.095ZM279.085 144.264l-1.145.175-.066-.526 1.21-.125Z"/><path d="m273.267 144.751-.618.064-.117-1.155.611-.06Z"/><path d="m273.85 144.69-.583.061-.124-1.15.574-.056Z"/><path d="m274.516 145.2-.6.064-.066-.573-.133-1.146 1.994-.192.126 1.131.064.57-.622.066ZM273.963 146.436l-1.137.12-.058-.576 1.128-.119ZM279.465 144.206l-.38.058v-1.69l1.31-.021-.002 1.51ZM273.613 142.974l-1.139.11-.102-1.036 1.139-.11.102 1.036Z"/><path d="m273.896 145.861-1.128.12-.06-.59 1.12-.118ZM279.226 146.401l-1.018.162-.143-1.134.983-.168.178 1.14ZM279.085 143.788l-1.21.125-.166-1.316 1.376-.023ZM282.765 143.655l.004.023.003.022-1.164.178-.555.085-.66.1.001-1.51 2.338-.038Z"/></svg>