<svg xmlns="http://www.w3.org/2000/svg" viewBox="142.92 33.879 314.159 160.218"><path d="m274.538 140.674-.463.053-.13-1.004.461-.056ZM260.45 150.64l-.37.016-.04.005-.039.006-.04.006-.039.008-.039.009-.039.01-.02.005-.019.005-.038.01-.038.013-.038.013-.038.014-.037.015-.037.015-.036.017-.036.017-.036.018-.035.02-.03.016-.702.495-1.828-2.724 2.42-.023 1.155 2.014ZM261.403 128.447l-.457.056-.157-1.32.457-.057.157 1.32ZM273.39 140.805l-.467.057-.118-1.003.455-.054ZM272.224 146.328l-.552.058-.558.059-.03-.296-.06-.58 1.11-.118Z"/><path d="m272.135 145.451-1.111.117-.062-.577.566-.059.548-.057ZM271.65 140.596h-.001l-.46.055-.06-.59.462-.056ZM235.832 173.658l.857 1.616.027.05.027.052-1.82.991-.573.312-.055-.102-1.14-2.127 1.388-.754.272.513 1.016-.55ZM272.659 129.228l.121.992.88-.114.08.699-1.481.193-.063-.515-.32.041-.023-.186-.674.088-.121-.99 1.601-.208ZM262.904 126.398l-1.385.17-.185-1.379-.034-.229 1.377-.171.03.229.197 1.38ZM248.73 140.284l.222.361-.516.175.256.521.28.572-.278.145-.378.197.08.069-.726.435-1.007-2.003 1.798-.91ZM261.403 128.447l-.457.056-.157-1.32.457-.057.157 1.32ZM265.534 127.938l-.44.054-.076-.565.012-.001-.1-.753.427-.052.177 1.317ZM273.39 140.805l-.467.057-.118-1.003.455-.054ZM263.034 153.704l-1.912 1.27-1-1.489 1.206-.802-.27-.393-.177-.255 1.05-.057 1.103 1.726ZM271.787 141.991l-.63.07-.516.056-.057-.576 1.146-.125Z"/><path d="m270.182 143.33-1.755.193-.293-3.103 2.686-.323.094.999-.37.045.04.4.057.576.114 1.15v.001Z"/><path d="m271.27 143.212-.515.056-.114-1.151.516-.057.114 1.151Z"/><path d="m271.901 143.143-.63.069-.114-1.152.63-.069Z"/></svg>