<svg xmlns="http://www.w3.org/2000/svg" viewBox="142.92 33.879 314.159 160.218"><g fill="#59260b" stroke="#fff" stroke-width=".2"><path d="m274.538 140.674-.463.053-.13-1.004.461-.056ZM260.45 150.64l-.37.016-.04.005-.039.006-.04.006-.039.008-.039.009-.039.01-.02.005-.019.005-.038.01-.038.013-.038.013-.038.014-.037.015-.037.015-.036.017-.036.017-.036.018-.035.02-.03.016-.702.495-1.828-2.724 2.42-.023 1.155 2.014ZM261.403 128.447l-.457.056-.157-1.32.457-.057.157 1.32ZM273.39 140.805l-.467.057-.118-1.003.455-.054ZM272.224 146.328l-.552.058-.558.059-.03-.296-.06-.58 1.11-.118Z"/><path d="m272.135 145.451-1.111.117-.062-.577.566-.059.548-.057ZM271.65 140.596h-.001l-.46.055-.06-.59.462-.056ZM235.832 173.658l.857 1.616.027.05.027.052-1.82.991-.573.312-.055-.102-1.14-2.127 1.388-.754.272.513 1.016-.55ZM272.659 129.228l.121.992.88-.114.08.699-1.481.193-.063-.515-.32.041-.023-.186-.674.088-.121-.99 1.601-.208Z"/></g></svg>