<svg xmlns="http://www.w3.org/2000/svg" viewBox="142.92 33.879 314.159 160.218"><path d="m262.904 126.398-1.385.17-.185-1.379-.034-.229 1.377-.171.03.229.197 1.38Z"/><path d="m262.833 115.226.065 1.192.532-.025.09-.004.075 1.364.68-.051.02.359 1.194-.105.016.176-.768.071.118 1.34.04-.004.077.798-.56.054.12 1.25v.001l-5.286.51-.032-.457-.032-.464-.037-.517-1.078.124-.181-1.253-.024-.157.857-.052.097-.065.084-.08.069-.095.052-.105.033-.112.01-.063.003-.094-.04-.49-.049.002-.002-.035-.05-.69v-.002l-.052-.696-.283.015-.013-.185-.087-1.192 4.342-.263Z"/><path d="m263.34 143.043-.58.005.003.1-.582.005.022 1.056-1.738.014-.035-2.24 1.616-.013-.248-2.341 1.16-.141Z"/><path d="m264.483 137.667.247 2.609 2.784-.289.34 3.606-4.326.606h-.062l-.125-1.156-.384-3.555-1.159.141.248 2.34-1.616.014-.06-3.886 4.113-.43Z"/><path d="m267.514 139.987-2.784.289-.247-2.609 2.785-.29Z"/><path d="m288.367 108.59 3.701 8.717.64 2.61.001.009.001.011v.023l-.003.012-.002.011-.004.011-.004.011-.005.01-.404.72-.007.011-.007.01-.007.008-.008.008-.01.008-.009.006-.01.006-.01.005-.01.005-.012.003-4.737 1.228-1.28.305-.199-1.002-.202-1.022-.224-1.132-.208-1.047-.286-1.445-1.499.314-1.027.214-.543.114-.8.167-.451.095-1.336.29-1.05.23-.685.149-.62.134-1.382.302-1.85.403-2.474-4.9-1.435-2.294-.004-.007-.005-.009-.003-.01-.003-.01-.002-.01v-.03l.002-.01.003-.01.004-.01.005-.009.005-.008.006-.009.007-.007.007-.007.008-.006.009-.006.009-.005 1.845-.85 4.052-1.83.998 2.225 1.663-.764-.994-2.215.025-.012.025-.011 4.827-3.434 3.131-.776h.003l.016-.004.016-.001.016-.001h.032l.017.003.015.002.016.004.016.005.015.005.916.396.009.005.01.006.009.007.008.008.008.009.008.009.006.01.006.01.005.01 1.69 4.029Z"/><path d="m291.049 62.109.507 8.06-5.301.428-3.38.267-.746.146.213-.666.264-.82v-.213l.001-.702.001-.694.001-.695v-.674l.002-.672.391.01.166-.516.168-.52.165-.51.163-.506.76.258.438.149 1.397.474.096-.518.09-.49.149-.8.108-.588.097-.52.221-1.194 4.029 1.505Z"/><path d="m293.903 60.707 1.087.329.441.134.908.274.445.135.032.915.053 1.5.05 1.413-1.132.025-1.669.035-2.162.047-.143-2.277.858-2.903Z"/><path d="m260.673 28.382-.473 1.05-.002.005-1.254-.555-.237.527-.95-.421h-.002l.001-.005.697-1.584 2.22.983Z"/><path d="m257.919 123.948-1.106.027-.023-.418 1.07-.07Z"/><path d="m259.182 121.231-1.046.083-.069-.476 1.078-.124Z"/><path d="m261.52 126.568-1.374.169-.185-1.377-.028-.23.81-.1.557-.07.034.229.185 1.379Z"/><path d="m284.597 63.665-.173.425-.76-.258-.225-.076.189-.466.008-.02.96.395Z"/><path d="m284.768 63.245-.171.42-.961-.395.17-.42.962.394Z"/><path d="m259.214 121.695-1.01.087-.068-.467 1.046-.084Z"/><path d="m286.594 62.905-.149.8-1.18-.456.3-.741Z"/><path d="m284.948 62.805-.18.44-.962-.395.18-.448.961.403Z"/><path d="m286.445 63.706-.09.489-1.265-.517.174-.429Z"/><path d="m255.512 117.114.043 1.088.013.35-.021.002-.615.045-.507.037-.342.025-.32.023-1.652.121-.432-1.633 1.203-.106.965-.085.574-.05.611-.055.47-.041Z"/><path d="m271.404 138.081-.573.063-.11-1.128.574-.06Z"/><path d="m271.984 78.624-.576-.003.024-.673.023-.615.577.017Z"/><path d="m270.161 80.793-.576.01-.007-1.142h.577l.006 1.132Z"/><path d="m286.355 64.195-.096.518-1.397-.474.228-.561Z"/><path d="m272.448 79.09.004.695.006.965-2.297.043-.006-1.133h-.577l.007 1.144-.803.015.64-1.746Z"/><path d="m285.153 62.297-.205.508-.961-.403.2-.497.002-.004.964.396Z"/><path d="m288.367 108.59 3.701 8.717.64 2.61.001.009.001.011v.023l-.003.012-.002.011-.004.011-.004.011-.005.01-.404.72-.007.011-.007.01-.007.008-.008.008-.01.008-.009.006-.01.006-.01.005-.01.005-.012.003-4.737 1.228-1.28.305-.199-1.002-.202-1.022-.224-1.132-.208-1.047-.286-1.445-1.499.314-1.027.214-.543.114-.8.167-.451.095-1.336.29-1.05.23-.685.149-.62.134-1.382.302-1.85.403-2.474-4.9-1.435-2.294-.004-.007-.005-.009-.003-.01-.003-.01-.002-.01v-.03l.002-.01.003-.01.004-.01.005-.009.005-.008.006-.009.007-.007.007-.007.008-.006.009-.006.009-.005 1.845-.85 4.052-1.83.998 2.225 1.663-.764-.994-2.215.025-.012.025-.011 4.827-3.434 3.131-.776h.003l.016-.004.016-.001.016-.001h.032l.017.003.015.002.016.004.016.005.015.005.916.396.009.005.01.006.009.007.008.008.008.009.008.009.006.01.006.01.005.01 1.69 4.029Z"/><path d="m251.888 119.762-1.403.13-.091-.912-.883.082-.097.009-.107-.571-.087-.47 2.16-.187Z"/><path d="m249.414 119.07-.534.05-.596.055-1.043.097-.066-.575 2.132-.197Z"/><path d="m261.763 150.586-1.312.054-1.156-2.014 2.32-.02.148 1.98Z"/><path d="m265.225 115.08.264 2.876-1.193.105-.02-.36-.681.052-.076-1.364-.09.004-.066-1.2 1.862-.112Z"/><path d="m255.512 117.114.043 1.088.013.35-.021.002-.615.045-.507.037-.342.025-.32.023-1.652.121-.432-1.633 1.203-.106.965-.085.574-.05.611-.055.47-.041Z"/><path d="m260.146 126.737-1.258.154-.185-1.374-.03-.23 1.26-.157.028.23.185 1.376Z"/><path d="m258.017 116.71-.561.03-.178-1.177.639-.04Z"/><path d="m263.43 116.393-.532.025-.065-1.192.53-.033Z"/><path d="m258.07 125.13-1.213.157-.163-1.3.12-.012 1.105-.027Z"/><path d="m262.904 126.398-1.385.17-.185-1.379-.034-.229 1.377-.171.03.229.197 1.38Z"/><path d="m275.789 119.233-.19.176.138.62-1.3.297-.618-1.224 1.85-.403Z"/><path d="m259.246 122.153-.976.094-.067-.465 1.011-.087.032.458Z"/><path d="m274.198 130.745-.458.06-.08-.7-.112-.993.457-.06v.001Z"/><path d="m256.357 130.675-.918.098-.124-1.348.916-.112.126 1.361Z"/><path d="m260.946 128.503-.035.004-.034.004-.389.048-.157-1.32.458-.057.157 1.32Z"/><path d="m277.027 140.391-1.113.127-.133-1.016 1.206-.145Z"/><path d="m270.66 139.65-.561.068-.097-.995.112-.014.172-.021.277-.034.097.996Z"/><path d="m264.612 128.052-1.386.17-.157-1.32 1.373-.169.17 1.318Z"/><path d="m272.659 129.228.121.992.88-.114.08.699-1.481.193-.063-.515-.32.041-.023-.186-.674.088-.121-.99 1.601-.208Z"/><path d="m259.027 140.696-.58.018-.062-.897.582-.003.06.882Z"/><path d="m262.769 128.279-.458.056-.15-1.321.45-.056.158 1.32Z"/><path d="m272.805 139.86.118 1.002-.201.025-.06-.501h-.007l-.059-.502.209-.025Z"/><path d="m275.709 141.572.118 1.189-1.158.112-.167-1.694 1.157-.112Z"/><path d="m259.834 140.671-.807.025-.06-.882.853-.004Z"/><path d="m266.6 113.263-.442.02-.105-1.131 1.097-.053.06 1.135Z"/><path d="m274.689 135.996-2.88.293-.15-1.552 1.222-.146 1.652-.197.156 1.602Z"/><path d="m259.84 141.134.048 3.094-3.79.03-.054-1.726h-.264l-.122-1.27 4.182-.128Z"/><path d="m275 140.622-.462.052-.132-1.007.462-.055Z"/><path d="m270.486 129.507.284 2.33-1.8.223-.132-1.026.29-.036-.118-.958-.228.029-.042-.345 1.746-.217Z"/><path d="m270.286 138.688-.172.02-.156-1.612.764-.08.11 1.128-.59.065Z"/><path d="m269.062 139.842-.972.117-.093-.99.968-.119.097.992Z"/><path d="m263.676 129.803-.724.092-.1-.769v-.015l.001-.005.004-.017.004-.017.005-.016.006-.016.006-.016.008-.015.009-.015.009-.015.01-.014.01-.013.012-.013.012-.012.013-.011.013-.011.014-.01.014-.01.015-.008h.001l.01-.005.01-.003.01-.003.01-.002.143-.018.346-.044.129 1Z"/><path d="m268.74 129.724.042.345.228-.029.117.958-.29.036.134 1.026 1.8-.223.13 1.072-3.433.444-.324-3.43 1.596-.199Z"/><path d="m263.34 143.043-.58.005.003.1-.582.005.022 1.056-1.738.014-.035-2.24 1.616-.013-.248-2.341 1.16-.141Z"/><path d="m267.514 139.987-2.784.289-.247-2.609 2.785-.29Z"/><path d="m275.66 141.067-1.158.112.167 1.693-1.056.102-.102-1.036-.056-.564-.064-.57.684-.077.463-.053.462-.052.608-.07Z"/><path d="m256.725 140.766-.586.018-.06-.957.566-.002.08.94Z"/><path d="m273.455 141.374-1.136.14-.056-.57.459-.057.2-.025.469-.057Z"/><path d="m268.16 116.012-.69.056-.057-1.119.69-.032Z"/><path d="m266.204 114.311-.47.023-.095-1.026.501-.024.064 1.027Z"/><path d="M255.78 142.532h-.544l-.004-.09-.054-1.166.48-.014Z"/><path d="m269.107 138.328-1.159.123-.107-1.134 1.159-.121Z"/><path d="m269.155 138.827-.19.023-.968.12-.049-.519 1.16-.123Z"/><path d="m267.47 116.068-.76.062-.104-1.142.807-.039Z"/><path d="m271.876 130.524.32-.041.063.515-.995.13-.085-.702.674-.088Z"/><path d="m282.681 135.611-1.28.021-.009-.802 1.28-.02Z"/><path d="m263.226 128.222-.457.057-.158-1.32.458-.057.157 1.32Z"/><path d="m271.24 136.38-3.453.36-.32-3.387 3.434-.444.003.022.002.022Z"/><path d="m258.78 130.415-1 .107-.151-1.38.963-.118Z"/><path d="m260.33 127.239.158 1.32.388-.048.029.23.034-.004.034-.004.166 1.391-1.787.227-.218-1.626-.177-1.317 1.374-.17Z"/><path d="m259.82 139.81-.853.004-.582.003-.562.002-.095-1.523 2.066-.152Z"/><path d="m273.967 120.674-3.91.44-.292-3.14 2.708-.258Z"/><path d="m269.229 127.483-.458.057-.178-1.34.457-.061.179 1.344Z"/><path d="m273.39 140.805-.467.057-.118-1.003.455-.054Z"/><path d="m252.124 134.465-.711.032-.105-1.049.69-.033.126 1.05Z"/><path d="m274.095 139.238-.558.067-.122-1.021.558-.066.122 1.02Z"/><path d="m261.596 130.066-.457.058-.166-1.391.458-.057.165 1.39Z"/><path d="m255.752 129.139-1.836.224-.125-1.35 1.837-.215.124 1.34Z"/><path d="m273.537 139.305-.574.07v-.001l-.122-1.023.307-.036.267-.031.122 1.021Z"/><path d="m264.819 129.658-.47.06-.129-1.001.47-.06.129 1Z"/><path d="m262.045 130.01-.449.056-.165-1.39.457-.056.157 1.39Z"/><path d="M271.65 140.596h-.001l-.46.055-.06-.59.462-.056Z"/><path d="m265.534 127.938-.44.054-.076-.565.012-.001-.1-.753.427-.052.177 1.317Z"/><path d="m254.832 139.695-.58.044-.08-1.298.58-.042Z"/><path d="m257.288 140.749-.563.017-.08-.941.508-.003h.071l.064.927Z"/><path d="m269.591 139.779-.53.063-.096-.992.19-.023.34-.042.096.994Z"/><path d="m262.31 128.335-.907.112-.157-1.321.915-.113.15 1.322Z"/><path d="m250.74 134.528-1.504.067-.127-1.343.5-.05.843-.087.154-.015.135 1.427Z"/><path d="m277.112 142.637-1.285.124-.118-1.189 1.357-.13Z"/><path d="m258.446 140.714-1.158.035-.064-.927.599-.003.562-.002.061.896Z"/><path d="m277.067 141.441-1.358.131-.05-.505-.05-.515.305-.034 1.112-.127Z"/><path d="m258.562 128.795-1.43.175-.12-1.333 1.372-.16Z"/><path d="m252.364 139.716-.92.104-.095-.436.323-.024-.026-.475-.056-.003-.01-.25.704-.052Z"/><path d="m271.449 138.545-.886.109-.277.034-.043-.479.588-.065.573-.063Z"/><path d="m272.596 139.884.06.503.007-.001.059.5-.46.057-.099-1.007.433-.052Z"/><path d="m258.578 116.68-.561.03-.1-1.186.574-.035Z"/><path d="m253.845 134.851.29 3.129-2.911.214-.091-1.477-.573.026-.71.033-.424-1.726 4.419-.199Z"/><path d="m282.694 140.882.025 1.162-2.51.037-.043-1.149.762-.015.6-.012 1.166-.023Z"/><path d="m255.49 139.645-.658.05-.08-1.296.658-.049Z"/><path d="m273.613 142.974-1.139.11-.102-1.036 1.139-.11.102 1.036Z"/><path d="m271.546 139.544-.886.107-.097-.997.886-.11Z"/><path d="m272.963 139.374-.845.102-.1-1.029.823-.096.122 1.023Z"/><path d="M257.224 139.822h-.07l-.033-.518-.06-.959.667-.049.095 1.523Z"/><path d="m266.574 130.019.64 6.781-1.494.156-.129-1.371h-.036l-1.717.182-.773.081.128 1.372-3.049.319-5.434.399-.596-6.441 5.14-.55 7.32-.928Z"/><path d="m269.495 138.785-.34.042-.048-.499-.107-1.132.958-.1.156 1.613-.112.014Z"/><path d="m273.66 130.106-.88.114-.121-.992.889-.116Z"/><path d="m261.403 128.447-.457.056-.157-1.32.457-.057.157 1.32Z"/><path d="m251.308 133.448.105 1.049-.672.03-.135-1.427.475-.049.185-.019Z"/><path d="m248.73 140.284.222.361-.516.175.256.521.28.572-.278.145-.378.197.08.069-.726.435-1.007-2.003 1.798-.91Z"/><path d="m262.494 129.953-.45.057-.156-1.39.449-.055.157 1.387Z"/><path d="m263.401 122.275.178 1.154.908-.103.445-.05.481-.056.077.867.01.117.026.23-.947.118-1.902.237-1.377.171-.557.07-.81.1-1.26.157-.03-.229-.295-2.295 5.053-.489Z"/><path d="m253.54 131.558.263 2.832-1.68.075-.125-1.05-.69.033-.042-.416-.185.02-.102-1.22 2.561-.274Z"/><path d="m257.12 139.304-1.073.005-.055-.885 1.07-.079Z"/><path d="m273.51 141.938-1.138.11-.053-.534 1.136-.14Z"/><path d="m274.683 130.682-.485.063-.193-1.692.486-.063Z"/><path d="m255.44 130.773-1.38.147-.122-1.326 1.377-.169.124 1.348Z"/><path d="m263.2 128.846-.142.018-.01.002-.01.003-.01.003-.01.005h-.001l-.015.009-.014.009-.014.01-.013.01-.013.012-.012.012-.012.013-.01.013-.01.014-.01.015-.008.015-.008.015-.006.016-.006.016-.005.016-.004.017-.004.017v.02l.1.768-.46.059-.156-1.388.033-.004.034-.004Z"/><path d="m256.833 130.624-.476.05-.126-1.36v-.001l.48-.058.122 1.368Z"/><path d="m274.075 140.727-.684.078-.13-1 .683-.083Z"/><path d="m280.166 140.932.044 1.148-2.541.037-.108-2.856 2.54-.051Z"/><path d="m274.538 140.674-.463.053-.13-1.004.461-.056Z"/><path d="m276.959 130.386-1.79.233-.192-1.692 2.013-.263Z"/><path d="m275.17 130.619-.487.063-.192-1.692.486-.064Z"/><path d="m249.85 136.776.106.315.255-.01-.005.151-.066.03-.209.091-.085-.193-.113-.258-.098-.242-.108-.267-.109-.268-.016-.041-.254-.955.278-.079Z"/><path d="m249.236 134.595-.816.037-.127-1.286.29-.04.526-.054.127 1.343Z"/><path d="m254.252 139.739-.576.044-.081-1.3.576-.042Z"/><path d="m270.099 139.718-.508.06-.096-.993.507-.062.097.995Z"/><path d="m250.606 133.1-.154.015-.126-1.213.653-.07.102 1.22Z"/><path d="m275.608 140.552-.608.07-.132-1.01.913-.11.133 1.016Z"/><path d="m272.313 147.204-.548.058-.093-.876.552-.058Z"/><path d="m272.135 145.451-1.111.117-.062-.577.566-.059.548-.057Z"/><path d="m272.978 152.527-.822.06-.05-.613-.194-.09-.174.016-.043-.628.265-.023.505-.045.398-.036Z"/><path d="m272.105 151.974.05.613-.367.027-.05-.714.174-.017Z"/><path d="m276.419 144.424-.582.06-.126-1.13.583-.057Z"/><path d="m273.85 144.69-.583.061-.124-1.15.574-.056Z"/><path d="m273.896 145.861-1.128.12-.06-.59 1.12-.118Z"/><path d="m273.267 144.751-.618.064-.117-1.155.611-.06Z"/><path d="m273.963 146.436-1.137.12-.058-.576 1.128-.119Z"/><path d="m277.637 146.643-1.467.155-.203-1.75 1.45-.153Z"/><path d="m272.076 144.875-.548.057-.13-1.152.56-.062Z"/><path d="m273.916 145.264-.088.009-1.12.118-.059-.575.618-.065.583-.06Z"/><path d="m266.39 149.314-.54.045-.108-.958.682-.06.108.961Z"/><path d="m277.345 144.327-.926.097-.125-1.127.91-.088Z"/><path d="m271.765 147.262-.562.059-.089-.876.558-.059.093.875Z"/><path d="m271.528 144.932-.566.059-.118-1.15.554-.062Z"/><path d="m270.962 144.99.062.578.06.58.03.297.089.876-2.396.252-.326-3.474 2.363-.259Z"/><path d="m304.865 166.51.396 2.438-2.726-.521.73-.772.295-1.4Z"/><path d="m279.085 144.264-1.145.175-.066-.526 1.21-.125Z"/><path d="m267.909 144.17.324 3.446-3.392.38-.231-1.87-.7.093-.18-1.464 4.178-.585Z"/><path d="m277.417 144.895-1.45.153-.066.007-.064-.571.582-.06.926-.097Z"/><path d="m274.516 145.2-.6.064-.066-.573-.133-1.146 1.994-.192.126 1.131.064.57-.622.066Z"/><path d="m279.465 144.206-.38.058v-1.69l1.31-.021-.002 1.51Z"/><path d="m281.386 146.058-2.16.343-.178-1.14.559-.096-.142-.96.928-.141.66-.101.333 2.095Z"/><path d="m279.226 146.401-1.018.162-.143-1.134.983-.168.178 1.14Z"/><path d="m272.732 149.795-3.828.39-.145-2.025 3.683-.388Z"/><path d="m272.224 146.328-.552.058-.558.059-.03-.296-.06-.58 1.11-.118Z"/><path d="m263.034 153.704-1.912 1.27-1-1.489 1.206-.802-.27-.393-.177-.255 1.05-.057 1.103 1.726Z"/><path d="m300.548 166.22-.349 1.83-.791-.157.353-1.828.786.155Z"/><path d="m282.765 143.655.004.023.003.022-1.164.178-.555.085-.66.1.001-1.51 2.338-.038Z"/><path d="m299.408 167.893-1.933-.381.353-1.829 1.933.382Z"/><path d="m237.423 164.893.353 1.907-.327.067-.001-.038-.607.052-.094-.438h-.285l-.366.793-.663-.391.099-.408-.038-1.373 1.928-.17Z"/><path d="m238.277 163.108.484.354.674.493-.551.128-.509.117-.595.138-.438.102-.02.004-.05.01-.023.005-.074.014-.074.014-.075.012-.037.006-.037.005-.075.011-.074.01-.075.008-.075.008-.075.007-.038.003-.037.003-.075.005-.076.004-.075.003-1.92.07.236-.645.544-.16.973-.558.139.1.825-1.15.233.17.97.709Z"/><path d="m241.236 166.788-.938.509.05.093-.15.268-.878-.475-.291.496-.14-.071-.56.944-.409-.241.55-.974-.336-.196.082-.145.023-.226-.102-.554.737-.196 1.232-.328.43-.227Z"/><path d="m279.085 143.788-1.21.125-.166-1.316 1.376-.023Z"/><path d="m160.357 263.02-.712 1.296-5.46-.962-.427-2.178Z"/><path d="m161.048 261.76-.69 1.26-6.6-1.844-.279-1.42v-.005l-.002-.01v-.011l.001-.01.002-.01.002-.01.004-.01.004-.01.005-.009.006-.008.007-.008.007-.007.008-.007.009-.006.009-.005.01-.004.009-.003.01-.003.296-.059.04-.008.042-.01.008-.002.033-.008.04-.012.04-.012.04-.013.04-.014.04-.015.038-.016.04-.016.037-.018.038-.018.038-.02.037-.019.037-.02.036-.022.035-.023.036-.023.034-.024.035-.024.033-.026.033-.026.033-.027.016-.013.016-.014.03-.028.032-.03.027-.026Z"/><path d="m262.904 126.398-1.385.17-.185-1.379-.034-.229 1.377-.171.03.229.197 1.38Z"/><path d="m262.833 115.226.065 1.192.532-.025.09-.004.075 1.364.68-.051.02.359 1.194-.105.016.176-.768.071.118 1.34.04-.004.077.798-.56.054.12 1.25v.001l-5.286.51-.032-.457-.032-.464-.037-.517-1.078.124-.181-1.253-.024-.157.857-.052.097-.065.084-.08.069-.095.052-.105.033-.112.01-.063.003-.094-.04-.49-.049.002-.002-.035-.05-.69v-.002l-.052-.696-.283.015-.013-.185-.087-1.192 4.342-.263Z"/><path d="m263.34 143.043-.58.005.003.1-.582.005.022 1.056-1.738.014-.035-2.24 1.616-.013-.248-2.341 1.16-.141Z"/><path d="m264.483 137.667.247 2.609 2.784-.289.34 3.606-4.326.606h-.062l-.125-1.156-.384-3.555-1.159.141.248 2.34-1.616.014-.06-3.886 4.113-.43Z"/><path d="m267.514 139.987-2.784.289-.247-2.609 2.785-.29Z"/><path d="m288.367 108.59 3.701 8.717.64 2.61.001.009.001.011v.023l-.003.012-.002.011-.004.011-.004.011-.005.01-.404.72-.007.011-.007.01-.007.008-.008.008-.01.008-.009.006-.01.006-.01.005-.01.005-.012.003-4.737 1.228-1.28.305-.199-1.002-.202-1.022-.224-1.132-.208-1.047-.286-1.445-1.499.314-1.027.214-.543.114-.8.167-.451.095-1.336.29-1.05.23-.685.149-.62.134-1.382.302-1.85.403-2.474-4.9-1.435-2.294-.004-.007-.005-.009-.003-.01-.003-.01-.002-.01v-.03l.002-.01.003-.01.004-.01.005-.009.005-.008.006-.009.007-.007.007-.007.008-.006.009-.006.009-.005 1.845-.85 4.052-1.83.998 2.225 1.663-.764-.994-2.215.025-.012.025-.011 4.827-3.434 3.131-.776h.003l.016-.004.016-.001.016-.001h.032l.017.003.015.002.016.004.016.005.015.005.916.396.009.005.01.006.009.007.008.008.008.009.008.009.006.01.006.01.005.01 1.69 4.029Z"/><path d="m270.182 143.33-1.755.193-.293-3.103 2.686-.323.094.999-.37.045.04.4.057.576.114 1.15v.001Z"/><path d="m276.959 130.386-.1 5.389-2.17.22-.156-1.601-1.652.197-1.222.146-.057-.584-.117-1.21-.003-.026-.003-.027-.215-1.763.995-.13 1.481-.192.458-.06.485-.063.486-.063 1.79-.233Z"/><path d="m262.904 126.398-1.385.17-.185-1.379-.034-.229 1.377-.171.03.229.197 1.38Z"/><path d="m262.833 115.226.065 1.192.532-.025.09-.004.075 1.364.68-.051.02.359 1.194-.105.016.176-.768.071.118 1.34.04-.004.077.798-.56.054.12 1.25v.001l-5.286.51-.032-.457-.032-.464-.037-.517-1.078.124-.181-1.253-.024-.157.857-.052.097-.065.084-.08.069-.095.052-.105.033-.112.01-.063.003-.094-.04-.49-.049.002-.002-.035-.05-.69v-.002l-.052-.696-.283.015-.013-.185-.087-1.192 4.342-.263Z"/><path d="m263.34 143.043-.58.005.003.1-.582.005.022 1.056-1.738.014-.035-2.24 1.616-.013-.248-2.341 1.16-.141Z"/><path d="m264.483 137.667.247 2.609 2.784-.289.34 3.606-4.326.606h-.062l-.125-1.156-.384-3.555-1.159.141.248 2.34-1.616.014-.06-3.886 4.113-.43Z"/><path d="m267.514 139.987-2.784.289-.247-2.609 2.785-.29Z"/><path d="m288.367 108.59 3.701 8.717.64 2.61.001.009.001.011v.023l-.003.012-.002.011-.004.011-.004.011-.005.01-.404.72-.007.011-.007.01-.007.008-.008.008-.01.008-.009.006-.01.006-.01.005-.01.005-.012.003-4.737 1.228-1.28.305-.199-1.002-.202-1.022-.224-1.132-.208-1.047-.286-1.445-1.499.314-1.027.214-.543.114-.8.167-.451.095-1.336.29-1.05.23-.685.149-.62.134-1.382.302-1.85.403-2.474-4.9-1.435-2.294-.004-.007-.005-.009-.003-.01-.003-.01-.002-.01v-.03l.002-.01.003-.01.004-.01.005-.009.005-.008.006-.009.007-.007.007-.007.008-.006.009-.006.009-.005 1.845-.85 4.052-1.83.998 2.225 1.663-.764-.994-2.215.025-.012.025-.011 4.827-3.434 3.131-.776h.003l.016-.004.016-.001.016-.001h.032l.017.003.015.002.016.004.016.005.015.005.916.396.009.005.01.006.009.007.008.008.008.009.008.009.006.01.006.01.005.01 1.69 4.029Z"/><path d="m270.182 143.33-1.755.193-.293-3.103 2.686-.323.094.999-.37.045.04.4.057.576.114 1.15v.001Z"/><path d="m276.959 130.386-.1 5.389-2.17.22-.156-1.601-1.652.197-1.222.146-.057-.584-.117-1.21-.003-.026-.003-.027-.215-1.763.995-.13 1.481-.192.458-.06.485-.063.486-.063 1.79-.233Z"/><path d="m271.787 141.991-.63.07-.516.056-.057-.576 1.146-.125Z"/><path d="m271.27 143.212-.515.056-.114-1.151.516-.057.114 1.151Z"/><path d="m271.901 143.143-.63.069-.114-1.152.63-.069Z"/><path d="m257.373 107.46-.54.042-.09-1.093 1.12-.082.09 1.09Z"/><path d="m272.77 128.63-1.78.232-.177-1.34 1.78-.22.177 1.328Z"/><path d="m273.811 128.495-1.04.135h-.001l-.177-1.328 1.042-.128.176 1.32Z"/><path d="m276.968 128.084-2.014.262-.174-1.313 1.858-.228Z"/><path d="m260.45 150.64-.37.016-.04.005-.039.006-.04.006-.039.008-.039.009-.039.01-.02.005-.019.005-.038.01-.038.013-.038.013-.038.014-.037.015-.037.015-.036.017-.036.017-.036.018-.035.02-.03.016-.702.495-1.828-2.724 2.42-.023 1.155 2.014Z"/><path d="m270.962 144.99.062.578.06.58.03.297.089.876-2.396.252-.326-3.474 2.363-.259Z"/><path d="m271.528 144.932-.566.059-.118-1.15.554-.062Z"/><path d="m272.076 144.875-.548.057-.13-1.152.56-.062Z"/><path d="m272.135 145.451-1.111.117-.062-.577.566-.059.548-.057Z"/><path d="m272.224 146.328-.552.058-.558.059-.03-.296-.06-.58 1.11-.118Z"/><path d="m271.765 147.262-.562.059-.089-.876.558-.059.093.875Z"/><path d="m272.313 147.204-.548.058-.093-.876.552-.058Z"/></svg>