<svg xmlns="http://www.w3.org/2000/svg" xml:space="preserve" style="enable-background:new 0 0 314.2 160.2" viewBox="0 0 314.2 160.2"><path d="m124.4 28.9.7.3-.2.5-1.1-.4.2-.5.4.1zM122.6 28.9l.5.2-.2.6-.4 1.1-.5-.2.4-1.1-.5-.2.2-.6.5.2zM122.4 24.7l-.5 1.4-.5-.2.5-1.4.5.2zM126.3 25.7l-.2.4-.5-.2.2-.4.4-1 .5.2-.4 1zM120.2 24.7l-.3.7-.7-.3.2-.7.8.3zM121.8 24.5l-.4 1.4-.5-.2.5-1.4.4.2z"/><path d="m125.8 25.5-.2.4-.5-.2h-.1l.2-.4.4-1 .6.2-.4 1zM128.8 15.6l-.6-.1h-.3l-.2-1.1h.2l.6-.1.3 1.3zM129.4 15.4l-.5.3-.2-1.3.6-.1.1.8v.3z"/><path d="m129.9 15-.6.1-.1-.8.6-.1.1.8zM130.7 13.9l-.4 1.1-.4-.1-.1-.8.9-.2zM123.9 20.7l-.4 1.1-.6-.2.4-1.1.6.2zM128.2 20.6l-.4 1.1-.5-.2.4-1.1.5.2zM123.3 20.5l-.4 1.1-.5-.2.4-1.1.5.2zM125.5 21.3l-.4 1.1-.5-.2.4-1.1.5.2zM128.1 19.3l-.4 1.1-.5-.2.4-1.1.5.2zM123.9 19l.5.2-.4 1.1-.6-.2.5-1.1z"/><path d="m127.6 19.1-.4 1.1-.5-.2.4-1.1.5.2zM129.3 17.8l-.5 1.3-1.1-.4.5-1.3 1.1.4zM123.2 17.5l-.4 1.1-.4-.2-.5-.2.5-1 .8.3zM127.7 18.7l-.5-.2.5-1.3.5.2-.5 1.3zM121.8 21.2l-.4 1.1-.5-.2.4-1.1.5.2zM125 21.1l-.4 1.1-.6-.2.4-1.1.6.2zM124.4 20.9 124 22l-.5-.2.4-1.1.5.2zM120 26.1l-.4 1.1-.5-.2.3-1.2.6.3z"/><path d="m119.4 25.9-.3 1.2-.3-.1.3-1.2.3.1zM125.6 25.9l.5.2-.2.5-1-.4.2-.5.5.2zM127.7 20.4l-.4 1.1-.5-.2.4-1.1.5.2zM122.8 20.3l-.4 1.1-.5-.2.4-1.1.5.2z"/><path d="m127.2 20.2-.4 1.1-.5-.2.4-1.1.5.2zM119.1 30.5l-.2.4-1-.4.1-.5 1.1.5zM119.7 30.3l-.3.9-.4-.2.2-.4.2-.4.3.1zM123.2 34.1l-.4 1.1-1.1-.4.4-1.1 1.1.4z"/><path d="m123.2 34.1-.4 1.1-1.1-.4.4-1.1 1.1.4z"/><path d="m123.2 34.1-.4 1.1-1.1-.4.4-1.1 1.1.4zM119.2 30.1l-.2.4-1.1-.4.1-.5 1.2.5zM123.5 29.9l-.4 1.1-.5-.2.4-1.1.5.2zM124.8 29.7l-.2.6-1.1-.4.1-.3.1-.3 1.1.4zM123.7 29.3l-.1.3.1-.3zM122.4 29.5l-.4 1.1-.5-.2.4-1.1.5.2z"/><path d="m123.7 29.3-.1.3-.1.3-.5-.2.2-.6.5.2zM123.4 33.5l-.2.5-1.1-.4.2-.6 1.1.5z"/><path d="m121.8 32.9.5.2-.2.6-.4 1.1-.6-.2.7-1.7zM121.2 32.7l.4.2-.6 1.6-.5-.2.7-1.6z"/><path d="m121.2 32.7-.6 1.6-.5-.2.5-1.5.1-.2.5.3z"/><path d="m120.6 32.7-.5 1.5-.5-.2.5-1.5.5.2zM123.1 32.7l.5.2-.2.6-1.1-.4.2-.7.6.3zM118.2 32.6l-.3.7-.9-.3.3-.7.9.3z"/><path d="m118.2 32.6-.3.7-.9-.3.3-.7.9.3z"/><path d="m118.2 32.6-.3.7-.9-.3.3-.7.9.3z"/><path d="m118.2 32.6-.3.7-.9-.3.3-.7.9.3z"/><path d="m118.2 32.6-.3.7-.9-.3.3-.7.9.3z"/><path d="m118.2 32.6-.3.7-.9-.3.3-.7.9.3z"/><path d="m118.2 32.6-.3.7-.9-.3.3-.7.9.3z"/><path d="m118.2 32.6-.3.7-.9-.3.3-.7.9.3z"/><path d="m118.9 32.2-.5 1.3-.5-.2.3-.7.2-.4.1-.2.4.2zM118.3 32.2l-.2.4-.9-.3.2-.4.9.3zM124 31.9l-.4 1-.5-.2.3-1 .6.2z"/><path d="m123.5 31.7-.3 1-.6-.2.3-1 .6.2zM119 32l-.1.3-.6-.2-.1.2-.9-.3.2-.4 1.5.4z"/><path d="m119.8 31.5 1.1.4-.2.5-.1.2-.5-.2-.5 1.5-1.1-.4.5-1.3V32l.2-.4.1-.2.5.1z"/><path d="m119.8 31.5 1.1.4-.2.5-.1.2-.5-.2-.5 1.5-1.1-.4.5-1.3V32l.2-.4.1-.2.5.1z"/><path d="m119.8 31.5 1.1.4-.2.5-.1.2-.5-.2-.5 1.5-1.1-.4.5-1.3V32l.2-.4.1-.2.5.1z"/><path d="m119.8 31.5 1.1.4-.2.5-.1.2-.5-.2-.5 1.5-1.1-.4.5-1.3V32l.2-.4.1-.2.5.1z"/><path d="m119.8 31.5 1.1.4-.2.5-.1.2-.5-.2-.5 1.5-1.1-.4.5-1.3V32l.2-.4.1-.2.5.1z"/><path d="m119.8 31.5 1.1.4-.2.5-.1.2-.5-.2-.5 1.5-1.1-.4.5-1.3V32l.2-.4.1-.2.5.1z"/><path d="m119.8 31.5 1.1.4-.2.5-.1.2-.5-.2-.5 1.5-1.1-.4.5-1.3V32l.2-.4.1-.2.5.1z"/><path d="m119.8 31.5 1.1.4-.2.5-.1.2-.5-.2-.5 1.5-1.1-.4.5-1.3V32l.2-.4.1-.2.5.1zM122.5 32.4l-.2.7-.5-.2.6-1.6.5.2-.4.9zM122.3 31.3l-.6 1.6h-.1l-.4-.2.6-1.6.5.2zM119.2 31.5l-.2.5-1.4-.5.2-.4 1.4.4zM119.7 28.4l-.4 1.1-.5-.2.3-.9h.6zM119.1 28.4l-.3.9-.5-.2.2-.8.6.1zM123.4 18.8l-.4 1.1-.5-.2.4-1.1.5.2zM126.5 18.7l-.4 1.1-.5-.2.4-1.1.5.2z"/><path d="m119.9 28-.2.4H118.4l.2-.8 1.3.4zM123.9 28.8l-.2.5-.5-.2.6-1.6.5.2-.4 1.1z"/><path d="m123.8 27.5-.6 1.6-.5-.2.6-1.6.5.2zM123.2 27.3l-.6 1.6-.5-.2.1-.2.1-.4.4-1.1.5.3zM119.1 27.1l.5.2.5.2-.2.6-1.3-.4.2-.6h.3z"/><path d="m122.7 27.1-.4 1.1-.5-.2.4-1.1.5.2zM122.2 26.9l-.4 1.1-.5-.2.4-1.1.5.2zM124.5 25.5l-.5 1.4-.6-.2.5-1.4.6.2z"/><path d="m124 25.3-.5 1.4-.5-.2.5-1.4.5.2zM123.4 25.1l-.5 1.4-.5-.2.5-1.4.5.2zM122.9 24.9l-.5 1.4-.5-.2.5-1.4.5.2zM121.3 24.3l.1.1-.5 1.4-.5-.2.5-1.4.4.1zM125.2 25.3l-.2.4-.5-.2.2-.4.4-1 .5.2-.4 1zM120.3 24.3l-.1.4-.8-.3.1-.4.8.3z"/><path d="m120.8 24.1.2.1-.5 1.4-.5-.2.3-.7.1-.4.1-.3.3.1zM124.7 25.1l-.2.4-.6-.2.2-.4.4-1 .6.2-.4 1z"/><path d="m124.1 24.9-.2.4-.5-.2.2-.4.4-1 .5.2-.4 1zM120.2 23.9l.2.1-.1.3-.8-.3.1-.4.6.3z"/><path d="m123.6 24.7-.2.4-.5-.2.2-.4.4-1 .5.2-.4 1z"/><path d="m123.1 24.5-.2.4-.5-.2.2-.4.4-1 .5.2-.4 1zM120.4 23.5l-.2.4-.6-.2.1-.4.7.2zM122.5 24.3l-.2.4-.4-.2h-.1l.2-.4.4-1 .5.2-.4 1zM127.2 23.2l-.3.8-.1.3-.5-.2.4-1.1.5.2z"/><path d="m122 24.1-.2.4-.4-.2-.1-.1.2-.4.4-1 .5.2-.4 1.1zM122.8 18.6l-.3 1.1-.5-.2.4-1.1.4.2zM124.8 18.1l-.4 1.1-.5-.2.4-1.1.5.2zM124.3 17.9l-.4 1.1-.5-.2.4-1.1.5.2z"/><path d="m123.7 17.7-.4 1.1-.5-.2.4-1.1.5.2zM126.7 23l-.4 1.1-.5-.2.4-1.1.5.2zM120.9 23.7l-.2.4-.3-.1-.2-.1.2-.4.4-1 .6.2-.5 1zM125.7 22.6l-.4 1.1-.6-.2.4-1.1.6.2zM120.7 22.5l-.4 1-.7-.2.2-1 .9.2zM125.1 22.4l-.4 1.1-.5-.2.4-1.1.5.2z"/><path d="m124.6 22.2-.4 1.1-.5-.2.3-1.1.6.2zM127.6 22.1l-.4 1.1-.5-.2.4-1.1.5.2z"/><path d="m124 22-.4 1.1-.5-.2.4-1.1.5.2zM127.1 21.9l-.4 1.1-.5-.2.4-1.1.5.2z"/><path d="m123.5 21.8-.4 1.1-.6-.2.4-1.1.6.2zM126.6 21.7l-.4 1.1-.5-.2.4-1.1.5.2z"/><path d="m122.9 21.6-.4 1.1-.5-.2.4-1.1.5.2zM126.1 21.5l-.4 1.1-.6-.2.4-1.1.6.2zM122.4 21.4l-.4 1.1-.5-.2.4-1.1.5.2zM122.2 20.1l-.4 1.1-.5-.2.4-1.1.5.2zM126.6 20l-.4 1.1-.6-.2.4-1.1.6.2zM121.7 19.9l-.4 1.1-.4 1.1-.8-.3 1.1-2.1.5.2z"/><path d="m126.1 19.8-.4 1.1-.5-.2.4-1.1.5.2zM124.9 16.4l-.4 1.1-.5-.2.3-.8.1-.1.2.1.1-.2.2.1zM129.7 16.7l-.2.6-1.1-.4.2-.6 1.1.4z"/><path d="m125 17.7-.5-.2.4-1.1.1-.2.5.2-.5 1.3zM124.9 16.2l-.1.2-.3-.1.1-.2.3.1zM123.7 16.2l-.3.9-.7-.2.4-.8.6.1z"/><path d="m124.6 16.3-.1.2-.2-.1-.1.1-.3.8-.6-.2.3-.9.6.2.2-.4.3.1-.1.2zM129.9 16.1l-.2.5-1.1-.4.2-.5 1.1.4z"/><path d="m128.8 15.6-.2.6-.2.6-.5-.2.4-1.1.5.1zM124.4 16l-.2.4-.6-.2-.6-.2.2-.4 1.2.4zM128 15.5h.3l-.4 1.1-.5-.2.3-.9h.3zM127.7 15.5l-.3.9-.6-.2.3-.8.6.1z"/><path d="m130.1 15.6-.2.5-1.1-.4v-.1l.5-.3.8.3zM125.1 15.6l-.9-.3.1-.2.9-.2v.3l-.1.4z"/><path d="m130.3 15.1-.2.6-.7-.2-.1-.3.6-.1h.4zM126.2 16l-.5-.2.2-.5-.1-.5.6-.1.1.6-.3.7z"/><path d="m126.8 16.2-.5-.2.2-.6-.1-.6.6-.1.1.8-.3.7zM127.8 14.5l.2 1.1h-.3l-.6-.1-.1-.8.8-.2zM118.9 31l.4.2-.1.2-.1.2-1.4-.5.1-.2v-.2l1.1.3zM121.3 30.9l-.4 1.1-1.1-.4.4-1.1 1.1.4z"/><path d="m120.2 30.5-.4 1.1-.5-.2.1-.2.3-.9.5.2zM124.6 30.3l-.4 1.1-1.1-.4.4-1.1 1.1.4zM120.9 28.5l-.5 1.5-.5-.2.5-1.3h.5zM120.4 28.4l-.5 1.3-.6-.2.4-1.1h.7zM126.6 18.3l-.5-.2.5-1.3.5.2-.5 1.3zM125.4 28.1l-.4 1.1-.7-.3.4-1.1.7.3z"/><path d="m124.8 27.9-.4 1.1-.4-.2.4-1.1.4.2zM123.8 19l-.4 1.1-.5-.2.4-1.1.5.2zM127 18.9l-.4 1.1-.6-.2.4-1.1.6.2zM120.7 27.6l-.2.6-.5-.2.2-.6.4-1.1.5.2-.4 1.1zM126 26.7l-.3.8-1-.4.3-.8 1 .4zM120.5 26.3l-.4 1.1-.5-.2.4-1.1.5.2zM125.9 18.5l-.4 1.1-.6-.2.4-1.1.6.2zM122.4 18.4l-.4 1.1-.6-.2.5-1 .5.1z"/><path d="m125.4 18.3-.4 1.1-.5-.2.4-1.1.5.2z"/><path d="m125.4 18.3-.4 1.1-.5-.2.4-1.1.5.2zM121.5 23.9l-.2.4-.3-.1-.2-.1.2-.4.4-1 .5.2-.4 1zM126.2 22.8l-.4 1.1-.5-.2.4-1.1.5.2zM125.5 19.6l-.4 1.1-.5-.2.4-1.1.5.2zM128.6 19.5l-.4 1.1-.5-.2.4-1.1.5.2z"/><path d="m125 19.4-.4 1.1-.5-.2.4-1.1.5.2zM126.1 18.1l-.5-.2.5-1.3.6.2-.6 1.3zM125.5 17.9l-.5-.2.5-1.3.5.2-.5 1.3z"/><path d="m125.5 17.9-.5-.2.5-1.3.5.2-.5 1.3zM121.8 31.1l-.6 1.6h-.1l-.5-.2.2-.5.4-1.1.6.2zM127.2 18.5l-.5-.2.5-1.3.6.2-.6 1.3zM125.1 25.7l-.1.6-.3.8-.6-.2.5-1.4.5.2zM125.7 15.8l-.5-.2.1-.3V15h.2l.4-.1.1.5-.3.4zM121.7 26.7l-.4 1.1-.2-.1-.5-.2.4-1.1.5.2.2.1zM121.3 27.8l.5.2.5.2-.1.4-.1.2-.2.6-.4 1.1-1.1-.4.5-1.4h-1.2l.2-.4.5.2.2-.6.5.2.2-.3zM95.5 104.6l-1 1-1.6-1.6 1-1 1.6 1.6zM131 86.8l-3.9.4-.3-3.1 2.7-.3 1.5 3zM148.1 28.2l.5 8.1-5.3.4-3.3.3-.7.1.2-.7.3-.8v-3.7h.4l.2-.5.2-.5.2-.5.2-.5.8.3.4.1 1.4.5.1-.5.1-.5.1-.8.1-.6.1-.5.2-1.2 3.8 1.5zM124.2 96.1l1.6-.3.2 1.9-1.6.2-.2-1.8zM132.3 96.8l1.8-.3-.1 1.6-1.8.3.1-1.6z"/></svg>