<svg viewBox="0 0 600 670.9090909090135" width="1200" style="color: darkred" xmlns="http://www.w3.org/2000/svg" xmlns:xlink="http://www.w3.org/1999/xlink"><g><path fill="#59260b" stroke="white" stroke-width="0.2" d="M210.50107442052104,396.8625305930618L206.60613239905797,397.14874171698466L206.60552454716526,397.1479263601359L205.72758840140887,395.8251798117999L206.69810147432145,395.1301239967579L209.22121706907637,394.6755797587102L209.44858991215006,393.92380108020734L210.0717147840187,393.8828347887611L210.50094016408548,396.86159694578964Z"/><path fill="#59260b" stroke="white" stroke-width="0.2" d="M311.1973450194346,356.4159319951432L311.73901870218106,360.8516985117458L315.6764406587463,360.339260470937L316.032209292287,363.46657018351834L309.4079808356473,364.32868221844546L309.1268320028903,362.026345467777L307.6956121480325,362.2126161705237L307.5939110459294,361.3797061062651L304.57812512945384,361.77221957873553L304.03776565007865,357.34739195229486L311.19729486794677,356.41543971013743Z"/><path fill="#59260b" stroke="white" stroke-width="0.2" d="M315.6764406587463,360.339260470937L311.73901870218106,360.8516985117458L311.1973450194346,356.4159319951432L311.19729486794677,356.41543971013743L315.1712453182554,355.89823794877157L315.17126164829824,355.89873019314837Z"/><path fill="#59260b" stroke="white" stroke-width="0.2" d="M318.0769804670708,363.2004503982607L316.032209292287,363.46657018351834L315.6764406587463,360.339260470937L315.17126164829824,355.89873019314837L315.1712453182554,355.89823794877157L317.2160290629836,355.6321320416173L317.21604539232794,355.6326242859941Z"/><path fill="#59260b" stroke="white" stroke-width="0.2" d="M320.2495603332063,362.917699764017L318.0769804670708,363.2004503982607L317.21604539232794,355.6326242859941L317.2160290629836,355.6321320416173L319.3886223062873,355.3493781185243L319.3886386345839,355.34987036313396Z"/><path fill="#59260b" stroke="white" stroke-width="0.2" d="M322.4221411875915,362.6349699648563L320.2495603332063,362.917699764017L319.3886386345839,355.34987036313396L319.3886223062873,355.3493781185243L321.56121653772425,355.06664503051434L321.5612328653224,355.0671372752404Z"/><path fill="#59260b" stroke="white" stroke-width="0.2" d="M225.7082418370992,366.83383493777364L226.87995156820398,379.49590736837126L219.37308942945674,379.83382160018664L219.37298896012362,379.83292192348745L218.81126803799998,375.1361139253713L215.72492597752716,375.28544269502163L215.53872374712955,373.42638541781344L214.71198108396493,373.5106777268229L214.25556736520957,368.05971277237404L214.25555099430494,368.0592205345165L225.7069908095291,366.8335619762074L225.70820856071077,366.8333426795434Z"/><path fill="#59260b" stroke="white" stroke-width="0.2" d="M212.7948537459597,396.69397021248005L211.6528343037935,396.7778987917118L211.65271695773117,396.7769651635317L211.25603894435335,393.509667396429L210.50141420890577,392.3373260613298L210.79567963862792,392.20751942053903L210.81860148743726,391.53282566333655L209.67772421461996,391.572950969683L209.20418350561522,390.1681694765575L212.38103600393515,390.02007960062474L212.79480403847992,396.69303665845655Z"/><path fill="#59260b" stroke="white" stroke-width="0.2" d="M215.3476056259824,396.50638503115624L212.7948537459597,396.69397021248005L212.79480403847992,396.69303665845655L212.38103600393515,390.02007960062474L214.94233415741473,389.90068172232714L215.34755592024885,396.5054514767835Z"/><path fill="#59260b" stroke="white" stroke-width="0.2" d="M208.6819478495745,390.72844510234427L206.77751359180547,391.84713641693816L206.49584253516514,392.12005538423546L204.21939572168048,393.43308714113664L203.59949338645674,392.3126135620987L203.5992909517372,392.3121720482595L208.24410476570483,389.64672882005107Z"/><path fill="#59260b" stroke="white" stroke-width="0.2" d="M208.6819478495745,390.72844510234427L206.77751359180547,391.84713641693816L206.49584253516514,392.12005538423546L204.21939572168048,393.43308714113664L203.59949338645674,392.3126135620987L203.5992909517372,392.3121720482595L208.24410476570483,389.64672882005107Z"/><path fill="#59260b" stroke="white" stroke-width="0.2" d="M208.6819478495745,390.72844510234427L206.77751359180547,391.84713641693816L206.49584253516514,392.12005538423546L204.21939572168048,393.43308714113664L203.59949338645674,392.3126135620987L203.5992909517372,392.3121720482595L208.24410476570483,389.64672882005107Z"/><path fill="#59260b" stroke="white" stroke-width="0.2" d="M208.24410476570483,389.64672882005107L203.5992909517372,392.3121720482595L202.9791680702474,391.19130714493804L202.97896563552786,391.19086563016754L207.76106500055175,388.45329790364485Z"/><path fill="#59260b" stroke="white" stroke-width="0.2" d="M208.24410476570483,389.64672882005107L203.5992909517372,392.3121720482595L202.9791680702474,391.19130714493804L202.97896563552786,391.19086563016754L207.76106500055175,388.45329790364485Z"/><path fill="#59260b" stroke="white" stroke-width="0.2" d="M208.24410476570483,389.64672882005107L203.5992909517372,392.3121720482595L202.9791680702474,391.19130714493804L202.97896563552786,391.19086563016754L207.76106500055175,388.45329790364485Z"/><path fill="#59260b" stroke="white" stroke-width="0.2" d="M208.24410476570483,389.64672882005107L203.5992909517372,392.3121720482595L202.9791680702474,391.19130714493804L202.97896563552786,391.19086563016754L207.76106500055175,388.45329790364485Z"/><path fill="#59260b" stroke="white" stroke-width="0.2" d="M207.76106500055175,388.45329790364485L202.97896563552786,391.19086563016754L202.3578628259711,390.06818285537884L202.35766039066948,390.067741341074L207.27586566656828,387.254534172127Z"/><path fill="#59260b" stroke="white" stroke-width="0.2" d="M200.91684750129934,369.4871283734683L200.9168638776755,369.48762061132584L201.39297854620963,374.9456394595327L199.97862319462,375.14057528355625L199.14911139628384,372.3948256847216L198.66772399214096,372.5355506805936L198.66200735874008,372.48970024148L198.652214740403,372.4445242807269L198.6384471548954,372.40043026045896L198.62080571148545,372.35774078185204L198.5994422303047,372.3167954698438L198.57450853171758,372.2779339507688L198.54620718362276,372.24147893558256L198.51477462856565,372.2077022510348L198.4804642193485,372.1768757404061L198.4435462183319,372.1492712701438L198.4043078897521,372.1250758562237L198.36307029856835,372.1044935255777L198.32017143804114,372.0877113508759L198.27594939398114,372.07483153860085L198.23075914301444,372.06597328791395L198.18495571659878,372.06120487640146L198.13891107519157,372.0605776308803L198.093098711106,372.0640750917373L197.71051036647987,370.8951307556126L197.47326036030427,370.03978566254955L197.22942924813833,369.2183790449053L197.09501196572091,368.7655771318823L200.07542239886243,367.7160170770949L200.07618363492656,367.71574633778073L200.07635223667603,367.7162047959864L200.9164256392978,369.4863132049795Z"/><path fill="#59260b" stroke="white" stroke-width="0.2" d="M196.69755550439004,367.4266110047465L197.09501196572091,368.7655771318823L197.22942924813833,369.2183790449053L193.5030288163107,370.6791223611217L192.78330404509325,368.85127315158024L192.78313544066623,368.8508146951208L196.6682390384376,367.32786342548206Z"/><path fill="#59260b" stroke="white" stroke-width="0.2" d="M307.6956121480325,362.2126161705237L309.1268320028903,362.026345467777L309.4079808356473,364.32868221844546L304.9609854060691,364.907480728114L304.5781752833864,361.7727118610637L304.57812512945384,361.77221957873553L307.5939110459294,361.3797061062651Z"/><path fill="#59260b" stroke="white" stroke-width="0.2" d="M283.9890322922729,359.95074785896577L286.84854703221936,390.2756470250897L280.1675040356349,390.97309725382365L280.1674206000753,390.972129708156L279.5925054808613,384.8401800642023L279.4309652346419,384.8426748664351L271.7523886265699,385.6537068885518L268.2964989435859,386.0187255498022L268.8715374819003,392.15141083230264L268.8716209268896,392.1523783764569L255.23680162255187,393.57607376005035L230.9361270518275,395.36104238859843L230.93602649820969,395.3602275849553L228.2709960876964,366.5595340678701L228.2709797223797,366.55904182838276L251.25679035054054,364.09912684280425L283.987798161339,359.95049182802904L283.9889990396332,359.95025559631176Z"/><path fill="#59260b" stroke="white" stroke-width="0.2" d="M211.25603894435335,393.509667396429L211.65271695773117,396.7769651635317L211.6528343037935,396.7778987917118L210.50107442052104,396.8625305930618L210.50094016408548,396.86159694578964L210.0717147840187,393.8828347887611L209.56933726917487,392.7484682411887L210.50141420890577,392.3373260613298Z"/><path fill="#59260b" stroke="white" stroke-width="0.2" d="M209.56933726917487,392.7484682411887L210.0717147840187,393.8828347887611L209.44858991215006,393.92380108020734L209.22121706907637,394.6755797587102L206.69810147432145,395.1301239967579L205.72758840140887,395.8251798117999L204.87208616978023,394.53633463184815L207.13929324632045,393.2286246098811L207.3629092107294,393.00662853824906L209.18616479157936,391.88325040612835Z"/><path fill="#59260b" stroke="white" stroke-width="0.2" d="M272.3278774288483,391.79153892362956L268.8716209268896,392.1523783764569L268.8715374819003,392.15141083230264L268.2964989435859,386.0187255498022L271.7523886265699,385.6537068885518L272.32779398642015,391.7905713797081Z"/><path fill="#59260b" stroke="white" stroke-width="0.2" d="M280.1675040356349,390.97309725382365L272.3278774288483,391.79153892362956L272.32779398642015,391.7905713797081L271.7523886265699,385.6537068885518L279.4309652346419,384.8426748664351L279.5925054808613,384.8401800642023L280.1674206000753,390.972129708156Z"/><path fill="#59260b" stroke="white" stroke-width="0.2" d="M207.27586566656828,387.254534172127L202.35766039066948,390.067741341074L199.38491411833093,384.69428837974556L199.38472860888578,384.6938299097819L206.0686002888251,382.79981620504986L206.0686843013391,382.8003085118253L207.20139338332228,387.07051773997955Z"/><path fill="#59260b" stroke="white" stroke-width="0.2" d="M209.20418350561522,390.1681694765575L209.67772421461996,391.572950969683L210.81860148743726,391.53282566333655L210.79567963862792,392.20751942053903L210.50141420890577,392.3373260613298L209.56933726917487,392.7484682411887L209.18616479157936,391.88325040612835L208.6819478495745,390.72844510234427L208.24410476570483,389.64672882005107L207.76106500055175,388.45329790364485L207.27586566656828,387.254534172127L207.20139338332228,387.07051773997955L206.0686843013391,382.8003085118253L206.0686002888251,382.79981620504986L207.30861066340003,382.4484279002063L207.30869467556477,382.44892020651605Z"/><path fill="#59260b" stroke="white" stroke-width="0.2" d="M227.0708642406389,381.5592315599788L228.36551257106476,395.5498986155726L215.3476056259824,396.50638503115624L215.34755592024885,396.5054514767835L214.94233415741473,389.90068172232714L212.38103600393515,390.02007960062474L209.20418350561522,390.1681694765575L207.30869467556477,382.44892020651605L207.30861066340003,382.4484279002063L227.0696133224992,381.55887373548467L227.07083096529823,381.5587393079186Z"/><path fill="#59260b" stroke="white" stroke-width="0.2" d="M320.27304823487066,386.67772964935284L307.39783191285096,387.9897071386222L307.3977145404788,387.9888583581196L306.7247728104703,381.0503983788658L306.7247395674931,381.04990612412803L312.18784744874574,380.39757584489416L319.57841104769614,379.51513533468824L320.27294792130124,386.6767620773753Z"/><path fill="#59260b" stroke="white" stroke-width="0.2" d="M219.37308942945674,379.83382160018664L216.1947944299318,379.97691956569906L216.19471086771227,379.97601990716066L215.72492597752716,375.28544269502163L218.81126803799998,375.1361139253713L219.37298896012362,379.83292192348745Z"/><path fill="#59260b" stroke="white" stroke-width="0.2" d="M202.80949780764058,380.57960193499457L197.49553168285638,380.818910190952L197.49517742427997,380.81812905031256L195.50276238424703,375.75793127785437L195.5026107096346,375.7574558686465L199.97862319462,375.14057528355625L201.39297854620963,374.9456394595327L202.2429889086634,374.82850375643466L202.80941423540935,380.5787022776203Z"/><path fill="#59260b" stroke="white" stroke-width="0.2" d="M206.46194284094963,380.4151272389572L202.80949780764058,380.57960193499457L202.80941423540935,380.5787022776203L202.2429889086634,374.82850375643466L203.53745388507377,374.6501068989746L205.89341101853643,374.40987031778786L206.46185927162878,380.4142275818158Z"/><path fill="#59260b" stroke="white" stroke-width="0.2" d="M213.1882093709428,380.11227177421097L206.46194284094963,380.4151272389572L206.46185927162878,380.4142275818158L205.89341101853643,374.40987031778786L208.1286877192324,374.18194705585483L211.89837468555197,373.7975613742601L212.58595109335147,373.727456075605L213.1881258066278,380.11137211637106Z"/><path fill="#59260b" stroke="white" stroke-width="0.2" d="M215.72492597752716,375.28544269502163L216.19471086771227,379.97601990716066L216.1947944299318,379.97691956569906L213.1882093709428,380.11227177421097L213.1881258066278,380.11137211637106L212.58595109335147,373.727456075605L214.71198108396493,373.5106777268229L215.53872374712955,373.42638541781344Z"/><path fill="#59260b" stroke="white" stroke-width="0.2" d="M202.2429889086634,374.82850375643466L201.39297854620963,374.9456394595327L200.9168638776755,369.48762061132584L200.91684750129934,369.4871283734683L203.16482854494825,369.2464620418614L203.1648280104855,369.2469542607432L203.53745388507377,374.6501068989746Z"/><path fill="#59260b" stroke="white" stroke-width="0.2" d="M197.47326036030427,370.03978566254955L197.71051036647987,370.8951307556126L198.093098711106,372.0640750917373L198.13891107519157,372.0605776308803L198.18495571659878,372.06120487640146L198.23075914301444,372.06597328791395L198.27594939398114,372.07483153860085L198.32017143804114,372.0877113508759L198.36307029856835,372.1044935255777L198.4043078897521,372.1250758562237L198.4435462183319,372.1492712701438L198.4804642193485,372.1768757404061L198.51477462856565,372.2077022510348L198.54620718362276,372.24147893558256L198.57450853171758,372.2779339507688L198.5994422303047,372.3167954698438L198.62080571148545,372.35774078185204L198.6384471548954,372.40043026045896L198.652214740403,372.4445242807269L198.66200735874008,372.48970024148L198.66772399214096,372.5355506805936L199.14911139628384,372.3948256847216L199.97862319462,375.14057528355625L195.5026107096346,375.7574558686465L193.50319742038846,370.67958081746474L193.5030288163107,370.6791223611217L197.22942924813833,369.2183790449053Z"/><path fill="#59260b" stroke="white" stroke-width="0.2" d="M205.89341101853643,374.40987031778786L203.53745388507377,374.6501068989746L203.1648280104855,369.2469542607432L203.16482854494825,369.2464620418614L205.38211555650923,369.00910994259175L205.38213193113916,369.00960218010005Z"/><path fill="#59260b" stroke="white" stroke-width="0.2" d="M208.1286877192324,374.18194705585483L205.89341101853643,374.40987031778786L205.38213193113916,369.00960218010005L205.38211555650923,369.00910994259175L207.6246527597541,368.76903995044995L207.62466913333628,368.7695321883075Z"/><path fill="#59260b" stroke="white" stroke-width="0.2" d="M211.89837468555197,373.7975613742601L208.1286877192324,374.18194705585483L207.62466913333628,368.7695321883075L207.6246527597541,368.76903995044995L211.33361321524717,368.3720070909476L211.33362958743237,368.3724993292708Z"/><path fill="#59260b" stroke="white" stroke-width="0.2" d="M212.58595109335147,373.727456075605L211.89837468555197,373.7975613742601L211.33362958743237,368.3724993292708L211.33361321524717,368.3720070909476L214.25555099430494,368.0592205345165L214.25556736520957,368.05971277237404L214.71198108396493,373.5106777268229Z"/><path fill="#59260b" stroke="white" stroke-width="0.2" d="M293.67163823603187,358.6341765705729L293.85973328573164,360.1741911054123L294.88276308914647,360.04720571485814L295.4056838497054,364.3290850095218L294.1110965347616,364.48976618249435L294.7055958113633,369.0788584972033L302.7509138941532,368.08033139514737L302.75208084937185,368.0801800102927L302.7521310040029,368.08067228947766L303.33784823166206,372.8768840874545L303.3366812811,372.87703547172714L287.98341974266805,374.8591833144892L286.53699602920096,359.5197367966175L286.5369627773762,359.51924453419633L293.6715880773263,358.6336842881283Z"/><path fill="#59260b" stroke="white" stroke-width="0.2" d="M301.4801832519006,357.6650249599479L302.75208084937185,368.0801800102927L302.7509138941532,368.08033139514737L294.7055958113633,369.0788584972033L294.1110965347616,364.48976618249435L295.4056838497054,364.3290850095218L294.88276308914647,360.04720571485814L293.85973328573164,360.1741911054123L293.67163823603187,358.6341765705729L293.6715880773263,358.6336842881283L301.4789491222473,357.66476891038474L301.48013309645467,357.664532676572Z"/><path fill="#59260b" stroke="white" stroke-width="0.2" d="M330.4239989417838,361.5936457058415L330.4226966777351,361.59381387592293L322.4221411875915,362.6349699648563L321.5612328653224,355.0671372752404L321.56121653772425,355.06664503051434L330.56516401073895,353.89498408848885L330.56648329400923,353.894731071312L330.5664657978341,353.8952232761076Z"/><path fill="#59260b" stroke="white" stroke-width="0.2" d="M200.07618363492656,367.71574633778073L200.07542239886243,367.7160170770949L197.09501196572091,368.7655771318823L196.69755550439004,367.4266110047465L199.4521193349501,366.45657624141313L199.46098346856888,366.45346285100095L199.4616770471912,366.45320901076775L199.4618625593139,366.45366748725064L199.52455576730426,366.57090139959473L199.58570879080798,366.6894066092791L199.6451191343367,366.80879251204897L199.7027700357139,366.92892330512404L199.70292172802147,366.9293817449361Z"/><path fill="#59260b" stroke="white" stroke-width="0.2" d="M209.18616479157936,391.88325040612835L207.3629092107294,393.00662853824906L207.13929324632045,393.2286246098811L204.87208616978023,394.53633463184815L204.74488152575213,394.3447937016608L204.61771069746464,394.1532188457204L204.21959815605078,393.4335286542773L204.21939572168048,393.43308714113664L206.49584253516514,392.12005538423546L206.77751359180547,391.84713641693816L208.6819478495745,390.72844510234427Z"/><path fill="#59260b" stroke="white" stroke-width="0.2" d="M304.84810545959044,388.3968150578439L289.4118495573057,390.0080678075319L289.41174908191897,390.00721904973034L287.98345299367793,374.8596755702747L287.98341974266805,374.8591833144892L303.3366812811,372.87703547172714L303.33784823166206,372.8768840874545L303.33789838582743,372.87737636466045L303.3498573806137,372.97546068858355L303.3608693093993,373.07364572864026Z"/><path fill="#59260b" stroke="white" stroke-width="0.2" d="M330.4239814459579,361.59413790749386L329.9780192798935,385.68887882493436L320.27304823487066,386.67772964935284L320.27294792130124,386.6767620773753L319.57841104769614,379.51513533468824L312.18784744874574,380.39757584489416L306.7247395674931,381.04990612412803L306.47154664073605,378.43960913829505L306.4715133977588,378.4391168835573L305.9466285601957,373.0276396321133L305.9465953168692,373.02714737399947L305.93511651456356,372.90905237570405L305.92248778790236,372.7910069292411L304.9610355600016,364.907973008696L304.9609854060691,364.907480728114L309.4079808356473,364.32868221844546L316.032209292287,363.46657018351834L318.0769804670708,363.2004503982607L320.2495603332063,362.917699764017L322.4221411875915,362.6349699648563L330.4226966777351,361.59381387592293L330.4239989417838,361.5936457058415Z"/><path fill="#59260b" stroke="white" stroke-width="0.2" d="M199.4616770471912,366.45320901076775L199.46098346856888,366.45346285100095L199.4521193349501,366.45657624141313L196.69755550439004,367.4266110047465L196.6682390384376,367.32786342548206L192.78313544066623,368.8508146951208L190.6832751230104,363.517937439261L190.67843545612413,363.50540599343367L190.65427776565775,363.43640083738137L190.63404453289695,363.3661269409349L190.61782007024158,363.29480504605453L190.60563794279005,363.22267281322274L190.59753171529155,363.1499679024564L190.59353495319374,363.07692797505297L190.59363050968386,363.003773663193L190.59788577014115,362.9307426654268L190.60623284021858,362.8580725316424L190.61867148266174,362.78598391392734L190.6351338038221,362.71471436333377L190.65560263907537,362.6445014863275L190.67997629207093,362.57556582510006L190.7082037968794,362.50812797551043L190.74018349370454,362.44237453257665L190.775813650107,362.3785599862458L190.81499260629062,362.316870930139L190.85756795457564,362.25751088024117L190.90342116146348,362.20063246623613L190.9524167109048,362.1464561931789L191.0043683933327,362.09516856609844L191.05912389198784,362.04688823316246L191.1165646368172,362.00180177157745L191.17640301329084,361.96004465501755L191.23850359558128,361.9217525246786L191.30266331869643,361.88706094562076L191.3686791905202,361.856037591584L191.4363312177593,361.8288349835202L191.50541642599273,361.8055038213497L191.57569798477925,361.78612871526275L191.64695597370155,361.77079429267906L191.7189705632627,361.7595003162278L191.79150492267217,361.75233139505144L191.86432233115193,361.749270299566L191.93718599446584,361.7503676925553L191.94753437826876,361.7508202162571L192.14007617416792,361.76146751700435L192.3323429679731,361.77623903751373L192.52425022644456,361.7951177126961L192.7157133623259,361.81813739740755L192.90664787834976,361.84524707938544L193.0967991555808,361.8773460612865L193.2865421163151,361.9117360112723L193.4753497004276,361.95106417522766L193.66327358596027,361.99444800184574L193.85017829062417,362.042074048426L194.036132184905,362.09326346137095L194.22089783265255,362.14866096223705L194.40444170509,362.2079949422041L194.5863739401102,362.27213061018847L194.76752597582527,362.33842104987707L194.9468973451294,362.40944509848487L195.12472575495485,362.48430343403015L195.29954075801652,362.5623325010529L195.30092669127043,362.5629620157415L195.47401281550992,362.64474029804114L195.47539872990455,362.64538678654935L195.6467053174274,362.7308463344816L195.64805737545248,362.73152673232835L195.8174998939503,362.82065048080403L195.81885191530455,362.82136482477654L195.98636277893092,362.9141017778311L195.98769785347395,362.9148500500014L196.15317563863937,363.0111661491683L196.15451067627873,363.01194836804643L196.31790470762644,363.11179263715167L196.3192228168482,363.1125918107573L196.4803300278727,363.21609981299844L196.48163119028322,363.21693291456904L196.64073968993034,363.323510899907L196.64202392392326,363.32436095608864L196.79872734216042,363.4345007032389L196.7999777199002,363.43538466922473L196.9542762952624,363.5488655245863L196.95550970744807,363.5498003914254L197.10736967425328,363.6665713972179L197.1085692665074,363.6675062282011L197.25790612970013,363.7875163706485L197.2591056850506,363.7884851472918L197.40585187834222,363.9116664592875L197.40701759548392,363.9126521721482L197.5511055337265,364.0389536578441L197.5522543224506,364.03995632601436L197.69476519117597,364.17034663108643L197.83444877923466,364.3037890295964L197.97125446703285,364.4401816249592L198.1044713979354,364.5801177022513L198.23599560500588,364.7216304371832L198.36381283332594,364.8665507356636L198.488515680423,365.0141833421076L198.61003658093978,365.16446028696373L198.72834178898484,365.31731364002917L198.84334684722126,365.4726584412856L198.95503490197007,365.6304437505314L199.06332149612717,365.7905846090289L199.1682235589251,365.95306405983865L199.26957219431642,366.1176952117821L199.36740120477043,366.28449507360347Z"/></g></svg>
