<svg viewBox="142.92036732050474 29.42561483909958 314.1592653589905 139.13084045264986" xmlns="http://www.w3.org/2000/svg" xmlns:xlink="http://www.w3.org/1999/xlink"><g><path fill="#59260b" stroke="white" stroke-width="0.2" d="M250.1396555249521,112.73305849463213L249.26860485467478,112.79706570963026L249.26846891688183,112.796883366158L249.07213046975085,112.5010691380885L249.2891724842193,112.34562938308227L249.85343288088916,112.2439767625765L249.90428171670646,112.07585171266692L250.04363509712857,112.06669016022352L250.13962550030556,112.73284969714587Z"/><path fill="#59260b" stroke="white" stroke-width="0.2" d="M272.6590033134271,103.68772826273926L272.7801412460976,104.6797269564704L273.6606919745682,104.56512717640726L273.7402547780657,105.26450734850368L272.258836414112,105.45730694904341L272.19596131151775,104.94242073025089L271.8758885076095,104.98407763286377L271.85314444298274,104.79780865486828L271.17870504708844,104.88558894052403L271.0578610180819,103.8960365804378L272.65899209771305,103.68761816990445Z"/><path fill="#59260b" stroke="white" stroke-width="0.2" d="M273.6606919745682,104.56512717640726L272.7801412460976,104.6797269564704L272.6590033134271,103.68772826273926L272.65899209771305,103.68761816990445L273.5477119256684,103.57195304872585L273.54771557767526,103.57206313245115Z"/><path fill="#59260b" stroke="white" stroke-width="0.2" d="M274.19753996806685,105.20499328742153L273.7402547780657,105.26450734850368L273.6606919745682,104.56512717640726L273.54771557767526,103.57206313245115L273.5477119256684,103.57195304872585L274.0049999267794,103.51244209130527L274.00500357864075,103.51255217505968Z"/><path fill="#59260b" stroke="white" stroke-width="0.2" d="M274.6834078290558,105.14175996376434L274.19753996806685,105.20499328742153L274.00500357864075,103.51255217505968L274.0049999267794,103.51244209130527L274.4908707793802,103.44920803213608L274.4908744309796,103.4493181159487Z"/><path fill="#59260b" stroke="white" stroke-width="0.2" d="M275.169275911001,105.07853129960131L274.6834078290558,105.14175996376434L274.4908744309796,103.4493181159487L274.4908707793802,103.44920803213608L274.97674185296637,103.38597863246105L274.97674550439115,103.38608871630277Z"/><path fill="#59260b" stroke="white" stroke-width="0.2" d="M253.54053114718408,106.01755019353004L253.80256805068348,108.84925002802629L252.12376069967286,108.92481993802357L252.1237382310792,108.92461873762659L251.99811700664577,107.87424167621066L251.3078986913024,107.90763701923424L251.2662571016117,107.49188420997234L251.0813673787634,107.5107350354665L250.97929667439894,106.2917010547535L250.97929301322438,106.29159097242518L253.5402513719455,106.01748914940981L253.54052370536374,106.01744010671973Z"/><path fill="#59260b" stroke="white" stroke-width="0.2" d="M250.65262799224,112.69536226405762L250.3972309170058,112.71413174632471L250.39720467414008,112.71392295311671L250.30849304571166,111.98323636155692L250.13973151394748,111.72105820843717L250.20553996460512,111.69202872333699L250.2106661235448,111.54114266490797L249.9555244788935,111.55011614249088L249.8496235566854,111.23595591765479L250.5600832972268,111.20283763634507L250.65261687585735,112.6951534874388Z"/><path fill="#59260b" stroke="white" stroke-width="0.2" d="M251.22351613995852,112.65341139625525L250.65262799224,112.69536226405762L250.65261687585735,112.6951534874388L250.5600832972268,111.20283763634507L251.1328827024554,111.17613592898124L251.2235050239833,112.65320261952002Z"/><path fill="#59260b" stroke="white" stroke-width="0.2" d="M249.73283267361694,111.36125392126269L249.30693192142644,111.611433978891L249.24394003057387,111.6724685842928L248.73484374320833,111.96611023173318L248.59621103911195,111.71553159499308L248.59616576737608,111.71543285643565L249.63491503850673,111.1193428253755Z"/><path fill="#59260b" stroke="white" stroke-width="0.2" d="M249.73283267361694,111.36125392126269L249.30693192142644,111.611433978891L249.24394003057387,111.6724685842928L248.73484374320833,111.96611023173318L248.59621103911195,111.71553159499308L248.59616576737608,111.71543285643565L249.63491503850673,111.1193428253755Z"/><path fill="#59260b" stroke="white" stroke-width="0.2" d="M249.73283267361694,111.36125392126269L249.30693192142644,111.611433978891L249.24394003057387,111.6724685842928L248.73484374320833,111.96611023173318L248.59621103911195,111.71553159499308L248.59616576737608,111.71543285643565L249.63491503850673,111.1193428253755Z"/><path fill="#59260b" stroke="white" stroke-width="0.2" d="M249.63491503850673,111.1193428253755L248.59616576737608,111.71543285643565L248.45748374116374,111.46476670532138L248.45743846936966,111.46466796656023L249.52688978190417,110.85244827499264Z"/><path fill="#59260b" stroke="white" stroke-width="0.2" d="M249.63491503850673,111.1193428253755L248.59616576737608,111.71543285643565L248.45748374116374,111.46476670532138L248.45743846936966,111.46466796656023L249.52688978190417,110.85244827499264Z"/><path fill="#59260b" stroke="white" stroke-width="0.2" d="M249.63491503850673,111.1193428253755L248.59616576737608,111.71543285643565L248.45748374116374,111.46476670532138L248.45743846936966,111.46466796656023L249.52688978190417,110.85244827499264Z"/><path fill="#59260b" stroke="white" stroke-width="0.2" d="M249.63491503850673,111.1193428253755L248.59616576737608,111.71543285643565L248.45748374116374,111.46476670532138L248.45743846936966,111.46466796656023L249.52688978190417,110.85244827499264Z"/><path fill="#59260b" stroke="white" stroke-width="0.2" d="M249.52688978190417,110.85244827499264L248.45743846936966,111.46466796656023L248.31853729559225,111.21359527329332L248.31849202371086,111.21349653464858L249.41838156722952,110.58436111322953Z"/><path fill="#59260b" stroke="white" stroke-width="0.2" d="M247.99627386845532,106.61092308917432L247.99627753082314,106.61103317144443L248.10275408395682,107.83164465930895L247.78645279622287,107.87523939812672L247.60094379406655,107.26118994242279L247.49328806548147,107.29266116875806L247.49200961837778,107.28240734327119L247.48981963284314,107.27230435569072L247.48674070008565,107.26244332935312L247.48279543180251,107.25289640956908L247.47801778058056,107.24373954889597L247.47244169889018,107.23504870009492L247.46611248829868,107.22689603306935L247.4590830260131,107.21934233815409L247.45140997084673,107.21244840940926L247.44315376333543,107.20627504607546L247.43437864622683,107.20086407166673L247.42515642129,107.19626111409161L247.41556267612032,107.19250800955342L247.40567301900592,107.18962761518196L247.39556683559204,107.18764658819418L247.38532352386392,107.18658019800205L247.37502626769128,107.18643992306897L247.3647809571703,107.18722208251711L247.27922029103502,106.92580362191075L247.2261625623796,106.73451735562412L247.1716330591007,106.55082096660044L247.14157246684772,106.4495579932991L247.8081006182765,106.21483819923014L247.8082708583388,106.21477765208692L247.80830856380635,106.21488018002128L247.99617952478002,106.6107407878444Z"/><path fill="#59260b" stroke="white" stroke-width="0.2" d="M247.0526867491426,106.1501164775982L247.14157246684772,106.4495579932991L247.1716330591007,106.55082096660044L246.33827441709582,106.87749629002064L246.17731778643792,106.46872273951885L246.1772800803592,106.46862021202105L247.04613052131026,106.12803292807075Z"/><path fill="#59260b" stroke="white" stroke-width="0.2" d="M271.8758885076095,104.98407763286377L272.19596131151775,104.94242073025089L272.258836414112,105.45730694904341L271.26432652716176,105.58674734301167L271.17871626335545,104.88569903274765L271.17870504708844,104.88558894052403L271.85314444298274,104.79780865486828Z"/><path fill="#59260b" stroke="white" stroke-width="0.2" d="M266.5742351944209,104.47824162864708L267.21372667263495,111.25999180579674L265.7196025115845,111.4159670387453L265.7195838523621,111.41575066038058L265.5910119256878,110.04442374000791L265.55488565244013,110.04498166849953L263.83767670192174,110.2263579207065L263.0648141001002,110.30798936676001L263.1934136277705,111.67948080267524L263.1934322890593,111.67969718074892L260.14419088102295,111.99808723924798L254.7096763861191,112.3972711325332L254.70965389866615,112.39708891281043L254.1136561886815,105.95620654444792L254.1136525288166,105.95609646179946L259.2541156329098,105.4059700195794L266.57395919787814,104.47818437081878L266.57422775792656,104.47813154081814Z"/><path fill="#59260b" stroke="white" stroke-width="0.2" d="M250.30849304571166,111.98323636155692L250.39720467414008,112.71392295311671L250.3972309170058,112.71413174632471L250.1396555249521,112.73305849463213L250.13962550030556,112.73284969714587L250.04363509712857,112.06669016022352L249.93128521653125,111.81300455049495L250.13973151394748,111.72105820843717Z"/><path fill="#59260b" stroke="white" stroke-width="0.2" d="M249.93128521653125,111.81300455049495L250.04363509712857,112.06669016022352L249.90428171670646,112.07585171266692L249.85343288088916,112.2439767625765L249.2891724842193,112.34562938308227L249.07213046975085,112.5010691380885L248.88080906157847,112.21283648876124L249.38783900777344,111.92038497477188L249.43784766891622,111.8707385805319L249.84559391700896,111.61951038011466Z"/><path fill="#59260b" stroke="white" stroke-width="0.2" d="M263.9663769249746,111.5990003576735L263.1934322890593,111.67969718074892L263.1934136277705,111.67948080267524L263.0648141001002,110.30798936676001L263.83767670192174,110.2263579207065L263.9663582642097,111.59878397965804Z"/><path fill="#59260b" stroke="white" stroke-width="0.2" d="M265.7196025115845,111.4159670387453L263.9663769249746,111.5990003576735L263.9663582642097,111.59878397965804L263.83767670192174,110.2263579207065L265.55488565244013,110.04498166849953L265.5910119256878,110.04442374000791L265.7195838523621,111.41575066038058Z"/><path fill="#59260b" stroke="white" stroke-width="0.2" d="M249.41838156722952,110.58436111322953L248.31849202371086,111.21349653464858L247.65367785733542,110.01179705420509L247.65363637069822,110.01169452365139L249.14839312821277,109.58812418603338L249.14841191645246,109.58823428372853L249.401726856624,110.54320834748796Z"/><path fill="#59260b" stroke="white" stroke-width="0.2" d="M249.8496235566854,111.23595591765479L249.9555244788935,111.55011614249088L250.2106661235448,111.54114266490797L250.20553996460512,111.69202872333699L250.13973151394748,111.72105820843717L249.93128521653125,111.81300455049495L249.84559391700896,111.61951038011466L249.73283267361694,111.36125392126269L249.63491503850673,111.1193428253755L249.52688978190417,110.85244827499264L249.41838156722952,110.58436111322953L249.401726856624,110.54320834748796L249.14841191645246,109.58823428372853L249.14839312821277,109.58812418603338L249.42570453925873,109.50954098333023L249.4257233274111,109.50965108090895Z"/><path fill="#59260b" stroke="white" stroke-width="0.2" d="M253.84526306652697,109.3106843472342L254.13479351132992,112.43950625241268L251.22351613995852,112.65341139625525L251.2235050239833,112.65320261952002L251.1328827024554,111.17613592898124L250.5600832972268,111.20283763634507L249.8496235566854,111.23595591765479L249.4257233274111,109.50965108090895L249.42570453925873,109.50954098333023L253.8449833157356,109.31060432468075L253.84525562493945,109.31057426179177Z"/><path fill="#59260b" stroke="white" stroke-width="0.2" d="M274.6886605779582,110.45536664722022L271.8092940186616,110.74877252211445L271.809267769946,110.74858270390541L271.6587735284993,109.19689074490452L271.65876609415864,109.19678065885091L272.8805156748858,109.05089588731062L274.533314443368,108.85355010049534L274.6886381441727,110.45515026294743Z"/><path fill="#59260b" stroke="white" stroke-width="0.2" d="M252.12376069967286,108.92481993802357L251.412978363398,108.9568218466884L251.41295967585756,108.95662065030774L251.3078986913024,107.90763701923424L251.99811700664577,107.87424167621066L252.1237382310792,108.92461873762659Z"/><path fill="#59260b" stroke="white" stroke-width="0.2" d="M248.41953930060845,109.09160354017513L247.23114323997288,109.14512156834826L247.2310640148644,109.1449468768842L246.78548756043892,108.01330264779972L246.7854536405066,108.01319632900413L247.78645279622287,107.87523939812672L248.10275408395682,107.83164465930895L248.29284731045482,107.8054488566122L248.41952061079792,109.09140234408551Z"/><path fill="#59260b" stroke="white" stroke-width="0.2" d="M249.2363588262233,109.05482101725647L248.41953930060845,109.09160354017513L248.41952061079792,109.09140234408551L248.29284731045482,107.8054488566122L248.5823367506382,107.76555283213384L249.10921443684492,107.71182719670469L249.23634013708215,109.05461982119596Z"/><path fill="#59260b" stroke="white" stroke-width="0.2" d="M250.74059661384672,108.9870915224019L249.2363588262233,109.05482101725647L249.23634013708215,109.05461982119596L249.10921443684492,107.71182719670469L249.60910358992987,107.6608552671969L250.4521426750871,107.57489265114418L250.60590976267122,107.55921455708449L250.74057792581152,108.98689032619586Z"/><path fill="#59260b" stroke="white" stroke-width="0.2" d="M251.3078986913024,107.90763701923424L251.41295967585756,108.95662065030774L251.412978363398,108.9568218466884L250.74059661384672,108.9870915224019L250.74057792581152,108.98689032619586L250.60590976267122,107.55921455708449L251.0813673787634,107.5107350354665L251.2662571016117,107.49188420997234Z"/><path fill="#59260b" stroke="white" stroke-width="0.2" d="M248.29284731045482,107.8054488566122L248.10275408395682,107.83164465930895L247.99627753082314,106.61103317144443L247.99627386845532,106.61092308917432L248.49900417457684,106.55710134591209L248.4990040550474,106.55721142396214L248.5823367506382,107.76555283213384Z"/><path fill="#59260b" stroke="white" stroke-width="0.2" d="M247.2261625623796,106.73451735562412L247.27922029103502,106.92580362191075L247.3647809571703,107.18722208251711L247.37502626769128,107.18643992306897L247.38532352386392,107.18658019800205L247.39556683559204,107.18764658819418L247.40567301900592,107.18962761518196L247.41556267612032,107.19250800955342L247.42515642129,107.19626111409161L247.43437864622683,107.20086407166673L247.44315376333543,107.20627504607546L247.45140997084673,107.21244840940926L247.4590830260131,107.21934233815409L247.46611248829868,107.22689603306935L247.47244169889018,107.23504870009492L247.47801778058056,107.24373954889597L247.48279543180251,107.25289640956908L247.48674070008565,107.26244332935312L247.48981963284314,107.27230435569072L247.49200961837778,107.28240734327119L247.49328806548147,107.29266116875806L247.60094379406655,107.26118994242279L247.78645279622287,107.87523939812672L246.7854536405066,108.01319632900413L246.33831212308723,106.87759881754755L246.33827441709582,106.87749629002064L247.1716330591007,106.55082096660044Z"/><path fill="#59260b" stroke="white" stroke-width="0.2" d="M249.10921443684492,107.71182719670469L248.5823367506382,107.76555283213384L248.4990040550474,106.55721142396214L248.49900417457684,106.55710134591209L248.99487017898355,106.50402078550542L248.9948738409439,106.50413086771732Z"/><path fill="#59260b" stroke="white" stroke-width="0.2" d="M249.60910358992987,107.6608552671969L249.10921443684492,107.71182719670469L248.9948738409439,106.50413086771732L248.99487017898355,106.50402078550542L249.49638304443215,106.45033240548219L249.49638670615968,106.4504424877523Z"/><path fill="#59260b" stroke="white" stroke-width="0.2" d="M250.4521426750871,107.57489265114418L249.60910358992987,107.6608552671969L249.49638670615968,106.4504424877523L249.49638304443215,106.45033240548219L250.325841473561,106.36154142054147L250.3258451349975,106.361651502928Z"/><path fill="#59260b" stroke="white" stroke-width="0.2" d="M250.60590976267122,107.55921455708449L250.4521426750871,107.57489265114418L250.3258451349975,106.361651502928L250.325841473561,106.36154142054147L250.97929301322438,106.29159097242518L250.97929667439894,106.2917010547535L251.0813673787634,107.5107350354665Z"/><path fill="#59260b" stroke="white" stroke-width="0.2" d="M268.73961797822267,104.18380841324688L268.7816828711366,104.52821166373906L269.0104695362679,104.49981311277952L269.12741363365785,105.45739702775609L268.8378968340985,105.49333118100185L268.97084849051316,106.51961909866077L270.7700741708395,106.29631212854292L270.77033514447976,106.29627827339573L270.7703463608632,106.29638836492086L270.90133403177606,107.36899573064875L270.90107305921265,107.36902958567953L267.4675254788017,107.8123099214281L267.1440525392536,104.38185188197531L267.1440451029048,104.38174179420457L268.7396067609079,104.18369832096505Z"/><path fill="#59260b" stroke="white" stroke-width="0.2" d="M270.48589259086293,103.9670708712365L270.77033514447976,106.29627827339573L270.7700741708395,106.29631212854292L268.97084849051316,106.51961909866077L268.8378968340985,105.49333118100185L269.12741363365785,105.45739702775609L269.0104695362679,104.49981311277952L268.7816828711366,104.52821166373906L268.73961797822267,104.18380841324688L268.7396067609079,104.18369832096505L270.4856165945821,103.96701360924635L270.4858813742758,103.96696077875094Z"/><path fill="#59260b" stroke="white" stroke-width="0.2" d="M276.95878228149377,104.84565332892817L276.9584910479025,104.84569093788741L275.169275911001,105.07853129960131L274.97674550439115,103.38608871630277L274.97674185296637,103.38597863246105L276.99035192420706,103.12395263998769L276.99064696390997,103.12389605611679L276.9906430511328,103.12400613102363Z"/><path fill="#59260b" stroke="white" stroke-width="0.2" d="M247.8082708583388,106.21477765208692L247.8081006182765,106.21483819923014L247.14157246684772,106.4495579932991L247.0526867491426,106.1501164775982L247.66870738760917,105.9331814305333L247.6706897302065,105.93248516324093L247.6708448396239,105.9324283953174L247.67088632687228,105.9325309273554L247.68490680793184,105.95874869317049L247.69858284774818,105.9852507673495L247.71186916090664,106.01194979649154L247.72476199886296,106.03881541022565L247.7247959227825,106.03891793405637Z"/><path fill="#59260b" stroke="white" stroke-width="0.2" d="M249.84559391700896,111.61951038011466L249.43784766891622,111.8707385805319L249.38783900777344,111.92038497477188L248.88080906157847,112.21283648876124L248.85236147753312,112.17000097164419L248.8239214559726,112.12715786750778L248.7348890148569,111.96620897014509L248.73484374320833,111.96611023173318L249.24394003057387,111.6724685842928L249.30693192142644,111.611433978891L249.73283267361694,111.36125392126269Z"/><path fill="#59260b" stroke="white" stroke-width="0.2" d="M271.2390824664035,110.83981665674946L267.7869743282499,111.2001513626019L267.7869518583175,111.19996154948603L267.4675329149468,107.81242000771454L267.4675254788017,107.8123099214281L270.90107305921265,107.36902958567953L270.90133403177606,107.36899573064875L270.9013452481013,107.36910582173732L270.9040197141876,107.39104104327271L270.9064823818917,107.41299878858263Z"/><path fill="#59260b" stroke="white" stroke-width="0.2" d="M276.9587783687748,104.84576340313652L276.8590450116608,110.2342236446857L274.6886605779582,110.45536664722022L274.6886381441727,110.45515026294743L274.533314443368,108.85355010049534L272.8805156748858,109.05089588731062L271.65876609415864,109.19678065885091L271.6021429487155,108.61302333293133L271.6021355143748,108.61291324684862L271.4847521779884,107.4027101524407L271.48474474356044,107.4026000656304L271.482177665981,107.37618972966447L271.4793534234632,107.34979047527304L271.26433774339966,105.58685743485694L271.26432652716176,105.58674734301167L272.258836414112,105.45730694904341L273.7402547780657,105.26450734850368L274.19753996806685,105.20499328742153L274.6834078290558,105.14175996376434L275.169275911001,105.07853129960131L276.9584910479025,104.84569093788741L276.95878228149377,104.84565332892817Z"/><path fill="#59260b" stroke="white" stroke-width="0.2" d="M247.6708448396239,105.9324283953174L247.6706897302065,105.93248516324093L247.66870738760917,105.9331814305333L247.0526867491426,106.1501164775982L247.04613052131026,106.12803292807075L246.1772800803592,106.46862021202105L245.70767495475593,105.27599493478192L245.7065926292562,105.27319244781393L245.7011900912039,105.25776038563345L245.69666520459577,105.24204458697932L245.69303682478494,105.22609441773966L245.69031245808583,105.20996302750427L245.68849961084197,105.19370356565923L245.68760578951333,105.17736918185255L245.6876271594083,105.16100921758334L245.68857879040297,105.1446768308233L245.69044549876708,105.12842514636577L245.69322723153164,105.11230351001723L245.6969088051992,105.09636504689115L245.70148638106184,105.08066289441194L245.7069372162223,105.06524637379334L245.71324991274741,105.05016481835628L245.72040173583082,105.0354599574639L245.72836993445526,105.02118870438426L245.73713177375612,105.00739278821857L245.7466531698301,104.99411772246822L245.75690761426813,104.98139764080406L245.7678648007859,104.96928185611614L245.7794830861094,104.95781207768596L245.791728406708,104.94701483959216L245.80457424602355,104.93693186726887L245.81795628296095,104.92759345757077L245.83184423134662,104.91902994478005L245.84619267852395,104.91127164621139L245.86095622804714,104.90433369611856L245.87608568140422,104.89825020378339L245.89153564616572,104.89303250750527L245.90725315839518,104.88869952925597L245.92318903590785,104.88527019473258L245.93929411686258,104.88274445090792L245.9555154372065,104.88114121943363L245.97180005768314,104.88045664719539L245.98809502235963,104.88070206416887L245.99040929728653,104.88080326491036L246.03346864439663,104.88318438851275L246.07646649098024,104.88648783767712L246.11938393244054,104.89070979593089L246.16220205192803,104.89585783451912L246.20490195276216,104.90192054520594L246.24742669294938,104.90909904480213L246.28986011870438,104.91678988817148L246.33208436027053,104.92558509571245L246.37411097466247,104.93528729697573L246.4159096631629,104.94593821282615L246.45749571587658,104.95738602700294L246.49881603344693,104.96977492264705L246.53986311765038,104.98304415817256L246.5805497811525,104.99738722573966L246.6210619636695,105.01221217861166L246.6611759244115,105.02809573858394L246.70094482335844,105.04483678450924L246.74003981496207,105.06228692134027L246.74034976001712,105.06242770369863L246.7790581114241,105.08071630139602L246.7793680523173,105.08086087970878L246.81767843459966,105.09997274226043L246.81798080392764,105.10012490395457L246.8558743126341,105.1200562149752L246.85617667375482,105.12021596825798L246.8936381941603,105.14095532320789L246.8939367653802,105.14112266409211L246.93094361553085,105.16266244626604L246.93124217851437,105.16283737885533L246.967783025495,105.18516618813737L246.96807780265226,105.1853449124028L247.00410723348614,105.20849306564196L247.00439822071348,105.20867937745061L247.03998066700296,105.2325140905159L247.04026786840404,105.23270419400069L247.075312451052,105.25733544654213L247.07559208097518,105.2575331334956L247.11009885329986,105.28291157932836L247.11037468907307,105.28312064954662L247.1443360998528,105.30923489265842L247.14460437229718,105.30944395484403L247.1780015253462,105.33628258670797L247.17826978955418,105.33649924039491L247.21108757460024,105.36404706106987L247.21134827134665,105.36426750230021L247.2435715738975,105.3925131073047L247.24382848481764,105.39273734035669L247.27569909728481,105.421897354041L247.30693742696894,105.45173992679338L247.33753215352772,105.48224227086757L247.3673243035155,105.51353706631926L247.39673789890367,105.5451844597701L247.42532247904455,105.57759390835417L247.4532105703256,105.61060992759303L247.48038706262014,105.644217317109L247.50684440913028,105.67840088513913L247.53256372216856,105.71314163159695L247.5575412325852,105.74842816439923L247.58175805275096,105.78424148366321L247.60521796860849,105.82057779718889L247.6278832088865,105.8573953093728L247.649761333043,105.89469782391097Z"/></g></svg>