<svg viewBox="142.92036732050474 33.879346293600975 314.1592653589905 160.21752962021856" xmlns="http://www.w3.org/2000/svg" xmlns:xlink="http://www.w3.org/1999/xlink"><g><path fill="#59260b" stroke="white" stroke-width="0.2" d="M247.99627386845532,132.1513437112444L247.99627753082314,132.15145379351452L248.10275408395682,133.37206528134993L247.78645279622287,133.4156600201677L247.60094379406655,132.80161056449288L247.49328806548147,132.83308179082815L247.49200961837778,132.82282796534128L247.48981963284314,132.8127249777608L247.48674070008565,132.8028639514232L247.48279543180251,132.79331703163916L247.47801778058056,132.78416017096606L247.47244169889018,132.775469322165L247.46611248829868,132.76731665513944L247.4590830260131,132.75976296022418L247.45140997084673,132.75286903150845L247.44315376333543,132.74669566817465L247.43437864622683,132.74128469373682L247.42515642129,132.7366817361617L247.41556267612032,132.7329286316235L247.40567301900592,132.73004823725205L247.39556683559204,132.72806721026427L247.38532352386392,132.72700082007213L247.37502626769128,132.72686054513906L247.3647809571703,132.7276427045872L247.27922029103502,132.46622424400994L247.2261625623796,132.2749379776942L247.1716330591007,132.09124158869963L247.14157246684772,131.98997861536918L247.8081006182765,131.75525882130023L247.8082708583388,131.755198274157L247.80830856380635,131.75530080209137L247.99617952478002,132.1511614099145Z"/><path fill="#59260b" stroke="white" stroke-width="0.2" d="M247.0526867491426,131.6905370996683L247.14157246684772,131.98997861536918L247.1716330591007,132.09124158869963L246.33827441709582,132.41791691206163L246.17731778643792,132.00914336161804L246.1772800803592,132.00904083409114L247.04613052131026,131.66845355016994Z"/><path fill="#59260b" stroke="white" stroke-width="0.2" d="M263.9663769249746,137.1394209797436L263.1934322890593,137.220117802819L263.1934136277705,137.21990142474533L263.0648141001002,135.8484099888301L263.83767670192174,135.7667785427766L263.9663582642097,137.13920460172812Z"/><path fill="#59260b" stroke="white" stroke-width="0.2" d="M265.7196025115845,136.95638766081538L263.9663769249746,137.1394209797436L263.9663582642097,137.13920460172812L263.83767670192174,135.7667785427766L265.55488565244013,135.58540229056962L265.5910119256878,135.5848443620489L265.7195838523621,136.95617128247977Z"/><path fill="#59260b" stroke="white" stroke-width="0.2" d="M248.41953930060845,134.63202416224522L247.23114323997288,134.68554219041835L247.2310640148644,134.6853674989543L246.78548756043892,133.5537232698698L246.7854536405066,133.55361695107422L247.78645279622287,133.4156600201677L248.10275408395682,133.37206528134993L248.29284731045482,133.3458694786823L248.41952061079792,134.6318229661556Z"/><path fill="#59260b" stroke="white" stroke-width="0.2" d="M247.2261625623796,132.2749379776942L247.27922029103502,132.46622424400994L247.3647809571703,132.7276427045872L247.37502626769128,132.72686054513906L247.38532352386392,132.72700082007213L247.39556683559204,132.72806721026427L247.40567301900592,132.73004823725205L247.41556267612032,132.7329286316235L247.42515642129,132.7366817361617L247.43437864622683,132.74128469373682L247.44315376333543,132.74669566817465L247.45140997084673,132.75286903150845L247.4590830260131,132.75976296022418L247.46611248829868,132.76731665513944L247.47244169889018,132.775469322165L247.47801778058056,132.78416017096606L247.48279543180251,132.79331703163916L247.48674070008565,132.8028639514232L247.48981963284314,132.8127249777608L247.49200961837778,132.82282796534128L247.49328806548147,132.83308179082815L247.60094379406655,132.80161056449288L247.78645279622287,133.4156600201677L246.7854536405066,133.55361695107422L246.33831212308723,132.41801943958853L246.33827441709582,132.41791691206163L247.1716330591007,132.09124158869963Z"/><path fill="#59260b" stroke="white" stroke-width="0.2" d="M247.8082708583388,131.755198274157L247.8081006182765,131.75525882130023L247.14157246684772,131.98997861536918L247.0526867491426,131.6905370996683L247.66870738760917,131.47360205257428L247.6706897302065,131.4729057852819L247.6708448396239,131.4728490173875L247.67088632687228,131.4729515494255L247.68490680793184,131.49916931524058L247.69858284774818,131.52567138941959L247.71186916090664,131.55237041856162L247.72476199886296,131.57923603229574L247.7247959227825,131.57933855615556Z"/><path fill="#59260b" stroke="white" stroke-width="0.2" d="M247.6708448396239,131.4728490173875L247.6706897302065,131.4729057852819L247.66870738760917,131.47360205257428L247.0526867491426,131.6905370996683L247.04613052131026,131.66845355016994L246.1772800803592,132.00904083409114L245.70767495475593,130.816415556852L245.7065926292562,130.813613069884L245.7011900912039,130.79818100770353L245.69666520459577,130.7824652090494L245.69303682478494,130.76651503980975L245.69031245808583,130.75038364957436L245.68849961084197,130.73412418770022L245.68760578951333,130.71778980398085L245.6876271594083,130.70142983965343L245.68857879040297,130.6850974528934L245.69044549876708,130.66884576846496L245.69322723153164,130.65272413211642L245.6969088051992,130.63678566896124L245.70148638106184,130.62108351648203L245.7069372162223,130.60566699586343L245.71324991274741,130.59058544042637L245.72040173583082,130.575880579534L245.72836993445526,130.56160932645435L245.73713177375612,130.54781341025955L245.7466531698301,130.5345383445383L245.75690761426813,130.52181826287415L245.7678648007859,130.50970247818623L245.7794830861094,130.49823269975604L245.791728406708,130.48743546166224L245.80457424602355,130.47735248933895L245.81795628296095,130.46801407969906L245.83184423134662,130.45945056685014L245.84619267852395,130.45169226828148L245.86095622804714,130.44475431815954L245.87608568140422,130.43867082585348L245.89153564616572,130.43345312957535L245.90725315839518,130.42912015132606L245.92318903590785,130.42569081683178L245.93929411686258,130.423165072978L245.9555154372065,130.42156184150372L245.97180005768314,130.42087726926547L245.98809502235963,130.42112268623896L245.99040929728653,130.42122388698044L246.03346864439663,130.42360501055373L246.07646649098024,130.4269084597472L246.11938393244054,130.43113041800098L246.16220205192803,130.4362784565892L246.20490195276216,130.44234116727603L246.24742669294938,130.44951966687222L246.28986011870438,130.45721051027067L246.33208436027053,130.46600571778254L246.37411097466247,130.4757079189876L246.4159096631629,130.48635883489624L246.45749571587658,130.49780664907303L246.49881603344693,130.51019554471713L246.53986311765038,130.52346478024265L246.5805497811525,130.53780784780974L246.6210619636695,130.55263280068175L246.6611759244115,130.56851636065403L246.70094482335844,130.58525740655023L246.74003981496207,130.60270754341036L246.74034976001712,130.6028483257105L246.7790581114241,130.6211369234661L246.7793680523173,130.62128150177887L246.81767843459966,130.64039336433052L246.81798080392764,130.64054552602465L246.8558743126341,130.66047683704528L246.85617667375482,130.66063659032807L246.8936381941603,130.68137594527798L246.8939367653802,130.6815432861622L246.93094361553085,130.70308306833613L246.93124217851437,130.70325800092542L246.967783025495,130.72558681020746L246.96807780265226,130.72576553447288L247.00410723348614,130.74891368771205L247.00439822071348,130.7490999995207L247.03998066700296,130.772934712586L247.04026786840404,130.77312481607078L247.075312451052,130.79775606861222L247.07559208097518,130.7979537555657L247.11009885329986,130.82333220139844L247.11037468907307,130.8235412716167L247.1443360998528,130.84965551475761L247.14460437229718,130.84986457691411L247.1780015253462,130.87670320880716L247.17826978955418,130.876919862465L247.21108757460024,130.90446768313996L247.21134827134665,130.9046881244285L247.2435715738975,130.93293372937478L247.24382848481764,130.93315796242678L247.27569909728481,130.96231797611108L247.30693742696894,130.99216054889257L247.33753215352772,131.02266289296676L247.3673243035155,131.05395768838935L247.39673789890367,131.08560508184019L247.42532247904455,131.11801453042426L247.4532105703256,131.15103054966312L247.48038706262014,131.18463793917908L247.50684440913028,131.2188215071801L247.53256372216856,131.25356225369615L247.5575412325852,131.28884878646932L247.58175805275096,131.3246621057333L247.60521796860849,131.36099841925898L247.6278832088865,131.397815931472L247.649761333043,131.43511844598106Z"/></g></svg>