<svg viewBox="142.92036732050474 33.879346293600975 314.1592653589905 160.21752962021856" xmlns="http://www.w3.org/2000/svg" xmlns:xlink="http://www.w3.org/1999/xlink"><g><path fill="#59260b" stroke="white" stroke-width="0.2" d="M250.1396555249521,138.27347911670222L249.26860485467478,138.33748633167124L249.26846891688183,138.3373039882281L249.07213046975085,138.04148976015858L249.2891724842193,137.88605000515236L249.85343288088916,137.78439738464658L249.90428171670646,137.616272334737L250.04363509712857,137.6071107822936L250.13962550030556,138.27327031921595Z"/><path fill="#59260b" stroke="white" stroke-width="0.2" d="M272.6590033134271,129.22814888478024L272.7801412460976,130.2201475785405L273.6606919745682,130.10554779853555L273.7402547780657,130.80492797057377L272.258836414112,130.9977275710553L272.19596131151775,130.48284135232097L271.8758885076095,130.52449825496296L271.85314444298274,130.33822927693836L271.17870504708844,130.42600956259412L271.0578610180819,129.43645720250788L272.65899209771305,129.22803879197454Z"/><path fill="#59260b" stroke="white" stroke-width="0.2" d="M273.6606919745682,130.10554779853555L272.7801412460976,130.2201475785405L272.6590033134271,129.22814888478024L272.65899209771305,129.22803879197454L273.5477119256684,129.11237367079593L273.54771557767526,129.11248375452124Z"/><path fill="#59260b" stroke="white" stroke-width="0.2" d="M274.19753996806685,130.74541390949162L273.7402547780657,130.80492797057377L273.6606919745682,130.10554779853555L273.54771557767526,129.11248375452124L273.5477119256684,129.11237367079593L274.0049999267794,129.05286271337536L274.00500357864075,129.05297279712977Z"/><path fill="#59260b" stroke="white" stroke-width="0.2" d="M274.6834078290558,130.68218058589264L274.19753996806685,130.74541390949162L274.00500357864075,129.05297279712977L274.0049999267794,129.05286271337536L274.4908707793802,128.98962865426438L274.4908744309796,128.9897387380188Z"/><path fill="#59260b" stroke="white" stroke-width="0.2" d="M275.169275911001,130.6189519216714L274.6834078290558,130.68218058589264L274.4908744309796,128.9897387380188L274.4908707793802,128.98962865426438L274.97674185296637,128.92639925453113L274.97674550439115,128.92650933834375Z"/><path fill="#59260b" stroke="white" stroke-width="0.2" d="M253.54053114718408,131.55797081560013L253.80256805068348,134.38967065006727L252.12376069967286,134.46524056009366L252.1237382310792,134.46503935969668L251.99811700664577,133.41466229828075L251.3078986913024,133.44805764136254L251.2662571016117,133.03230483204243L251.0813673787634,133.05115565750748L250.97929667439894,131.8321216768236L250.97929301322438,131.83201159449527L253.5402513719455,131.5579097714799L253.54052370536374,131.55786072878982Z"/><path fill="#59260b" stroke="white" stroke-width="0.2" d="M250.65262799224,138.2357828860986L250.3972309170058,138.2545523683948L250.39720467414008,138.2543435751868L250.30849304571166,137.523656983627L250.13973151394748,137.26147883050726L250.20553996460512,137.23244934540708L250.2106661235448,137.08156328691985L249.9555244788935,137.09053676461917L249.8496235566854,136.77637653972488L250.5600832972268,136.74325825841515L250.65261687585735,138.2355741095089Z"/><path fill="#59260b" stroke="white" stroke-width="0.2" d="M251.22351613995852,138.19383201832534L250.65262799224,138.2357828860986L250.65261687585735,138.2355741095089L250.5600832972268,136.74325825841515L251.1328827024554,136.71655655108043L251.2235050239833,138.193623241561Z"/><path fill="#59260b" stroke="white" stroke-width="0.2" d="M249.73283267361694,136.90167454333277L249.30693192142644,137.15185460093198L249.24394003057387,137.2128892063629L248.73484374320833,137.50653085380327L248.59621103911195,137.25595221706317L248.59616576737608,137.25585347850574L249.63491503850673,136.65976344744558Z"/><path fill="#59260b" stroke="white" stroke-width="0.2" d="M249.63491503850673,136.65976344744558L248.59616576737608,137.25585347850574L248.45748374116374,137.00518732739147L248.45743846936966,137.00508858863031L249.52688978190417,136.39286889706273Z"/><path fill="#59260b" stroke="white" stroke-width="0.2" d="M249.52688978190417,136.39286889706273L248.45743846936966,137.00508858863031L248.31853729559225,136.7540158953634L248.31849202371086,136.75391715671867L249.41838156722952,136.1247817352414Z"/><path fill="#59260b" stroke="white" stroke-width="0.2" d="M271.8758885076095,130.52449825496296L272.19596131151775,130.48284135232097L272.258836414112,130.9977275710553L271.26432652716176,131.12716796508175L271.17871626335545,130.42611965481774L271.17870504708844,130.42600956259412L271.85314444298274,130.33822927693836Z"/><path fill="#59260b" stroke="white" stroke-width="0.2" d="M266.5742351944209,130.01866225065896L267.21372667263495,136.80041242786683L265.7196025115845,136.95638766081538L265.7195838523621,136.95617128247977L265.5910119256878,135.5848443620489L265.55488565244013,135.58540229056962L263.83767670192174,135.7667785427766L263.0648141001002,135.8484099888301L263.1934136277705,137.21990142474533L263.1934322890593,137.220117802819L260.14419088102295,137.53850786131807L254.7096763861191,137.9376917546033L254.70965389866615,137.93750953488052L254.1136561886815,131.496627166518L254.1136525288166,131.49651708384044L259.2541156329098,130.9463906416495L266.57395919787814,130.01860499288887L266.57422775792656,130.01855216291733Z"/><path fill="#59260b" stroke="white" stroke-width="0.2" d="M250.30849304571166,137.523656983627L250.39720467414008,138.2543435751868L250.3972309170058,138.2545523683948L250.1396555249521,138.27347911670222L250.13962550030556,138.27327031921595L250.04363509712857,137.6071107822936L249.93128521653125,137.35342517256504L250.13973151394748,137.26147883050726Z"/><path fill="#59260b" stroke="white" stroke-width="0.2" d="M249.93128521653125,137.35342517256504L250.04363509712857,137.6071107822936L249.90428171670646,137.616272334737L249.85343288088916,137.78439738464658L249.2891724842193,137.88605000515236L249.07213046975085,138.04148976015858L248.88080906157847,137.75325711086043L249.38783900777344,137.46080559684196L249.43784766891622,137.4111592026602L249.84559391700896,137.15993100218475Z"/><path fill="#59260b" stroke="white" stroke-width="0.2" d="M249.41838156722952,136.1247817352414L248.31849202371086,136.75391715671867L247.65367785733542,135.55221767633338L247.65363637069822,135.55211514572147L249.14839312821277,135.12854480810347L249.14841191645246,135.1286549057986L249.401726856624,136.08362896955805Z"/><path fill="#59260b" stroke="white" stroke-width="0.2" d="M249.8496235566854,136.77637653972488L249.9555244788935,137.09053676461917L250.2106661235448,137.08156328691985L250.20553996460512,137.23244934540708L250.13973151394748,137.26147883050726L249.93128521653125,137.35342517256504L249.84559391700896,137.15993100218475L249.73283267361694,136.90167454333277L249.63491503850673,136.65976344744558L249.52688978190417,136.39286889706273L249.41838156722952,136.1247817352414L249.401726856624,136.08362896955805L249.14841191645246,135.1286549057986L249.14839312821277,135.12854480810347L249.42570453925873,135.0499616054003L249.4257233274111,135.05007170300814Z"/><path fill="#59260b" stroke="white" stroke-width="0.2" d="M253.84526306652697,134.8511049693043L254.13479351132992,137.97992687448277L251.22351613995852,138.19383201832534L251.2235050239833,138.193623241561L251.1328827024554,136.71655655108043L250.5600832972268,136.74325825841515L249.8496235566854,136.77637653972488L249.4257233274111,135.05007170300814L249.42570453925873,135.0499616054003L253.8449833157356,134.85102494677994L253.84525562493945,134.85099488386186Z"/><path fill="#59260b" stroke="white" stroke-width="0.2" d="M274.6886605779582,135.9957872692903L271.8092940186616,136.28919314418454L271.809267769946,136.2890033259464L271.6587735284993,134.7373113669746L271.65876609415864,134.737201280921L272.8805156748858,134.5913165093807L274.533314443368,134.39397072256543L274.6886381441727,135.99557088501751Z"/><path fill="#59260b" stroke="white" stroke-width="0.2" d="M252.12376069967286,134.46524056009366L251.412978363398,134.49724246872938L251.41295967585756,134.49704127243604L251.3078986913024,133.44805764136254L251.99811700664577,133.41466229828075L252.1237382310792,134.46503935969668Z"/><path fill="#59260b" stroke="white" stroke-width="0.2" d="M249.2363588262233,134.59524163932656L248.41953930060845,134.63202416224522L248.41952061079792,134.6318229661556L248.29284731045482,133.3458694786823L248.5823367506382,133.30597345417482L249.10921443684492,133.25224781877478L249.23634013708215,134.59504044326604Z"/><path fill="#59260b" stroke="white" stroke-width="0.2" d="M250.74059661384672,134.52751214447198L249.2363588262233,134.59524163932656L249.23634013708215,134.59504044326604L249.10921443684492,133.25224781877478L249.60910358992987,133.20127588926698L250.4521426750871,133.11531327324337L250.60590976267122,133.09963517915457L250.74057792581152,134.52731094826595Z"/><path fill="#59260b" stroke="white" stroke-width="0.2" d="M251.3078986913024,133.44805764136254L251.41295967585756,134.49704127243604L251.412978363398,134.49724246872938L250.74059661384672,134.52751214447198L250.74057792581152,134.52731094826595L250.60590976267122,133.09963517915457L251.0813673787634,133.05115565750748L251.2662571016117,133.03230483204243Z"/><path fill="#59260b" stroke="white" stroke-width="0.2" d="M248.29284731045482,133.3458694786823L248.10275408395682,133.37206528134993L247.99627753082314,132.15145379351452L247.99627386845532,132.1513437112444L248.49900417457684,132.09752196798217L248.4990040550474,132.09763204600313L248.5823367506382,133.30597345417482Z"/><path fill="#59260b" stroke="white" stroke-width="0.2" d="M249.10921443684492,133.25224781877478L248.5823367506382,133.30597345417482L248.4990040550474,132.09763204600313L248.49900417457684,132.09752196798217L248.99487017898355,132.0444414075755L248.9948738409439,132.0445514898165Z"/><path fill="#59260b" stroke="white" stroke-width="0.2" d="M249.60910358992987,133.20127588926698L249.10921443684492,133.25224781877478L248.9948738409439,132.0445514898165L248.99487017898355,132.0444414075755L249.49638304443215,131.99075302755227L249.49638670615968,131.99086310982239Z"/><path fill="#59260b" stroke="white" stroke-width="0.2" d="M250.4521426750871,133.11531327324337L249.60910358992987,133.20127588926698L249.49638670615968,131.99086310982239L249.49638304443215,131.99075302755227L250.325841473561,131.90196204261156L250.3258451349975,131.90207212499809Z"/><path fill="#59260b" stroke="white" stroke-width="0.2" d="M250.60590976267122,133.09963517915457L250.4521426750871,133.11531327324337L250.3258451349975,131.90207212499809L250.325841473561,131.90196204261156L250.97929301322438,131.83201159449527L250.97929667439894,131.8321216768236L251.0813673787634,133.05115565750748Z"/><path fill="#59260b" stroke="white" stroke-width="0.2" d="M268.73961797822267,129.72422903531697L268.7816828711366,130.06863228580914L269.0104695362679,130.0402337348496L269.12741363365785,130.99781764979707L268.8378968340985,131.03375180307194L268.97084849051316,132.06003972070175L270.7700741708395,131.8367327506421L270.77033514447976,131.83669889546582L270.7703463608632,131.83680898699095L270.90133403177606,132.90941635271884L270.90107305921265,132.90945020774961L267.4675254788017,133.35273054349818L267.1440525392536,129.9222725040454L267.1440451029048,129.92216241627466L268.7396067609079,129.72411894303514Z"/><path fill="#59260b" stroke="white" stroke-width="0.2" d="M270.48589259086293,129.5074914933066L270.77033514447976,131.83669889546582L270.7700741708395,131.8367327506421L268.97084849051316,132.06003972070175L268.8378968340985,131.03375180307194L269.12741363365785,130.99781764979707L269.0104695362679,130.0402337348496L268.7816828711366,130.06863228580914L268.73961797822267,129.72422903531697L268.7396067609079,129.72411894303514L270.4856165945821,129.50743423131644L270.4858813742758,129.50738140082103Z"/><path fill="#59260b" stroke="white" stroke-width="0.2" d="M276.95878228149377,130.38607395099825L276.9584910479025,130.3861115599575L275.169275911001,130.6189519216714L274.97674550439115,128.92650933834375L274.97674185296637,128.92639925453113L276.99035192420706,128.66437326205778L276.99064696390997,128.66431667818688L276.9906430511328,128.66442675309372Z"/><path fill="#59260b" stroke="white" stroke-width="0.2" d="M249.84559391700896,137.15993100218475L249.43784766891622,137.4111592026602L249.38783900777344,137.46080559684196L248.88080906157847,137.75325711086043L248.85236147753312,137.71042159371427L248.8239214559726,137.66757848957786L248.7348890148569,137.50662959215697L248.73484374320833,137.50653085380327L249.24394003057387,137.2128892063629L249.30693192142644,137.15185460093198L249.73283267361694,136.90167454333277Z"/><path fill="#59260b" stroke="white" stroke-width="0.2" d="M271.2390824664035,136.38023727881955L267.7869743282499,136.740571984672L267.7869518583175,136.74038217158522L267.4675329149468,133.35284062978462L267.4675254788017,133.35273054349818L270.90107305921265,132.90945020774961L270.90133403177606,132.90941635271884L270.9013452481013,132.9095264438074L270.9040197141876,132.9314616653428L270.9064823818917,132.9534194106527Z"/><path fill="#59260b" stroke="white" stroke-width="0.2" d="M276.9587783687748,130.3861840252066L276.8590450116608,135.7746442667558L274.6886605779582,135.9957872692903L274.6886381441727,135.99557088501751L274.533314443368,134.39397072256543L272.8805156748858,134.5913165093807L271.65876609415864,134.737201280921L271.6021429487155,134.15344395500142L271.6021355143748,134.1533338689187L271.4847521779884,132.9431307745108L271.48474474356044,132.9430206877296L271.482177665981,132.91661035173456L271.4793534234632,132.89021109734313L271.26433774339966,131.12727805692703L271.26432652716176,131.12716796508175L272.258836414112,130.9977275710553L273.7402547780657,130.80492797057377L274.19753996806685,130.74541390949162L274.6834078290558,130.68218058589264L275.169275911001,130.6189519216714L276.9584910479025,130.3861115599575L276.95878228149377,130.38607395099825Z"/></g></svg>