<svg viewBox="142.92036732050474 33.879346293600975 314.1592653589905 160.21752962021856" xmlns="http://www.w3.org/2000/svg" xmlns:xlink="http://www.w3.org/1999/xlink"><g><path d="M259.25676209817175,122.12436471984256L259.11048086488154,118.74773650782299L260.7195744308119,118.59068300464423L260.7488306774758,121.92805028281873L259.2275058514497,122.1636275901983Z"/><path d="M291.0489913347701,62.10855663972325L291.5555359206628,70.16911646525841L286.25472199518117,70.59725009277463L282.87511706905207,70.86406700100633L282.12852402275894,71.00980535219423L282.12860755456495,71.0095434851537L282.3422620278434,70.34423130264622L282.6058536864293,69.52341764254379L282.6061456738971,69.31053853625781L282.60710143650067,68.60916771006305L282.6080487234867,67.91479617485311L282.6089998051466,67.22041908060783L282.609919084236,66.54604885927984L282.6108361116203,65.8735411594389L283.0022031152621,65.88355659786612L283.1683616201335,65.36822511351784L283.3360470973712,64.84816769015742L283.50050966386334,64.33809466808452L283.6637312526291,63.83187677251408L284.4241962109518,64.09020982350921L284.8618468643399,64.2388850733987L286.25854924865416,64.71336063434137L286.3546500429802,64.19459371222183L286.4452413232939,63.7055627949303L286.5935899564356,62.90475538308965L286.7024940031988,62.31687694761786L286.79896586126415,61.79611657524947L287.01995578670176,60.60320768287056L287.0199748351588,60.60309759929078L291.04868898933637,62.108343641710235L291.04898768896237,62.10844652864034Z"/><path d="M273.9666432829399,120.67403931528679L270.05693218522356,121.11344608996296L270.0569097199477,121.11325246989145L269.76453109580325,117.97466226006509L269.7645274421084,117.97455217200331L272.47261480035377,117.71552925059223L272.472800155374,117.71549150976352L272.47283785344916,117.71559404648724Z"/><path d="M267.2784583354078,62.816114976099925L267.94903612314374,63.071624872565735L267.94934614759404,63.07175432387157L267.9493081984401,63.0718605890288L267.75184313880163,63.59939867921639L267.75153311053873,63.599273024941795L266.6362512136111,63.18536284798756L266.8345780050731,62.64697677450022Z"/><path d="M265.55486262461636,62.78402901793015L266.09555732039735,62.984695463528624L265.89003036753275,63.542637752892915L265.4952115638589,64.61443523855996L265.4951736202347,64.61453770674416L264.9550888291851,64.41223038284807L264.9551267726056,64.41212791463477L265.3493480235629,63.34193417784991L264.80866487690946,63.14123154160916L265.0141671306337,62.58335971433553Z"/><path d="M265.27490272719297,58.57285089287325L265.31833553267643,58.589223666873295L264.80522391037084,59.984719294443494L264.8051859663392,59.98482176446123L264.33419472083915,59.81080231437227L264.33423266466707,59.810699844238115L264.8484767454793,58.41212071190239Z"/><path d="M269.23550829218584,59.57843384280568L269.07662410399644,60.005844237981364L269.07631407657755,60.00571478379425L268.5482478326012,59.806679940753384L268.7063588554738,59.37668618452153L269.0660882455122,58.398389392270474L269.0661224130308,58.39828312120517L269.5999523449573,58.597053395875264L269.6002661784587,58.597163871570956L269.60023201513104,58.597266345779644L269.23554245522246,59.57833136909176Z"/><path d="M263.10678957999335,58.579905311984476L262.8534454872424,59.263592519040685L262.85340754390927,59.26369498955319L262.1662682578317,59.00982309365645L262.1662986400188,59.00971681755618L262.34155400661984,58.29729559941916L262.3415806105186,58.29718552186387Z"/><path d="M264.75962217740016,58.37863262309111L264.8484767454793,58.41212071190239L264.33423266466707,59.810699844238115L264.33419472083915,59.81080231437227L263.84401396109024,59.62969562772196L263.84405190477264,59.6295931575296L264.3594701018592,58.2278051917674Z"/><path d="M268.7063588554738,59.37668618452153L268.5482478326012,59.806679940753384L268.08361485155183,59.63154117955128L267.9977669912914,59.59918333115638L268.15655650084955,59.16734066646313L268.5147852943919,58.19312222569715L268.514819461765,58.19301595442812L269.0661224130308,58.39828312120517L269.0660882455122,58.398389392270474Z"/><path d="M271.7591205993085,49.52065620323992L271.7502487663296,49.52487553213723L271.17344532883726,49.45519325177884L270.88497920156806,49.420343000558205L270.7024773307494,48.36158165844972L270.7024661109317,48.36147153339698L270.888893237774,48.32716893198085L271.5326882630761,48.206941075535724L271.53269948254456,48.2070512008504Z"/><path d="M272.3083949398133,49.2595547347737L271.7591205993085,49.52065620323992L271.53269948254456,48.2070512008504L271.5326882630761,48.206941075535724L272.115249229013,48.098162337148096L272.1152604483359,48.0982724626374L272.2537257615768,48.93083317717537Z"/><path d="M272.81788330950076,48.83387720785686L272.2537257615768,48.93083317717537L272.1152604483359,48.0982724626374L272.115249229013,48.098162337148096L272.68207444268046,47.992324027611176L272.6820856616541,47.992434153013164Z"/><path d="M273.6028914547351,47.820486518670805L273.18990114028566,48.945546223578276L273.18958729261067,48.94543953676475L272.81788330950076,48.83387720785686L272.6820856616541,47.992434153013164L272.68207444268046,47.992324027611176L273.6025396657933,47.82047470990801L273.602925620944,47.820384040882345Z"/><path d="M266.795911184774,54.58638571604388L266.39533218421275,55.675801233941456L265.8415374836768,55.46960817213403L266.24231567810057,54.37964448524872L266.2423498450953,54.37953821220435L266.7959453519725,54.58627944305772Z"/><path d="M271.12775307917036,54.47534582033404L271.1277151275717,54.47545208822703L270.7260119765415,55.560110386664746L270.2001027234073,55.36369522800669L270.2001406700874,55.36359275720315L270.6018231039634,54.27892527321819L271.1274430419726,54.47522015805589Z"/><path d="M266.24231567810057,54.37964448524872L265.8415374836768,55.46960817213403L265.3010363066569,55.268367399665294L265.70200994767947,54.177863171265926L265.7020441144705,54.17775689801783L266.2423498450953,54.37953821220435Z"/><path d="M268.417720957892,55.19207332364749L268.0169153859315,56.27955873450264L267.47918898123316,56.07934636637219L267.87937329753186,54.991019521752605L267.87940746510867,54.99091324911569L268.41775512555614,55.19196705109789Z"/><path d="M271.0035163217981,53.19425788841909L270.6018231039634,54.27892527321819L270.0745273906796,54.08199522693758L270.47372326254845,52.996393093664665L270.4737574313767,52.99628682047478L271.0035504908301,53.194151615403825Z"/><path d="M266.81453756641713,52.8645018642128L267.3548488706874,53.06628259571153L266.9556693759805,54.151892902271356L266.95563143031904,54.15199537409353L266.37833135275287,53.93640200592927L266.3783692981815,53.93629953393247L266.7685477185005,52.84732438673382Z"/><path d="M270.47372326254845,52.996393093664665L270.0745273906796,54.08199522693758L269.5357174691162,53.8807620901207L269.93714989584987,52.795996299624676L269.9371840645035,52.79589002634748L270.4737574313767,52.99628682047478Z"/><path d="M272.1722669141891,51.65504839734058L271.6902013318904,52.95667148390203L270.63345034542726,52.5620024157688L270.63348829266033,52.561899944004836L271.1124942138267,51.25925189713598L271.11252838303335,51.25914562345133L272.17198723886395,51.65483543925802L272.1723010793794,51.654945920803584Z"/><path d="M266.139461023442,51.37757952348329L266.13943063889747,51.3776858021447L265.7445602326479,52.46491191867972L265.3163158315874,52.3049840311578L264.8410032056563,52.1274758206564L265.3778795062681,51.09327969767037L265.37792501290096,51.09318103006808Z"/><path d="M270.63348829266033,52.561899944004836L270.63345034542726,52.5620024157688L270.08478044418734,52.357087642594706L270.0848183912458,52.356985170481494L270.57232958768145,51.05751180864172L270.5723637568299,51.05740553481155L271.11252838303335,51.25914562345133L271.1124942138267,51.25925189713598Z"/><path d="M264.76053054226213,55.06712756009074L264.3613681846182,56.15273378248094L264.3613302402082,56.15283625383745L263.8246179900889,55.95300816104282L263.82465593429515,55.952905689395266L264.2238202157314,54.867301673744805Z"/><path d="M267.87937329753186,54.991019521752605L267.47918898123316,56.07934636637219L266.9369622801896,55.877462872856995L267.33335299321334,54.7870986701746L267.33338337781606,54.78699239293928L267.87940746510867,54.99091324911569Z"/><path d="M267.33335299321334,54.7870986701746L266.9369622801896,55.877462872856995L266.39533218421275,55.675801233941456L266.795911184774,54.58638571604388L266.7959453519725,54.58627944305772L267.33338337781606,54.78699239293928Z"/><path d="M262.95928220570204,59.99609572268673L262.55151511824806,61.107052889012266L262.0595362505992,60.95146269258112L262.34663198827184,59.769741487834835L262.3466585877177,59.769635207689134L262.9593163706886,59.9959894514177Z"/><path d="M262.3466585877177,59.769635207689134L262.34663198827184,59.769741487834835L262.0595362505992,60.95146269258112L261.71539384074276,60.84262890924583L262.00993123083026,59.645344665827L262.00995783443796,59.64523458873737Z"/><path d="M268.5482478326012,59.806679940753384L269.07631407657755,60.00571478379425L269.07662410399644,60.005844237981364L269.0765861539403,60.00595050404081L268.87670285851345,60.543670075334376L268.87639283161843,60.54354062161292L267.8850233705016,60.165789660066366L268.08361485155183,59.63154117955128Z"/><path d="M270.6018231039634,54.27892527321819L270.2001406700874,55.36359275720315L270.2001027234073,55.36369522800669L269.67530433918,55.16769991541514L269.6753422856855,55.167597444495186L270.0745273906796,54.08199522693758Z"/><path d="M265.70200994767947,54.177863171265926L265.3010363066569,55.268367399665294L264.76053054226213,55.06712756009074L265.1617034107039,53.97608279285487L265.1617375773494,53.97597651949036L265.7020441144705,54.17775689801783Z"/><path d="M270.0745273906796,54.08199522693758L269.6753422856855,55.167597444495186L269.67530433918,55.16769991541514L269.13425409112824,54.965634241729276L269.1342920374591,54.96553177057649L269.5357174691162,53.8807620901207Z"/><path d="M262.0056330943189,64.42585271599819L261.844772303215,64.86099908148753L260.8355768597685,64.48063236562302L260.93163609001203,64.02917220446398L260.9316589102091,64.02906212463859Z"/><path d="M262.58882932865527,64.143609997991L262.2668453825172,65.01694321708055L261.844772303215,64.86099908148753L262.0056330943189,64.42585271599819L262.1682169819833,63.986060505063506L262.16825114612584,63.98595423527877L262.58886349297245,64.14350372832268Z"/><path d="M266.1281981819193,67.93714386745705L266.12816023422056,67.93725013089716L265.71845158716314,69.03183080482995L264.63558460844797,68.62606164850877L264.63562255116994,68.62595918183797L265.02818946089246,67.53071378008462L266.12788815784734,67.93701821711147Z"/><path d="M266.1281981819193,67.93714386745705L266.12816023422056,67.93725013089716L265.71845158716314,69.03183080482995L264.63558460844797,68.62606164850877L264.63562255116994,68.62595918183797L265.02818946089246,67.53071378008462L266.12788815784734,67.93701821711147Z"/><path d="M266.1281981819193,67.93714386745705L266.12816023422056,67.93725013089716L265.71845158716314,69.03183080482995L264.63558460844797,68.62606164850877L264.63562255116994,68.62595918183797L265.02818946089246,67.53071378008462L266.12788815784734,67.93701821711147Z"/><path d="M262.16825114612584,63.98595423527877L262.1682169819833,63.986060505063506L262.0056330943189,64.42585271599819L260.9316589102091,64.02906212463859L261.03143001371063,63.5601745841268Z"/><path d="M266.43070813061786,63.74333846537047L266.0352993294946,64.81674350090907L266.03526138563757,64.81684596888954L265.4951736202347,64.61453770674416L265.4952115638589,64.61443523855996L265.89003036753275,63.542637752892915Z"/><path d="M267.75184313880163,63.59939867921639L267.75180518985144,63.599504944169894L267.54336394087295,64.15636683543562L267.5430539130757,64.15624118162668L266.43070813061786,63.74333846537047L266.54040259175235,63.445557280938374L266.6362512136111,63.18536284798756L267.75153311053873,63.599273024941795Z"/><path d="M266.6362512136111,63.18536284798756L266.54040259175235,63.445557280938374L266.50812106000376,63.433081628521904L266.6038102825696,63.17332361455192Z"/><path d="M265.3493480235629,63.34193417784991L264.9551267726056,64.41212791463477L264.9550888291851,64.41223038284807L264.4149994473264,64.20992398864473L264.41503739057225,64.2098215202277L264.80866487690946,63.14123154160916Z"/><path d="M266.6038102825696,63.17332361455192L266.50812106000376,63.433081628521904L266.54040259175235,63.445557280938374L266.43070813061786,63.74333846537047L265.89003036753275,63.542637752892915L266.09555732039735,62.984695463528624Z"/><path d="M266.33116992990836,67.39487297000596L266.3311319819768,67.3949792336789L266.1281981819193,67.93714386745705L266.12788815784734,67.93701821711147L265.02818946089246,67.53071378008462L265.2258439997968,66.97926604896202L266.33085990525433,67.39474731919472Z"/><path d="M264.68596498691477,66.77627025690163L265.2258439997968,66.97926604896202L265.02818946089246,67.53071378008462L264.63562255116994,68.62595918183797L264.63558460844797,68.62606164850877L263.98751663434086,68.38322272093501L263.98755457683,68.38312025408959L264.59127529064426,66.74066554557066Z"/><path d="M264.15473595118965,66.57652775663882L264.59127529064426,66.74066554557066L263.98755457683,68.38312025408959L263.98751663434086,68.38322272093501L263.47446057823254,68.19097555565531L263.47449852051795,68.19087308875169L264.0784290380252,66.54783921138733Z"/><path d="M264.0784290380252,66.54783921138733L263.47449852051795,68.19087308875169L263.47446057823254,68.19097555565531L263.01541060363525,68.01896305172704L263.01544854577514,68.01886058461969L263.5547872353054,66.5433639048133L263.61662102804985,66.37420026981272Z"/><path d="M263.5547872353054,66.5433639048133L263.01544854577514,68.01886058461969L263.01541060363525,68.01896305172704L262.47534972440917,67.8165987188404L262.47538766646176,67.81649625158752L263.0164560666308,66.34446578056668Z"/><path d="M266.0261529182608,66.53634190032608L266.574028670846,66.74509427027078L266.57433869171655,66.7452237183752L266.57430074361037,66.74532998219365L266.33116992990836,67.39487297000596L266.33085990525433,67.39474731919472L265.2258439997968,66.97926604896202L265.46168946358375,66.32126115163555Z"/><path d="M261.0972545532859,66.48687881449587L260.83689658669755,67.20255012763664L260.83685864519794,67.20265259544249L259.91858879767824,66.85859406576492L260.1988235604076,66.16171074900194L260.1988652886066,66.1616044883267Z"/><path d="M261.0972545532859,66.48687881449587L260.83689658669755,67.20255012763664L260.83685864519794,67.20265259544249L259.91858879767824,66.85859406576492L260.1988235604076,66.16171074900194L260.1988652886066,66.1616044883267Z"/><path d="M261.0972545532859,66.48687881449587L260.83689658669755,67.20255012763664L260.83685864519794,67.20265259544249L259.91858879767824,66.85859406576492L260.1988235604076,66.16171074900194L260.1988652886066,66.1616044883267Z"/><path d="M261.0972545532859,66.48687881449587L260.83689658669755,67.20255012763664L260.83685864519794,67.20265259544249L259.91858879767824,66.85859406576492L260.1988235604076,66.16171074900194L260.1988652886066,66.1616044883267Z"/><path d="M261.0972545532859,66.48687881449587L260.83689658669755,67.20255012763664L260.83685864519794,67.20265259544249L259.91858879767824,66.85859406576492L260.1988235604076,66.16171074900194L260.1988652886066,66.1616044883267Z"/><path d="M261.0972545532859,66.48687881449587L260.83689658669755,67.20255012763664L260.83685864519794,67.20265259544249L259.91858879767824,66.85859406576492L260.1988235604076,66.16171074900194L260.1988652886066,66.1616044883267Z"/><path d="M261.0972545532859,66.48687881449587L260.83689658669755,67.20255012763664L260.83685864519794,67.20265259544249L259.91858879767824,66.85859406576492L260.1988235604076,66.16171074900194L260.1988652886066,66.1616044883267Z"/><path d="M261.0972545532859,66.48687881449587L260.83689658669755,67.20255012763664L260.83685864519794,67.20265259544249L259.91858879767824,66.85859406576492L260.1988235604076,66.16171074900194L260.1988652886066,66.1616044883267Z"/><path d="M261.8689404242905,66.09622763626976L261.38530825133785,67.40803825194598L261.3852703097218,67.4081407194899L260.83685864519794,67.20265259544249L260.83689658669755,67.20255012763664L261.0972545532859,66.48687881449587L261.25207667666837,66.06132201265427L261.3139707604132,65.89118945345399Z"/><path d="M261.25207667666837,66.06132201265427L261.0972545532859,66.48687881449587L260.1988652886066,66.1616044883267L260.3696135400678,65.73699878054322L260.36965526410495,65.73689631654997Z"/><path d="M266.93833707409794,65.7727644352708L266.57433869171655,66.7452237183752L266.574028670846,66.74509427027078L266.0261529182608,66.53634190032608L266.37540353508666,65.56197704278748L266.37543391805957,65.56187076959759L266.93803084804676,65.77262360052555Z"/><path d="M266.37540353508666,65.56197704278748L266.0261529182608,66.53634190032608L265.46168946358375,66.32126115163555L265.8097885156458,65.35010549190338L265.80981889847317,65.34999921862618L266.37543391805957,65.56187076959759Z"/><path d="M261.96372856388916,65.83911578953848L261.8689404242905,66.09622763626976L261.3139707604132,65.89118945345399L261.25207667666837,66.06132201265427L260.36965526410495,65.73689631654997L260.54002472991124,65.31323121432797L260.5400664541812,65.31312875007279Z"/><path d="M262.72539767975104,65.42834720967221L263.80897114778054,65.82869252350065L263.61662102804985,66.37420026981272L263.5547872353054,66.5433639048133L263.0164560666308,66.34446578056668L262.47538766646176,67.81649625158752L262.47534972440917,67.8165987188404L261.3852703097218,67.4081407194899L261.38530825133785,67.40803825194598L261.8689404242905,66.09622763626976L261.96372856388916,65.83911578953848L262.1197791644954,65.4158417172439L262.1883265392098,65.229914576601Z"/><path d="M262.72539767975104,65.42834720967221L263.80897114778054,65.82869252350065L263.61662102804985,66.37420026981272L263.5547872353054,66.5433639048133L263.0164560666308,66.34446578056668L262.47538766646176,67.81649625158752L262.47534972440917,67.8165987188404L261.3852703097218,67.4081407194899L261.38530825133785,67.40803825194598L261.8689404242905,66.09622763626976L261.96372856388916,65.83911578953848L262.1197791644954,65.4158417172439L262.1883265392098,65.229914576601Z"/><path d="M262.72539767975104,65.42834720967221L263.80897114778054,65.82869252350065L263.61662102804985,66.37420026981272L263.5547872353054,66.5433639048133L263.0164560666308,66.34446578056668L262.47538766646176,67.81649625158752L262.47534972440917,67.8165987188404L261.3852703097218,67.4081407194899L261.38530825133785,67.40803825194598L261.8689404242905,66.09622763626976L261.96372856388916,65.83911578953848L262.1197791644954,65.4158417172439L262.1883265392098,65.229914576601Z"/><path d="M262.72539767975104,65.42834720967221L263.80897114778054,65.82869252350065L263.61662102804985,66.37420026981272L263.5547872353054,66.5433639048133L263.0164560666308,66.34446578056668L262.47538766646176,67.81649625158752L262.47534972440917,67.8165987188404L261.3852703097218,67.4081407194899L261.38530825133785,67.40803825194598L261.8689404242905,66.09622763626976L261.96372856388916,65.83911578953848L262.1197791644954,65.4158417172439L262.1883265392098,65.229914576601Z"/><path d="M262.72539767975104,65.42834720967221L263.80897114778054,65.82869252350065L263.61662102804985,66.37420026981272L263.5547872353054,66.5433639048133L263.0164560666308,66.34446578056668L262.47538766646176,67.81649625158752L262.47534972440917,67.8165987188404L261.3852703097218,67.4081407194899L261.38530825133785,67.40803825194598L261.8689404242905,66.09622763626976L261.96372856388916,65.83911578953848L262.1197791644954,65.4158417172439L262.1883265392098,65.229914576601Z"/><path d="M262.72539767975104,65.42834720967221L263.80897114778054,65.82869252350065L263.61662102804985,66.37420026981272L263.5547872353054,66.5433639048133L263.0164560666308,66.34446578056668L262.47538766646176,67.81649625158752L262.47534972440917,67.8165987188404L261.3852703097218,67.4081407194899L261.38530825133785,67.40803825194598L261.8689404242905,66.09622763626976L261.96372856388916,65.83911578953848L262.1197791644954,65.4158417172439L262.1883265392098,65.229914576601Z"/><path d="M262.72539767975104,65.42834720967221L263.80897114778054,65.82869252350065L263.61662102804985,66.37420026981272L263.5547872353054,66.5433639048133L263.0164560666308,66.34446578056668L262.47538766646176,67.81649625158752L262.47534972440917,67.8165987188404L261.3852703097218,67.4081407194899L261.38530825133785,67.40803825194598L261.8689404242905,66.09622763626976L261.96372856388916,65.83911578953848L262.1197791644954,65.4158417172439L262.1883265392098,65.229914576601Z"/><path d="M262.72539767975104,65.42834720967221L263.80897114778054,65.82869252350065L263.61662102804985,66.37420026981272L263.5547872353054,66.5433639048133L263.0164560666308,66.34446578056668L262.47538766646176,67.81649625158752L262.47534972440917,67.8165987188404L261.3852703097218,67.4081407194899L261.38530825133785,67.40803825194598L261.8689404242905,66.09622763626976L261.96372856388916,65.83911578953848L262.1197791644954,65.4158417172439L262.1883265392098,65.229914576601Z"/><path d="M265.46168946358375,66.32126115163555L265.2258439997968,66.97926604896202L264.68596498691477,66.77627025690163L265.2696676138148,65.14778664993355L265.2696979964676,65.14768037651083L265.80981889847317,65.34999921862618L265.8097885156458,65.35010549190338Z"/><path d="M265.2696676138148,65.14778664993355L264.68596498691477,66.77627025690163L264.59127529064426,66.74066554557066L264.15473595118965,66.57652775663882L264.74616702625644,64.95169179383083L264.7461974087055,64.95158552037901L265.2696979964676,65.14768037651083Z"/><path d="M262.1197791644954,65.4158417172439L261.96372856388916,65.83911578953848L260.5400664541812,65.31312875007279L260.7084070571873,64.89451424239087L260.7084487815446,64.89441177799017Z"/><path d="M262.6588137417275,62.29671863844851L262.24967707987526,63.39873535488732L262.249639137357,63.398837823973736L261.72152015188476,63.20101858233102L261.7215580943157,63.20091611315729L262.06445008155424,62.26669253449654Z"/><path d="M262.06445008155424,62.26669253449654L261.7215580943157,63.20091611315729L261.72152015188476,63.20101858233102L261.1846927040024,62.99995925210533L261.3736309611122,62.23191033763578L261.37365756428335,62.23180026150658Z"/><path d="M266.27621811872814,52.66346097984933L265.8860451937071,53.75243758226861L265.886007248424,53.75254005432362L265.3997020259849,53.570926010550465L265.39973997109337,53.570823538291734L265.7899149826844,52.48184930408024Z"/><path d="M269.37781340788933,52.58709906032891L268.97780838474864,53.67239975236589L268.4383162231825,53.47092091612285L268.83750266124844,52.38531390891876L268.83753682952374,52.38520763552515L269.37784757631016,52.5869927869353Z"/><path d="M262.821082914772,61.85964532071375L262.6588137417275,62.29671863844851L262.06445008155424,62.26669253449654L261.37365756428335,62.23180026150658L261.5630528999609,61.46190840014606L261.56307950330665,61.46179832381313Z"/><path d="M266.8345780050731,62.64697677450022L266.6362512136111,63.18536284798756L266.6038102825696,63.17332361455192L266.09555732039735,62.984695463528624L266.68886389464024,61.374082512018504L266.6888980609074,61.3739762417099L267.22988310983055,61.57386420661351L267.2298489433597,61.57397047660197Z"/><path d="M266.68886389464024,61.374082512018504L266.09555732039735,62.984695463528624L265.55486262461636,62.78402901793015L266.14787804163643,61.174199285247596L266.14791220769985,61.17409301485168L266.6888980609074,61.3739762417099Z"/><path d="M266.14787804163643,61.174199285247596L265.55486262461636,62.78402901793015L265.0141671306337,62.58335971433553L265.07479461762705,62.418771472002845L265.21757949795574,62.03115687100217L265.6068876061181,60.9743169954163L265.6069217719778,60.97421072470024L266.14791220769985,61.17409301485168Z"/><path d="M262.0595362505992,60.95146269258112L262.55151511824806,61.107052889012266L263.0428090093774,61.26242669366184L262.8281630144338,61.84057842812035L262.821082914772,61.85964532071375L261.56307950330665,61.46179832381313L261.7153672373679,60.842738985753385L261.71539384074276,60.84262890924583Z"/><path d="M265.6068876061181,60.9743169954163L265.21757949795574,62.03115687100217L264.750101511745,61.857874838489806L265.1313991594361,60.79863237577956L265.13142954255454,60.798526100610616L265.6069217719778,60.97421072470024Z"/><path d="M265.1313991594361,60.79863237577956L264.750101511745,61.857874838489806L264.26339261763496,61.67745997221209L264.64449889431125,60.61873226170428L264.64452927719685,60.61862598636071L265.13142954255454,60.798526100610616Z"/><path d="M267.45807632862125,59.395755251433L266.9501158045023,60.777215707843425L266.95007785980124,60.777318177133566L266.3902841240342,60.570483006828L266.39032206856064,60.57038053733413L266.89962720067706,59.185255611198954Z"/><path d="M266.89962720067706,59.185255611198954L266.39032206856064,60.57038053733413L266.3902841240342,60.570483006828L265.8492964498291,60.37059599292115L265.8493343941227,60.37049352325266L266.35993866380886,58.9818332263967Z"/><path d="M266.35993866380886,58.9818332263967L265.8493343941227,60.37049352325266L265.8492964498291,60.37059599292115L265.3083079713688,60.17071371685597L265.30834591554594,60.17061124710017L265.8202455366263,58.77840797120007Z"/><path d="M265.8202455366263,58.77840797120007L265.30834591554594,60.17061124710017L265.3083079713688,60.17071371685597L264.8051859663392,59.98482176446123L264.80522391037084,59.984719294443494L265.31833553267643,58.589223666873295Z"/><path d="M264.21993042487884,58.17521013185615L264.3594701018592,58.2278051917674L263.84405190477264,59.6295931575296L263.84401396109024,59.62969562772196L263.35366618126864,59.44852497664397L263.3537041247473,59.44842250645161L263.8702964274562,58.04342569812434Z"/><path d="M268.15655650084955,59.16734066646313L267.9977669912914,59.59918333115638L267.45807632862125,59.395755251433L267.61675125773763,58.96422315144446L267.97429154391284,57.991878097789595L267.9743257111404,57.991771826229524L268.514819461765,58.19301595442812L268.5147852943919,58.19312222569715Z"/><path d="M263.25001120744855,58.193389591499L263.10678957999335,58.579905311984476L262.3415806105186,58.29718552186387L262.4399994586711,57.897112316743005L262.4400260626571,57.89700223892578Z"/><path d="M263.7072194801294,57.9819609526603L263.8702964274562,58.04342569812434L263.3537041247473,59.44842250645161L263.35366618126864,59.44852497664397L262.85340754390927,59.26369498955319L262.8534454872424,59.263592519040685L263.10678957999335,58.579905311984476L263.25001120744855,58.193389591499L263.3747888064245,57.856662872072775Z"/><path d="M267.61675125773763,58.96422315144446L267.45807632862125,59.395755251433L266.89962720067706,59.185255611198954L267.0581837290665,58.754045440698974L267.41500512030325,57.78363824027474L267.4150392873271,57.783531968685566L267.9743257111404,57.991771826229524L267.97429154391284,57.991878097789595Z"/><path d="M267.0581837290665,58.754045440698974L266.89962720067706,59.185255611198954L266.35993866380886,58.9818332263967L266.5183768357092,58.55092982132919L266.8745097327046,57.58239601916284L266.8745438995247,57.58228974734084L267.4150392873271,57.783531968685566L267.41500512030325,57.78363824027474Z"/><path d="M263.1491766469844,57.771624149318086L263.3747888064245,57.856662872072775L263.25001120744855,58.193389591499L262.4400260626571,57.89700223892578L262.5284010905307,57.53776715963613L262.52842769460403,57.5376570817898Z"/><path d="M266.5183768357092,58.55092982132919L266.35993866380886,58.9818332263967L265.8202455366263,58.77840797120007L265.9785729141149,58.347815137705766L266.3340135405015,57.381154735106975L266.33404770711786,57.38104846322676L266.8745438995247,57.58228974734084L266.8745097327046,57.58239601916284Z"/><path d="M265.9785729141149,58.347815137705766L265.8202455366263,58.77840797120007L265.31833553267643,58.589223666873295L265.27490272719297,58.57285089287325L265.4331117295078,58.142576210491825L265.7878524872358,57.177808173175436L265.78788665364846,57.177701901237015L266.33404770711786,57.38104846322676L266.3340135405015,57.381154735106975Z"/><path d="M263.30693120945944,57.34256901231129L263.1491766469844,57.771624149318086L262.52842769460403,57.5376570817898L262.6348694652261,57.104984731355216L262.63489606932853,57.104874653334264Z"/><path d="M265.4331117295078,58.142576210491825L265.27490272719297,58.57285089287325L264.8484767454793,58.41212071190239L264.75962217740016,58.37863262309111L264.91772422517533,57.94864956350648L265.271806940058,56.985671510599786L265.27184110632516,56.98556523834122L265.78788665364846,57.177701901237015L265.7878524872358,57.177808173175436Z"/><path d="M270.1624817561533,57.078429267334286L270.16244380528224,57.07853553441237L269.8629752728157,57.89045695919776L269.76148947610636,58.163462977157906L269.2357653695799,57.96771624329267L269.2358033155033,57.967613773274934L269.637478016346,56.88295139116235L270.16217172148754,57.07830360720982Z"/><path d="M264.91772422517533,57.94864956350648L264.75962217740016,58.37863262309111L264.3594701018592,58.2278051917674L264.21993042487884,58.17521013185615L264.3779141116829,57.745541434996994L264.7313083620684,56.78443300561048L264.7313425281027,56.784326733177295L265.27184110632516,56.98556523834122L265.271806940058,56.985671510599786Z"/><path d="M265.7445602326479,52.46491191867972L265.7899149826844,52.48184930408024L265.39973997109337,53.570823538291734L265.3997020259849,53.570926010550465L264.9261083052843,53.39406213784241L264.92614625024726,53.39395966540906L265.3163158315874,52.3049840311578Z"/><path d="M267.7540315667866,51.98067236429779L267.3548488706874,53.06628259571153L266.81453756641713,52.8645018642128L267.21372217917815,51.77889002923621L267.2137563468423,51.77878375534783L267.75406573465443,51.98056609049672Z"/><path d="M267.21372217917815,51.77889002923621L266.81453756641713,52.8645018642128L266.7685477185005,52.84732438673382L266.27621811872814,52.66346097984933L266.6664055264555,51.57448820921127L266.6664359111455,51.57438193075359L267.2137563468423,51.77878375534783Z"/><path d="M266.6664055264555,51.57448820921127L266.27621811872814,52.66346097984933L265.7899149826844,52.48184930408024L265.7445602326479,52.46491191867972L266.13943063889747,51.3776858021447L266.139461023442,51.37757952348329L266.6664359111455,51.57438193075359Z"/><path d="M269.637478016346,56.88295139116235L269.2358033155033,57.967613773274934L269.2357653695799,57.96771624329267L268.7100972199405,57.77198944654083L268.7101351656602,57.771886976319365L269.112639885454,56.68753534380812Z"/><path d="M263.86509621789446,57.552583883400075L263.7072194801294,57.9819609526603L263.3747888064245,57.856662872072775L263.1491766469844,57.771624149318086L263.30693120945944,57.34256901231129L263.6589523808507,56.38518088933779L263.65898654653574,56.38507461670088L264.21786661987426,56.59315158921527L264.21783245401457,56.59325786161935Z"/><path d="M268.5716066634923,56.48609083564952L268.17018897258095,57.570847813098226L268.1701510269777,57.5709502833779L267.6168871214031,57.36495305298013L267.61692506686086,57.36485058249673L268.0169153859315,56.27955873450264Z"/><path d="M263.65898654653574,56.38507461670088L263.6589523808507,56.38518088933779L263.30693120945944,57.34256901231129L262.63489606932853,57.104874653334264L262.88301326619694,56.09629023127491L262.8830398705031,56.09618015293381Z"/><path d="M268.0169153859315,56.27955873450264L267.61692506686086,57.36485058249673L267.6168871214031,57.36495305298013L267.0799792842299,57.16504698162316L267.08001722948393,57.16494451108156L267.47918898123316,56.07934636637219Z"/><path d="M267.47918898123316,56.07934636637219L267.08001722948393,57.16494451108156L267.0799792842299,57.16504698162316L266.54173971377895,56.96464669978013L266.54177765888744,56.964544229063904L266.9369622801896,55.877462872856995Z"/><path d="M270.56528076378163,55.99411537012202L270.1624817561533,57.078429267334286L270.16217172148754,57.07830360720982L269.637478016346,56.88295139116235L270.03937979243346,55.79770844223094L270.03941396070877,55.797602170147L270.5650010916288,55.993902417161735L270.5653149278078,55.994012895127526Z"/><path d="M266.9369622801896,55.877462872856995L266.54177765888744,56.964544229063904L266.54173971377895,56.96464669978013L265.99612623706344,56.761501273023896L265.9961641819973,56.761398801987525L266.39533218421275,55.675801233941456Z"/><path d="M270.03937979243346,55.79770844223094L269.637478016346,56.88295139116235L269.112639885454,56.68753534380812L269.5155576476827,55.60207939875545L269.5155918158416,55.60197312667151L270.03941396070877,55.797602170147Z"/><path d="M266.39533218421275,55.675801233941456L265.9961641819973,56.761398801987525L265.99612623706344,56.761501273023896L265.442329667625,56.55530985243968L265.44236761235516,56.55520738122868L265.8415374836768,55.46960817213403Z"/><path d="M269.5155576476827,55.60207939875545L269.112639885454,56.68753534380812L268.5716066634923,56.48609083564952L268.973638502066,55.399686820979696L268.9736726700212,55.39958054863382L269.5155918158416,55.60197312667151Z"/><path d="M265.8415374836768,55.46960817213403L265.44236761235516,56.55520738122868L265.442329667625,56.55530985243968L264.90183035840164,56.35407068600762L264.90186830292805,56.35396821482573L265.3010363066569,55.268367399665294Z"/><path d="M268.973638502066,55.399686820979696L268.5716066634923,56.48609083564952L268.0169153859315,56.27955873450264L268.417720957892,55.19207332364749L268.41775512555614,55.19196705109789L268.9736726700212,55.39958054863382Z"/><path d="M265.3010363066569,55.268367399665294L264.90186830292805,56.35396821482573L264.90183035840164,56.35407068600762L264.3613302402082,56.15283625383745L264.3613681846182,56.15273378248094L264.76053054226213,55.06712756009074Z"/><path d="M265.1617034107039,53.97608279285487L264.76053054226213,55.06712756009074L264.2238202157314,54.867301673744805L264.6251847531821,53.77572016540216L264.62521891956567,53.77561389186303L265.1617375773494,53.97597651949036Z"/><path d="M269.5357174691162,53.8807620901207L269.1342920374591,54.96553177057649L269.13425409112824,54.965634241729276L268.57777240523137,54.757803000393324L268.5778103513876,54.75770052900771L268.97780838474864,53.67239975236589Z"/><path d="M264.62521891956567,53.77561389186303L264.6251847531821,53.77572016540216L264.2238202157314,54.867301673744805L263.82465593429515,55.952905689395266L263.8246179900889,55.95300816104282L263.012144703127,55.65051602074527L263.01220155195915,55.65042116449331L264.0892778439156,53.575586979917716L264.0893195712706,53.575484511849936Z"/><path d="M268.97780838474864,53.67239975236589L268.5778103513876,54.75770052900771L268.57777240523137,54.757803000393324L268.03909504041076,54.556630469916854L268.03913298642146,54.556527998356614L268.4383162231825,53.47092091612285Z"/><path d="M267.7726642432972,50.25877214464708L267.37348270299844,51.34439299671794L267.3734447567549,51.34449546941323L266.8463867518003,51.14766103847069L266.8464246977819,51.14755856548436L267.13382360027754,50.36594100971706L267.22819818669814,50.3023951369978L267.4335151463165,50.37907410640037L267.51786702117533,50.16361248790054Z"/><path d="M272.59379319488653,50.56946995423641L272.59375524212373,50.56957622352638L272.39187278581085,51.11954310792498L271.3121490624035,50.7162870488246L271.3121870101895,50.71618457624572L271.5170188685297,50.1591458452458L272.59348315827083,50.56934049137635Z"/><path d="M267.9137928374694,51.54617597520701L267.9137548911385,51.54627844778588L267.3734447567549,51.34449546941323L267.37348270299844,51.34439299671794L267.7726642432972,50.25877214464708L267.8524751138175,50.041733308462426L267.8525092820055,50.04162703390466L268.39282165587065,50.24341194203589L268.3927874874789,50.24351821638993Z"/><path d="M267.8524751138175,50.041733308462426L267.7726642432972,50.25877214464708L267.51786702117533,50.16361248790054L267.60311502951663,49.94860360608436L267.6031529760221,49.9485011328652L267.8525092820055,50.04162703390466Z"/><path d="M266.5796189121611,50.06017852574587L266.26068994033267,50.928809412696864L266.2606519945257,50.9289118857414L265.59269866891555,50.67946156306425L265.5927555197268,50.67936670561903L266.0221948789258,49.85211992423865L266.02224038599525,49.85202125625801Z"/><path d="M267.51786702117533,50.16361248790054L267.4335151463165,50.37907410640037L267.22819818669814,50.3023951369978L267.13382360027754,50.36594100971706L266.8464246977819,51.14755856548436L266.8463867518003,51.14766103847069L266.2606519945257,50.9289118857414L266.26068994033267,50.928809412696864L266.5796189121611,50.06017852574587L267.1486539008911,50.27269025478745L267.30830893010716,49.8385058088752L267.3083430980332,49.83839953420102L267.6031529760221,49.9485011328652L267.60311502951663,49.94860360608436Z"/><path d="M272.79311489409884,50.02647026730119L272.7930769411905,50.02657653676579L272.59379319488653,50.56946995423641L272.59348315827083,50.56934049137635L271.5170188685297,50.1591458452458L271.7166449817596,49.6162626077421L272.7928048570757,50.02634080403368Z"/><path d="M271.7502487663296,49.52487553213723L271.7166449817596,49.6162626077421L271.5170188685297,50.1591458452458L271.3121870101895,50.71618457624572L271.3121490624035,50.7162870488246L270.775522649521,50.51586785813561L270.7755605971033,50.51576538558584L271.17344532883726,49.45519325177884Z"/><path d="M267.3083430980332,49.83839953420102L267.30830893010716,49.8385058088752L267.1486539008911,50.27269025478745L266.5796189121611,50.06017852574587L266.02224038599525,49.85202125625801L266.2369667182211,49.43840288562933L266.23701222549425,49.43830421761959Z"/><path d="M270.88497920156806,49.420343000558205L271.17344532883726,49.45519325177884L270.7755605971033,50.51576538558584L270.775522649521,50.51586785813561L270.24215478578117,50.316668440180365L270.24219273324707,50.31656596754328L270.5850678450661,49.38411269013886Z"/><path d="M270.5850678450661,49.38411269013886L270.24219273324707,50.31656596754328L270.24215478578117,50.316668440180365L269.68650381389307,50.10915127917542L269.68654176112614,50.1090488062473L269.9765645710577,49.31060630021966Z"/><path d="M272.98426683581783,49.50572907994501L272.9842288828222,49.50583534958423L272.79311489409884,50.02647026730119L272.7928048570757,50.02634080403368L271.7166449817596,49.6162626077421L271.7502487663296,49.52487553213723L271.7591205993085,49.52065620323992L272.3083949398133,49.2595547347737L272.9839567937597,49.50560341309756Z"/><path d="M268.0622579944029,49.50243189444882L268.0622200476646,49.502534367813496L267.200695162639,49.18078676611185L267.20073689188575,49.180684296938125L267.2674781604146,48.99626407248434L267.2675123284862,48.996157797490014L268.1391540444747,48.83365004387451L268.1391652653401,48.83376016872353L268.18157505855197,49.16621049566311Z"/><path d="M273.18990114028566,48.945546223578276L273.1898631870863,48.94565249353764L272.98426683581783,49.50572907994501L272.9839567937597,49.50560341309756L272.3083949398133,49.2595547347737L272.2537257615768,48.93083317717537L272.81788330950076,48.83387720785686L273.18958729261067,48.94543953676475Z"/><path d="M269.14309173310176,49.90608426911058L269.1430537860724,49.90618674218422L268.6027413009142,49.70440007650177L268.602779247798,49.704297603224404L268.77456889653695,49.237097607256146L268.70619029412046,48.72909864468966L268.70617907345877,48.72898851978243L269.2732534153911,48.62458640281693L269.27326463579084,48.624696527956985L269.37983407254796,49.26225089581567Z"/><path d="M269.68654176112614,50.1090488062473L269.68650381389307,50.10915127917542L269.1430537860724,49.90618674218422L269.14309173310176,49.90608426911058L269.37983407254796,49.26225089581567L269.27326463579084,48.624696527956985L269.2732534153911,48.62458640281693L269.84032440560986,48.52018923551077L269.8403356258059,48.520299360738136L269.9765645710577,49.31060630021966Z"/><path d="M270.7024773307494,48.36158165844972L270.88497920156806,49.420343000558205L270.5850678450661,49.38411269013886L269.9765645710577,49.31060630021966L269.8403356258059,48.520299360738136L269.84032440560986,48.52018923551077L270.7024661109317,48.36147153339698Z"/><path d="M261.844772303215,64.86099908148753L262.2668453825172,65.01694321708055L262.1883265392098,65.229914576601L262.1197791644954,65.4158417172439L260.7084487815446,64.89441177799017L260.79142249483266,64.68808909435757L260.7914604366524,64.6879866256786L260.83555403965875,64.48074244501186L260.8355768597685,64.48063236562302Z"/><path d="M264.19147645600606,64.74391727810143L263.80897114778054,65.82869252350065L262.72539767975104,65.42834720967221L263.1348071996763,64.34811784973135L263.1348413641972,64.34801158015034L264.1915068382805,64.7438110045041Z"/><path d="M263.1348071996763,64.34811784973135L262.72539767975104,65.42834720967221L262.1883265392098,65.229914576601L262.2668453825172,65.01694321708055L262.58882932865527,64.143609997991L262.58886349297245,64.14350372832268L263.1348413641972,64.34801158015034Z"/><path d="M267.54336394087295,64.15636683543562L267.5433259920392,64.15647310003988L267.14108818929526,65.23110466328217L266.03526138563757,64.81684596888954L266.0352993294946,64.81674350090907L266.43070813061786,63.74333846537047L267.5430539130757,64.15624118162668Z"/><path d="M263.8136314052972,62.35505757640931L263.8887310573482,62.358849668933544L263.3398508877144,63.80708147765836L263.3398129448178,63.80718394625001L262.8017099466524,63.60562679046416L262.8017478894035,63.605524321610574L263.2707805885002,62.32763194068684Z"/><path d="M263.2707805885002,62.32763194068684L262.8017478894035,63.605524321610574L262.8017099466524,63.60562679046416L262.249639137357,63.398837823973736L262.24967707987526,63.39873535488732L262.6588137417275,62.29671863844851Z"/><path d="M269.5375731403765,52.15260460082209L269.53753519349266,52.15270707308082L268.99722748299246,51.95092128278338L268.99726542967255,51.95081881035003L269.47626457433216,50.64816112368135L269.476298743044,50.648054849531036L270.01661247148877,50.84984637098387L270.0165783025732,50.84995264495956Z"/><path d="M268.35042167440406,62.000265435373876L267.94934614759404,63.07175432387157L267.94903612314374,63.071624872565735L267.2784583354078,62.816114976099925L267.67824605849455,61.74413659362472L267.67828022514004,61.744030323665356L268.3501420067332,62.0000524892821L268.3504558368295,62.000162962212926Z"/><path d="M267.67824605849455,61.74413659362472L267.2784583354078,62.816114976099925L266.8345780050731,62.64697677450022L267.2298489433597,61.57397047660197L267.22988310983055,61.57386420661351L267.67828022514004,61.744030323665356Z"/><path d="M266.7685477185005,52.84732438673382L266.3783692981815,53.93629953393247L266.37833135275287,53.93640200592927L265.886007248424,53.75254005432362L265.8860451937071,53.75243758226861L266.27621811872814,52.66346097984933Z"/><path d="M269.93714989584987,52.795996299624676L269.5357174691162,53.8807620901207L268.97780838474864,53.67239975236589L269.37781340788933,52.58709906032891L269.37784757631016,52.5869927869353L269.9371840645035,52.79589002634748Z"/><path d="M263.5997154910292,61.431454063014826L263.375347107969,62.04274726874428L262.8281630144338,61.84057842812035L263.0428090093774,61.26242669366184L263.44617337416275,60.1759855915152L263.44620753932395,60.17587932039169L263.98719738272484,60.375761643837905L263.98716321744723,60.37586791496142Z"/><path d="M268.87670285851345,60.543670075334376L268.87666869568056,60.543772548786364L268.56372965470655,61.38561460052733L267.57205659218016,61.00773651411873L267.5720945370849,61.007634045003215L267.8850233705016,60.165789660066366L268.87639283161843,60.54354062161292Z"/><path d="M263.44617337416275,60.1759855915152L263.0428090093774,61.26242669366184L262.55151511824806,61.107052889012266L262.95928220570204,59.99609572268673L262.9593163706886,59.9959894514177L263.44620753932395,60.17587932039169Z"/><path d="M268.83750266124844,52.38531390891876L268.4383162231825,53.47092091612285L267.88670856764656,53.26491437351797L268.2819153573364,52.17781648761593L268.2819457426376,52.177710209507495L268.83753682952374,52.38520763552515Z"/><path d="M265.3163158315874,52.3049840311578L264.92614625024726,53.39395966540906L264.9261083052843,53.39406213784241L264.30408550359425,53.161767769022845L264.30414235338685,53.16167291204329L264.84095769931446,52.12757448788034L264.8410032056563,52.1274758206564Z"/><path d="M268.2819153573364,52.17781648761593L267.88670856764656,53.26491437351797L267.3548488706874,53.06628259571153L267.7540315667866,51.98067236429779L267.75406573465443,51.98056609049672L268.2819457426376,52.177710209507495Z"/><path d="M268.2819153573364,52.17781648761593L267.88670856764656,53.26491437351797L267.3548488706874,53.06628259571153L267.7540315667866,51.98067236429779L267.75406573465443,51.98056609049672L268.2819457426376,52.177710209507495Z"/><path d="M264.3779141116829,57.745541434996994L264.21993042487884,58.17521013185615L263.8702964274562,58.04342569812434L263.7072194801294,57.9819609526603L263.86509621789446,57.552583883400075L264.21783245401457,56.59325786161935L264.21786661987426,56.59315158921527L264.7313425281027,56.784326733177295L264.7313083620684,56.78443300561048Z"/><path d="M269.112639885454,56.68753534380812L268.7101351656602,57.771886976319365L268.7100972199405,57.77198944654083L268.1701510269777,57.5709502833779L268.17018897258095,57.570847813098226L268.5716066634923,56.48609083564952Z"/><path d="M268.4383162231825,53.47092091612285L268.03913298642146,54.556527998356614L268.03909504041076,54.556630469916854L267.4914745714341,54.35211479169084L267.49151251718285,54.352012320043286L267.88670856764656,53.26491437351797Z"/><path d="M271.52946701907786,53.39068382405094L271.12775307917036,54.47534582033404L271.1274430419726,54.47522015805589L270.6018231039634,54.27892527321819L271.0035163217981,53.19425788841909L271.0035504908301,53.194151615403825L271.5291873450333,53.390470867889235L271.5295011838025,53.390581348212436Z"/><path d="M267.88670856764656,53.26491437351797L267.49151251718285,54.352012320043286L267.4914745714341,54.35211479169084L266.95563143031904,54.15199537409353L266.9556693759805,54.151892902271356L267.3548488706874,53.06628259571153Z"/><path d="M268.99726542967255,51.95081881035003L268.99722748299246,51.95092128278338L268.4495495419542,51.74637884963886L268.44958748851786,51.746276377147296L268.92266686310177,50.441407587582944L268.92269724883954,50.44130130886333L269.476298743044,50.648054849531036L269.47626457433216,50.64816112368135Z"/><path d="M268.44958748851786,51.746276377147296L268.4495495419542,51.74637884963886L267.9137548911385,51.54627844778588L267.9137928374694,51.54617597520701L268.3927874874789,50.24351821638993L268.39282165587065,50.24341194203589L268.92269724883954,50.44130130886333L268.92266686310177,50.441407587582944Z"/><path d="M268.44958748851786,51.746276377147296L268.4495495419542,51.74637884963886L267.9137548911385,51.54627844778588L267.9137928374694,51.54617597520701L268.3927874874789,50.24351821638993L268.39282165587065,50.24341194203589L268.92269724883954,50.44130130886333L268.92266686310177,50.441407587582944Z"/><path d="M264.74616702625644,64.95169179383083L264.15473595118965,66.57652775663882L264.0784290380252,66.54783921138733L263.61662102804985,66.37420026981272L263.80897114778054,65.82869252350065L264.19147645600606,64.74391727810143L264.1915068382805,64.7438110045041L264.7461974087055,64.95158552037901Z"/><path d="M270.0848183912458,52.356985170481494L270.08478044418734,52.357087642594706L269.53753519349266,52.15270707308082L269.5375731403765,52.15260460082209L270.0165783025732,50.84995264495956L270.01661247148877,50.84984637098387L270.5723637568299,51.05740553481155L270.57232958768145,51.05751180864172Z"/><path d="M267.9977669912914,59.59918333115638L268.08361485155183,59.63154117955128L267.8850233705016,60.165789660066366L267.5720945370849,61.007634045003215L267.57205659218016,61.00773651411873L267.5457712225907,60.99773932111566L267.5194517064374,60.98782941675745L266.95007785980124,60.777318177133566L266.9501158045023,60.777215707843425L267.45807632862125,59.395755251433Z"/><path d="M268.602779247798,49.704297603224404L268.6027413009142,49.70440007650177L268.0622200476646,49.502534367813496L268.0622579944029,49.50243189444882L268.18157505855197,49.16621049566311L268.1391652653401,48.83376016872353L268.1391540444747,48.83365004387451L268.1976905519259,48.82275654404657L268.25624216443975,48.81188965291949L268.70617907345877,48.72898851978243L268.70619029412046,48.72909864468966L268.77456889653695,49.237097607256146Z"/><path d="M264.64449889431125,60.61873226170428L264.26339261763496,61.67745997221209L264.0864139315381,61.61186028501834L263.5997154910292,61.431454063014826L263.98716321744723,60.37586791496142L263.98719738272484,60.375761643837905L264.47408718356746,60.555653122311924L264.64452927719685,60.61862598636071Z"/><path d="M264.26339261763496,61.67745997221209L264.750101511745,61.857874838489806L265.21757949795574,62.03115687100217L265.07479461762705,62.418771472002845L265.0141671306337,62.58335971433553L264.80866487690946,63.14123154160916L264.41503739057225,64.2098215202277L264.4149994473264,64.20992398864473L263.3398129448178,63.80718394625001L263.3398508877144,63.80708147765836L263.8887310573482,62.358849668933544L263.8136314052972,62.35505757640931L263.2707805885002,62.32763194068684L262.6588137417275,62.29671863844851L262.821082914772,61.85964532071375L262.8281630144338,61.84057842812035L263.375347107969,62.04274726874428L263.5997154910292,61.431454063014826L264.0864139315381,61.61186028501834Z"/></g></svg>
