<svg viewBox="142.92036732050474 33.879346293600975 314.1592653589905 160.21752962021856" xmlns="http://www.w3.org/2000/svg" xmlns:xlink="http://www.w3.org/1999/xlink"><g><path d="M248.123611292016,117.470665642526L247.0438053184189,117.56146555562736L246.91777712438488,116.4667258321424L246.91776967953774,116.46661573942401L248.01297210645862,116.36192694568308L248.01297576900106,116.36203703421052Z"/><path d="M271.2390824664035,136.38023727881955L267.7869743282499,136.740571984672L267.7869518583175,136.74038217158522L267.4675329149468,133.35284062978462L267.4675254788017,133.35273054349818L270.90107305921265,132.90945020774961L270.90133403177606,132.90941635271884L270.9013452481013,132.9095264438074L270.9040197141876,132.9314616653428L270.9064823818917,132.9534194106527Z"/><path d="M259.2699033576064,122.10357273631962L259.18638073749025,120.75848708668491L258.04490492949844,120.83321424308815L257.9335414360685,119.45075850043213L259.1306989907753,119.18921202298952L258.8801311305142,116.91001056175446L261.46933235344477,116.64846162201138L262.081831567426,121.8793922601908L259.2699033576064,122.17829952031025Z"/><path d="M259.2977442309784,122.10357273631962L259.18638073749025,120.75848708668491L258.0727458028996,120.83321424308815L257.9613823094405,119.52548601891613L259.1585398641473,119.15184821974253L258.85229025711305,116.79791819004458L263.52955698242295,116.38691242877394L263.58523872916703,117.80674785957672L264.2812605632935,117.73201986518688L264.3091014366073,118.10565962994588L264.6988736636995,118.10565962994588L264.9772823973908,120.31012371377437L264.39262405675254,120.38485099430545L264.5875101702695,121.65521159791388L259.3534259776934,122.10357273631962Z"/></g></svg>
