<svg viewBox="142.92036732050474 33.879346293600975 314.1592653589905 160.21752962021856" xmlns="http://www.w3.org/2000/svg" xmlns:xlink="http://www.w3.org/1999/xlink"><g><path d="M263.34083527105395,143.04328873872873L262.7607029899664,143.047952043009L262.7627666036424,143.1485884351423L262.1809063978726,143.15326618985273L262.20254712502356,144.20919253930333L262.2025506866339,144.20938612060854L260.4646269630466,144.22338611574378L260.4646234001848,144.22319253443857L260.4301143689372,141.98261620730045L260.430114493327,141.9825061331794L262.0457006311626,141.96951591881225L261.7980993091478,139.6289529245114L262.9572204652941,139.48757346280036Z"/><path d="M251.93898245351738,111.22500456869602L251.42891247500665,111.2625913847005L251.38311164622428,110.67058149538934L251.33791844383813,110.08644792402629L251.33791478254716,110.0863378328213L252.23969572223723,110.02114620650536L252.2396956011653,110.0212562934903L252.31833052268485,111.19704879401252Z"/><path d="M252.58244490411016,111.17758667224552L252.31833052268485,111.19704879401252L252.2396956011653,110.0212562934903L252.23969572223723,110.02114620650536L253.05523399671074,109.96219370042672L253.05523387537687,109.96230378746986L253.13378710436518,111.13696165691363Z"/><path d="M274.41696248040535,149.62737080812803L273.24878092083964,149.742840955063L273.24875089299167,149.7426511416852L272.9582769807603,147.71767395437928L272.9582695472636,147.71756387373898L274.0693164524564,147.6006079412473L274.0693276668899,147.6007180266024L274.41692492191214,149.6271544167539Z"/><path d="M312.1549513278587,108.21330961352214L312.77508026658325,110.64552895029192L312.77514422812965,110.64577957818983L311.6601710685645,110.93961331091123L311.6601071060577,110.9393626836827L311.0764994419005,108.6504059122235L311.0334295198845,108.48148940186366L312.09438089071773,108.20908365631476Z"/><path d="M265.0396677662211,149.42679208837217L264.2135251906293,149.49584825805505L264.0940682271321,148.54502386177774L264.0940570086823,148.54491377729573L264.9526650937041,148.47000755177578L264.9526687489124,148.47011762761394Z"/><path d="M254.9758866961638,127.35041567878216L253.74828546971548,127.49377138962154L253.7482629933511,127.49357777551631L253.6262980227475,126.1726598770183L253.62629436259158,126.17254979215795L254.82169385041925,126.01772744423943L254.82169751010952,126.01783752912888L254.97586046837387,127.35019548921264Z"/><path d="M254.50557112079696,124.20137104811147L253.45380676319473,124.3043781335582L253.3959004812641,123.67726289245184L253.39589303921093,123.67715280252742L254.47275351756252,123.60678020701744Z"/><path d="M254.47275351756252,123.60678020701744L253.39589303921093,123.67715280252742L253.34141342202201,123.08715651571401L253.34140597993974,123.08704642564408L254.43981704648468,123.01011916133575L254.43981692453963,123.0102292431402Z"/><path d="M269.10722158130375,138.32810455549043L267.94826104596723,138.45107565631042L267.84128842304926,137.31660356922657L267.8412809872243,137.31649348436622L268.999771261093,137.19556296570227L268.99977491484606,137.19567304610973Z"/><path d="M267.9085971811728,144.16973115698784L268.23273557351786,147.61643913801527L264.8407302060514,147.99563616103842L264.8407039883605,147.99541598709766L264.6096501444699,146.12681793025695L263.91051707736915,146.21864040000946L263.7294874707586,144.75466451660031L263.72947625195957,144.7545544305758L267.9083211948746,144.1696776964818L267.9085897455807,144.16962107495056Z"/><path d="M259.2977442309784,122.10357273631962L259.18638073749025,120.75848708668491L258.0727458028996,120.83321424308815L257.9613823094405,119.52548601891613L259.1585398641473,119.15184821974253L258.85229025711305,116.79791819004458L263.52955698242295,116.38691242877394L263.58523872916703,117.80674785957672L264.2812605632935,117.73201986518688L264.3091014366073,118.10565962994588L264.6988736636995,118.10565962994588L264.9772823973908,120.31012371377437L264.39262405675254,120.38485099430545L264.5875101702695,121.65521159791388L259.3534259776934,122.10357273631962Z"/><path d="M260.1462944614177,126.73664043485769L258.8876723431167,126.89140507191769L258.88764230685774,126.89121144838282L258.7030797896441,125.51685860860744L258.7030723498028,125.5167485193524L258.6721228332899,125.28753636969486L258.67211917525856,125.28742628448526L259.9332245038531,125.13033946286305L259.9614344825968,125.36000048802816L260.1462644561252,126.73642024002038Z"/><path d="M261.5193349661713,126.5678118673095L260.1462944614177,126.73664043485769L260.1462644561252,126.73642024002038L259.9614344825968,125.36000048802816L259.9332245038531,125.13033946286305L260.74330176471267,125.02943985688034L261.3003335335525,124.96005960454931L261.33419310025056,125.18901373556582L261.51930496201385,126.56759167212294Z"/><path d="M256.72453164163744,140.7660456028534L256.1389874665765,140.78388056674157L256.13897631221334,140.7837097486772L256.0794535234454,139.82729679410113L256.07944986448274,139.8271867148287L256.6452659338829,139.8245842817705L256.7245167357323,140.76584821069264Z"/><path d="M255.49067353914143,139.6448952993087L255.49040124297608,139.64491776848445L254.83193731794017,139.69496021347004L254.75125792392646,138.39876217907295L254.75125804595882,138.39865210352582L255.409825345414,138.35028704581782L255.41010144122993,138.35024939765572L255.41010510054184,138.3503594775102Z"/><path d="M259.2977442309784,122.10357273631962L259.18638073749025,120.75848708668491L258.0727458028996,120.83321424308815L257.9613823094405,119.52548601891613L259.1585398641473,119.15184821974253L258.85229025711305,116.79791819004458L263.52955698242295,116.38691242877394L263.58523872916703,117.80674785957672L264.2812605632935,117.73201986518688L264.3091014366073,118.10565962994588L264.6988736636995,118.10565962994588L264.9772823973908,120.31012371377437L264.39262405675254,120.38485099430545L264.5875101702695,121.65521159791388L259.3534259776934,122.10357273631962Z"/><path d="M272.7321881019743,149.79451658777543L268.9044443462044,150.18565028169542L268.904425659508,150.18546048246208L268.75859030443826,148.15980627882527L268.7585866507725,148.15969620275428L272.4417945270252,147.77195063253748L272.4420554989192,147.7719053942128L272.44206671393476,147.7720154794224Z"/><path d="M272.7321881019743,149.79451658777543L268.9044443462044,150.18565028169542L268.904425659508,150.18546048246208L268.75859030443826,148.15980627882527L268.7585866507725,148.15969620275428L272.4417945270252,147.77195063253748L272.4420554989192,147.7719053942128L272.44206671393476,147.7720154794224Z"/></g></svg>
