<svg viewBox="142.92036732050474 33.879346293600975 314.1592653589905 160.21752962021856" xmlns="http://www.w3.org/2000/svg" xmlns:xlink="http://www.w3.org/1999/xlink"><g><path fill="#59260b" stroke="white" stroke-width="0.2" d="M256.72453164163744,140.7660456028534L256.1389874665765,140.78388056674157L256.13897631221334,140.7837097486772L256.0794535234454,139.82729679410113L256.07944986448274,139.8271867148287L256.6452659338829,139.8245842817705L256.7245167357323,140.76584821069264Z"/><path fill="#59260b" stroke="white" stroke-width="0.2" d="M255.49067353914143,139.6448952993087L255.49040124297608,139.64491776848445L254.83193731794017,139.69496021347004L254.75125792392646,138.39876217907295L254.75125804595882,138.39865210352582L255.409825345414,138.35028704581782L255.41010144122993,138.35024939765572L255.41010510054184,138.3503594775102Z"/><path fill="#59260b" stroke="white" stroke-width="0.2" d="M259.2977442309784,122.10357273631962L259.18638073749025,120.75848708668491L258.0727458028996,120.83321424308815L257.9613823094405,119.52548601891613L259.1585398641473,119.15184821974253L258.85229025711305,116.79791819004458L263.52955698242295,116.38691242877394L263.58523872916703,117.80674785957672L264.2812605632935,117.73201986518688L264.3091014366073,118.10565962994588L264.6988736636995,118.10565962994588L264.9772823973908,120.31012371377437L264.39262405675254,120.38485099430545L264.5875101702695,121.65521159791388L259.3534259776934,122.10357273631962Z"/><path fill="#59260b" stroke="white" stroke-width="0.2" d="M272.7321881019743,149.79451658777543L268.9044443462044,150.18565028169542L268.904425659508,150.18546048246208L268.75859030443826,148.15980627882527L268.7585866507725,148.15969620275428L272.4417945270252,147.77195063253748L272.4420554989192,147.7719053942128L272.44206671393476,147.7720154794224Z"/></g></svg>