<svg viewBox="142.92036732050474 33.879346293600975 314.1592653589905 160.21752962021856" xmlns="http://www.w3.org/2000/svg" xmlns:xlink="http://www.w3.org/1999/xlink"><g><path  d="M272.5098739984096,137.68823621756746L271.95159265201073,137.756332162302L271.8651427287259,136.86506129032932L271.8651352945308,136.86495120520703L272.4244945332175,136.80794727412285L272.4244981855736,136.80805735482136Z"/><path  d="M298.0780859410006,90.08187497907784L297.5287335469329,90.2264154337754L297.52866956643993,90.2261647907435L297.23831586079905,89.07195331121329L297.59511770910467,88.89620235440088L297.75334112226847,88.81826680200174L298.07802196091507,90.0816243358131Z"/><path  d="M265.1313991594361,60.79863237577956L264.750101511745,61.857874838489806L264.26339261763496,61.67745997221209L264.64449889431125,60.61873226170428L264.64452927719685,60.61862598636071L265.13142954255454,60.798526100610616Z"/><path  d="M252.65730364565388,112.31902320490917L252.01384015346412,112.36640276294202L252.0138252550969,112.36619396225433L251.93898245351738,111.22500456869602L252.31833052268485,111.19704879401252L252.58244490411016,111.17758667224552L252.65728874781053,112.31881440419238Z"/><path  d="M257.19066289122566,122.29556237332872L256.602503791044,122.33675098107778L256.6024851150287,122.33654218359152L256.515862873086,121.28897676765337L257.0917773278197,121.23891807324253L257.1906442156469,122.29535357569694Z"/><path  d="M247.40014633507235,128.1260713232623L246.47885030548787,128.2180600083666L246.47882784850663,128.2178436202812L246.3576189278392,127.03657210685196L246.347218731069,126.93522620334988L247.2836710656993,126.84800937294494L247.28393959644018,126.84798309425241L247.28394704093807,126.84809318275074Z"/><path  d="M252.01384015346412,112.36640276294202L250.4557886014518,112.48113507920061L250.45573585369857,112.48095280968118L250.1658544440288,111.35577498728526L250.16583186842036,111.35566867183661L251.42891247500665,111.2625913847005L251.93898245351738,111.22500456869602L252.0138252550969,112.36619396225433Z"/><path  d="M270.48589259086293,129.5074914933066L270.77033514447976,131.83669889546582L270.7700741708395,131.8367327506421L268.97084849051316,132.06003972070175L268.8378968340985,131.03375180307194L269.12741363365785,130.99781764979707L269.0104695362679,130.0402337348496L268.7816828711366,130.06863228580914L268.73961797822267,129.72422903531697L268.7396067609079,129.72411894303514L270.4856165945821,129.50743423131644L270.4858813742758,129.50738140082103Z"/><path  d="M255.75228088669246,129.13851354215876L253.9162484917324,129.36321454524295L253.91622223812738,129.36301713241846L253.79129974005627,128.01300966064446L253.79129608004587,128.01289957668632L255.6282829696429,127.79838577209739L255.62828662898391,127.79849585602642L255.75225844568922,129.13828956216457Z"/><path  d="M274.215830271889,154.02883455716074L273.62790804100223,154.0664744047681L273.54354191946913,153.06526486878283L273.5435382676951,153.0651547946327L274.123803739727,153.0225220179127L274.1238073911809,153.02263209203375Z"/><path  d="M255.51236225865432,117.11369592210394L255.5548591419356,118.20229649016983L255.55486647356884,118.20250527816825L255.55487013302627,118.20261536614271L255.56849756010342,118.55173284630291L255.56850492124795,118.55191506206756L255.5468975151307,118.55350036328309L254.93240092752967,118.59850903053302L254.424757672532,118.63569708092837L254.08326411858434,118.66071145769092L253.76339313964127,118.68414083687821L252.11119877843885,118.80517893761862L251.67873038881226,117.17185971836443L251.6787040324707,117.17175340102403L252.88238580262987,117.06569763959851L253.84696354402695,116.98071444989182L254.42112112249015,116.9301272376033L255.03201951034134,116.87630635517417L255.50148152993643,116.8349501908524Z"/><path  d="M264.3935452332953,126.21444114635233L262.9043253288546,126.39751972598606L262.9042953256867,126.39729953042115L262.7069572269975,125.01803009514697L262.6770550678775,124.78858671736089L264.5791880291363,124.55168511279044L264.60357781132916,124.78180960044847L264.71298871867475,125.60305675995187L264.78790329853655,126.16571655706502L264.78793330016197,126.16593675292097L264.7877025626367,126.1659820372588L264.60604795330437,126.18831618689L264.5766143735091,126.19193387619453Z"/><path  d="M272.770063136908,128.63025249322527L270.9909499377536,128.86183213611366L270.9909237276006,128.8616081503278L270.8125480254239,127.52160921046743L270.81254059050116,127.52149912156165L272.59330803647754,127.30233160968055L272.593319252308,127.30244170301012L272.77003314651665,128.63002850252087Z"/><path  d="M273.8112751421286,128.49474544861005L272.770063136908,128.63025249322527L272.77003314651665,128.63002850252087L272.593319252308,127.30244170301012L272.59330803647754,127.30233160968055L273.63549219834385,127.17407448845915L273.63550341370865,127.17418458207976L273.81124515263946,128.49452145781834Z"/><path  d="M274.9543791390606,128.34597582896822L273.8112751421286,128.49474544861005L273.81124515263946,128.49452145781834L273.63550341370865,127.17418458207976L273.63549219834385,127.17407448845915L274.77966248619487,127.03326461696997L274.7796737012104,127.033374710707L274.9543491504737,128.34575183797278Z"/><path  d="M276.9680464747362,128.0839264067181L274.9543791390606,128.34597582896822L274.9543491504737,128.34575183797278L274.7796737012104,127.033374710707L274.77966248619487,127.03326461696997L276.63776493645855,126.80462726342375L276.63799946167273,126.80457819797448L276.6380182438588,126.80468450507033Z"/><path  d="M262.8328014097933,115.22575395760941L262.8984549307206,116.41808944716468L263.42951482493663,116.39279897298547L263.5194449882547,116.38851413645898L263.5945948846638,117.75345984473825L264.2758939729538,117.70155177506967L264.2956705946999,118.06077856835327L265.4886190063553,117.95598573095049L265.4888875432662,117.95596326555824L265.4888949805463,117.9560733581311L265.50501177069964,118.13188081874978L265.5047432295978,118.13190708006732L264.7365841148421,118.2031775606738L264.8551146730897,119.54309598737746L264.89547103553195,119.53935040105716L264.97197834413964,120.33686585433315L264.4126351295563,120.39117082659504L264.53261853248114,121.6418980867602L264.53264097560896,121.64211448159767L259.2463452487427,122.15294832375366L259.24633036504383,122.15273193822941L259.2141966687341,121.695436236565L259.1815640554996,121.23107114373124L259.1452166248346,120.71377399400808L258.0669666522008,120.8383181518293L257.88600377438706,119.58545624936232L257.8859925522411,119.5853461533552L257.8621394226502,119.42769510715152L257.8621282004751,119.42758501120261L258.7188492160931,119.37601682977402L258.81574341043597,119.31104125737329L258.8999767640489,119.2302188995236L258.9690087331983,119.13598739687586L259.0207572512154,119.0311888216238L259.0536615261226,118.91898396145552L259.063212883455,118.85646731621819L259.0665410106303,118.76220156613272L259.0273448655207,118.27220110944472L258.97824353855685,118.27368286866113L258.9756810652616,118.23860498305294L258.92526218818966,117.54827964387368L258.9252026087779,117.54745204758365L258.8743104717869,116.85063704708591L258.59108503497555,116.86568277527113L258.5775610021956,116.68050168611808L258.49054252624046,115.48911221997696L258.4905388679472,115.48900213078014L262.8328015351726,115.22564387271996Z"/><path  d="M261.7628140882589,150.58626158049447L260.4509238555911,150.64049549985793L260.4508106369758,150.64029800283606L259.2954416788998,148.62645207886817L259.2954077657487,148.62634576443816L261.614855870459,148.60506552419974L261.61485952709336,148.6051755999797L261.7627991908812,150.58606039959705Z"/><path  d="M274.6886605779582,135.9957872692903L271.8092940186616,136.28919314418454L271.809267769946,136.2890033259464L271.6587735284993,134.7373113669746L271.65876609415864,134.737201280921L272.8805156748858,134.5913165093807L274.533314443368,134.39397072256543L274.6886381441727,135.99557088501751Z"/><path  d="M260.3309073855635,127.23858501287759L260.4881646282156,128.55897916597314L260.8763114208414,128.51148343124078L260.8765723920951,128.51145336191985L260.8765836126695,128.5115634543763L260.9045242612774,128.7409405335493L260.9045542914828,128.7411379518453L260.93887416558573,128.73692951587145L260.9731978610507,128.73268692591228L260.97320151815074,128.73279700955027L261.13890589788207,130.12414938115398L261.13893211603863,130.12437336501898L259.35223187843803,130.35085397740477L259.3522018472722,130.35065656044753L259.1338615040295,128.72472420238773L258.95697462392855,127.40752830469864L258.9569671841746,127.4074182160839L260.3309037281724,127.23847492859932Z"/><path  d="M268.73961797822267,129.72422903531697L268.7816828711366,130.06863228580914L269.0104695362679,130.0402337348496L269.12741363365785,130.99781764979707L268.8378968340985,131.03375180307194L268.97084849051316,132.06003972070175L270.7700741708395,131.8367327506421L270.77033514447976,131.83669889546582L270.7703463608632,131.83680898699095L270.90133403177606,132.90941635271884L270.90107305921265,132.90945020774961L267.4675254788017,133.35273054349818L267.1440525392536,129.9222725040454L267.1440451029048,129.92216241627466L268.7396067609079,129.72411894303514Z"/><path  d="M288.3674950776913,108.5896550869511L292.06814894772833,117.30710957138217L292.0681677245011,117.30721588319284L292.70771804935066,119.9173216689669L292.7090123705566,119.92565545276739L292.71001142045134,119.93724960324471L292.7100876557233,119.9488843481231L292.70924116656533,119.96048756380333L292.707483379083,119.97199473326327L292.7048181842547,119.98331855406286L292.70126457192237,119.99439451884245L292.69684531819075,120.00515432856628L292.69158699084073,120.01552209787769L292.28777001879644,120.73580347886309L292.28772073227447,120.73590211189003L292.28128246052074,120.74631013441831L292.274422019138,120.75560161410249L292.26683997371583,120.76431520128972L292.25858933568816,120.7723978193535L292.24972692204756,120.77977741634822L292.2402981427731,120.78643127402756L292.23037113650935,120.79230633424595L292.2200102364295,120.79736851470079L292.209275993926,120.80158372767619L292.1982478881837,120.80490272573661L287.4614500940952,122.03341815428576L286.18041591133806,122.33771516400157L286.1803670503432,122.33746836779756L285.9819866353937,121.33570942137158L285.7795943119272,120.3137133026903L285.55556579420227,119.18246892429306L285.34822389131295,118.13546993496129L285.06198915472487,116.69010379543761L283.56344542792067,117.003531795257L282.53585415228736,117.21846625817125L281.9930808946665,117.33199218689697L281.19295228179544,117.49935629559332L281.19271394296084,117.49942433414981L280.7415121787344,117.59378407208715L280.741277640278,117.59383693151176L279.406472208997,117.884546601068L278.3553137060662,118.11349027499091L277.6710796096886,118.26251753987162L277.0514946873591,118.39746497679153L275.66927957424195,118.69852508319309L273.8188207310741,119.10158384082024L271.3445345001528,114.2013284691784L271.3444968010881,114.20122593143606L269.9096785574802,111.90826724097133L269.9096332893241,111.90816848984105L269.9055947449815,111.90119414450601L269.90122601686744,111.89196453875047L269.89769730050466,111.8823714943428L269.8950500910578,111.8725061660225L269.893303218676,111.86243690524134L269.8924717095797,111.8522510395851L269.8925630348094,111.84202829530113L269.89356952894013,111.83185597337433L269.89549109042855,111.82182138381177L269.8983087257657,111.81199662975268L269.9020034192363,111.80247279503965L269.9065372720943,111.79331816485501L269.9118761497957,111.78461621294264L269.9179745897709,111.77643521560822L269.9247909199912,111.76883586120675L269.93225698173046,111.76189019580488L269.9403311164642,111.75564751948696L269.948926273355,111.75016467150999L269.9579856925411,111.74546815801295L271.80287045566365,110.89577023460879L275.85468266371754,109.0642878493527L275.8547127933416,109.06439417673391L276.85339311606367,111.29037382788374L278.51589124219026,110.5262406655238L277.52195180236595,108.31079996252083L277.52192167329486,108.31069363464485L277.5470702612947,108.29934305138886L277.57222646064474,108.28795451775659L282.39944711956196,104.85395416160463L285.53027907403884,104.07757658517221L285.5328514794819,104.07707106339512L285.5488225625013,104.07436506668455L285.56491733458824,104.07257410528837L285.5810904065438,104.07170191936893L285.5972888157994,104.07175983249908L285.6134558409685,104.07274018228054L285.6295385287085,104.07464669985347L285.6454915130744,104.0774641445023L285.6612580678775,104.08118864995777L285.6767852586636,104.08580876237829L285.69203152446426,104.09129026482697L286.60825181158725,104.48743680349435L286.60855798836565,104.48757384443888L286.6167330473545,104.49204446212389L286.61703540489543,104.49221186793875L286.6264338763722,104.49828598744352L286.62672485987423,104.49847615629551L286.6356156312104,104.50528990483144L286.6358838992019,104.50549902647617L286.6442027364974,104.51300297418493L286.64445585306385,104.51323105802294L286.6523878335138,104.52162283496L286.65962316593505,104.5306287331623L286.6661278819374,104.54019176741713L286.6718339936051,104.55023972620256L286.6767302293156,104.56071185672772L288.3674611709721,108.58954875328345Z"/><path  d="M267.5142045271932,139.9870360865316L267.5139360075409,139.9870623437164L264.73023375615594,140.27559148459113L264.48271098866826,137.66721580910962L264.48270733308163,137.6671057289932L267.26776599441655,137.37637892362545L267.2680345385161,137.37633368730894L267.26804197457386,137.37644377193647Z"/></g></svg>
