<svg viewBox="142.92036732050474 33.879346293600975 314.1592653589905 160.21752962021856" xmlns="http://www.w3.org/2000/svg" xmlns:xlink="http://www.w3.org/1999/xlink"><g><path d="M251.88751131144818,119.7622015257657L250.4845671587973,119.89183817166486L250.48454470434808,119.89162177659455L250.39361189925694,118.98025551828323L249.51134634099435,119.06178016262129L249.4138938622491,119.07078738819109L249.30732706803246,118.49967820273014L249.2195669617504,118.02934565080795L251.37909940670943,117.8429545009858L251.3793301199912,117.84293577584322L251.37935647636186,117.84304209286347Z"/><path d="M277.0267643457628,140.39095861645183L277.0264844765479,140.39098864616244L275.91375781656825,140.51764658867614L275.78115662036,139.50211410759948L275.78114540636307,139.50200401886832L276.9873321876221,139.35726435497054L276.98761586658657,139.3572115554707L276.9876195171091,139.35732163515058Z"/><path d="M277.63709458278026,146.64344491192605L276.17033776271273,146.7978293747292L276.17031154956203,146.797612994269L275.9665526931349,145.04788577061845L277.4167388252681,144.89524427163997L277.4169997780118,144.89521801559022L277.4170109911938,144.8953281022259Z"/><path d="M305.33458917043754,135.21315090719145L305.7665826524899,139.11061334016267L305.74735894813784,139.10346748467418L305.6189186681877,139.0566998567374L305.49017090239795,139.0108086882683L305.3610136041825,138.96575209478033L305.23165844287723,138.92160626716213L305.10200713877566,138.87834071237012L304.9720710425754,138.8359516506316L304.841850145458,138.79444667356438L304.7113557983539,138.753822001745L304.5805879923282,138.71408522693673L304.4495580783987,138.6752325691923L304.3182698341261,138.6372678298212L304.1867308190558,138.6001948150515L304.054944810865,138.5640173263091L303.9229156023357,138.52872777785524L303.7906545244041,138.49433757230872L303.6581653698231,138.46083912378526L303.5254519066948,138.42824382468825L299.20146508011385,137.47932260856032L299.15585858625127,137.07271497242618L299.1558511630865,137.07260488669272L300.319137414539,136.941942634905L301.17825097576133,136.84545313261333L301.0469495568541,135.69649079907686L301.0469459160813,135.69638071759255L304.2133085541718,135.33945143720484L305.334585531411,135.2130408255034Z"/><path d="M290.8756542294577,130.4375659750367L290.304480518098,130.50261838021106L290.3044543193828,130.50239818982664L290.178046166664,129.35971406206954L290.7472745265695,129.29479153791908L290.7475355004135,129.29476149761467L290.74754292709986,129.29487158634583Z"/><path d="M266.14787804163643,61.174199285247596L265.55486262461636,62.78402901793015L265.0141671306337,62.58335971433553L265.07479461762705,62.418771472002845L265.21757949795574,62.03115687100217L265.6068876061181,60.9743169954163L265.6069217719778,60.97421072470024L266.14791220769985,61.17409301485168Z"/><path d="M264.8407302060514,147.99563616103842L264.1399345503305,148.07398497793474L264.1399083319993,148.0737648040813L263.91051707736915,146.21864040000946L264.6096501444699,146.12681793025695L264.8407039883605,147.99541598709766Z"/><path d="M252.88238580262987,117.06569763959851L251.6787040324707,117.17175340102403L251.38004664998152,116.04383179021534L251.38002785714343,116.04372548067477L252.7884819874307,115.93276665636222L252.7884856480232,115.9328767452389Z"/><path d="M257.3728529807995,107.46056280529592L256.83260971604614,107.50178055814467L256.74322079712874,106.40854037954705L256.74321713802055,106.40843028685777L257.86388327219174,106.32704649626976L257.8638869308634,106.32715658887173L257.95293555915123,107.41630483680638Z"/><path d="M239.1274200451735,111.37900845939294L239.12719684714102,111.379068960523L238.20559023902752,111.62919453013455L237.251784397522,111.88806570169982L237.2155422780197,111.76476116298L236.86884969676612,111.79278387670638L236.50380702069378,109.90695143403718L236.5037957894965,109.90684133506147L238.08955625077942,109.69372562557692L238.6647376603214,109.61644439253723L238.66497219353914,109.6163952909119L238.66499099181965,109.61650160208228L238.7810113170708,110.05867760875844L238.7810301152058,110.0587839197542Z"/><path d="M268.12871036163415,114.220523489872L267.2633041701338,114.26138185863965L267.2632930611726,114.26117685894133L267.2094184944872,113.23390887587448L267.7931394810439,113.20632304341416L268.0278389484738,113.19522746242001L268.12869168515317,114.22032227736781Z"/><path d="M284.96399907997693,139.16988536927965L284.99350850400515,140.54746606069966L284.41598057808005,140.56389046672848L284.40761152500636,140.17311050041462L283.25573755046935,140.19097403355408L283.23470480865217,139.20932450745022L283.23470494226785,139.20921443225234L284.9640029958391,139.1697752987675Z"/><path d="M259.8202723035356,139.810008841916L259.8199886882503,139.8100085199112L258.966860878485,139.81392607695307L258.38486347245635,139.81659643139574L257.8227911218419,139.8191766537784L257.7280063641665,138.296088807896L257.728006487363,138.29597873231978L259.79432523204014,138.14422253600787L259.79461267768056,138.1441811096156L259.79461255361093,138.14429118527914Z"/><path d="M252.88238580262987,117.06569763959851L251.6787040324707,117.17175340102403L251.38004664998152,116.04383179021534L251.38002785714343,116.04372548067477L252.7884819874307,115.93276665636222L252.7884856480232,115.9328767452389Z"/><path d="M275.7886660246004,119.23290692752926L275.59808006323874,119.40893411371508L275.73674957142794,120.02963135688333L275.73680222866824,120.02987436199328L274.4368048181641,120.32550654344959L274.436687824229,120.32530142212636L273.818862210348,119.10168638173491L273.8188207310741,119.10158384082024L275.66927957424195,118.69852508319309Z"/><path d="M264.61187511569005,128.05160569475265L263.2263132210355,128.2221758403175L263.22628700442147,128.22195185461896L263.06908411256154,126.90190755244112L263.0690804562473,126.9017974679009L264.4420311495778,126.73299521103036L264.4420423687843,126.73310530435992L264.61184511415195,128.05138550058473Z"/><path d="M264.81311560218455,126.16285699050059L264.78793330016197,126.16593675292097L264.78790329853655,126.16571655706502L264.71298871867475,125.60305675995187L264.60357781132916,124.78180960044847L264.5791880291363,124.55168511279044L265.52646021332475,124.43371317419223L266.08321074719424,124.36437651698361L266.0832106205635,124.36448659814778L266.0945730419771,124.59612223392469L266.0945766970981,124.59623231942533L266.14430825965246,125.01891818403965L266.25667054383666,125.97260719109909L266.2566741989285,125.97271727610496L266.25740450576995,125.9789130097488L266.25709058283246,125.97894680863828L265.65355035098037,126.05953268433223L264.8132404166099,126.1628419511544Z"/><path d="M272.9776710756414,152.5267507515964L272.15592114953324,152.587129371037L272.155902487546,152.58692059558234L272.1052016253234,151.97443825440132L271.9122956939973,151.8834290690429L271.7382542847481,151.89950646742363L271.6950115096115,151.27216435194714L271.9599854792177,151.24855382819078L272.46512887172867,151.20354358895565L272.8629190652573,151.16809336227016L272.8631875698338,151.16807090691873L272.86319500330137,151.16818098636577Z"/><path d="M264.61187511569005,128.05160569475265L263.2263132210355,128.2221758403175L263.22628700442147,128.22195185461896L263.06908411256154,126.90190755244112L263.0690804562473,126.9017974679009L264.4420311495778,126.73299521103036L264.4420423687843,126.73310530435992L264.61184511415195,128.05138550058473Z"/><path d="M264.81311560218455,126.16285699050059L264.78793330016197,126.16593675292097L264.78790329853655,126.16571655706502L264.71298871867475,125.60305675995187L264.60357781132916,124.78180960044847L264.5791880291363,124.55168511279044L265.52646021332475,124.43371317419223L266.08321074719424,124.36437651698361L266.0832106205635,124.36448659814778L266.0945730419771,124.59612223392469L266.0945766970981,124.59623231942533L266.14430825965246,125.01891818403965L266.25667054383666,125.97260719109909L266.2566741989285,125.97271727610496L266.25740450576995,125.9789130097488L266.25709058283246,125.97894680863828L265.65355035098037,126.05953268433223L264.8132404166099,126.1628419511544Z"/><path d="M270.48589259086293,129.5074914933066L270.77033514447976,131.83669889546582L270.7700741708395,131.8367327506421L268.97084849051316,132.06003972070175L268.8378968340985,131.03375180307194L269.12741363365785,130.99781764979707L269.0104695362679,130.0402337348496L268.7816828711366,130.06863228580914L268.73961797822267,129.72422903531697L268.7396067609079,129.72411894303514L270.4856165945821,129.50743423131644L270.4858813742758,129.50738140082103Z"/><path d="M270.7868858257425,152.68772864333005L270.42088667157805,152.71462605166016L270.4208717895963,152.71441728092032L270.38594432291575,152.20772770248004L270.56595498952083,151.76817077581654L270.5388623790932,151.37519144578255L270.695442937169,151.36124097715947L270.78687094405177,152.68751987241558Z"/><path d="M271.7382542847481,151.89950646742363L271.7875054742035,152.61399171032826L271.7875203550502,152.61420048124273L271.75877950145514,152.61633001026348L271.7300462553394,152.61842159630032L271.73003137437627,152.61821282538585L271.657466808334,151.5655185324431L271.22673270039377,151.60531172255287L271.2987411985232,152.64990546088666L271.2987560798647,152.65011423188844L270.7868858257425,152.68772864333005L270.78687094405177,152.68751987241558L270.695442937169,151.36124097715947L270.8578550129896,151.3467660858296L271.3248134558962,151.3051551389508L271.63759657987976,151.2772813233023L271.6950115096115,151.27216435194714Z"/><path d="M271.7300462553394,152.61842159630032L271.2987560798647,152.65011423188844L271.2987411985232,152.64990546088666L271.22673270039377,151.60531172255287L271.657466808334,151.5655185324431L271.73003137437627,152.61821282538585Z"/><path d="M266.2038498597394,114.31140176544432L265.73491447485867,114.33354361809324L265.7348919841752,114.33336897389381L265.63932873739395,113.30823225196218L265.6393213000847,113.30812215746846L266.1402022477123,113.28444551778375L266.20383874559775,114.31120056190412Z"/><path d="M267.4708353370661,116.0683812846546L266.7105056679284,116.13000628727605L266.6057860957517,114.987522195559L266.60578244071803,114.98741210615844L267.41260155590135,114.94932296418119L267.4126014287467,114.94943304924527Z"/><path d="M264.81311560218455,126.16285699050059L264.78793330016197,126.16593675292097L264.78790329853655,126.16571655706502L264.71298871867475,125.60305675995187L264.60357781132916,124.78180960044847L264.5791880291363,124.55168511279044L265.52646021332475,124.43371317419223L266.08321074719424,124.36437651698361L266.0832106205635,124.36448659814778L266.0945730419771,124.59612223392469L266.0945766970981,124.59623231942533L266.14430825965246,125.01891818403965L266.25667054383666,125.97260719109909L266.2566741989285,125.97271727610496L266.25740450576995,125.9789130097488L266.25709058283246,125.97894680863828L265.65355035098037,126.05953268433223L264.8132404166099,126.1628419511544Z"/><path d="M262.3108124389837,128.33488022480742L261.4034744617238,128.44658350589452L261.40344824356725,128.44635952077806L261.2462066571461,127.12604022413143L261.2462030000461,127.12593013982405L262.16129500363604,127.01341475415393L262.1612986602704,127.01352483866503L262.31078622164205,128.33465623945813Z"/><path d="M263.4012119358231,122.2746091276058L263.5785724526795,123.42918184844893L264.48691324424,123.32577151575242L264.9322485232551,123.2750745905505L265.413489035418,123.22028995092842L265.48973285013926,124.08696362207411L265.49999498782563,124.20359729620395L265.50001363948104,124.20382127654739L265.52646021332475,124.43371317419223L264.5791880291363,124.55168511279044L262.6770550678775,124.78858671736089L261.3003335335525,124.96005960454931L260.74330176471267,125.02943985688034L259.9332245038531,125.13033946286305L258.67211917525856,125.28742628448526L258.64262955551385,125.05804098618682L258.6426258973952,125.05793090091902L258.64259586512344,125.0577334802365L258.34769038134255,122.76297042221995L258.34768294129753,122.76286033180077L263.4012007160054,122.2744990325009Z"/><path d="M268.99656388547737,115.9447336475132L268.99657132138964,115.9448437410465L269.13711559193325,117.45343846394098L266.5265166690806,117.70318668952677L266.5264980091306,117.70297029582434L266.45576243434334,116.93123591961921L265.9779435530654,116.97695144981844L265.90629485374666,116.19529889617115L265.90628741661203,116.1951888029871L265.79908444263856,115.02561388912727L265.7990770054166,115.02550379536115L266.60578244071803,114.98741210615844L266.6057860957517,114.987522195559L266.7105056679284,116.13000628727605L267.4708353370661,116.0683812846546L268.16049817414023,116.01249146577902L268.10348061690456,114.91681399941444L268.10348074437934,114.91670391452499L268.89703266031574,114.87926045493805L268.8973049913184,114.87923040514579L268.89731242723064,114.87934049908654Z"/><path d="M257.9188741808175,123.94803633901756L257.9186132309551,123.9480436363956L256.8132867689128,123.97537780887797L256.79019709682325,123.55701898806728L257.85926140935044,123.4862108308007L257.8595223723969,123.48619214561768L257.85953737612,123.48630224430235Z"/><path d="M270.96226525568636,144.9908484290936L271.02374283614336,145.56820393691305L271.0840895452711,146.14875660205144L271.1141349984391,146.44484908587765L271.2029849051032,147.32050657534273L271.20300734075136,147.3207229503314L268.80749579294934,147.57292602042435L268.8074733244721,147.57273621481727L268.4808133315819,144.09910920387483L268.4808096777124,144.09899912626133L270.84436806628946,143.8401213674224L270.84437171919853,143.84023144518142Z"/><path d="M256.9582230891974,126.56240888737375L257.5276050705288,126.4929436671373L257.55348606960615,127.08339746927959L257.0358660866332,127.08339746927959Z"/><path d="M272.9632005923486,139.37415618356317L272.1183406066266,139.47556472220458L272.11831436280045,139.4753711106896L272.01862007792806,138.44746349958587L272.01861264387844,138.44735341501655L272.8406518402917,138.35106035266654L272.96317438039114,139.37393600205542Z"/><path d="M274.0947772805521,139.23833749390906L273.53686309134355,139.30530287482543L273.53683687982266,139.30508269314305L273.41451497154776,138.28384271633695L273.9726222184836,138.21846746600932L274.09475106949685,139.23811731205205Z"/><path d="M277.63709458278026,146.64344491192605L276.17033776271273,146.7978293747292L276.17031154956203,146.797612994269L275.9665526931349,145.04788577061845L277.4167388252681,144.89524427163997L277.4169997780118,144.89521801559022L277.4170109911938,144.8953281022259Z"/><path d="M273.5108840633766,141.93804113706574L272.37190003108117,142.04773043483146L272.31911646886147,141.5137809450971L272.3191090350156,141.51367086180835L273.4551730316016,141.37435244148946Z"/><path d="M275.7090307820472,141.5720611087454L275.8265076982789,142.7608355974662L275.82653013058007,142.76105197652942L274.6689755753614,142.87252334266668L274.6689531420707,142.87230696389452L274.50156564448844,141.17853587050922L275.6591273659433,141.06706689848215Z"/><path d="M282.69409116278985,140.88175897169276L282.71900554175954,142.04443759014248L280.2097899198998,142.08056110527832L280.2097825896053,142.08036751759937L280.166318073665,140.93220805510646L280.9280643671809,140.91696984137525L281.52784405249986,140.90497181427781L282.69380767285475,140.88165614224272L282.6940912961145,140.88164889716427Z"/><path d="M277.0267643457628,140.39095861645183L277.0264844765479,140.39098864616244L275.91375781656825,140.51764658867614L275.78115662036,139.50211410759948L275.78114540636307,139.50200401886832L276.9873321876221,139.35726435497054L276.98761586658657,139.3572115554707L276.9876195171091,139.35732163515058Z"/><path d="M280.166318073665,140.93220805510646L280.2097825896053,142.08036751759937L280.2097899198998,142.08056110527832L277.6688513048284,142.1171633314516L277.66884394109366,142.11699631335796L277.56069202310755,139.26087765290868L277.56068837287603,139.26076757308329L280.10111877307645,139.2099256554502L280.10111864074133,139.21003573056078Z"/><path d="M300.319137414539,136.941942634905L299.1558511630865,137.07260488669272L299.0959085455397,136.53817575937137L299.09590112243313,136.53806567340507L299.650977507059,136.47584812829155L300.0118115241348,136.43540111210314L300.25810004599043,136.4077924701851Z"/><path d="M275.6591273659433,141.06706689848215L274.50156564448844,141.17853587050922L274.6689531420707,142.87230696389452L274.6689755753614,142.87252334266668L273.6132843787782,142.97418731506332L273.61326194473077,142.97397093646578L273.5108840633766,141.93804113706574L273.4551730316016,141.37435244148946L273.39074085711036,140.80484106263611L274.0752250509104,140.72692379599903L274.53768883337034,140.67428122047568L275.0001490128052,140.6216394258081L275.6082671371696,140.55241819680668Z"/><path d="M277.0665393550298,141.44134274384123L277.0662594914029,141.44136897771386L275.7090307820472,141.5720611087454L275.6591273659433,141.06706689848215L275.6082671371696,140.55241819680668L275.91375781656825,140.51764658867614L277.0264844765479,140.39098864616244L277.0267643457628,140.39095861645183L277.02676799619803,140.39106869569514Z"/><path d="M273.9161560293869,145.26371670656954L273.8277381701919,145.27302481033257L272.70792286650976,145.39090607897379L272.6494905849395,144.8155385273567L272.6494831512973,144.81542844549404L273.26694827282336,144.75123565565445L273.84976357521373,144.6906469106616Z"/><path d="M281.3864320362627,146.0580380576721L279.2257471710327,146.40148401781335L279.22570963413455,146.40125244067167L279.04766151172225,145.26068808345008L279.60678680374986,145.16487137199147L279.46453298215056,144.205650916585L280.3925805382314,144.0638686104794L281.05293008178705,143.96298097647377L281.386394501169,146.05780647991924Z"/><path d="M279.0845078176644,144.26371292001568L277.9403825972404,144.438519690244L277.8742178004468,143.91294605031726L277.8742028059205,143.91283595887944L279.08476354714367,143.7883706211578Z"/><path d="M273.26694827282336,144.75123565565445L272.6494831512973,144.81542844549404L272.5320944931009,143.65953464165796L272.5320870594005,143.659424559155L273.1433847011358,143.60055299970554L273.14338835311355,143.60066307761008Z"/><path d="M273.84976357521373,144.6906469106616L273.26694827282336,144.75123565565445L273.14338835311355,143.60066307761008L273.1433847011358,143.60055299970554L273.7170714229869,143.5453047491901L273.71707507476094,143.54541482712375Z"/><path d="M274.51556641506613,145.20061755625647L273.9161560293869,145.26371670656954L273.84976357521373,144.6906469106616L273.71707507476094,143.54541482712375L273.7170714229869,143.5453047491901L275.71086641814327,143.35330448742025L275.7108700691024,143.3534145654703L275.83720334412646,144.4840352598403L275.9009738325549,145.05479131126776L275.2787198967126,145.1202893484733Z"/><path d="M273.9631762660283,146.4359746335831L272.826203380333,146.5556602064753L272.767771593004,145.98029888031306L272.76776415947825,145.98018879882875L273.89626035880065,145.86139221684425Z"/><path d="M279.46453298215056,144.205650916585L279.0845078176644,144.26371292001568L279.08476354714367,143.7883706211578L279.08541276925826,142.5744019773265L279.0854166826466,142.574291908124L280.3942735604069,142.55294568804675L280.39426964649465,142.55305575727834L280.3925805382314,144.0638686104794Z"/><path d="M273.6132843787782,142.97418731506332L272.47431978810346,143.08387578703696L272.4742935404647,143.08368597357185L272.37190746492706,142.04784051780007L272.37190003108117,142.04773043483146L273.5108840633766,141.93804113706574L273.61326194473077,142.97397093646578Z"/><path d="M300.25810004599043,136.4077924701851L300.0118115241348,136.43540111210314L299.9416069575527,135.82110239667236L299.9416033163143,135.82099231527536L300.3281571138941,135.77741301918286L300.32816075492883,135.77752310055075L300.39839817525353,136.39206878011464Z"/><path d="M301.17825097576133,136.84545313261333L300.319137414539,136.941942634905L300.25810004599043,136.4077924701851L300.39839817525353,136.39206878011464L300.32816075492883,135.77752310055075L300.3281571138941,135.77741301918286L301.0469459160813,135.69638071759255L301.0469495568541,135.69649079907686Z"/><path d="M273.89626035880065,145.86139221684425L272.76776415947825,145.98018879882875L272.7079303000937,145.39101616069092L272.70792286650976,145.39090607897379L273.8277381701919,145.27302481033257Z"/><path d="M279.2257471710327,146.40148401781335L278.20787870459026,146.56328525327262L278.2078486979881,146.56308025470935L278.06509973833454,145.42918307505897L278.0650885254727,145.42907298877253L279.04766151172225,145.26068808345008L279.22570963413455,146.40125244067167Z"/><path d="M279.08476354714367,143.7883706211578L277.8742028059205,143.91283595887944L277.70851806362043,142.59678109697415L279.0854166826466,142.574291908124L279.08541276925826,142.5744019773265Z"/><path d="M305.33458917043754,135.21315090719145L305.7665826524899,139.11061334016267L305.74735894813784,139.10346748467418L305.6189186681877,139.0566998567374L305.49017090239795,139.0108086882683L305.3610136041825,138.96575209478033L305.23165844287723,138.92160626716213L305.10200713877566,138.87834071237012L304.9720710425754,138.8359516506316L304.841850145458,138.79444667356438L304.7113557983539,138.753822001745L304.5805879923282,138.71408522693673L304.4495580783987,138.6752325691923L304.3182698341261,138.6372678298212L304.1867308190558,138.6001948150515L304.054944810865,138.5640173263091L303.9229156023357,138.52872777785524L303.7906545244041,138.49433757230872L303.6581653698231,138.46083912378526L303.5254519066948,138.42824382468825L299.20146508011385,137.47932260856032L299.15585858625127,137.07271497242618L299.1558511630865,137.07260488669272L300.319137414539,136.941942634905L301.17825097576133,136.84545313261333L301.0469495568541,135.69649079907686L301.0469459160813,135.69638071759255L304.2133085541718,135.33945143720484L305.334585531411,135.2130408255034Z"/><path d="M282.76531377152423,143.654677930841L282.76876128584263,143.67751291728928L282.7722126087465,143.70032513258047L282.77195920344093,143.70036277960753L281.60840396228014,143.8781177471974L281.05293008178705,143.96298097647377L280.3925805382314,144.0638686104794L280.39426964649465,142.55305575727834L280.3942735604069,142.55294568804675L282.7324497960508,142.51485010964097L282.73273343604524,142.51482768187998L282.7327333026915,142.51493775573908Z"/></g></svg>
