<svg viewBox="142.92036732050474 33.879346293600975 314.1592653589905 160.21752962021856" xmlns="http://www.w3.org/2000/svg" xmlns:xlink="http://www.w3.org/1999/xlink"><g><path d="M274.53768883337034,140.67428122047568L274.0752250509104,140.72692379599903L273.94408242590725,139.722603419621L273.94407121112454,139.72249333109357L274.4061656371632,139.66703349081217L274.4061768517422,139.6671435793687Z"/><path d="M260.4509238555911,150.64049549985793L260.08027734278585,150.65581789627322L260.04053310569725,150.66078664013185L260.000954013929,150.66685248940485L259.9614499695308,150.67343462342978L259.922148872196,150.68112529223436L259.88303204232943,150.68972331070108L259.8441259584215,150.6992211175093L259.8248122127552,150.70451673923526L259.80544575088425,150.709614934196L259.76701411243994,150.7209009906801L259.7288499547285,150.73307551274775L259.690979764855,150.7461233481008L259.6534865112917,150.76024195866194L259.61618179644574,150.7748352304916L259.57929563932703,150.79047655122122L259.5427791046677,150.8069684964139L259.50665111248964,150.82429970114026L259.47092679698835,150.84246259075007L259.43563264104887,150.86144580869586L259.4068077089032,150.87772255498567L258.7044641486136,151.37270378955873L258.70428291967255,151.37245687487302L256.87602353998227,148.6486570845882L256.875970706169,148.64856213584426L259.2954077657487,148.62634576443816L259.2954416788998,148.62645207886817L260.4508106369758,150.64029800283606Z"/><path d="M261.4034744617238,128.44658350589452L260.9458363028243,128.50292711163638L260.9458100843476,128.50270312651992L260.7885588177014,127.18231223689509L260.788555160485,127.18220215261681L261.2462030000461,127.12593013982405L261.2462066571461,127.12604022413143L261.40344824356725,128.44635952077806Z"/><path d="M273.39074085711036,140.80484106263611L272.9225580202474,140.86225757250213L272.8048150940449,139.85934713832103L272.8048114418343,139.8592370589322L273.260127925867,139.80458712240215L273.26013914094074,139.80469721075497Z"/><path d="M272.22380971879466,146.32803139742464L272.2235449864238,146.32805765367812L271.6718654050492,146.38613564459956L271.1141349984391,146.44484908587765L271.0840895452711,146.14875660205144L271.02374283614336,145.56820393691305L272.1345027439529,145.45126911936677L272.1347674771969,145.45124286290957L272.13477491098456,145.4513529444812Z"/><path d="M272.1347674771969,145.45124286290957L272.1345027439529,145.45126911936677L271.02374283614336,145.56820393691305L270.96226525568636,144.9908484290936L271.5278641907207,144.93204115718254L272.0759870574402,144.87505529657938L272.07625179117895,144.87502903997665L272.07625922508305,144.87513912189752Z"/><path d="M271.64930382100283,140.5964744782541L271.64903907862026,140.5965045315388L271.1883659014129,140.65108620148385L271.12945562647656,140.06044595388812L271.1294519736257,140.0603358744993L271.5905694629764,140.00500296306564L271.5908380096953,140.00495393568417L271.59084544391953,140.0050640195259Z"/><path d="M235.83160452297307,173.65824776509544L236.68891271579196,175.27370917328517L236.68895041945507,175.27381168323336L236.7160036462301,175.32478305668337L236.7430983989616,175.375807599572L236.7429546363128,175.37588714793674L234.9227616082062,176.36717710568337L234.3497376878222,176.67925392414327L234.29517291879165,176.57748625366366L234.2951314333477,176.57738374063047L233.1545155181957,174.44952979730442L233.15447403202415,174.44942728345632L234.54282532038633,173.69640690516098L234.5428592400567,173.6965132066689L234.81509479883243,174.20945513126208L235.83141927447286,173.658224799874L235.83156303767464,173.65814525069436Z"/><path d="M272.6590033134271,129.22814888478024L272.7801412460976,130.2201475785405L273.6606919745682,130.10554779853555L273.7402547780657,130.80492797057377L272.258836414112,130.9977275710553L272.19596131151775,130.48284135232097L271.8758885076095,130.52449825496296L271.85314444298274,130.33822927693836L271.17870504708844,130.42600956259412L271.0578610180819,129.43645720250788L272.65899209771305,129.22803879197454Z"/><path d="M262.9043253288546,126.39751972598606L261.5193349661713,126.5678118673095L261.51930496201385,126.56759167212294L261.33419310025056,125.18901373556582L261.3003335335525,124.96005960454931L262.6770550678775,124.78858671736089L262.7069572269975,125.01803009514697L262.9042953256867,126.39729953042115Z"/><path d="M248.72983025151188,140.28374921221985L248.95219217680278,140.64544436117285L248.43606990465196,140.81978837502538L248.69208766211523,141.3413400464051L248.9726110919728,141.91281182470266L248.6938655372942,142.0580475963652L248.31621953682043,142.25481164336088L248.39685732647195,142.32366954389727L247.66957683768123,142.75892807065975L246.66300663616857,140.7561417373654L246.66296514990972,140.75603920896538L248.4608706435829,139.8462711435568Z"/><path d="M261.4034744617238,128.44658350589452L260.9458363028243,128.50292711163638L260.9458100843476,128.50270312651992L260.7885588177014,127.18231223689509L260.788555160485,127.18220215261681L261.2462030000461,127.12593013982405L261.2462066571461,127.12604022413143L261.40344824356725,128.44635952077806Z"/><path d="M265.53365254352684,127.93813434283948L265.0938156846678,127.99227860412793L265.09378568350803,127.99205840966897L265.0179329428647,127.42735144105973L265.0304977494234,127.42565022266353L264.92942026184755,126.67318794931634L264.9294090428448,126.67307785589946L265.35667192036635,126.62054695637198L265.3566831391654,126.62065704981796L265.53362254280364,127.937914148235Z"/><path d="M273.39074085711036,140.80484106263611L272.9225580202474,140.86225757250213L272.8048150940449,139.85934713832103L272.8048114418343,139.8592370589322L273.260127925867,139.80458712240215L273.26013914094074,139.80469721075497Z"/><path d="M263.0340605110687,153.70424376809387L261.12203232196043,154.97452176193474L261.1218510932813,154.9742786443967L260.12249562327634,153.48535286079277L261.32822552815196,152.68346725293668L261.0572065785818,152.29021573104546L260.8814609972469,152.03520680658403L261.9300999843108,151.9781576904934L263.0338906531979,153.70397788810078Z"/><path d="M271.7871745614684,141.99118655515485L271.78690982045373,141.99121660809033L271.1569541597273,142.06021163222613L270.64131712089875,142.11668398283655L270.5844078216178,141.54102329706075L271.73000671117916,141.41555542321294L271.7302714527177,141.41552537016105L271.73027888676734,141.4156354535371Z"/><path d="M270.18220340888365,143.33075365883997L268.42650197501644,143.52305764562334L268.4264757289784,143.52286403722246L268.1339096541633,140.42003409354948L268.13390600011917,140.41992401442258L270.82007498899475,140.09747311848332L270.82007864199113,140.09758319778484L270.91416574275354,141.09579536662204L270.5448885288788,141.1412241702783L270.5844078216178,141.54102329706075L270.64131712089875,142.11668398283655L270.75510500432574,143.267781564733L270.7551274362777,143.26800173867377Z"/><path d="M271.2707623069873,143.2115298413555L270.7551274362777,143.26800173867377L270.75510500432574,143.267781564733L270.64131712089875,142.11668398283655L271.1569541597273,142.06021163222613L271.2707398755301,143.21130966735655Z"/><path d="M271.90098384034354,143.14250532255392L271.2707623069873,143.2115298413555L271.2707398755301,143.21130966735655L271.1569541597273,142.06021163222613L271.78690982045373,141.99121660809033L271.7871745614684,141.99118655515485L271.78718199551804,141.99129663806525Z"/></g></svg>
