<svg viewBox="142.92036732050474 33.879346293600975 314.1592653589905 160.21752962021856" xmlns="http://www.w3.org/2000/svg" xmlns:xlink="http://www.w3.org/1999/xlink"><g><path d="M271.7871745614684,141.99118655515485L271.78690982045373,141.99121660809033L271.1569541597273,142.06021163222613L270.64131712089875,142.11668398283655L270.5844078216178,141.54102329706075L271.73000671117916,141.41555542321294L271.7302714527177,141.41552537016105L271.73027888676734,141.4156354535371Z"/><path d="M270.18220340888365,143.33075365883997L268.42650197501644,143.52305764562334L268.4264757289784,143.52286403722246L268.1339096541633,140.42003409354948L268.13390600011917,140.41992401442258L270.82007498899475,140.09747311848332L270.82007864199113,140.09758319778484L270.91416574275354,141.09579536662204L270.5448885288788,141.1412241702783L270.5844078216178,141.54102329706075L270.64131712089875,142.11668398283655L270.75510500432574,143.267781564733L270.7551274362777,143.26800173867377Z"/><path d="M271.2707623069873,143.2115298413555L270.7551274362777,143.26800173867377L270.75510500432574,143.267781564733L270.64131712089875,142.11668398283655L271.1569541597273,142.06021163222613L271.2707398755301,143.21130966735655Z"/><path d="M271.90098384034354,143.14250532255392L271.2707623069873,143.2115298413555L271.2707398755301,143.21130966735655L271.1569541597273,142.06021163222613L271.78690982045373,141.99121660809033L271.7871745614684,141.99118655515485L271.78718199551804,141.99129663806525Z"/></g></svg>
