<svg viewBox="142.92036732050474 33.879346293600975 314.1592653589905 160.21752962021856" xmlns="http://www.w3.org/2000/svg" xmlns:xlink="http://www.w3.org/1999/xlink"><g><path fill="#59260b" stroke="white" stroke-width="0.2" d="M291.0489913347701,62.10855663972325L291.5555359206628,70.16911646525841L286.25472199518117,70.59725009277463L282.87511706905207,70.86406700100633L282.12852402275894,71.00980535219423L282.12860755456495,71.0095434851537L282.3422620278434,70.34423130264622L282.6058536864293,69.52341764254379L282.6061456738971,69.31053853625781L282.60710143650067,68.60916771006305L282.6080487234867,67.91479617485311L282.6089998051466,67.22041908060783L282.609919084236,66.54604885927984L282.6108361116203,65.8735411594389L283.0022031152621,65.88355659786612L283.1683616201335,65.36822511351784L283.3360470973712,64.84816769015742L283.50050966386334,64.33809466808452L283.6637312526291,63.83187677251408L284.4241962109518,64.09020982350921L284.8618468643399,64.2388850733987L286.25854924865416,64.71336063434137L286.3546500429802,64.19459371222183L286.4452413232939,63.7055627949303L286.5935899564356,62.90475538308965L286.7024940031988,62.31687694761786L286.79896586126415,61.79611657524947L287.01995578670176,60.60320768287056L287.0199748351588,60.60309759929078L291.04868898933637,62.108343641710235L291.04898768896237,62.10844652864034Z"><title>346 Elmgrove Ave: $3,993,200</title></path><path fill="#59260b" stroke="white" stroke-width="0.2" d="M293.9031549982028,60.706967298989184L294.9898360124789,61.035932820494054L295.4313743317907,61.16960038486286L296.33943955565337,61.44449829714722L296.7843417969707,61.57918590254849L296.8163667921908,62.49380542567815L296.86886863978,63.99335669280845L296.918376288726,65.40742776499246L295.78709693069686,65.43168510889518L294.1183327601466,65.46747397596482L291.95612593070837,65.51386112670298L291.81304544839077,63.23702518007485L291.8130418029614,63.236915069341194L292.6705273974512,60.333942485420266L292.6705577913672,60.33383621330722Z"><title>425 Elmgrove Ave: $1,631,000</title></path><path fill="#59260b" stroke="white" stroke-width="0.2" d="M286.5935899564356,62.90475538308965L286.4452413232939,63.7055627949303L285.26429493672913,63.249061835871544L285.5657791244448,62.50756811856991L285.5658208585519,62.507465657108696Z"><title>22 Aldrich Ter: $227,400</title></path><path fill="#59260b" stroke="white" stroke-width="0.2" d="M286.4452413232939,63.7055627949303L286.3546500429802,64.19459371222183L285.0900060014683,63.67773274477804L285.2642532028258,63.2491642969253L285.26429493672913,63.249061835871544Z"><title>28 Aldrich Ter: $205,000</title></path><path fill="#59260b" stroke="white" stroke-width="0.2" d="M286.3546500429802,64.19459371222183L286.25854924865416,64.71336063434137L284.8618468643399,64.2388850733987L285.08996426773956,63.677835205657175L285.0900060014683,63.67773274477804Z"><title>32 Aldrich Ter: $216,100</title></path><path fill="#59260b" stroke="white" stroke-width="0.2" d="M284.5969813997799,63.6652429146925L284.5969396662258,63.66534537568805L284.4242417223286,64.09011116373586L284.4241962109518,64.09020982350921L283.6637312526291,63.83187677251408L283.4394776377303,63.75569755941979L283.62780116594513,63.28969038231298L283.6358710456698,63.26972551835934L284.5966676060634,63.66510964286863Z"><title>33 Aldrich Ter: $200,600</title></path><path fill="#59260b" stroke="white" stroke-width="0.2" d="M284.7680332805903,63.24453708564397L284.7679915468907,63.24463954681414L284.5969813997799,63.6652429146925L284.5966676060634,63.66510964286863L283.6358710456698,63.26972551835934L283.80557412921917,62.84979515179293L284.7677194864955,63.24440381352906Z"><title>29 Aldrich Ter: $197,400</title></path><path fill="#59260b" stroke="white" stroke-width="0.2" d="M284.94765401555924,62.8046637926891L284.9476122817432,62.80476625391748L284.7680332805903,63.24453708564397L284.7677194864955,63.24440381352906L283.80557412921917,62.84979515179293L283.98670919646975,62.401580930134514L284.9473440035945,62.804530524648726Z"><title>25 Aldrich Ter: $197,400</title></path><path fill="#59260b" stroke="white" stroke-width="0.2" d="M285.15307584550465,62.29726569339982L285.1530341115722,62.297368154802825L284.94765401555924,62.8046637926891L284.9473440035945,62.804530524648726L283.98670919646975,62.401580930134514L284.1874259976321,61.90492045585415L284.18919782244484,61.90053735114634L285.1527620504785,62.297132420149865Z"><title>19 Aldrich Ter: $202,400</title></path><path fill="#59260b" stroke="white" stroke-width="0.2" d="M271.9843139128352,78.62367547006579L271.9843061254651,78.6238652881002L271.4075890550157,78.6206485866569L271.40759684192017,78.62045876862248L271.4324847929529,77.9484418493812L271.45529479303514,77.33266691476456L271.455298704328,77.33255681913579L272.0315068429627,77.34956974728266L272.031502931437,77.34967984288232Z"><title>13 Phillips St: $152,300</title></path><path fill="#59260b" stroke="white" stroke-width="0.2" d="M272.44844207557617,79.08933844818966L272.44843816390494,79.08944854320725L272.4524322451034,79.78536929708207L272.45796409031027,80.75005695025902L272.45796386298025,80.75025057225139L270.1611892679357,80.79304840590339L270.1611894936359,80.79285478391103L270.1546877572546,79.66028365300735L269.57824460201664,79.66083357235766L269.5848087526683,80.80359840320307L269.58480852737557,80.80379202528275L268.78197649284266,80.81875947667868L268.782044773543,80.81858871341683L269.42230031854706,79.0725637783471L269.4223344792845,79.07246131182183Z"><title>210 Doyle Ave: $866,700</title></path><path fill="#59260b" stroke="white" stroke-width="0.2" d="M270.1611892679357,80.79304840590339L269.58480852737557,80.80379202528275L269.5848087526683,80.80359840320307L269.57824460201664,79.66083357235766L270.1546877572546,79.66028365300735L270.1611894936359,80.79285478391103Z"><title>206 Doyle Ave: $150,000</title></path><path fill="#59260b" stroke="white" stroke-width="0.2" d="M249.4138938622491,119.07078738819109L248.88000826432835,119.1201231770392L248.28361428785138,119.17523750822875L247.24067050690064,119.27161848364631L247.17450447939336,118.69689143283176L247.17449703472084,118.6967813410156L249.30732706803246,118.49967820273014Z"><title>61 Congdon St: $295,500</title></path><path fill="#59260b" stroke="white" stroke-width="0.2" d="M251.88751131144818,119.7622015257657L250.4845671587973,119.89183817166486L250.48454470434808,119.89162177659455L250.39361189925694,118.98025551828323L249.51134634099435,119.06178016262129L249.4138938622491,119.07078738819109L249.30732706803246,118.49967820273014L249.2195669617504,118.02934565080795L251.37909940670943,117.8429545009858L251.3793301199912,117.84293577584322L251.37935647636186,117.84304209286347Z"><title>80 Prospect St: $2,736,000</title></path><path fill="#59260b" stroke="white" stroke-width="0.2" d="M260.1462944614177,126.73664043485769L258.8876723431167,126.89140507191769L258.88764230685774,126.89121144838282L258.7030797896441,125.51685860860744L258.7030723498028,125.5167485193524L258.6721228332899,125.28753636969486L258.67211917525856,125.28742628448526L259.9332245038531,125.13033946286305L259.9614344825968,125.36000048802816L260.1462644561252,126.73642024002038Z"><title>79 Brown St: $2,112,500</title></path><path fill="#59260b" stroke="white" stroke-width="0.2" d="M261.5193349661713,126.5678118673095L260.1462944614177,126.73664043485769L260.1462644561252,126.73642024002038L259.9614344825968,125.36000048802816L259.9332245038531,125.13033946286305L260.74330176471267,125.02943985688034L261.3003335335525,124.96005960454931L261.33419310025056,125.18901373556582L261.51930496201385,126.56759167212294Z"><title>130 Angell St: $2,095,000</title></path><path fill="#59260b" stroke="white" stroke-width="0.2" d="M262.9043253288546,126.39751972598606L261.5193349661713,126.5678118673095L261.51930496201385,126.56759167212294L261.33419310025056,125.18901373556582L261.3003335335525,124.96005960454931L262.6770550678775,124.78858671736089L262.7069572269975,125.01803009514697L262.9042953256867,126.39729953042115Z"><title>142 Angell St: $1,039,000</title></path><path fill="#59260b" stroke="white" stroke-width="0.2" d="M258.07081256827223,125.13032147698686L256.85733554291073,125.28746680164477L256.85730932082515,125.2872428141709L256.6942352128681,123.98703406544519L256.8132867689128,123.97537780887797L257.9186132309551,123.9480436363956L257.9188741808175,123.94803633901756L257.91888540275977,123.94814643322024Z"><title>84 Brown St: $1,252,900</title></path><path fill="#59260b" stroke="white" stroke-width="0.2" d="M259.2463452487427,122.15294832375366L258.27046244050143,122.2472661404172L258.2704323990911,122.24707630966441L258.20320361759514,121.78161411409383L258.2031923956529,121.78150401898893L259.2141966687341,121.695436236565L259.24633036504383,122.15273193822941Z"><title>91 Brown St: $622,300</title></path><path fill="#59260b" stroke="white" stroke-width="0.2" d="M259.1815640554996,121.23107114373124L258.13572696514893,121.31440472393297L258.0669816560403,120.8384282515035L258.0669666522008,120.8383181518293L259.1452166248346,120.71377399400808Z"><title>95 Brown St: $630,400</title></path><path fill="#59260b" stroke="white" stroke-width="0.2" d="M255.51236225865432,117.11369592210394L255.5548591419356,118.20229649016983L255.55486647356884,118.20250527816825L255.55487013302627,118.20261536614271L255.56849756010342,118.55173284630291L255.56850492124795,118.55191506206756L255.5468975151307,118.55350036328309L254.93240092752967,118.59850903053302L254.424757672532,118.63569708092837L254.08326411858434,118.66071145769092L253.76339313964127,118.68414083687821L252.11119877843885,118.80517893761862L251.67873038881226,117.17185971836443L251.6787040324707,117.17175340102403L252.88238580262987,117.06569763959851L253.84696354402695,116.98071444989182L254.42112112249015,116.9301272376033L255.03201951034134,116.87630635517417L255.50148152993643,116.8349501908524Z"><title>85 Prospect St: $6,480,200</title></path><path fill="#59260b" stroke="white" stroke-width="0.2" d="M259.2141966687341,121.695436236565L258.2031923956529,121.78150401898893L258.13574196895934,121.31451482349075L258.13572696514893,121.31440472393297L259.1815640554996,121.23107114373124Z"><title>93 Brown St: $647,900</title></path><path fill="#59260b" stroke="white" stroke-width="0.2" d="M258.0165447042091,116.71030033458374L257.45561173313763,116.7400964483677L257.2775088020135,115.56269586697454L257.27749757943093,115.56258576922119L257.91655398291186,115.52381999057252L257.9165576414671,115.52393007979845Z"><title>131 Brown St: $1,354,600</title></path><path fill="#59260b" stroke="white" stroke-width="0.2" d="M258.5775610021956,116.68050168611808L258.0165447042091,116.71030033458374L257.9165576414671,115.52393007979845L257.91655398291186,115.52381999057252L258.4905388679472,115.48900213078014L258.49054252624046,115.48911221997696Z"><title>181 Bowen St: $186,800</title></path><path fill="#59260b" stroke="white" stroke-width="0.2" d="M255.51236225865432,117.11369592210394L255.5548591419356,118.20229649016983L255.55486647356884,118.20250527816825L255.55487013302627,118.20261536614271L255.56849756010342,118.55173284630291L255.56850492124795,118.55191506206756L255.5468975151307,118.55350036328309L254.93240092752967,118.59850903053302L254.424757672532,118.63569708092837L254.08326411858434,118.66071145769092L253.76339313964127,118.68414083687821L252.11119877843885,118.80517893761862L251.67873038881226,117.17185971836443L251.6787040324707,117.17175340102403L252.88238580262987,117.06569763959851L253.84696354402695,116.98071444989182L254.42112112249015,116.9301272376033L255.03201951034134,116.87630635517417L255.50148152993643,116.8349501908524Z"><title>85 Prospect St: $302,700</title></path><path fill="#59260b" stroke="white" stroke-width="0.2" d="M265.22533536542323,115.08067593426676L265.4888875432662,117.95596326555824L265.4886190063553,117.95598573095049L264.2956705946999,118.06077856835327L264.2758939729538,117.70155177506967L263.5945948846638,117.75345984473825L263.5194449882547,116.38851413645898L263.42951482493663,116.39279897298547L263.3634857410798,115.19357300666161L263.3634858666046,115.19346292174305L265.22505559321144,115.08059969014721L265.22532792793936,115.08056584050064Z"><title>300 Thayer St: $1,186,100</title></path><path fill="#59260b" stroke="white" stroke-width="0.2" d="M263.42951482493663,116.39279897298547L262.8984549307206,116.41808944716468L262.8328014097933,115.22575395760941L262.8328015351726,115.22564387271996L263.3634858666046,115.19346292174305L263.3634857410798,115.19357300666161Z"><title>219 Bowen St: $973,900</title></path><path fill="#59260b" stroke="white" stroke-width="0.2" d="M263.4012119358231,122.2746091276058L263.5785724526795,123.42918184844893L264.48691324424,123.32577151575242L264.9322485232551,123.2750745905505L265.413489035418,123.22028995092842L265.48973285013926,124.08696362207411L265.49999498782563,124.20359729620395L265.50001363948104,124.20382127654739L265.52646021332475,124.43371317419223L264.5791880291363,124.55168511279044L262.6770550678775,124.78858671736089L261.3003335335525,124.96005960454931L260.74330176471267,125.02943985688034L259.9332245038531,125.13033946286305L258.67211917525856,125.28742628448526L258.64262955551385,125.05804098618682L258.6426258973952,125.05793090091902L258.64259586512344,125.0577334802365L258.34769038134255,122.76297042221995L258.34768294129753,122.76286033180077L263.4012007160054,122.2744990325009Z"><title>185 Meeting St: $145,683,700</title></path><path fill="#59260b" stroke="white" stroke-width="0.2" d="M264.3935452332953,126.21444114635233L262.9043253288546,126.39751972598606L262.9042953256867,126.39729953042115L262.7069572269975,125.01803009514697L262.6770550678775,124.78858671736089L264.5791880291363,124.55168511279044L264.60357781132916,124.78180960044847L264.71298871867475,125.60305675995187L264.78790329853655,126.16571655706502L264.78793330016197,126.16593675292097L264.7877025626367,126.1659820372588L264.60604795330437,126.18831618689L264.5766143735091,126.19193387619453Z"><title>154 Angell St: $1,394,000</title></path><path fill="#59260b" stroke="white" stroke-width="0.2" d="M264.81311560218455,126.16285699050059L264.78793330016197,126.16593675292097L264.78790329853655,126.16571655706502L264.71298871867475,125.60305675995187L264.60357781132916,124.78180960044847L264.5791880291363,124.55168511279044L265.52646021332475,124.43371317419223L266.08321074719424,124.36437651698361L266.0832106205635,124.36448659814778L266.0945730419771,124.59612223392469L266.0945766970981,124.59623231942533L266.14430825965246,125.01891818403965L266.25667054383666,125.97260719109909L266.2566741989285,125.97271727610496L266.25740450576995,125.9789130097488L266.25709058283246,125.97894680863828L265.65355035098037,126.05953268433223L264.8132404166099,126.1628419511544Z"><title>164 Angell St: $9,518,700</title></path><path fill="#59260b" stroke="white" stroke-width="0.2" d="M264.81311560218455,126.16285699050059L264.78793330016197,126.16593675292097L264.78790329853655,126.16571655706502L264.71298871867475,125.60305675995187L264.60357781132916,124.78180960044847L264.5791880291363,124.55168511279044L265.52646021332475,124.43371317419223L266.08321074719424,124.36437651698361L266.0832106205635,124.36448659814778L266.0945730419771,124.59612223392469L266.0945766970981,124.59623231942533L266.14430825965246,125.01891818403965L266.25667054383666,125.97260719109909L266.2566741989285,125.97271727610496L266.25740450576995,125.9789130097488L266.25709058283246,125.97894680863828L265.65355035098037,126.05953268433223L264.8132404166099,126.1628419511544Z"><title>164 Angell St: $4,195,100</title></path><path fill="#59260b" stroke="white" stroke-width="0.2" d="M275.7886660246004,119.23290692752926L275.59808006323874,119.40893411371508L275.73674957142794,120.02963135688333L275.73680222866824,120.02987436199328L274.4368048181641,120.32550654344959L274.436687824229,120.32530142212636L273.818862210348,119.10168638173491L273.8188207310741,119.10158384082024L275.66927957424195,118.69852508319309Z"><title>219 Hope St: $3,006,000</title></path><path fill="#59260b" stroke="white" stroke-width="0.2" d="M288.3674950776913,108.5896550869511L292.06814894772833,117.30710957138217L292.0681677245011,117.30721588319284L292.70771804935066,119.9173216689669L292.7090123705566,119.92565545276739L292.71001142045134,119.93724960324471L292.7100876557233,119.9488843481231L292.70924116656533,119.96048756380333L292.707483379083,119.97199473326327L292.7048181842547,119.98331855406286L292.70126457192237,119.99439451884245L292.69684531819075,120.00515432856628L292.69158699084073,120.01552209787769L292.28777001879644,120.73580347886309L292.28772073227447,120.73590211189003L292.28128246052074,120.74631013441831L292.274422019138,120.75560161410249L292.26683997371583,120.76431520128972L292.25858933568816,120.7723978193535L292.24972692204756,120.77977741634822L292.2402981427731,120.78643127402756L292.23037113650935,120.79230633424595L292.2200102364295,120.79736851470079L292.209275993926,120.80158372767619L292.1982478881837,120.80490272573661L287.4614500940952,122.03341815428576L286.18041591133806,122.33771516400157L286.1803670503432,122.33746836779756L285.9819866353937,121.33570942137158L285.7795943119272,120.3137133026903L285.55556579420227,119.18246892429306L285.34822389131295,118.13546993496129L285.06198915472487,116.69010379543761L283.56344542792067,117.003531795257L282.53585415228736,117.21846625817125L281.9930808946665,117.33199218689697L281.19295228179544,117.49935629559332L281.19271394296084,117.49942433414981L280.7415121787344,117.59378407208715L280.741277640278,117.59383693151176L279.406472208997,117.884546601068L278.3553137060662,118.11349027499091L277.6710796096886,118.26251753987162L277.0514946873591,118.39746497679153L275.66927957424195,118.69852508319309L273.8188207310741,119.10158384082024L271.3445345001528,114.2013284691784L271.3444968010881,114.20122593143606L269.9096785574802,111.90826724097133L269.9096332893241,111.90816848984105L269.9055947449815,111.90119414450601L269.90122601686744,111.89196453875047L269.89769730050466,111.8823714943428L269.8950500910578,111.8725061660225L269.893303218676,111.86243690524134L269.8924717095797,111.8522510395851L269.8925630348094,111.84202829530113L269.89356952894013,111.83185597337433L269.89549109042855,111.82182138381177L269.8983087257657,111.81199662975268L269.9020034192363,111.80247279503965L269.9065372720943,111.79331816485501L269.9118761497957,111.78461621294264L269.9179745897709,111.77643521560822L269.9247909199912,111.76883586120675L269.93225698173046,111.76189019580488L269.9403311164642,111.75564751948696L269.948926273355,111.75016467150999L269.9579856925411,111.74546815801295L271.80287045566365,110.89577023460879L275.85468266371754,109.0642878493527L275.8547127933416,109.06439417673391L276.85339311606367,111.29037382788374L278.51589124219026,110.5262406655238L277.52195180236595,108.31079996252083L277.52192167329486,108.31069363464485L277.5470702612947,108.29934305138886L277.57222646064474,108.28795451775659L282.39944711956196,104.85395416160463L285.53027907403884,104.07757658517221L285.5328514794819,104.07707106339512L285.5488225625013,104.07436506668455L285.56491733458824,104.07257410528837L285.5810904065438,104.07170191936893L285.5972888157994,104.07175983249908L285.6134558409685,104.07274018228054L285.6295385287085,104.07464669985347L285.6454915130744,104.0774641445023L285.6612580678775,104.08118864995777L285.6767852586636,104.08580876237829L285.69203152446426,104.09129026482697L286.60825181158725,104.48743680349435L286.60855798836565,104.48757384443888L286.6167330473545,104.49204446212389L286.61703540489543,104.49221186793875L286.6264338763722,104.49828598744352L286.62672485987423,104.49847615629551L286.6356156312104,104.50528990483144L286.6358838992019,104.50549902647617L286.6442027364974,104.51300297418493L286.64445585306385,104.51323105802294L286.6523878335138,104.52162283496L286.65962316593505,104.5306287331623L286.6661278819374,104.54019176741713L286.6718339936051,104.55023972620256L286.6767302293156,104.56071185672772L288.3674611709721,108.58954875328345Z"><title>235 Hope St: $55,206,500</title></path><path fill="#59260b" stroke="white" stroke-width="0.2" d="M247.83508979799808,144.3298478530778L247.83500652745715,144.32991987917922L246.65910362568684,145.1880563556333L245.4602855752164,142.89844745610026L245.41302684065886,142.80815469182562L245.4129853542836,142.8080521642114L246.63194502715487,142.23589577100938L246.63210014658398,142.23582382200402L246.6321416325809,142.23592634982197L247.36808478311286,143.7002576555533Z"><title>104 South Water: $23,059,400</title></path><path fill="#59260b" stroke="white" stroke-width="0.2" d="M255.75228088669246,129.13851354215876L253.9162484917324,129.36321454524295L253.91622223812738,129.36301713241846L253.79129974005627,128.01300966064446L253.79129608004587,128.01289957668632L255.6282829696429,127.79838577209739L255.62828662898391,127.79849585602642L255.75225844568922,129.13828956216457Z"><title>45 Prospect St: $4,059,700</title></path><path fill="#59260b" stroke="white" stroke-width="0.2" d="M258.5617181310663,128.79470961898915L257.13256743212696,128.96960005551227L257.1325487738359,128.96937607956352L257.01226649299497,127.63689209875884L257.012262834236,127.63678201462608L258.38444004545454,127.47658020956442L258.384701038769,127.47653115831781L258.3847122603911,127.4766412510653Z"><title>107 Angell St: $8,090,600</title></path><path fill="#59260b" stroke="white" stroke-width="0.2" d="M260.3309073855635,127.23858501287759L260.4881646282156,128.55897916597314L260.8763114208414,128.51148343124078L260.8765723920951,128.51145336191985L260.8765836126695,128.5115634543763L260.9045242612774,128.7409405335493L260.9045542914828,128.7411379518453L260.93887416558573,128.73692951587145L260.9731978610507,128.73268692591228L260.97320151815074,128.73279700955027L261.13890589788207,130.12414938115398L261.13893211603863,130.12437336501898L259.35223187843803,130.35085397740477L259.3522018472722,130.35065656044753L259.1338615040295,128.72472420238773L258.95697462392855,127.40752830469864L258.9569671841746,127.4074182160839L260.3309037281724,127.23847492859932Z"><title>121 Angell St: $10,989,600</title></path><path fill="#59260b" stroke="white" stroke-width="0.2" d="M261.4034744617238,128.44658350589452L260.9458363028243,128.50292711163638L260.9458100843476,128.50270312651992L260.7885588177014,127.18231223689509L260.788555160485,127.18220215261681L261.2462030000461,127.12593013982405L261.2462066571461,127.12604022413143L261.40344824356725,128.44635952077806Z"><title>129 Angell St: $577,300</title></path><path fill="#59260b" stroke="white" stroke-width="0.2" d="M262.3108124389837,128.33488022480742L261.4034744617238,128.44658350589452L261.40344824356725,128.44635952077806L261.2462066571461,127.12604022413143L261.2462030000461,127.12593013982405L262.16129500363604,127.01341475415393L262.1612986602704,127.01352483866503L262.31078622164205,128.33465623945813Z"><title>135 Angell St: $1,207,600</title></path><path fill="#59260b" stroke="white" stroke-width="0.2" d="M262.7686743127124,128.27851259306772L262.3108124389837,128.33488022480742L262.31078622164205,128.33465623945813L262.1612986602704,127.01352483866503L262.16129500363604,127.01341475415393L262.6114318636828,126.95806642342359L262.61143552017165,126.95817650790559L262.7686480957782,128.27828860768932Z"><title>143 Angell St: $382,200</title></path><path fill="#59260b" stroke="white" stroke-width="0.2" d="M263.2263132210355,128.2221758403175L262.7686743127124,128.27851259306772L262.7686480957782,128.27828860768932L262.61143552017165,126.95817650790559L262.6114318636828,126.95806642342359L263.0690804562473,126.9017974679009L263.06908411256154,126.90190755244112L263.22628700442147,128.22195185461896Z"><title>147 Angell St: $375,600</title></path><path fill="#59260b" stroke="white" stroke-width="0.2" d="M264.61187511569005,128.05160569475265L263.2263132210355,128.2221758403175L263.22628700442147,128.22195185461896L263.06908411256154,126.90190755244112L263.0690804562473,126.9017974679009L264.4420311495778,126.73299521103036L264.4420423687843,126.73310530435992L264.61184511415195,128.05138550058473Z"><title>155 Angell St: $3,015,500</title></path><path fill="#59260b" stroke="white" stroke-width="0.2" d="M265.53365254352684,127.93813434283948L265.0938156846678,127.99227860412793L265.09378568350803,127.99205840966897L265.0179329428647,127.42735144105973L265.0304977494234,127.42565022266353L264.92942026184755,126.67318794931634L264.9294090428448,126.67307785589946L265.35667192036635,126.62054695637198L265.3566831391654,126.62065704981796L265.53362254280364,127.937914148235Z"><title>167 Angell St: $2,553,000</title></path><path fill="#59260b" stroke="white" stroke-width="0.2" d="M269.22868996317266,127.48331380679156L268.7710258784937,127.5396442625788L268.7709958803025,127.53942406730494L268.59271706282743,126.20023253795807L268.59270584527985,126.20012244422105L269.0496973572008,126.1387003416894L269.0497085744573,126.13881043533911L269.2286599652434,127.4830936115759Z"><title>195 Angell St: $1,457,300</title></path><path fill="#59260b" stroke="white" stroke-width="0.2" d="M264.8187848717207,129.65795818468905L264.34915270109195,129.71747799703735L264.3491227038321,129.7172540082247L264.22027499921387,128.7169354854559L264.689908880915,128.65741143655032L264.8187548748392,129.6577341958182Z"><title>96 Waterman St: $1,029,600</title></path><path fill="#59260b" stroke="white" stroke-width="0.2" d="M264.34915270109195,129.71747799703735L263.67565480139456,129.8028414612927L263.67562480363995,129.80261747274199L263.546774656279,128.80229578606668L264.22027499921387,128.7169354854559L264.3491227038321,129.7172540082247Z"><title>94 Waterman St: $850,100</title></path><path fill="#59260b" stroke="white" stroke-width="0.2" d="M263.67565480139456,129.8028414612927L262.95212981957593,129.8945451597683L262.95209982126835,129.8943211712176L262.85280914080795,129.1260057062318L262.8522476698854,129.1209262246557L262.85213247247157,129.11581688802107L262.8524635010108,129.11071945077856L262.85323693510145,129.10566807095893L262.8565121368156,129.08883346768562L262.860683369654,129.0722010707832L262.86574301859946,129.05581642198376L262.8716758964583,129.03973264538217L262.8784668291628,129.02399147837423L262.88609307046863,129.00864224068937L262.89452810114017,128.99372665639385L262.9037567426276,128.9792902583722L262.9137486940599,128.96537476644153L262.92446987261064,128.95202189590782L262.93589376771706,128.93926577898674L262.9479900782753,128.92714813555358L262.9607171668613,128.91570308041992L262.9740409592341,128.9049647374486L262.9879198265844,128.89495962997898L263.00231969050947,128.88572567736264L263.0169302448048,128.87744472446502L263.0183644001372,128.87666063013603L263.0277026341355,128.87226057364023L263.0373878022656,128.86872257257346L263.0473518126237,128.86606552824378L263.0575076644018,128.86430832004407L263.2006579207955,128.84616529088817L263.546774656279,128.80229578606668L263.67562480363995,129.80261747274199Z"><title>90 Waterman St: $555,800</title></path><path fill="#59260b" stroke="white" stroke-width="0.2" d="M262.49385269594495,129.95263497772976L262.04473631756264,130.00955933655496L262.04471010013367,130.00933535257354L261.8875279168424,128.62023113429314L261.8875242600625,128.62012105050962L262.33682638333994,128.564805793314L262.336830039887,128.56491587715573L262.49382647889433,129.95241099371924Z"><title>86 Waterman St: $1,377,500</title></path><path fill="#59260b" stroke="white" stroke-width="0.2" d="M262.04473631756264,130.00955933655496L261.596372787375,130.06639039792935L261.5963465695095,130.06616641397704L261.43083929427667,128.67645349731902L261.43083563735127,128.67634341365192L261.8875242600625,128.62012105050962L261.8875279168424,128.62023113429314L262.04471010013367,130.00933535257354Z"><title>84 Waterman St: $348,900</title></path><path fill="#59260b" stroke="white" stroke-width="0.2" d="M261.596372787375,130.06639039792935L261.13893211603863,130.12437336501898L261.13890589788207,130.12414938115398L260.97320151815074,128.73279700955027L260.9731978610507,128.73268692591228L261.43083563735127,128.67634341365192L261.43083929427667,128.67645349731902L261.5963465695095,130.06616641397704Z"><title>82 Waterman St: $1,191,900</title></path><path fill="#59260b" stroke="white" stroke-width="0.2" d="M258.77936055269674,130.41541345606674L257.78058044891804,130.52229883134714L257.7805580011627,130.52208244416397L257.6289750133583,129.1420692903339L257.6289713548322,129.14195920681232L258.5922549359384,129.0241005445132L258.59251592773944,129.02405149384867L258.59252714924514,129.0241615860141Z"><title>76 Waterman St: $3,696,900</title></path><path fill="#59260b" stroke="white" stroke-width="0.2" d="M256.8332493278431,130.6236848499684L256.35745848424267,130.67460256174672L256.357439821295,130.67438238312025L256.23147622618126,129.31309026986128L256.2314725671022,129.312980186427L256.7114027350326,129.25547327584354L256.71140639387886,129.25558335942333L256.83323066530284,130.62346467128373Z"><title>70 Waterman St: $958,700</title></path><path fill="#59260b" stroke="white" stroke-width="0.2" d="M256.35745848424267,130.67460256174672L255.43930368078873,130.77286807409837L255.43928501708433,130.77264789564651L255.3146060531144,129.42529645809554L255.31460239368607,129.42518637469038L256.2314725671022,129.312980186427L256.23147622618126,129.31309026986128L256.357439821295,130.67438238312025Z"><title>68 Waterman St: $2,899,000</title></path><path fill="#59260b" stroke="white" stroke-width="0.2" d="M255.43930368078873,130.77286807409837L254.0603480710124,130.92045812730794L254.06032559505547,130.92026451556012L253.9375831989455,129.59382406782242L253.9375795389933,129.59371398438816L255.31460239368607,129.42518637469038L255.3146060531144,129.42529645809554L255.43928501708433,130.77264789564651Z"><title>64 Waterman St: $5,107,500</title></path><path fill="#59260b" stroke="white" stroke-width="0.2" d="M249.2363588262233,134.59524163932656L248.41953930060845,134.63202416224522L248.41952061079792,134.6318229661556L248.29284731045482,133.3458694786823L248.5823367506382,133.30597345417482L249.10921443684492,133.25224781877478L249.23634013708215,134.59504044326604Z"><title>48 College St: $1,315,800</title></path><path fill="#59260b" stroke="white" stroke-width="0.2" d="M250.74059661384672,134.52751214447198L249.2363588262233,134.59524163932656L249.23634013708215,134.59504044326604L249.10921443684492,133.25224781877478L249.60910358992987,133.20127588926698L250.4521426750871,133.11531327324337L250.60590976267122,133.09963517915457L250.74057792581152,134.52731094826595Z"><title>54 College St: $2,276,500</title></path><path fill="#59260b" stroke="white" stroke-width="0.2" d="M251.3078986913024,133.44805764136254L251.41295967585756,134.49704127243604L251.412978363398,134.49724246872938L250.74059661384672,134.52751214447198L250.74057792581152,134.52731094826595L250.60590976267122,133.09963517915457L251.0813673787634,133.05115565750748L251.2662571016117,133.03230483204243Z"><title>58 College St: $497,200</title></path><path fill="#59260b" stroke="white" stroke-width="0.2" d="M252.12376069967286,134.46524056009366L251.412978363398,134.49724246872938L251.41295967585756,134.49704127243604L251.3078986913024,133.44805764136254L251.99811700664577,133.41466229828075L252.1237382310792,134.46503935969668Z"><title>62 College St: $313,100</title></path><path fill="#59260b" stroke="white" stroke-width="0.2" d="M253.54053114718408,131.55797081560013L253.80256805068348,134.38967065006727L252.12376069967286,134.46524056009366L252.1237382310792,134.46503935969668L251.99811700664577,133.41466229828075L251.3078986913024,133.44805764136254L251.2662571016117,133.03230483204243L251.0813673787634,133.05115565750748L250.97929667439894,131.8321216768236L250.97929301322438,131.83201159449527L253.5402513719455,131.5579097714799L253.54052370536374,131.55786072878982Z"><title>72 College St: $30,721,000</title></path><path fill="#59260b" stroke="white" stroke-width="0.2" d="M250.60590976267122,133.09963517915457L250.4521426750871,133.11531327324337L250.3258451349975,131.90207212499809L250.325841473561,131.90196204261156L250.97929301322438,131.83201159449527L250.97929667439894,131.8321216768236L251.0813673787634,133.05115565750748Z"><title>51 Waterman St: $489,000</title></path><path fill="#59260b" stroke="white" stroke-width="0.2" d="M249.8496235566854,136.77637653972488L249.9555244788935,137.09053676461917L250.2106661235448,137.08156328691985L250.20553996460512,137.23244934540708L250.13973151394748,137.26147883050726L249.93128521653125,137.35342517256504L249.84559391700896,137.15993100218475L249.73283267361694,136.90167454333277L249.63491503850673,136.65976344744558L249.52688978190417,136.39286889706273L249.41838156722952,136.1247817352414L249.401726856624,136.08362896955805L249.14841191645246,135.1286549057986L249.14839312821277,135.12854480810347L249.42570453925873,135.0499616054003L249.4257233274111,135.05007170300814Z"><title>51 College St: $223,800</title></path><path fill="#59260b" stroke="white" stroke-width="0.2" d="M260.9458363028243,128.50292711163638L260.9112024368078,128.5072073136689L260.8765723920951,128.51145336191985L260.8763114208414,128.51148343124078L260.4881646282156,128.55897916597314L260.3309073855635,127.23858501287759L260.3309037281724,127.23847492859932L260.788555160485,127.18220215261681L260.7885588177014,127.18231223689509L260.9458100843476,128.50270312651992Z"><title>127 Angell St: $645,000</title></path><path fill="#59260b" stroke="white" stroke-width="0.2" d="M253.84526306652697,134.8511049693043L254.13479351132992,137.97992687448277L251.22351613995852,138.19383201832534L251.2235050239833,138.193623241561L251.1328827024554,136.71655655108043L250.5600832972268,136.74325825841515L249.8496235566854,136.77637653972488L249.4257233274111,135.05007170300814L249.42570453925873,135.0499616054003L253.8449833157356,134.85102494677994L253.84525562493945,134.85099488386186Z"><title>22 George St: $41,729,400</title></path><path fill="#59260b" stroke="white" stroke-width="0.2" d="M266.5742351944209,130.01866225065896L267.21372667263495,136.80041242786683L265.7196025115845,136.95638766081538L265.7195838523621,136.95617128247977L265.5910119256878,135.5848443620489L265.55488565244013,135.58540229056962L263.83767670192174,135.7667785427766L263.0648141001002,135.8484099888301L263.1934136277705,137.21990142474533L263.1934322890593,137.220117802819L260.14419088102295,137.53850786131807L254.7096763861191,137.9376917546033L254.70965389866615,137.93750953488052L254.1136561886815,131.496627166518L254.1136525288166,131.49651708384044L259.2541156329098,130.9463906416495L266.57395919787814,130.01860499288887L266.57422775792656,130.01855216291733Z"><title>1 Prospect St: $123,247,800</title></path><path fill="#59260b" stroke="white" stroke-width="0.2" d="M270.28578753367765,138.68780531492666L270.114129359019,138.70893942777184L269.9576403485844,137.09569216889213L269.95763669518055,137.09558208842645L270.72169209393905,137.0158317621972L270.72169574702275,137.01594184272108L270.831144312775,138.1442663774651L270.2425174069358,138.20900500626885Z"><title>159 George St: $896,500</title></path><path fill="#59260b" stroke="white" stroke-width="0.2" d="M270.48589259086293,129.5074914933066L270.77033514447976,131.83669889546582L270.7700741708395,131.8367327506421L268.97084849051316,132.06003972070175L268.8378968340985,131.03375180307194L269.12741363365785,130.99781764979707L269.0104695362679,130.0402337348496L268.7816828711366,130.06863228580914L268.73961797822267,129.72422903531697L268.7396067609079,129.72411894303514L270.4856165945821,129.50743423131644L270.4858813742758,129.50738140082103Z"><title>115 Waterman St: $28,269,200</title></path><path fill="#59260b" stroke="white" stroke-width="0.2" d="M268.73961797822267,129.72422903531697L268.7816828711366,130.06863228580914L269.0104695362679,130.0402337348496L269.12741363365785,130.99781764979707L268.8378968340985,131.03375180307194L268.97084849051316,132.06003972070175L270.7700741708395,131.8367327506421L270.77033514447976,131.83669889546582L270.7703463608632,131.83680898699095L270.90133403177606,132.90941635271884L270.90107305921265,132.90945020774961L267.4675254788017,133.35273054349818L267.1440525392536,129.9222725040454L267.1440451029048,129.92216241627466L268.7396067609079,129.72411894303514Z"><title>197 Thayer St: $37,177,300</title></path><path fill="#59260b" stroke="white" stroke-width="0.2" d="M269.1545581255341,138.82707582839066L268.9654230582819,138.85036515028332L267.99715022571036,138.96957721852232L267.94826848167577,138.45118574073422L267.94826104596723,138.45107565631042L269.10722158130375,138.32810455549043Z"><title>141 Thayer St: $10,658,700</title></path><path fill="#59260b" stroke="white" stroke-width="0.2" d="M269.10722158130375,138.32810455549043L267.94826104596723,138.45107565631042L267.84128842304926,137.31660356922657L267.8412809872243,137.31649348436622L268.999771261093,137.19556296570227L268.99977491484606,137.19567304610973Z"><title>151 Thayer St: $2,480,000</title></path><path fill="#59260b" stroke="white" stroke-width="0.2" d="M256.72453164163744,140.7660456028534L256.1389874665765,140.78388056674157L256.13897631221334,140.7837097486772L256.0794535234454,139.82729679410113L256.07944986448274,139.8271867148287L256.6452659338829,139.8245842817705L256.7245167357323,140.76584821069264Z"><title>14 Benevolent St: $1,617,900</title></path><path fill="#59260b" stroke="white" stroke-width="0.2" d="M257.28813093167264,140.7488818068232L256.72453164163744,140.7660456028534L256.7245167357323,140.76584821069264L256.6452659338829,139.8245842817705L257.153163619485,139.8222518535331L257.2244460488728,139.82192217299598L257.288116026175,140.748684414546Z"><title>16 Benevolent St: $525,900</title></path><path fill="#59260b" stroke="white" stroke-width="0.2" d="M255.49067353914143,139.6448952993087L255.49040124297608,139.64491776848445L254.83193731794017,139.69496021347004L254.75125792392646,138.39876217907295L254.75125804595882,138.39865210352582L255.409825345414,138.35028704581782L255.41010144122993,138.35024939765572L255.41010510054184,138.3503594775102Z"><title>45 George St: $1,746,100</title></path><path fill="#59260b" stroke="white" stroke-width="0.2" d="M254.83193731794017,139.69496021347004L254.25193590091658,139.73904139347724L254.17116460824036,138.4413784938224L254.1711647300108,138.4412684183917L254.75125804595882,138.39865210352582L254.75125792392646,138.39876217907295Z"><title>43 George St: $448,500</title></path><path fill="#59260b" stroke="white" stroke-width="0.2" d="M254.25193590091658,139.73904139347724L253.67578838471672,139.78283204181935L253.59492141139344,138.48371565830894L253.59492153293104,138.48360558279091L254.1711647300108,138.4412684183917L254.17116460824036,138.4413784938224Z"><title>41 George St: $446,500</title></path><path fill="#59260b" stroke="white" stroke-width="0.2" d="M257.1209038771922,139.30385989535716L256.047188068158,139.3087948920729L255.99209676036844,138.423604535521L255.99209310134756,138.4234944556665L257.0612319704669,138.34495517864707L257.0612318475032,138.3450652543106Z"><title>59 George St: $1,291,600</title></path><path fill="#59260b" stroke="white" stroke-width="0.2" d="M257.2244460488728,139.82192217299598L257.153163619485,139.8222518535331L257.1209038771922,139.30385989535716L257.0612318475032,138.3450652543106L257.0612319704669,138.34495517864707L257.728006487363,138.29597873231978L257.7280063641665,138.296088807896L257.8227911218419,139.8191766537784Z"><title>67 George St: $1,806,200</title></path><path fill="#59260b" stroke="white" stroke-width="0.2" d="M259.83354262573994,140.67136803650646L259.0274479142099,140.69591140537523L259.027433010051,140.69571401292342L258.966860878485,139.81392607695307L259.8199886882503,139.8100085199112L259.8202723035356,139.810008841916L259.82027217943687,139.81011891699745Z"><title>26 Benevolent St: $909,200</title></path><path fill="#59260b" stroke="white" stroke-width="0.2" d="M259.0274479142099,140.69591140537523L258.4464830310317,140.71360230029677L258.4464681264071,140.71340490799048L258.38486347245635,139.81659643139574L258.966860878485,139.81392607695307L259.027433010051,140.69571401292342Z"><title>22 Benevolent St: $627,300</title></path><path fill="#59260b" stroke="white" stroke-width="0.2" d="M258.4464830310317,140.71360230029677L257.28813093167264,140.7488818068232L257.288116026175,140.748684414546L257.2244460488728,139.82192217299598L257.8227911218419,139.8191766537784L258.38486347245635,139.81659643139574L258.4464681264071,140.71340490799048Z"><title>20 Benevolent St: $1,242,000</title></path><path fill="#59260b" stroke="white" stroke-width="0.2" d="M269.4950527563051,138.78515619866084L269.1545581255341,138.82707582839066L269.10722158130375,138.32810455549043L268.99977491484606,137.19567304610973L268.999771261093,137.19556296570227L269.95763669518055,137.09558208842645L269.9576403485844,137.09569216889213L270.114129359019,138.70893942777184L270.002481779753,138.7226854970504Z"><title>155 George St: $1,721,600</title></path><path fill="#59260b" stroke="white" stroke-width="0.2" d="M270.6599416989775,139.65062656346709L270.09902245461126,139.71795603338978L270.0990000219026,139.71773585680057L270.002481779753,138.7226854970504L270.114129359019,138.70893942777184L270.28578753367765,138.68780531492666L270.5632424475625,138.65364732476883L270.6599192667345,139.65040638658684Z"><title>70 Benevolent St: $633,400</title></path><path fill="#59260b" stroke="white" stroke-width="0.2" d="M271.5459685072128,139.54427070808015L270.6599416989775,139.65062656346709L270.6599192667345,139.65040638658684L270.5632424475625,138.65364732476883L271.4487461707904,138.5446331486164L271.4490109195467,138.5445992993482L271.44901835388737,138.54470938371378Z"><title>74 Benevolent St: $876,400</title></path><path fill="#59260b" stroke="white" stroke-width="0.2" d="M269.06166107117315,139.84248407016275L268.09045274124946,139.95907290809555L268.0904264989658,139.95887550141197L267.9971576613898,138.96968730265507L267.99715022571036,138.96957721852232L268.9654230582819,138.85036515028332L269.0616386376496,139.84226389363175Z"><title>135 Thayer St: $1,919,500</title></path><path fill="#59260b" stroke="white" stroke-width="0.2" d="M255.77973783953348,142.53197139775148L255.2363540251099,142.53252449521096L255.23210682763602,142.44107477751095L255.17804617472575,141.27624598005787L255.17804629684542,141.2761359057622L255.65770315524423,141.26152423821623L255.65770681432332,141.26163431679015Z"><title>5 Benevolent St: $675,300</title></path><path fill="#59260b" stroke="white" stroke-width="0.2" d="M269.5914458047482,139.77888510070625L269.06166107117315,139.84248407016275L269.0616386376496,139.84226389363175L268.9654230582819,138.85036515028332L269.1545581255341,138.82707582839066L269.4950527563051,138.78515619866084L269.5914233715448,139.77866492402973Z"><title>62 Benevolent St: $334,000</title></path><path fill="#59260b" stroke="white" stroke-width="0.2" d="M271.64930382100283,140.5964744782541L271.64903907862026,140.5965045315388L271.1883659014129,140.65108620148385L271.12945562647656,140.06044595388812L271.1294519736257,140.0603358744993L271.5905694629764,140.00500296306564L271.5908380096953,140.00495393568417L271.59084544391953,140.0050640195259Z"><title>83 Benevolent St: $542,900</title></path><path fill="#59260b" stroke="white" stroke-width="0.2" d="M271.4040684150532,138.08125654206378L271.4038036702841,138.08128659563954L270.831144312775,138.1442663774651L270.72169574702275,137.01594184272108L270.72169209393905,137.0158317621972L271.2946601676813,136.95604406378698L271.29492871282855,136.95599883137038L271.2949361471983,136.95610891643446Z"><title>163 George St: $826,100</title></path><path fill="#59260b" stroke="white" stroke-width="0.2" d="M271.4490109195467,138.5445992993482L271.4487461707904,138.5446331486164L270.5632424475625,138.65364732476883L270.28578753367765,138.68780531492666L270.2425174069358,138.20900500626885L270.831144312775,138.1442663774651L271.4038036702841,138.08128659563954L271.4040684150532,138.08125654206378L271.40407584939385,138.0813666266622Z"><title>310 Brook St: $242,000</title></path><path fill="#59260b" stroke="white" stroke-width="0.2" d="M263.2006579207955,128.84616529088817L263.0575076644018,128.86430832004407L263.0473518126237,128.86606552824378L263.0373878022656,128.86872257257346L263.0277026341355,128.87226057364023L263.0183644001372,128.87666063013603L263.0169302448048,128.87744472446502L263.00231969050947,128.88572567736264L262.9879198265844,128.89495962997898L262.9740409592341,128.9049647374486L262.9607171668613,128.91570308041992L262.9479900782753,128.92714813555358L262.93589376771706,128.93926577898674L262.92446987261064,128.95202189590782L262.9137486940599,128.96537476644153L262.9037567426276,128.9792902583722L262.89452810114017,128.99372665639385L262.88609307046863,129.00864224068937L262.8784668291628,129.02399147837423L262.8716758964583,129.03973264538217L262.86574301859946,129.05581642198376L262.860683369654,129.0722010707832L262.8565121368156,129.08883346768562L262.85323693510145,129.10566807095893L262.8524635010108,129.11071945077856L262.85213247247157,129.11581688802107L262.8522476698854,129.1209262246557L262.85280914080795,129.1260057062318L262.95209982126835,129.8943211712176L262.95212981957593,129.8945451597683L262.49385269594495,129.95263497772976L262.49382647889433,129.95241099371924L262.336830039887,128.56491587715573L262.33682638333994,128.564805793314L262.3703633789264,128.56069533288246L262.40390798196313,128.55654692687676L262.40407053014496,128.55660405076924Z"><title>88 Waterman St: $429,400</title></path><path fill="#59260b" stroke="white" stroke-width="0.2" d="M259.8406670934346,141.13424399169162L259.8883317040454,144.22802580310963L256.0974129983806,144.25852966646198L256.097405650944,144.25833608102403L256.04368711056304,142.5317017591151L255.77973783953348,142.53197139775148L255.65770681432332,141.26163431679015L255.65770315524423,141.26152423821623L259.8403835736972,141.13416016480187L259.84067099902313,141.1341339214705Z"><title>15 Charlesfield St: $23,050,500</title></path><path fill="#59260b" stroke="white" stroke-width="0.2" d="M267.5142045271932,139.9870360865316L267.5139360075409,139.9870623437164L264.73023375615594,140.27559148459113L264.48271098866826,137.66721580910962L264.48270733308163,137.6671057289932L267.26776599441655,137.37637892362545L267.2680345385161,137.37633368730894L267.26804197457386,137.37644377193647Z"><title>137 George St: $16,904,300</title></path><path fill="#59260b" stroke="white" stroke-width="0.2" d="M263.34083527105395,143.04328873872873L262.7607029899664,143.047952043009L262.7627666036424,143.1485884351423L262.1809063978726,143.15326618985273L262.20254712502356,144.20919253930333L262.2025506866339,144.20938612060854L260.4646269630466,144.22338611574378L260.4646234001848,144.22319253443857L260.4301143689372,141.98261620730045L260.430114493327,141.9825061331794L262.0457006311626,141.96951591881225L261.7980993091478,139.6289529245114L262.9572204652941,139.48757346280036Z"><title>27 Charlesfield St: $11,081,800</title></path><path fill="#59260b" stroke="white" stroke-width="0.2" d="M259.8202723035356,139.810008841916L259.8199886882503,139.8100085199112L258.966860878485,139.81392607695307L258.38486347245635,139.81659643139574L257.8227911218419,139.8191766537784L257.7280063641665,138.296088807896L257.728006487363,138.29597873231978L259.79432523204014,138.14422253600787L259.79461267768056,138.1441811096156L259.79461255361093,138.14429118527914Z"><title>71 George St: $6,240,600</title></path><path fill="#59260b" stroke="white" stroke-width="0.2" d="M271.2390824664035,136.38023727881955L267.7869743282499,136.740571984672L267.7869518583175,136.74038217158522L267.4675329149468,133.35284062978462L267.4675254788017,133.35273054349818L270.90107305921265,132.90945020774961L270.90133403177606,132.90941635271884L270.9013452481013,132.9095264438074L270.9040197141876,132.9314616653428L270.9064823818917,132.9534194106527Z"><title>167 Thayer St: $45,743,100</title></path><path fill="#59260b" stroke="white" stroke-width="0.2" d="M252.3635190265777,139.7161876813334L251.4444027216232,139.82047869751113L251.34907624780317,139.38351146836067L251.67226177552948,139.36000114539638L251.64612642436987,138.8852815499995L251.58952774034697,138.8819736702426L251.57982263047597,138.63177639094647L251.57982275122777,138.63166631548665L252.28383561535156,138.57993531643297L252.28383549439604,138.58004539189278Z"><title>25 George St: $1,098,800</title></path><path fill="#59260b" stroke="white" stroke-width="0.2" d="M266.6008377567632,113.26267425727565L266.1584925724601,113.28357844342827L266.05298194955685,112.15181324904552L266.0529782943486,112.15170315850992L267.1498780840484,112.09862441557925L267.1498779569811,112.09873450163286L267.2094184944872,113.23390887587448Z"><title>165 Lloyd Ave: $2,768,700</title></path><path fill="#59260b" stroke="white" stroke-width="0.2" d="M266.2038498597394,114.31140176544432L265.73491447485867,114.33354361809324L265.7348919841752,114.33336897389381L265.63932873739395,113.30823225196218L265.6393213000847,113.30812215746846L266.1402022477123,113.28444551778375L266.20383874559775,114.31120056190412Z"><title>321 Thayer St: $553,000</title></path><path fill="#59260b" stroke="white" stroke-width="0.2" d="M273.9666432829399,120.67403931528679L270.05693218522356,121.11344608996296L270.0569097199477,121.11325246989145L269.76453109580325,117.97466226006509L269.7645274421084,117.97455217200331L272.47261480035377,117.71552925059223L272.472800155374,117.71549150976352L272.47283785344916,117.71559404648724Z"><title>449 Brook St: $5,197,500</title></path><path fill="#59260b" stroke="white" stroke-width="0.2" d="M272.6590033134271,129.22814888478024L272.7801412460976,130.2201475785405L273.6606919745682,130.10554779853555L273.7402547780657,130.80492797057377L272.258836414112,130.9977275710553L272.19596131151775,130.48284135232097L271.8758885076095,130.52449825496296L271.85314444298274,130.33822927693836L271.17870504708844,130.42600956259412L271.0578610180819,129.43645720250788L272.65899209771305,129.22803879197454Z"><title>361 Brook St: $12,152,700</title></path><path fill="#59260b" stroke="white" stroke-width="0.2" d="M274.19753996806685,130.74541390949162L273.7402547780657,130.80492797057377L273.6606919745682,130.10554779853555L273.54771557767526,129.11248375452124L273.5477119256684,129.11237367079593L274.0049999267794,129.05286271337536L274.00500357864075,129.05297279712977Z"><title>129 Waterman St: $463,800</title></path><path fill="#59260b" stroke="white" stroke-width="0.2" d="M274.6834078290558,130.68218058589264L274.19753996806685,130.74541390949162L274.00500357864075,129.05297279712977L274.0049999267794,129.05286271337536L274.4908707793802,128.98962865426438L274.4908744309796,128.9897387380188Z"><title>131 Waterman St: $480,300</title></path><path fill="#59260b" stroke="white" stroke-width="0.2" d="M275.169275911001,130.6189519216714L274.6834078290558,130.68218058589264L274.4908744309796,128.9897387380188L274.4908707793802,128.98962865426438L274.97674185296637,128.92639925453113L274.97674550439115,128.92650933834375Z"><title>133 Waterman St: $623,200</title></path><path fill="#59260b" stroke="white" stroke-width="0.2" d="M276.95878228149377,130.38607395099825L276.9584910479025,130.3861115599575L275.169275911001,130.6189519216714L274.97674550439115,128.92650933834375L274.97674185296637,128.92639925453113L276.99035192420706,128.66437326205778L276.99064696390997,128.66431667818688L276.9906430511328,128.66442675309372Z"><title>137 Waterman St: $2,076,800</title></path><path fill="#59260b" stroke="white" stroke-width="0.2" d="M274.6886605779582,135.9957872692903L271.8092940186616,136.28919314418454L271.809267769946,136.2890033259464L271.6587735284993,134.7373113669746L271.65876609415864,134.737201280921L272.8805156748858,134.5913165093807L274.533314443368,134.39397072256543L274.6886381441727,135.99557088501751Z"><title>315 Brook St: $5,780,400</title></path><path fill="#59260b" stroke="white" stroke-width="0.2" d="M275.0001490128052,140.6216394258081L274.53768883337034,140.67428122047568L274.4061768517422,139.6671435793687L274.4061656371632,139.66703349081217L274.8682602556946,139.61157063784776L274.8682714701572,139.61168072652072Z"><title>99 Benevolent St: $376,400</title></path><path fill="#59260b" stroke="white" stroke-width="0.2" d="M274.0947772805521,139.23833749390906L273.53686309134355,139.30530287482543L273.53683687982266,139.30508269314305L273.41451497154776,138.28384271633695L273.9726222184836,138.21846746600932L274.09475106949685,139.23811731205205Z"><title>88 Benevolent St: $611,300</title></path><path fill="#59260b" stroke="white" stroke-width="0.2" d="M273.53686309134355,139.30530287482543L272.9632005923486,139.37415618356317L272.96317438039114,139.37393600205542L272.8406518402917,138.35106035266654L273.1484415617888,138.3150088895345L273.41451497154776,138.28384271633695L273.53683687982266,139.30508269314305Z"><title>86 Benevolent St: $513,100</title></path><path fill="#59260b" stroke="white" stroke-width="0.2" d="M272.5964076774544,139.88436081659165L272.6553919985017,140.38673318814836L272.6629410573514,140.38578181297635L272.72176403555204,140.88688153290423L272.262715184479,140.9431750778749L272.16319010563893,139.9363620080985L272.1631826716766,139.93625192416948L272.59640402527293,139.8842507371155Z"><title>287 Brook St: $638,900</title></path><path fill="#59260b" stroke="white" stroke-width="0.2" d="M272.8048150940449,139.85934713832103L272.9225580202474,140.86225757250213L272.72176403555204,140.88688153290423L272.6629410573514,140.38578181297635L272.6553919985017,140.38673318814836L272.5964076774544,139.88436081659165L272.59640402527293,139.8842507371155L272.8048114418343,139.8592370589322Z"><title>89 Benevolent St: $304,100</title></path><path fill="#59260b" stroke="white" stroke-width="0.2" d="M274.0752250509104,140.72692379599903L273.39074085711036,140.80484106263611L273.26013914094074,139.80469721075497L273.260127925867,139.80458712240215L273.94407121112454,139.72249333109357L273.94408242590725,139.722603419621Z"><title>95 Benevolent St: $595,200</title></path><path fill="#59260b" stroke="white" stroke-width="0.2" d="M274.53768883337034,140.67428122047568L274.0752250509104,140.72692379599903L273.94408242590725,139.722603419621L273.94407121112454,139.72249333109357L274.4061656371632,139.66703349081217L274.4061768517422,139.6671435793687Z"><title>97 Benevolent St: $485,700</title></path><path fill="#59260b" stroke="white" stroke-width="0.2" d="M275.6082671371696,140.55241819680668L275.0001490128052,140.6216394258081L274.8682714701572,139.61168072652072L274.8682602556946,139.61157063784776L275.78114540636307,139.50200401886832L275.78115662036,139.50211410759948L275.91375781656825,140.51764658867614Z"><title>101 Benevolent St: $334,000</title></path><path fill="#59260b" stroke="white" stroke-width="0.2" d="M273.4551730316016,141.37435244148946L272.3191090350156,141.51367086180835L272.2627226183249,140.94328516128007L272.262715184479,140.9431750778749L272.72176403555204,140.88688153290423L272.9225580202474,140.86225757250213L273.39074085711036,140.80484106263611Z"><title>281 Brook St: $816,800</title></path><path fill="#59260b" stroke="white" stroke-width="0.2" d="M277.0267643457628,140.39095861645183L277.0264844765479,140.39098864616244L275.91375781656825,140.51764658867614L275.78115662036,139.50211410759948L275.78114540636307,139.50200401886832L276.9873321876221,139.35726435497054L276.98761586658657,139.3572115554707L276.9876195171091,139.35732163515058Z"><title>103 Benevolent St: $1,229,300</title></path><path fill="#59260b" stroke="white" stroke-width="0.2" d="M273.6132843787782,142.97418731506332L272.47431978810346,143.08387578703696L272.4742935404647,143.08368597357185L272.37190746492706,142.04784051780007L272.37190003108117,142.04773043483146L273.5108840633766,141.93804113706574L273.61326194473077,142.97397093646578Z"><title>263 Brook St: $1,176,000</title></path><path fill="#59260b" stroke="white" stroke-width="0.2" d="M275.6591273659433,141.06706689848215L274.50156564448844,141.17853587050922L274.6689531420707,142.87230696389452L274.6689755753614,142.87252334266668L273.6132843787782,142.97418731506332L273.61326194473077,142.97397093646578L273.5108840633766,141.93804113706574L273.4551730316016,141.37435244148946L273.39074085711036,140.80484106263611L274.0752250509104,140.72692379599903L274.53768883337034,140.67428122047568L275.0001490128052,140.6216394258081L275.6082671371696,140.55241819680668Z"><title>75 Charlesfield St: $1,209,100</title></path><path fill="#59260b" stroke="white" stroke-width="0.2" d="M275.7090307820472,141.5720611087454L275.8265076982789,142.7608355974662L275.82653013058007,142.76105197652942L274.6689755753614,142.87252334266668L274.6689531420707,142.87230696389452L274.50156564448844,141.17853587050922L275.6591273659433,141.06706689848215Z"><title>79 Charlesfield St: $810,000</title></path><path fill="#59260b" stroke="white" stroke-width="0.2" d="M280.166318073665,140.93220805510646L280.2097825896053,142.08036751759937L280.2097899198998,142.08056110527832L277.6688513048284,142.1171633314516L277.66884394109366,142.11699631335796L277.56069202310755,139.26087765290868L277.56068837287603,139.26076757308329L280.10111877307645,139.2099256554502L280.10111864074133,139.21003573056078Z"><title>105 Benevolent St: $9,156,100</title></path><path fill="#59260b" stroke="white" stroke-width="0.2" d="M282.69409116278985,140.88175897169276L282.71900554175954,142.04443759014248L280.2097899198998,142.08056110527832L280.2097825896053,142.08036751759937L280.166318073665,140.93220805510646L280.9280643671809,140.91696984137525L281.52784405249986,140.90497181427781L282.69380767285475,140.88165614224272L282.6940912961145,140.88164889716427Z"><title>5 Young Orchard: $1,364,100</title></path><path fill="#59260b" stroke="white" stroke-width="0.2" d="M277.0665393550298,141.44134274384123L277.0662594914029,141.44136897771386L275.7090307820472,141.5720611087454L275.6591273659433,141.06706689848215L275.6082671371696,140.55241819680668L275.91375781656825,140.51764658867614L277.0264844765479,140.39098864616244L277.0267643457628,140.39095861645183L277.02676799619803,140.39106869569514Z"><title>148 Hope St: $1,030,100</title></path><path fill="#59260b" stroke="white" stroke-width="0.2" d="M272.9632005923486,139.37415618356317L272.1183406066266,139.47556472220458L272.11831436280045,139.4753711106896L272.01862007792806,138.44746349958587L272.01861264387844,138.44735341501655L272.8406518402917,138.35106035266654L272.96317438039114,139.37393600205542Z"><title>84 Benevolent St: $487,500</title></path><path fill="#59260b" stroke="white" stroke-width="0.2" d="M268.16049817414023,116.01249146577902L267.4708353370661,116.0683812846546L267.4126014287467,114.94943304924527L267.41260155590135,114.94932296418119L268.10348074437934,114.91670391452499L268.10348061690456,114.91681399941444Z"><title>251 Bowen St: $782,100</title></path><path fill="#59260b" stroke="white" stroke-width="0.2" d="M267.4708353370661,116.0683812846546L266.7105056679284,116.13000628727605L266.6057860957517,114.987522195559L266.60578244071803,114.98741210615844L267.41260155590135,114.94932296418119L267.4126014287467,114.94943304924527Z"><title>247 Bowen St: $1,039,400</title></path><path fill="#59260b" stroke="white" stroke-width="0.2" d="M282.681054788467,135.611300602759L281.40174035538803,135.63242921672645L281.40173680742737,135.6322356290184L281.39215776050696,134.83027906683856L282.671192355745,134.8091538005392L282.6714759807801,134.8091503510659L282.67147584742634,134.80926042801002Z"><title>37 Cooke St: $1,643,000</title></path><path fill="#59260b" stroke="white" stroke-width="0.2" d="M277.1118242612283,142.63731561906752L275.82653013058007,142.76105197652942L275.8265076982789,142.7608355974662L275.7090307820472,141.5720611087454L277.0662594914029,141.44136897771386L277.0665393550298,141.44134274384123L277.06654300543596,141.4414528226771Z"><title>89 Charlesfield St: $320,800</title></path><path fill="#59260b" stroke="white" stroke-width="0.2" d="M273.6606919745682,130.10554779853555L272.7801412460976,130.2201475785405L272.6590033134271,129.22814888478024L272.65899209771305,129.22803879197454L273.5477119256684,129.11237367079593L273.54771557767526,129.11248375452124Z"><title>125 Waterman St: $1,897,000</title></path><path fill="#59260b" stroke="white" stroke-width="0.2" d="M271.8758885076095,130.52449825496296L272.19596131151775,130.48284135232097L272.258836414112,130.9977275710553L271.26432652716176,131.12716796508175L271.17871626335545,130.42611965481774L271.17870504708844,130.42600956259412L271.85314444298274,130.33822927693836Z"><title>357 Brook St: $249,600</title></path><path fill="#59260b" stroke="white" stroke-width="0.2" d="M273.39074085711036,140.80484106263611L272.9225580202474,140.86225757250213L272.8048150940449,139.85934713832103L272.8048114418343,139.8592370589322L273.260127925867,139.80458712240215L273.26013914094074,139.80469721075497Z"><title>93 Benevolent St: $371,500</title></path><path fill="#59260b" stroke="white" stroke-width="0.2" d="M268.99656388547737,115.9447336475132L268.99657132138964,115.9448437410465L269.13711559193325,117.45343846394098L266.5265166690806,117.70318668952677L266.5264980091306,117.70297029582434L266.45576243434334,116.93123591961921L265.9779435530654,116.97695144981844L265.90629485374666,116.19529889617115L265.90628741661203,116.1951888029871L265.79908444263856,115.02561388912727L265.7990770054166,115.02550379536115L266.60578244071803,114.98741210615844L266.6057860957517,114.987522195559L266.7105056679284,116.13000628727605L267.4708353370661,116.0683812846546L268.16049817414023,116.01249146577902L268.10348061690456,114.91681399941444L268.10348074437934,114.91670391452499L268.89703266031574,114.87926045493805L268.8973049913184,114.87923040514579L268.89731242723064,114.87934049908654Z"><title>315 Thayer St: $8,687,900</title></path><path fill="#59260b" stroke="white" stroke-width="0.2" d="M272.3127541486465,147.20389849643107L271.76508137150086,147.26155194483L271.7650589362893,147.2613355696667L271.6718654050492,146.38613564459956L272.2235449864238,146.32805765367812L272.22380971879466,146.32803139742464L272.22381715258234,146.32814147867612Z"><title>242 Brook St: $182,600</title></path><path fill="#59260b" stroke="white" stroke-width="0.2" d="M272.1347674771969,145.45124286290957L272.1345027439529,145.45126911936677L271.02374283614336,145.56820393691305L270.96226525568636,144.9908484290936L271.5278641907207,144.93204115718254L272.0759870574402,144.87505529657938L272.07625179117895,144.87502903997665L272.07625922508305,144.87513912189752Z"><title>252 Brook St: $405,900</title></path><path fill="#59260b" stroke="white" stroke-width="0.2" d="M277.345495999587,144.32724936600425L277.34523504631943,144.3272756220249L276.419036483363,144.42355333222076L276.2941790482437,143.29724573466228L276.2941753975174,143.29713565661223L277.2045041023521,143.2094997378299L277.20476886082906,143.2094545077125L277.2047800741857,143.20956459495937Z"><title>112 Charlesfield St: $734,100</title></path><path fill="#59260b" stroke="white" stroke-width="0.2" d="M272.07625179117895,144.87502903997665L272.0759870574402,144.87505529657938L271.5278641907207,144.93204115718254L271.3980445897905,143.77958771417616L271.39804093702696,143.77947763641714L271.95849131949944,143.71811806745245L271.95875986252213,143.71806904129335L271.95876729648444,143.71817912359256Z"><title>258 Brook St: $536,600</title></path><path fill="#59260b" stroke="white" stroke-width="0.2" d="M266.38927614261047,149.31399023125414L265.8499273156631,149.35906747015542L265.74169593970873,148.40128998758155L265.7416922847915,148.40117991174338L266.42355115443934,148.34169638104504L266.42355480912374,148.34180645702872L266.53206833821605,149.3020556603442Z"><title>89 Power St: $689,400</title></path><path fill="#59260b" stroke="white" stroke-width="0.2" d="M263.0340605110687,153.70424376809387L261.12203232196043,154.97452176193474L261.1218510932813,154.9742786443967L260.12249562327634,153.48535286079277L261.32822552815196,152.68346725293668L261.0572065785818,152.29021573104546L260.8814609972469,152.03520680658403L261.9300999843108,151.9781576904934L263.0338906531979,153.70397788810078Z"><title>383 Benefit St: $4,790,100</title></path><path fill="#59260b" stroke="white" stroke-width="0.2" d="M272.9776710756414,152.5267507515964L272.15592114953324,152.587129371037L272.155902487546,152.58692059558234L272.1052016253234,151.97443825440132L271.9122956939973,151.8834290690429L271.7382542847481,151.89950646742363L271.6950115096115,151.27216435194714L271.9599854792177,151.24855382819078L272.46512887172867,151.20354358895565L272.8629190652573,151.16809336227016L272.8631875698338,151.16807090691873L272.86319500330137,151.16818098636577Z"><title>50 John St: $925,200</title></path><path fill="#59260b" stroke="white" stroke-width="0.2" d="M261.7628140882589,150.58626158049447L260.4509238555911,150.64049549985793L260.4508106369758,150.64029800283606L259.2954416788998,148.62645207886817L259.2954077657487,148.62634576443816L261.614855870459,148.60506552419974L261.61485952709336,148.6051755999797L261.7627991908812,150.58606039959705Z"><title>55 Power St: $3,017,300</title></path><path fill="#59260b" stroke="white" stroke-width="0.2" d="M271.76508137150086,147.26155194483L271.20300734075136,147.3207229503314L271.2029849051032,147.32050657534273L271.1141349984391,146.44484908587765L271.6718654050492,146.38613564459956L271.7650589362893,147.2613355696667Z"><title>116 Power St: $176,600</title></path><path fill="#59260b" stroke="white" stroke-width="0.2" d="M277.4169997780118,144.89521801559022L277.4167388252681,144.89524427163997L275.9665526931349,145.04788577061845L275.9009738325549,145.05479131126776L275.83720334412646,144.4840352598403L276.419036483363,144.42355333222076L277.34523504631943,144.3272756220249L277.345495999587,144.32724936600425L277.3455109942588,144.32735945738386Z"><title>130 Hope St: $545,300</title></path><path fill="#59260b" stroke="white" stroke-width="0.2" d="M273.26694827282336,144.75123565565445L272.6494831512973,144.81542844549404L272.5320944931009,143.65953464165796L272.5320870594005,143.659424559155L273.1433847011358,143.60055299970554L273.14338835311355,143.60066307761008Z"><title>259 Brook St: $293,500</title></path><path fill="#59260b" stroke="white" stroke-width="0.2" d="M273.89626035880065,145.86139221684425L272.76776415947825,145.98018879882875L272.7079303000937,145.39101616069092L272.70792286650976,145.39090607897379L273.8277381701919,145.27302481033257Z"><title>249 Brook St: $248,100</title></path><path fill="#59260b" stroke="white" stroke-width="0.2" d="M273.9631762660283,146.4359746335831L272.826203380333,146.5556602064753L272.767771593004,145.98029888031306L272.76776415947825,145.98018879882875L273.89626035880065,145.86139221684425Z"><title>245 Brook St: $463,000</title></path><path fill="#59260b" stroke="white" stroke-width="0.2" d="M277.63709458278026,146.64344491192605L276.17033776271273,146.7978293747292L276.17031154956203,146.797612994269L275.9665526931349,145.04788577061845L277.4167388252681,144.89524427163997L277.4169997780118,144.89521801559022L277.4170109911938,144.8953281022259Z"><title>128 Hope St: $1,567,700</title></path><path fill="#59260b" stroke="white" stroke-width="0.2" d="M272.1052016253234,151.97443825440132L272.155902487546,152.58692059558234L272.15592114953324,152.587129371037L271.7875203550502,152.61420048124273L271.7875054742035,152.61399171032826L271.7382542847481,151.89950646742363L271.9122956939973,151.8834290690429Z"><title>44 John St: $111,100</title></path><path fill="#59260b" stroke="white" stroke-width="0.2" d="M273.9161560293869,145.26371670656954L273.8277381701919,145.27302481033257L272.70792286650976,145.39090607897379L272.6494905849395,144.8155385273567L272.6494831512973,144.81542844549404L273.26694827282336,144.75123565565445L273.84976357521373,144.6906469106616Z"><title>253 Brook St: $249,900</title></path><path fill="#59260b" stroke="white" stroke-width="0.2" d="M273.84976357521373,144.6906469106616L273.26694827282336,144.75123565565445L273.14338835311355,143.60066307761008L273.1433847011358,143.60055299970554L273.7170714229869,143.5453047491901L273.71707507476094,143.54541482712375Z"><title>78 Charlesfield St: $247,700</title></path><path fill="#59260b" stroke="white" stroke-width="0.2" d="M276.419036483363,144.42355333222076L275.83720334412646,144.4840352598403L275.7108700691024,143.3534145654703L275.71086641814327,143.35330448742025L276.2941753975174,143.29713565661223L276.2941790482437,143.29724573466228Z"><title>108 Charlesfield St: $571,200</title></path><path fill="#59260b" stroke="white" stroke-width="0.2" d="M271.5278641907207,144.93204115718254L270.96226525568636,144.9908484290936L270.84437171919853,143.84023144518142L270.84436806628946,143.8401213674224L271.39804093702696,143.77947763641714L271.3980445897905,143.77958771417616Z"><title>66 Charlesfield St: $488,800</title></path><path fill="#59260b" stroke="white" stroke-width="0.2" d="M267.9085971811728,144.16973115698784L268.23273557351786,147.61643913801527L264.8407302060514,147.99563616103842L264.8407039883605,147.99541598709766L264.6096501444699,146.12681793025695L263.91051707736915,146.21864040000946L263.7294874707586,144.75466451660031L263.72947625195957,144.7545544305758L267.9083211948746,144.1696776964818L267.9085897455807,144.16962107495056Z"><title>36 Charlesfield St: $30,851,300</title></path><path fill="#59260b" stroke="white" stroke-width="0.2" d="M274.51556641506613,145.20061755625647L273.9161560293869,145.26371670656954L273.84976357521373,144.6906469106616L273.71707507476094,143.54541482712375L273.7170714229869,143.5453047491901L275.71086641814327,143.35330448742025L275.7108700691024,143.3534145654703L275.83720334412646,144.4840352598403L275.9009738325549,145.05479131126776L275.2787198967126,145.1202893484733Z"><title>82 Charlesfield St: $4,273,200</title></path><path fill="#59260b" stroke="white" stroke-width="0.2" d="M272.7321881019743,149.79451658777543L268.9044443462044,150.18565028169542L268.904425659508,150.18546048246208L268.75859030443826,148.15980627882527L268.7585866507725,148.15969620275428L272.4417945270252,147.77195063253748L272.4420554989192,147.7719053942128L272.44206671393476,147.7720154794224Z"><title>101 Power St: $6,637,900</title></path><path fill="#59260b" stroke="white" stroke-width="0.2" d="M272.22380971879466,146.32803139742464L272.2235449864238,146.32805765367812L271.6718654050492,146.38613564459956L271.1141349984391,146.44484908587765L271.0840895452711,146.14875660205144L271.02374283614336,145.56820393691305L272.1345027439529,145.45126911936677L272.1347674771969,145.45124286290957L272.13477491098456,145.4513529444812Z"><title>248 Brook St: $642,600</title></path><path fill="#59260b" stroke="white" stroke-width="0.2" d="M270.96226525568636,144.9908484290936L271.02374283614336,145.56820393691305L271.0840895452711,146.14875660205144L271.1141349984391,146.44484908587765L271.2029849051032,147.32050657534273L271.20300734075136,147.3207229503314L268.80749579294934,147.57292602042435L268.8074733244721,147.57273621481727L268.4808133315819,144.09910920387483L268.4808096777124,144.09899912626133L270.84436806628946,143.8401213674224L270.84437171919853,143.84023144518142Z"><title>56 Charlesfield St: $16,878,800</title></path><path fill="#59260b" stroke="white" stroke-width="0.2" d="M304.8653750013327,166.51059070939664L304.86537864015554,166.51070077862823L305.26114034990314,168.94776509454823L305.2611628548766,168.9479055495758L302.5345374835888,168.42675682791742L302.5344278549892,168.42673770949477L302.534530062665,168.4266467547277L303.2644216293702,167.65515373260132L303.2644860261935,167.6550627287652L303.5604492633138,166.25445120997028L303.5604683109559,166.2543411703664Z"><title>250 India St: $1,698,600</title></path><path fill="#59260b" stroke="white" stroke-width="0.2" d="M299.4076074635959,167.89291908298037L299.40758083132096,167.89304808914312L297.4752004588372,167.5116226412938L297.47522709029727,167.51149363484L297.82845407383866,165.68332054419443L297.8284731192107,165.68321050386294L299.76086602534633,166.06464106452768L299.7608469792467,166.06475110465544Z"><title>271 Tockwotten: $703,100</title></path><path fill="#59260b" stroke="white" stroke-width="0.2" d="M279.46453298215056,144.205650916585L279.0845078176644,144.26371292001568L279.08476354714367,143.7883706211578L279.08541276925826,142.5744019773265L279.0854166826466,142.574291908124L280.3942735604069,142.55294568804675L280.39426964649465,142.55305575727834L280.3925805382314,144.0638686104794Z"><title>4 Young Orchard: $1,465,100</title></path><path fill="#59260b" stroke="white" stroke-width="0.2" d="M279.0845078176644,144.26371292001568L277.9403825972404,144.438519690244L277.8742178004468,143.91294605031726L277.8742028059205,143.91283595887944L279.08476354714367,143.7883706211578Z"><title>129 Hope St: $210,000</title></path><path fill="#59260b" stroke="white" stroke-width="0.2" d="M279.2257471710327,146.40148401781335L278.20787870459026,146.56328525327262L278.2078486979881,146.56308025470935L278.06509973833454,145.42918307505897L278.0650885254727,145.42907298877253L279.04766151172225,145.26068808345008L279.22570963413455,146.40125244067167Z"><title>123 Hope St: $1,366,200</title></path><path fill="#59260b" stroke="white" stroke-width="0.2" d="M281.3864320362627,146.0580380576721L279.2257471710327,146.40148401781335L279.22570963413455,146.40125244067167L279.04766151172225,145.26068808345008L279.60678680374986,145.16487137199147L279.46453298215056,144.205650916585L280.3925805382314,144.0638686104794L281.05293008178705,143.96298097647377L281.386394501169,146.05780647991924Z"><title>150 Power St: $4,401,900</title></path><path fill="#59260b" stroke="white" stroke-width="0.2" d="M279.08476354714367,143.7883706211578L277.8742028059205,143.91283595887944L277.70851806362043,142.59678109697415L279.0854166826466,142.574291908124L279.08541276925826,142.5744019773265Z"><title>131 Hope St: $1,758,200</title></path><path fill="#59260b" stroke="white" stroke-width="0.2" d="M282.76531377152423,143.654677930841L282.76876128584263,143.67751291728928L282.7722126087465,143.70032513258047L282.77195920344093,143.70036277960753L281.60840396228014,143.8781177471974L281.05293008178705,143.96298097647377L280.3925805382314,144.0638686104794L280.39426964649465,142.55305575727834L280.3942735604069,142.55294568804675L282.7324497960508,142.51485010964097L282.73273343604524,142.51482768187998L282.7327333026915,142.51493775573908Z"><title>8 Young Orchard: $1,752,000</title></path><path fill="#59260b" stroke="white" stroke-width="0.2" d="M300.5476888708945,166.22006922075525L300.1993280921888,168.0493344430579L299.40758083132096,167.89304808914312L299.4076074635959,167.89291908298037L299.7608469792467,166.06475110465544L299.76086602534633,166.06464106452768L300.547394133755,166.21991702841478L300.54770791731426,166.2199591808021Z"><title>230 India St: $547,800</title></path><path fill="#59260b" stroke="white" stroke-width="0.2" d="M245.84223154644133,152.5813425394881L245.84223520939122,152.58145261346363L245.8677051824634,153.09591266451753L245.89847482621553,153.7173916589818L245.89802800305188,153.71797188630444L245.57139630851452,154.13568837742787L245.420006561646,154.32928068231558L245.44603832025314,154.3494553232449L245.9488698997302,154.7391324629716L245.9491419471742,154.73932632771903L245.94915695404052,154.73943641292863L246.03465003252495,155.1566945106024L246.0366097917722,155.16627642899402L246.0370837507944,155.16858839066117L246.0371138379851,155.16874024245772L246.03705323877512,155.16883126832545L246.03585679654498,155.17026466259267L244.89235742983874,156.5595017670421L244.8922892686969,156.55959278446971L244.89102844669833,156.56112858458073L244.69476134469733,156.79956379285431L244.69466687721433,156.79950296352035L244.69449686913867,156.79936234810157L243.07498654548544,155.38681730089593L242.9901492742647,154.31051266149734L242.9898246919911,154.30638661279227L242.98982102793525,154.30627653954434L242.99997097093728,154.27709629500168L243.00999196260818,154.24828027686453L243.01009816740407,154.24797295578173L243.01012853131397,154.24786671463517L243.32337094200193,154.22663323779125L243.32382853637682,154.22658438782673L243.30588883213932,153.98282599053346L243.30588516814169,153.98271591716912L243.2716344986111,153.5173507820873L243.21898181497818,152.80179911697633L243.0468578664295,150.46264944726136L243.04685042088386,150.4625393683964L245.83939405609271,152.5791912022978L245.84195573165198,152.5811334871978Z"><title>198 Dyer St: $8,486,900</title></path><path fill="#59260b" stroke="white" stroke-width="0.2" d="M238.9879343782668,156.76578456920106L239.56448083365103,157.87297028725152L239.56320141995093,157.87783468858106L238.8055527768738,158.9182533447165L238.80527316994267,158.91805568672135L238.38254775386304,158.61643021646887L238.54957080903114,158.3818855707068L238.0818308608723,158.0378439257911L238.98771133332048,156.76573499222286L238.98780216029263,156.76566297464888Z"><title>60 Clifford St: $1,047,400</title></path><path fill="#59260b" stroke="white" stroke-width="0.2" d="M240.21864245666075,161.68165924720233L240.5945085408166,162.97789691746584L239.90563238793402,163.15603683851077L239.64837851232733,163.40638341856538L239.6480951134581,163.4062009404879L239.12323745747562,163.02725794739672L240.2051913923351,161.6361951532308L240.2052747195412,161.63606240300578L240.20539956833818,161.63599801409873L240.2120229016582,161.65883053123252L240.21855957381194,161.68137070952798Z"><title>194 Richmond St: $1,753,000</title></path><path fill="#59260b" stroke="white" stroke-width="0.2" d="M239.9015829669952,155.48618114728015L239.93945645424537,155.51153338278527L240.6389557941584,155.9804750297335L240.5720529719256,156.11294918658677L240.52792026096722,156.19983360770857L240.3899105040182,156.47154835110996L240.33258019460482,156.58441756642424L240.21857523728977,156.80887372570578L239.88090388802812,157.47367587397457L239.8788615296653,157.47770067714737L239.87867282898515,157.47735509104677L239.8783897999383,157.47681583696976L239.28830379681312,156.34361077277572L239.89976922160713,155.4849570786755L239.90140540900757,155.48602534426027Z"><title>216 Eddy St: $613,600</title></path><path fill="#59260b" stroke="white" stroke-width="0.2" d="M239.22141058635316,164.3606460422452L239.38896130671492,165.1101921434165L240.13285289733903,164.70194561607786L240.1329966665653,164.70186606651987L240.13304193282966,164.7019685890118L240.53621960704913,165.4644944430038L240.53607206087327,165.46457019279478L240.10627457968076,165.6920801649976L238.87429025271558,166.01987898597145L238.74876753558055,165.21895326531376L238.95624743576627,165.17708614800358L238.7916748765856,164.46022162691224L238.79166364850244,164.46011154999724L239.2213993584155,164.36053596515558Z"><title>221 Richmond St: $646,500</title></path><path fill="#59260b" stroke="white" stroke-width="0.2" d="M237.42251210141694,164.89330310438527L237.7759885423875,166.79957346626907L237.7757464964816,166.7996225503739L237.4489451951231,166.86741580232047L237.44754419889068,166.82947632629657L236.8410295038193,166.88096366036916L236.74691504210932,166.44307838042732L236.46155819823616,166.44258542513126L236.0962552119745,167.23588717594976L236.09595666246605,167.2357312554377L235.4327497422055,166.84479175813613L235.53157417225884,166.43666269339155L235.49371550802607,165.06392687998596L235.49370445974637,165.06364221763215L235.4937045738916,165.06353215285344L237.4222437084245,164.89323450569646L237.42249709166936,164.89319302365766Z"><title>70 Ship St: $13,492,400</title></path><path fill="#59260b" stroke="white" stroke-width="0.2" d="M238.87429025271558,166.01987898597145L238.13672138907714,166.2161306014459L237.9805817680899,165.37408518401207L237.98056675857515,165.37397510337178L238.29620741974213,165.31028069983586L238.74876753558055,165.21895326531376Z"><title>6 Elbow St: $251,400</title></path><path fill="#59260b" stroke="white" stroke-width="0.2" d="M242.3669135204982,168.92696185180102L241.4288193898101,169.43573436528095L241.42867599247256,169.43546474719187L241.15543510144926,168.91868043734576L242.0933905247657,168.40998555987608L242.0935342926532,168.40990601235535L242.09357577638002,168.41000852981233Z"><title>289 Richmond St: $248,600</title></path><path fill="#59260b" stroke="white" stroke-width="0.2" d="M242.0935342926532,168.40990601235535L242.0933905247657,168.40998555987608L241.15543510144926,168.91868043734576L240.91501215682365,168.4639531140274L241.8529649238335,167.9552565482445L241.8531086918665,167.95517700049095L241.8531539569376,167.95527952216798Z"><title>279 Richmond St: $217,300</title></path><path fill="#59260b" stroke="white" stroke-width="0.2" d="M241.8531086918665,167.95517700049095L241.8529649238335,167.9552565482445L240.91501215682365,168.4639531140274L240.6212936990487,167.90843739701086L241.56216483569006,167.40524888355867L241.56230859996867,167.40517313079908L241.5623538652144,167.40527565250522Z"><title>269 Richmond St: $269,800</title></path><path fill="#59260b" stroke="white" stroke-width="0.2" d="M241.23610709237983,166.7882154491963L241.23596332391025,166.78829499753192L240.29800766994595,167.29699588558287L240.3470987829205,167.38984722923487L240.1980649389152,167.65830561460461L239.31976466774358,167.1825083780859L239.02894807237317,167.67932918394217L238.8886934494367,167.60759371795575L238.32844140284578,168.55164840375073L238.3281428560731,168.55149248146336L237.92005024303216,168.31092223007L238.4707095231861,167.33710048891953L238.13354456724483,167.14124425055343L238.21587679628283,166.99564793796162L238.2159260546323,166.99554931177408L238.23934875280247,166.76965014406596L238.13673639853369,166.21624068188248L238.13672138907714,166.2161306014459L238.87429025271558,166.01987898597145L240.10627457968076,165.6920801649976L240.53607206087327,165.46457019279478L240.53621960704913,165.4644944430038L240.53626487296424,165.4645969652338Z"><title>233 Richmond St: $2,856,300</title></path><path fill="#59260b" stroke="white" stroke-width="0.2" d="M241.4823513783631,163.7939549542789L241.78171178873163,164.41937363424222L242.75837281401618,163.9110973860952L242.7587284448673,163.910911794781L242.75887599244015,163.9108360457176L242.75892124167876,163.9109537503973L243.98097076022532,166.21995669632452L243.98082321352558,166.22003244410735L243.98046758078272,166.22022182756336L243.007825887762,166.73065698539722L243.23099462597747,167.15232853527414L243.56043706159107,167.7747982846049L243.7726231039269,168.17571934661828L243.77276269817958,168.17600793973543L242.7725117619848,168.70702662176336L242.77237211848842,168.70678357337601L240.3377082447696,164.10201184812468L240.33767054093187,164.10190933343256L240.68662106717238,164.0210712691478L241.4822306453134,163.79370433173608L241.48226078230073,163.79381063391338Z"><title>222 Richmond St: $24,806,200</title></path><path fill="#59260b" stroke="white" stroke-width="0.2" d="M244.67426363847335,167.5299292737036L244.67424461481278,167.530039317091L244.63261157998932,167.7195054787153L244.20064948417712,167.9488264384563L244.20050986591377,167.9485606168746L243.98736202900182,167.5458198954293L244.5288015594997,167.25542829727056L244.52894532866776,167.25534875079757L244.52898681163788,167.25545126901125Z"><title>355 Eddy St: $106,800</title></path><path fill="#59260b" stroke="white" stroke-width="0.2" d="M244.52894532866776,167.25534875079757L244.5288015594997,167.25542829727056L243.98736202900182,167.5458198954293L243.56043706159107,167.7747982846049L243.23099462597747,167.15232853527414L244.2008503548568,166.6366278603964L244.20120976824546,166.63643848150969L244.20135353363003,166.63636273000157L244.20139879800263,166.6364652524353Z"><title>349 Eddy St: $554,900</title></path><path fill="#59260b" stroke="white" stroke-width="0.2" d="M247.2431308827945,176.75016766626504L247.22569973600912,176.7507369426894L247.20826202779426,176.7503801889834L247.19087069222587,176.749097462598L247.17356731637847,176.74689260442392L247.1564086030121,176.7437770612014L247.13943235803163,176.7397546696884L247.12269528445904,176.73483687677071L247.10624273790745,176.72903891233727L247.0901125203527,176.722368407849L247.08981019433122,176.7222238620161L247.07436509107356,176.7148595857143L247.07405900445883,176.71469605981838L247.05902311965474,176.7065276510839L247.05873216947657,176.70635275624227L247.04414707780234,176.6973954407149L247.04386371013243,176.69720157812117L247.02977475515218,176.6874819714576L247.0295027428656,176.6872767356981L247.01594014003058,176.67682523198891L247.01567571019405,176.67660102868103L247.00268479876104,176.66544803840225L247.00243928228156,176.66521626524627L246.9900540751696,176.65337700623786L246.9780706060701,176.6406577018497L246.96752361752442,176.62822459853487L246.96651924186153,176.62694832493435L246.9561965331377,176.6134034767747L246.9463587818027,176.59894451705622L246.93731936626136,176.5839854607475L246.9322778194619,176.57480702057364L246.1433240644401,175.08257196989143L246.14328636837308,175.08246566329035L247.74007790756878,174.22542604341288L247.74039950285805,174.22523663332686L247.7403918216296,174.2253466861148L247.55327031030902,176.4384010465874L247.55326262919698,176.43851109867683L247.55249664906296,176.44754659905448L247.55248518689768,176.44765664686565L247.5505570441601,176.46496438293252L247.5477101453871,176.48224075514008L247.54395977884997,176.49933397280984L247.5393135479244,176.5162060924049L247.53378662615432,176.5328115884913L247.52739041415043,176.54909734113608L247.5201476434595,176.56502162784454L247.51207349155447,176.58053512804327L247.50319824367762,176.59560371842235L247.49354463952477,176.6101780864119L247.48312784015434,176.62422409202554L247.4719932670996,176.63769624274573L247.46016364757088,176.6505566117121L247.4476730437309,176.66277487468324L247.4345668728929,176.67430933457217L247.42085650694207,176.68513343733503L247.40660247491905,176.69521688780515L247.3918350537133,176.7045331528352L247.3765996484144,176.71305192058207L247.3609340977564,176.7207466662221L247.34488757132203,176.7276022626611L247.32850546191912,176.73359978344524L247.3118256041489,176.73871649903595L247.29490094035282,176.7429448766925L247.27778064427548,176.74626599418116L247.26050630686223,176.7486798967293Z"><title>82 Point St: $2,793,500</title></path><path fill="#59260b" stroke="white" stroke-width="0.2" d="M244.20064948417712,167.9488264384563L243.77276272251038,168.17598516787984L243.7726231039269,168.17571934661828L243.56043706159107,167.7747982846049L243.98736202900182,167.5458198954293L244.20050986591377,167.9485606168746Z"><title>43 Elm St: $117,000</title></path><path fill="#59260b" stroke="white" stroke-width="0.2" d="M244.20064948417712,167.9488264384563L243.77276272251038,168.17598516787984L243.7726231039269,168.17571934661828L243.56043706159107,167.7747982846049L243.98736202900182,167.5458198954293L244.20050986591377,167.9485606168746Z"><title>43 Elm St: $86,100</title></path><path fill="#59260b" stroke="white" stroke-width="0.2" d="M244.20135353363003,166.63636273000157L244.20120976824546,166.63643848150969L244.2008503548568,166.6366278603964L243.23099462597747,167.15232853527414L243.007825887762,166.73065698539722L243.98046758078272,166.22022182756336L243.98082321352558,166.22003244410735L243.98097076022532,166.21995669632452L243.98101602471434,166.22005921881646Z"><title>337 Eddy St: $515,800</title></path><path fill="#59260b" stroke="white" stroke-width="0.2" d="M249.8603836335824,171.07317179304664L250.3660045520519,172.0285867266939L250.36614793908666,172.02885634705308L249.17797954578418,172.66657543272595L249.1778361578763,172.66630581367644L248.33060965975164,171.0654119530809L249.5187793089135,170.4276853867632Z"><title>7 Point St: $3,564,000</title></path><path fill="#59260b" stroke="white" stroke-width="0.2" d="M238.27701090520713,163.10793359630043L238.7605864214711,163.46155784180155L238.76086982089328,163.4617403189477L239.43491578561952,163.95463631759048L239.43519918408128,163.95481879508588L239.4350932824891,163.95484525043867L239.4344616502931,163.95500778150745L238.88353843282675,164.08264688032796L238.37539148997166,164.20039217249723L237.78021092916606,164.33830246451544L237.3419129869435,164.43988288971013L237.3227342684113,164.44396549079102L237.27216890873387,164.45425464049913L237.24887577013578,164.45879595246515L237.17493446203298,164.47327337868046L237.10077508783434,164.48656644596485L237.02646164601902,164.49894469144056L236.98921854197397,164.5045758143824L236.9520016941533,164.5104119189782L236.87741036419175,164.52096055366565L236.80269143273472,164.53059439515346L236.72786008694675,164.53925273404457L236.6529051209218,164.54680272148107L236.57789407341625,164.55374541477067L236.5403661405726,164.5569510711357L236.50280465991818,164.55969366489444L236.42763687158003,164.56465506265522L236.35243569104932,164.56900539499475L236.2771677976125,164.57206146395765L234.3564562246611,164.6415446510946L234.35653206019197,164.64133978117025L234.59282696217997,163.997286626196L234.59294072390185,163.99697173014283L235.1372627678793,163.8375687255466L236.10966290681972,163.2787957970868L236.24851449672133,163.37903648146312L236.24869204385323,163.37919986827183L236.2487940969877,163.37923792892252L237.07389764519758,162.22892876231344L237.0742420850438,162.22859513064031L237.0742951251741,162.22849650643184L237.30690511706052,162.39860715792747L237.3071885185782,162.3987896342005L238.27672750511556,163.1077511193871Z"><title>139 Richmond St: $2,215,400</title></path><path fill="#59260b" stroke="white" stroke-width="0.2" d="M160.35734282361227,263.01921925655915L159.64544403125183,264.31647215082194L154.18488621804863,263.3542978843034L153.7577091496496,261.17589543465874L153.7576903285517,261.175789188419Z"><title>40 Park Ln: $1,610,000</title></path><path fill="#59260b" stroke="white" stroke-width="0.2" d="M161.0479572575423,261.76075456506805L160.35734282361227,263.01921925655915L153.7576903285517,261.175789188419L153.4792998425837,259.75615003932035L153.47928102119477,259.75604379261495L153.47833255381556,259.7505151927471L153.47729686583625,259.74022502364824L153.47717594192363,259.7298862084572L153.47797728606383,259.7195746334037L153.47969327186001,259.7093813495012L153.48231250687968,259.69937843477237L153.48580846801633,259.6896531325474L153.49015842325753,259.6802775122633L153.49532451538835,259.67133122085943L153.5012651186844,259.6628787262598L153.50793103355682,259.65500346038607L153.51527309106314,259.64774712143117L153.5232421027613,259.64117796582286L153.5317548668827,259.63535663636867L153.54075088055106,259.6303172346961L153.5501582926663,259.6261052360933L153.5599052605976,259.62275473366026L153.56991618132452,259.6202732596721L153.8656171920302,259.56142303178785L153.90679013641784,259.55277660652064L153.94781245832564,259.54335609357804L153.95550607389305,259.541214377532L153.98852193643688,259.53273644080036L154.029042971757,259.5213730239193L154.0693038504687,259.5091254103463L154.1092894562462,259.495989794872L154.1489808789047,259.4819813389913L154.18835165692144,259.4671038170927L154.22727725893492,259.4510801717988L154.26607834236347,259.4347680924402L154.3043926579121,259.4173288285383L154.34231827274198,259.3990470049612L154.3797872053401,259.3798466902226L154.41692776462878,259.3600087375089L154.45357761217747,259.33926744398195L154.48976312900777,259.31772906164406L154.5254691930313,259.2953973725671L154.56068067645538,259.2722837475885L154.5953786689788,259.2484033483488L154.6295480428089,259.22376754521974L154.663169893116,259.19838391183293L154.6962328692316,259.17226761521306L154.7287218432757,259.1454300262267L154.74455467110965,259.1315442592895L154.76061412491254,259.11788630348747L154.79188324385905,259.08965160293155L154.82254053419456,259.0607335206878L154.8500478247006,259.03366458276287L154.8501197040605,259.0335811675468Z"><title>10 Park Ln: $1,306,600</title></path></g></svg>