<?xml version="1.0" encoding="utf-8"?>
<!-- Generator: Adobe Illustrator 27.0.1, SVG Export Plug-In . SVG Version: 6.00 Build 0)  -->
<svg version="1.1" id="Layer_1" xmlns="http://www.w3.org/2000/svg" xmlns:xlink="http://www.w3.org/1999/xlink" x="0px" y="0px"
	 viewBox="0 0 314.2 160.2" style="enable-background:new 0 0 314.2 160.2;" xml:space="preserve">
<path d="M124.4,28.9l0.7,0.3l0,0l0,0l-0.2,0.5l0,0l-1.1-0.4l0.2-0.5L124.4,28.9z"/>
<path d="M122.6,28.9l0.5,0.2l-0.2,0.6l-0.4,1.1l0,0l-0.5-0.2l0,0l0.4-1.1l-0.5-0.2l0.2-0.6L122.6,28.9z"/>
<path d="M122.4,24.7L122.4,24.7l-0.5,1.4l0,0l-0.5-0.2l0,0l0.5-1.4L122.4,24.7z"/>
<path d="M126.3,25.7l-0.2,0.4l0,0l-0.5-0.2l0.2-0.4l0.4-1l0,0l0.5,0.2l0,0l0,0L126.3,25.7L126.3,25.7z"/>
<path d="M120.2,24.7l-0.3,0.7l0,0l-0.7-0.3l0,0l0.2-0.7l0,0L120.2,24.7z"/>
<path d="M121.8,24.5L121.8,24.5l-0.4,1.4l0,0l-0.5-0.2l0,0l0.5-1.4L121.8,24.5z"/>
<path d="M125.8,25.5l-0.2,0.4l-0.5-0.2l-0.1,0l0.2-0.4l0.4-1l0,0l0.6,0.2l0,0L125.8,25.5z"/>
<path d="M128.8,15.6L128.8,15.6l-0.6-0.1l-0.3,0l-0.2-1.1l0,0l0.2,0l0.6-0.1v0L128.8,15.6z"/>
<path d="M129.4,15.4l-0.5,0.3l-0.2-1.3v0l0.6-0.1l0,0l0.1,0.8L129.4,15.4z"/>
<path d="M129.9,15l-0.6,0.1l-0.1-0.8l0,0l0.6-0.1l0,0L129.9,15z"/>
<path d="M130.7,13.9l-0.4,1.1l0,0l-0.4-0.1l-0.1-0.8l0,0L130.7,13.9L130.7,13.9L130.7,13.9z"/>
<path d="M123.9,20.7l-0.4,1.1l-0.6-0.2l0.4-1.1l0,0L123.9,20.7L123.9,20.7z"/>
<path d="M128.2,20.6L128.2,20.6l-0.4,1.1l-0.5-0.2l0,0l0.4-1.1L128.2,20.6L128.2,20.6z"/>
<path d="M123.3,20.5l-0.4,1.1l-0.5-0.2l0.4-1.1l0,0L123.3,20.5L123.3,20.5z"/>
<path d="M125.5,21.3l-0.4,1.1l-0.5-0.2l0.4-1.1l0,0L125.5,21.3L125.5,21.3z"/>
<path d="M128.1,19.3l-0.4,1.1l-0.5-0.2l0.4-1.1l0,0L128.1,19.3L128.1,19.3z"/>
<path d="M123.9,19l0.5,0.2l-0.4,1.1l0,0l-0.6-0.2l0,0L123.9,19L123.9,19z"/>
<path d="M127.6,19.1l-0.4,1.1l-0.5-0.2l0.4-1.1l0,0L127.6,19.1L127.6,19.1z"/>
<path d="M129.3,17.8l-0.5,1.3l-1.1-0.4l0,0l0.5-1.3l0,0L129.3,17.8L129.3,17.8L129.3,17.8z"/>
<path d="M123.2,17.5L123.2,17.5l-0.4,1.1l-0.4-0.2l-0.5-0.2l0.5-1l0,0L123.2,17.5z"/>
<path d="M127.7,18.7L127.7,18.7l-0.5-0.2l0,0l0.5-1.3l0,0l0.5,0.2l0,0L127.7,18.7z"/>
<path d="M121.8,21.2l-0.4,1.1l0,0l-0.5-0.2l0,0l0.4-1.1L121.8,21.2z"/>
<path d="M125,21.1l-0.4,1.1L124,22l0.4-1.1l0,0L125,21.1L125,21.1z"/>
<path d="M124.4,20.9L124,22l-0.5-0.2l0.4-1.1l0,0L124.4,20.9L124.4,20.9z"/>
<path d="M120,26.1l-0.4,1.1l-0.5-0.2l0.3-1.2l0,0L120,26.1L120,26.1z"/>
<path d="M119.4,25.9L119.4,25.9l-0.3,1.2l-0.3-0.1l0.3-1.2l0,0L119.4,25.9z"/>
<path d="M125.6,25.9l0.5,0.2l0,0l0,0l-0.2,0.5l0,0l-1-0.4l0.2-0.5L125.6,25.9z"/>
<path d="M127.7,20.4l-0.4,1.1l0,0l-0.5-0.2l0,0l0.4-1.1L127.7,20.4z"/>
<path d="M122.8,20.3l-0.4,1.1l-0.5-0.2l0.4-1.1l0,0L122.8,20.3L122.8,20.3z"/>
<path d="M127.2,20.2l-0.4,1.1l0,0l-0.5-0.2l0,0l0.4-1.1L127.2,20.2z"/>
<path d="M119.1,30.5l-0.2,0.4l-1-0.4l0.1-0.5l0,0L119.1,30.5z"/>
<path d="M119.7,30.3l-0.3,0.9l-0.4-0.2l0.2-0.4l0.2-0.4l0,0L119.7,30.3L119.7,30.3z"/>
<path d="M123.2,34.1L123.2,34.1l-0.4,1.1l-1.1-0.4l0,0l0.4-1.1L123.2,34.1L123.2,34.1z"/>
<path d="M123.2,34.1L123.2,34.1l-0.4,1.1l-1.1-0.4l0,0l0.4-1.1L123.2,34.1L123.2,34.1z"/>
<path d="M123.2,34.1L123.2,34.1l-0.4,1.1l-1.1-0.4l0,0l0.4-1.1L123.2,34.1L123.2,34.1z"/>
<path d="M119.2,30.1L119.2,30.1l-0.2,0.4l-1.1-0.4l0.1-0.5L119.2,30.1z"/>
<path d="M123.5,29.9l-0.4,1.1l0,0l-0.5-0.2l0,0l0.4-1.1L123.5,29.9z"/>
<path d="M124.8,29.7L124.8,29.7l-0.2,0.6l0,0l-1.1-0.4l0.1-0.3l0.1-0.3L124.8,29.7L124.8,29.7z"/>
<path d="M123.7,29.3l-0.1,0.3l0,0L123.7,29.3L123.7,29.3z"/>
<path d="M122.4,29.5l-0.4,1.1l0,0l-0.5-0.2l0,0l0.4-1.1L122.4,29.5z"/>
<path d="M123.7,29.3l-0.1,0.3l0,0l-0.1,0.3l-0.5-0.2l0.2-0.6L123.7,29.3z"/>
<path d="M123.4,33.5L123.4,33.5l-0.2,0.5l0,0l-1.1-0.4l0.2-0.6L123.4,33.5L123.4,33.5z"/>
<path d="M121.8,32.9l0.5,0.2l-0.2,0.6l-0.4,1.1l0,0l-0.6-0.2l0,0L121.8,32.9L121.8,32.9z"/>
<path d="M121.2,32.7l0.4,0.2l-0.6,1.6l0,0l-0.5-0.2l0,0L121.2,32.7L121.2,32.7z"/>
<path d="M121.2,32.7l-0.6,1.6l0,0l-0.5-0.2l0,0l0.5-1.5l0.1-0.2L121.2,32.7z"/>
<path d="M120.6,32.7l-0.5,1.5l0,0l-0.5-0.2l0,0l0.5-1.5L120.6,32.7z"/>
<path d="M123.1,32.7l0.5,0.2l0,0l0,0l-0.2,0.6l0,0l-1.1-0.4l0.2-0.7L123.1,32.7z"/>
<path d="M118.2,32.6l-0.3,0.7l0,0L117,33l0.3-0.7l0,0L118.2,32.6z"/>
<path d="M118.2,32.6l-0.3,0.7l0,0L117,33l0.3-0.7l0,0L118.2,32.6z"/>
<path d="M118.2,32.6l-0.3,0.7l0,0L117,33l0.3-0.7l0,0L118.2,32.6z"/>
<path d="M118.2,32.6l-0.3,0.7l0,0L117,33l0.3-0.7l0,0L118.2,32.6z"/>
<path d="M118.2,32.6l-0.3,0.7l0,0L117,33l0.3-0.7l0,0L118.2,32.6z"/>
<path d="M118.2,32.6l-0.3,0.7l0,0L117,33l0.3-0.7l0,0L118.2,32.6z"/>
<path d="M118.2,32.6l-0.3,0.7l0,0L117,33l0.3-0.7l0,0L118.2,32.6z"/>
<path d="M118.2,32.6l-0.3,0.7l0,0L117,33l0.3-0.7l0,0L118.2,32.6z"/>
<path d="M118.9,32.2l-0.5,1.3l0,0l-0.5-0.2l0,0l0.3-0.7l0.2-0.4l0.1-0.2L118.9,32.2z"/>
<path d="M118.3,32.2l-0.2,0.4l-0.9-0.3l0.2-0.4l0,0L118.3,32.2z"/>
<path d="M124,31.9l-0.4,1l0,0l-0.5-0.2l0.3-1l0,0L124,31.9L124,31.9z"/>
<path d="M123.5,31.7l-0.3,1l-0.6-0.2l0.3-1l0,0L123.5,31.7L123.5,31.7z"/>
<path d="M119,32l-0.1,0.3l-0.6-0.2l-0.1,0.2l-0.9-0.3l0.2-0.4l0,0L119,32z"/>
<path d="M119.8,31.5l1.1,0.4l-0.2,0.5l-0.1,0.2l-0.5-0.2l-0.5,1.5l0,0l-1.1-0.4l0,0l0.5-1.3L119,32l0.2-0.4l0.1-0.2L119.8,31.5z"/>
<path d="M119.8,31.5l1.1,0.4l-0.2,0.5l-0.1,0.2l-0.5-0.2l-0.5,1.5l0,0l-1.1-0.4l0,0l0.5-1.3L119,32l0.2-0.4l0.1-0.2L119.8,31.5z"/>
<path d="M119.8,31.5l1.1,0.4l-0.2,0.5l-0.1,0.2l-0.5-0.2l-0.5,1.5l0,0l-1.1-0.4l0,0l0.5-1.3L119,32l0.2-0.4l0.1-0.2L119.8,31.5z"/>
<path d="M119.8,31.5l1.1,0.4l-0.2,0.5l-0.1,0.2l-0.5-0.2l-0.5,1.5l0,0l-1.1-0.4l0,0l0.5-1.3L119,32l0.2-0.4l0.1-0.2L119.8,31.5z"/>
<path d="M119.8,31.5l1.1,0.4l-0.2,0.5l-0.1,0.2l-0.5-0.2l-0.5,1.5l0,0l-1.1-0.4l0,0l0.5-1.3L119,32l0.2-0.4l0.1-0.2L119.8,31.5z"/>
<path d="M119.8,31.5l1.1,0.4l-0.2,0.5l-0.1,0.2l-0.5-0.2l-0.5,1.5l0,0l-1.1-0.4l0,0l0.5-1.3L119,32l0.2-0.4l0.1-0.2L119.8,31.5z"/>
<path d="M119.8,31.5l1.1,0.4l-0.2,0.5l-0.1,0.2l-0.5-0.2l-0.5,1.5l0,0l-1.1-0.4l0,0l0.5-1.3L119,32l0.2-0.4l0.1-0.2L119.8,31.5z"/>
<path d="M119.8,31.5l1.1,0.4l-0.2,0.5l-0.1,0.2l-0.5-0.2l-0.5,1.5l0,0l-1.1-0.4l0,0l0.5-1.3L119,32l0.2-0.4l0.1-0.2L119.8,31.5z"/>
<path d="M122.5,32.4l-0.2,0.7l-0.5-0.2l0.6-1.6l0,0l0.5,0.2l0,0L122.5,32.4z"/>
<path d="M122.3,31.3l-0.6,1.6l-0.1,0l-0.4-0.2l0.6-1.6l0,0L122.3,31.3L122.3,31.3z"/>
<path d="M119.2,31.5L119,32l-1.4-0.5l0.2-0.4l0,0L119.2,31.5z"/>
<path d="M119.7,28.4l-0.4,1.1l0,0l-0.5-0.2l0,0l0.3-0.9L119.7,28.4z"/>
<path d="M119.1,28.4l-0.3,0.9l0,0l-0.5-0.2l0.2-0.8l0,0L119.1,28.4z"/>
<path d="M123.4,18.8l-0.4,1.1l0,0l-0.5-0.2l0,0l0.4-1.1L123.4,18.8z"/>
<path d="M126.5,18.7l-0.4,1.1l-0.5-0.2l0.4-1.1l0,0L126.5,18.7L126.5,18.7z"/>
<path d="M119.9,28l-0.2,0.4l-0.6,0l-0.7,0l0.2-0.8l0,0L119.9,28z"/>
<path d="M123.9,28.8l-0.2,0.5l0,0l-0.5-0.2l0.6-1.6l0,0l0.5,0.2l0,0L123.9,28.8z"/>
<path d="M123.8,27.5l-0.6,1.6l-0.5-0.2l0.6-1.6l0,0L123.8,27.5L123.8,27.5z"/>
<path d="M123.2,27.3l-0.6,1.6l-0.5-0.2l0.1-0.2l0.1-0.4l0.4-1.1l0,0L123.2,27.3L123.2,27.3z"/>
<path d="M119.1,27.1l0.5,0.2l0.5,0.2l-0.2,0.6l0,0l-1.3-0.4l0.2-0.6l0,0L119.1,27.1z"/>
<path d="M122.7,27.1l-0.4,1.1l-0.5-0.2l0.4-1.1l0,0L122.7,27.1L122.7,27.1z"/>
<path d="M122.2,26.9l-0.4,1.1l-0.5-0.2l0.4-1.1l0,0L122.2,26.9L122.2,26.9z"/>
<path d="M124.5,25.5l-0.5,1.4l0,0l-0.6-0.2l0,0l0.5-1.4L124.5,25.5z"/>
<path d="M124,25.3l-0.5,1.4l0,0l-0.5-0.2l0,0l0.5-1.4L124,25.3z"/>
<path d="M123.4,25.1l-0.5,1.4l0,0l-0.5-0.2l0,0l0.5-1.4L123.4,25.1z"/>
<path d="M122.9,24.9l-0.5,1.4l0,0l-0.5-0.2l0,0l0.5-1.4L122.9,24.9z"/>
<path d="M121.3,24.3l0.1,0.1l-0.5,1.4l0,0l-0.5-0.2l0,0l0.5-1.4L121.3,24.3z"/>
<path d="M125.2,25.3l-0.2,0.4l-0.5-0.2l0.2-0.4l0.4-1l0,0l0.5,0.2l0,0L125.2,25.3z"/>
<path d="M120.3,24.3l-0.1,0.4l-0.8-0.3l0.1-0.4l0,0L120.3,24.3z"/>
<path d="M120.8,24.1l0.2,0.1l-0.5,1.4l0,0l-0.5-0.2l0,0l0.3-0.7l0.1-0.4l0.1-0.3L120.8,24.1z"/>
<path d="M124.7,25.1l-0.2,0.4l-0.6-0.2l0.2-0.4l0.4-1l0,0l0.6,0.2l0,0L124.7,25.1z"/>
<path d="M124.1,24.9l-0.2,0.4l-0.5-0.2l0.2-0.4l0.4-1l0,0l0.5,0.2l0,0L124.1,24.9z"/>
<path d="M120.2,23.9l0.2,0.1l-0.1,0.3l-0.8-0.3l0.1-0.4l0,0L120.2,23.9z"/>
<path d="M123.6,24.7l-0.2,0.4l-0.5-0.2l0.2-0.4l0.4-1l0,0l0.5,0.2l0,0L123.6,24.7z"/>
<path d="M123.1,24.5l-0.2,0.4l-0.5-0.2l0,0l0.2-0.4l0.4-1l0,0l0.5,0.2l0,0L123.1,24.5z"/>
<path d="M120.4,23.5l-0.2,0.4l-0.6-0.2l0.1-0.4l0,0L120.4,23.5z"/>
<path d="M122.5,24.3l-0.2,0.4l-0.4-0.2l-0.1,0l0.2-0.4l0.4-1l0,0l0.5,0.2l0,0L122.5,24.3z"/>
<path d="M127.2,23.2L127.2,23.2l-0.3,0.8l-0.1,0.3l-0.5-0.2l0,0l0.4-1.1L127.2,23.2L127.2,23.2z"/>
<path d="M122,24.1l-0.2,0.4l-0.4-0.2l-0.1-0.1l0.2-0.4l0.4-1l0,0l0.5,0.2l0,0L122,24.1z"/>
<path d="M122.8,18.6L122.8,18.6l-0.3,1.1l0,0l-0.5-0.2l0,0l0.4-1.1L122.8,18.6z"/>
<path d="M124.8,18.1l-0.4,1.1l-0.5-0.2l0.4-1.1l0,0L124.8,18.1L124.8,18.1z"/>
<path d="M124.3,17.9l-0.4,1.1l0,0l-0.5-0.2l0.4-1.1l0,0L124.3,17.9L124.3,17.9z"/>
<path d="M123.7,17.7l-0.4,1.1l-0.5-0.2l0,0l0.4-1.1l0,0L123.7,17.7L123.7,17.7z"/>
<path d="M126.7,23l-0.4,1.1l0,0l-0.5-0.2l0,0l0.4-1.1L126.7,23z"/>
<path d="M120.9,23.7l-0.2,0.4l-0.3-0.1l-0.2-0.1l0.2-0.4l0.4-1l0,0l0.6,0.2l0,0L120.9,23.7z"/>
<path d="M125.7,22.6l-0.4,1.1l0,0l-0.6-0.2l0,0l0.4-1.1L125.7,22.6z"/>
<path d="M120.7,22.5L120.7,22.5l-0.4,1l-0.7-0.2l0.2-1v0L120.7,22.5z"/>
<path d="M125.1,22.4l-0.4,1.1l0,0l-0.5-0.2l0,0l0.4-1.1L125.1,22.4z"/>
<path d="M124.6,22.2l-0.4,1.1l0,0l-0.5-0.2l0,0L124,22L124.6,22.2z"/>
<path d="M127.6,22.1l-0.4,1.1l0,0l-0.5-0.2l0.4-1.1l0,0L127.6,22.1L127.6,22.1L127.6,22.1z"/>
<path d="M124,22l-0.4,1.1l0,0l-0.5-0.2l0,0l0.4-1.1L124,22z"/>
<path d="M127.1,21.9l-0.4,1.1l-0.5-0.2l0.4-1.1l0,0L127.1,21.9L127.1,21.9z"/>
<path d="M123.5,21.8l-0.4,1.1l0,0l-0.6-0.2l0,0l0.4-1.1L123.5,21.8z"/>
<path d="M126.6,21.7l-0.4,1.1l-0.5-0.2l0.4-1.1l0,0L126.6,21.7L126.6,21.7z"/>
<path d="M122.9,21.6l-0.4,1.1l0,0l-0.5-0.2l0,0l0.4-1.1L122.9,21.6z"/>
<path d="M126.1,21.5l-0.4,1.1l-0.6-0.2l0.4-1.1l0,0L126.1,21.5L126.1,21.5z"/>
<path d="M122.4,21.4l-0.4,1.1l0,0l-0.5-0.2l0,0l0.4-1.1L122.4,21.4z"/>
<path d="M122.2,20.1l-0.4,1.1l-0.5-0.2l0.4-1.1l0,0L122.2,20.1L122.2,20.1z"/>
<path d="M126.6,20l-0.4,1.1l0,0l-0.6-0.2l0,0l0.4-1.1L126.6,20z"/>
<path d="M121.7,19.9L121.7,19.9l-0.4,1.1l-0.4,1.1l0,0l-0.8-0.3l0,0l1.1-2.1l0,0L121.7,19.9z"/>
<path d="M126.1,19.8l-0.4,1.1l0,0l-0.5-0.2l0,0l0.4-1.1L126.1,19.8z"/>
<path d="M124.9,16.4l-0.4,1.1l0,0l-0.5-0.2l0,0l0.3-0.8l0.1-0.1l0.2,0.1l0.1-0.2L124.9,16.4z"/>
<path d="M129.7,16.7L129.7,16.7l-0.2,0.6l-1.1-0.4l0,0l0.2-0.6L129.7,16.7L129.7,16.7z"/>
<path d="M125,17.7L125,17.7l-0.5-0.2l0,0l0.4-1.1l0.1-0.2l0,0l0.5,0.2l0,0L125,17.7z"/>
<path d="M124.9,16.2l-0.1,0.2l-0.3-0.1l0.1-0.2l0,0L124.9,16.2L124.9,16.2z"/>
<path d="M123.7,16.2l-0.3,0.9l0,0l-0.7-0.2l0,0l0.4-0.8l0,0L123.7,16.2z"/>
<path d="M124.6,16.3l-0.1,0.2l-0.2-0.1l-0.1,0.1l-0.3,0.8l0,0l-0.6-0.2l0,0l0.3-0.9l0.6,0.2l0.2-0.4l0,0l0.3,0.1l0,0L124.6,16.3z"/>
<path d="M129.9,16.1L129.9,16.1l-0.2,0.5l0,0l-1.1-0.4l0.2-0.5L129.9,16.1L129.9,16.1z"/>
<path d="M128.8,15.6L128.8,15.6l-0.2,0.6l-0.2,0.6l0,0l-0.5-0.2l0,0l0.4-1.1L128.8,15.6z"/>
<path d="M124.4,16L124.4,16l-0.2,0.4l-0.6-0.2l-0.6-0.2l0.2-0.4l0,0L124.4,16z"/>
<path d="M128,15.5l0.3,0l-0.4,1.1l0,0l-0.5-0.2l0,0l0.3-0.9L128,15.5z"/>
<path d="M127.7,15.5l-0.3,0.9l0,0l-0.6-0.2l0,0l0.3-0.8L127.7,15.5z"/>
<path d="M130.1,15.6L130.1,15.6l-0.2,0.5l0,0l-1.1-0.4l0-0.1l0,0l0.5-0.3L130.1,15.6L130.1,15.6z"/>
<path d="M125.1,15.6L125.1,15.6l-0.9-0.3l0,0l0.1-0.2l0,0l0.9-0.2v0l0,0.3L125.1,15.6z"/>
<path d="M130.3,15.1L130.3,15.1l-0.2,0.6l0,0l-0.7-0.2l-0.1-0.3l0.6-0.1L130.3,15.1L130.3,15.1z"/>
<path d="M126.2,16L126.2,16l-0.5-0.2l0,0l0.2-0.5l-0.1-0.5v0l0.6-0.1v0l0.1,0.6L126.2,16z"/>
<path d="M126.8,16.2L126.8,16.2l-0.5-0.2l0,0l0.2-0.6l-0.1-0.6v0l0.6-0.1v0l0.1,0.8L126.8,16.2z"/>
<path d="M127.8,14.5l0.2,1.1l-0.3,0l-0.6-0.1l-0.1-0.8v0L127.8,14.5L127.8,14.5z"/>
<path d="M118.9,31l0.4,0.2l-0.1,0.2l-0.1,0.2l-1.4-0.5l0.1-0.2l0,0l0-0.2l0,0L118.9,31z"/>
<path d="M121.3,30.9l-0.4,1.1l-1.1-0.4l0.4-1.1l0,0L121.3,30.9L121.3,30.9z"/>
<path d="M120.2,30.5l-0.4,1.1l-0.5-0.2l0.1-0.2l0.3-0.9l0,0L120.2,30.5L120.2,30.5z"/>
<path d="M124.6,30.3L124.6,30.3l-0.4,1.1l-1.1-0.4l0,0l0.4-1.1L124.6,30.3L124.6,30.3z"/>
<path d="M120.9,28.5L120.9,28.5l-0.5,1.5l0,0l-0.5-0.2l0,0l0.5-1.3L120.9,28.5z"/>
<path d="M120.4,28.4l-0.5,1.3l0,0l-0.6-0.2l0,0l0.4-1.1L120.4,28.4z"/>
<path d="M126.6,18.3L126.6,18.3l-0.5-0.2l0,0l0.5-1.3l0,0l0.5,0.2l0,0L126.6,18.3z"/>
<path d="M125.4,28.1l-0.4,1.1l0,0l-0.7-0.3l0.4-1.1l0,0L125.4,28.1L125.4,28.1L125.4,28.1z"/>
<path d="M124.8,27.9l-0.4,1.1l-0.4-0.2l0.4-1.1l0,0L124.8,27.9L124.8,27.9z"/>
<path d="M123.8,19l-0.4,1.1l0,0l-0.5-0.2l0,0l0.4-1.1L123.8,19z"/>
<path d="M127,18.9l-0.4,1.1l-0.6-0.2l0.4-1.1l0,0L127,18.9L127,18.9z"/>
<path d="M120.7,27.6l-0.2,0.6l-0.5-0.2l0.2-0.6l0.4-1.1l0,0l0.5,0.2l0,0L120.7,27.6z"/>
<path d="M126,26.7L126,26.7l-0.3,0.8l-1-0.4l0,0l0.3-0.8L126,26.7L126,26.7z"/>
<path d="M120.5,26.3l-0.4,1.1l-0.5-0.2l0.4-1.1l0,0L120.5,26.3L120.5,26.3z"/>
<path d="M125.9,18.5l-0.4,1.1l-0.6-0.2l0.4-1.1l0,0L125.9,18.5L125.9,18.5z"/>
<path d="M122.4,18.4l-0.4,1.1l0,0l-0.6-0.2l0,0l0.5-1l0,0L122.4,18.4z"/>
<path d="M125.4,18.3l-0.4,1.1l-0.5-0.2l0.4-1.1l0,0L125.4,18.3L125.4,18.3z"/>
<path d="M125.4,18.3l-0.4,1.1l-0.5-0.2l0.4-1.1l0,0L125.4,18.3L125.4,18.3z"/>
<path d="M121.5,23.9l-0.2,0.4l-0.3-0.1l-0.2-0.1l0.2-0.4l0.4-1l0,0l0.5,0.2l0,0L121.5,23.9z"/>
<path d="M126.2,22.8l-0.4,1.1l0,0l-0.5-0.2l0,0l0.4-1.1L126.2,22.8z"/>
<path d="M125.5,19.6l-0.4,1.1l0,0l-0.5-0.2l0,0l0.4-1.1L125.5,19.6z"/>
<path d="M128.6,19.5l-0.4,1.1l0,0l-0.5-0.2l0.4-1.1l0,0L128.6,19.5L128.6,19.5L128.6,19.5z"/>
<path d="M125,19.4l-0.4,1.1l0,0l-0.5-0.2l0,0l0.4-1.1L125,19.4z"/>
<path d="M126.1,18.1L126.1,18.1l-0.5-0.2l0,0l0.5-1.3l0,0l0.6,0.2l0,0L126.1,18.1z"/>
<path d="M125.5,17.9L125.5,17.9l-0.5-0.2l0,0l0.5-1.3l0,0l0.5,0.2l0,0L125.5,17.9z"/>
<path d="M125.5,17.9L125.5,17.9l-0.5-0.2l0,0l0.5-1.3l0,0l0.5,0.2l0,0L125.5,17.9z"/>
<path d="M121.8,31.1l-0.6,1.6l-0.1,0l-0.5-0.2l0.2-0.5l0.4-1.1l0,0L121.8,31.1L121.8,31.1z"/>
<path d="M127.2,18.5L127.2,18.5l-0.5-0.2l0,0l0.5-1.3l0,0l0.6,0.2l0,0L127.2,18.5z"/>
<path d="M125.1,25.7L125.1,25.7l-0.1,0.6l-0.3,0.8l0,0l0,0l0,0l-0.6-0.2l0,0l0.5-1.4L125.1,25.7z"/>
<path d="M125.7,15.8L125.7,15.8l-0.5-0.2l0,0l0.1-0.3l0-0.3v0l0.1,0l0.1,0l0.4-0.1v0l0.1,0.5L125.7,15.8z"/>
<path d="M121.7,26.7l-0.4,1.1l-0.2-0.1l-0.5-0.2l0.4-1.1l0,0l0.5,0.2L121.7,26.7L121.7,26.7z"/>
<path d="M121.3,27.8l0.5,0.2l0.5,0.2l-0.1,0.4l-0.1,0.2l-0.2,0.6l-0.4,1.1l0,0l-1.1-0.4l0,0l0.5-1.4l-0.1,0l-0.5,0l-0.6,0l0.2-0.4
	l0,0l0.5,0.2l0.2-0.6l0.5,0.2L121.3,27.8z"/>
<path d="M95.5,104.6L95.5,104.6l-1,1l0,0l-1.6-1.6l1-1l0,0L95.5,104.6L95.5,104.6z"/>
<path d="M131,86.8l-3.9,0.4l0,0l-0.3-3.1v0l2.7-0.3l0,0l0,0L131,86.8z"/>
<path d="M148.1,28.2l0.5,8.1l-5.3,0.4L140,37l-0.7,0.1l0,0l0.2-0.7l0.3-0.8l0-0.2l0-0.7l0-0.7l0-0.7l0-0.7l0-0.7l0.4,0l0.2-0.5
	l0.2-0.5l0.2-0.5l0.2-0.5l0.8,0.3l0.4,0.1l1.4,0.5l0.1-0.5l0.1-0.5l0.1-0.8l0.1-0.6l0.1-0.5l0.2-1.2l0,0L148.1,28.2L148.1,28.2
	L148.1,28.2z"/>
<path d="M124.2,96.1l1.6-0.3l0.2,1.9l-1.6,0.2L124.2,96.1z"/>
<path d="M132.3,96.8l1.8-0.3l-0.1,1.6l-1.8,0.3L132.3,96.8z"/>
</svg>
