<?xml version="1.0" encoding="utf-8"?>
<!-- Generator: Adobe Illustrator 25.3.1, SVG Export Plug-In . SVG Version: 6.00 Build 0)  -->
<svg version="1.1" id="Layer_1" xmlns="http://www.w3.org/2000/svg" xmlns:xlink="http://www.w3.org/1999/xlink" x="0px" y="0px"
	 viewBox="0 0 1200 139.1" style="enable-background:new 0 0 1200 139.1;" xml:space="preserve">
<style type="text/css">
	.st0{fill:none;stroke:#8B0000;stroke-width:0.1;}
</style>
<g>
	<path class="st0" d="M616.1,109.4c1.8,0,3.7,0.1,5.5,0.5"/>
	<path class="st0" d="M751.9,69.9c0.7-0.8,3.2-2.7,4.1-3.4"/>
	<path class="st0" d="M743,83.3c2.2-0.1,4.7-0.4,6.9-0.5"/>
	<path class="st0" d="M743.5,89.7c-0.7-5-0.5-10.4,0.1-15.3"/>
	<path class="st0" d="M748.4,105.5c2.7,0.1,6.8-1.1,9.6-1.5"/>
	<path class="st0" d="M743.3,77.8c1.3-0.1,4-0.3,5.4-0.4"/>
	<path class="st0" d="M746.1,77.6c-0.1-0.5-0.3-2.9-0.4-3.3"/>
	<path class="st0" d="M755.5,10c-0.6-2.4,0.4-5.5,0.5-8c0.1-2.3,0.1-4.7,1.9-6.4c8.1-6.1,16.9-11.4,25.2-17.1"/>
	<path class="st0" d="M746.8,95.5c-0.1-1.9-0.4-4.5-0.6-6.4"/>
	<path class="st0" d="M750.3,105.5c-0.1-2.6-0.4-5.6-0.6-8.1"/>
	<path class="st0" d="M754.5,10.7c7.1-5.2,15.4-9.1,21.8-15.1"/>
	<path class="st0" d="M738,90.8c-0.2-2.5-0.7-5.3-0.7-7.8"/>
	<path class="st0" d="M735.4,91.5c-0.3-1.1-0.4-2.6-0.2-3.7"/>
	<path class="st0" d="M756.7,55.8c2.2,2,4.8,4.1,7.1,6"/>
	<path class="st0" d="M743.8,93.4l-0.3-3.7"/>
	<path class="st0" d="M770.3,120.8c-8.8-6.1-12-15.4-15.3-25.1c-3.1-5.5-5.1-11.5-6.3-17.7c-0.3-3.8-0.1-8.2-1.9-11.7"/>
	<path class="st0" d="M735.8,82.6c2.2,0.6,5,0.9,7.2,1.2"/>
	<path class="st0" d="M740.7,90.2c-0.2-2.1-0.6-4.7-0.7-6.8"/>
	<path class="st0" d="M747.9,65.4c3.8,4,7.2,8.5,11.3,12.3c1.5,2.2,2.2,5.2,4.2,7.1c4.2,2.4,9.5,2.9,13.9,4.9c3,1.4,6.2,0,9.2-0.1"
		/>
	<path class="st0" d="M747.9,65.4c1.6-1.5,4.3-1.2,6-2.3c4.1-4,6.8-9.4,11.6-12.7c2.7-1.7,6.3-2.1,9.2-3.2c3.6-1.6,7.2-3.2,11.2-3.1
		"/>
	<path class="st0" d="M748.6,97.5c2-0.2,4.8-0.4,6.9-0.6"/>
	<path class="st0" d="M733.5,92c7.2-1.9,14.6-3.4,21.9-4.8"/>
	<path class="st0" d="M753.1,105c-0.3-3-0.6-6.3-0.8-9.3c0.1-1.4-1.1-4.2,0.1-5.3"/>
	<path class="st0" d="M743.2,80.6c1.8-0.1,4.2-0.3,6-0.5"/>
	<path class="st0" d="M752.8,102.2l4.2-0.8"/>
	<path class="st0" d="M749.7,97.4c-0.2-2.8-0.5-6.1-0.8-8.9"/>
	<path class="st0" d="M743.6,74.4c1.4-0.3,3.6-0.1,5-0.2"/>
	<path class="st0" d="M696.8,55.2c0.7-1.1,2.2-3.3,2.9-4.4"/>
	<path class="st0" d="M474.5,91.9c-5.2,1.7-10.5,3.6-15.7,5"/>
	<path class="st0" d="M659.4,67.4c-1.7,0.5-3.9,0.6-5.7,0.8"/>
	<path class="st0" d="M601.4,107.1c-2.9,0.2-6.1,1.1-8.8,2.1"/>
	<path class="st0" d="M469.2,85.4c14.8-4.6,9.2,1.1,16.9,1.1"/>
	<path class="st0" d="M728.1,101.3c-2.1,1.3-5.5,3.9-4.6,6.7"/>
	<path class="st0" d="M641.9,67c2.4,0.4,5.8,1.9,4.9,4.9"/>
	<path class="st0" d="M502.6,78.3c-2.7,0.4-5.3,1.3-8,1.8"/>
	<path class="st0" d="M455.7,95.2c-5.7,11.9-9.6,24.9-12.9,37.7"/>
	<path class="st0" d="M509,77c-1.1,2.7-1.9,5.8-2.8,8.6"/>
	<path class="st0" d="M487.1,82.9c0.5,2.4-0.8,4-3.3,3c-3.4-3.2,2.6-4.9,5.1-4.9"/>
	<path class="st0" d="M507.4,7c1,2.4,1.3,5.7,1.7,8.2"/>
	<path class="st0" d="M531.7-6c0.7,3.9,1.1,8.2,1.7,12.1"/>
	<path class="st0" d="M505.4,99.9c-0.2-4,1.5-8,2.7-11.7"/>
	<path class="st0" d="M526,103.7c0.3,0.5,0.8,1.4,1.3,0.5c0-0.5-0.6-1.1-0.8-1.5"/>
	<path class="st0" d="M662.2,126c-5.1-1.3-10.4-3.7-15.4-5.3"/>
	<path class="st0" d="M675.4,131.1c-2.7-1.3-6.2-2.2-8.9-3.3"/>
	<path class="st0" d="M537.5,0.9c1.6,1.6-0.2,3.6-2,2.4c-1.5-2-0.9-5.2-1.4-7.6"/>
	<path class="st0" d="M534.3,11c0.2-2.6,0.8-5.4,3.1-7"/>
	<path class="st0" d="M531.8,39.7c-0.1-1.1-0.5-2.2-0.6-3.3"/>
	<path class="st0" d="M648.2,68.4c1.4,0.8,3.1,1.9,4.5,2.7"/>
	<path class="st0" d="M527.5,34.1c-2.2-2.5,4.2-3.4,5.9-11"/>
	<path class="st0" d="M508.8,85.6c0.8-3,6.7-4.6,3.1-8.2"/>
	<path class="st0" d="M530.1,37.6c0.8,0.7,1.2,1.8,1.5,2.8"/>
	<path class="st0" d="M622.4,111.8c0.9,0.6,1.9,1.5,1.8,2.7"/>
	<path class="st0" d="M490.7,80.9c2.3-0.2,5.2-0.5,7.5-0.8"/>
	<path class="st0" d="M608.6,108.5c-2.1-0.3-4.7-1-4.8-3.6"/>
	<path class="st0" d="M505,36.6c3-7.4,8.1-15.3,13-3.7"/>
	<path class="st0" d="M665.7,129.2c2.2,1.6,10.2,2.1,8.5,5.8"/>
	<path class="st0" d="M700.8,119c0.3-1.7,3.8-5.1,1-5.6"/>
	<path class="st0" d="M662.4,71.4c1.7-1.7,1.7-5.4,3.8-6.7"/>
	<path class="st0" d="M712.1,125.6c1.4-3.3,4.7-5.1,0-6.8"/>
	<path class="st0" d="M452.3,96.2c-1.3,2.7-5,6.4-4.4,9.6"/>
	<path class="st0" d="M662.7,67.8c0.6,3-3,4.2-5.4,4.1"/>
	<path class="st0" d="M512.1,11.8c-2.4,0.7-3.4-4.7-4.7-6.2"/>
	<path class="st0" d="M533.5,20.6c-1.1,3.7-3.2,6.9-6.7,8.7c-0.8,0.5-2.1,1.9-3.1,0.9"/>
	<path class="st0" d="M511.2,59.2c-3.7-0.2-6.5-3.3-9.9-4.6"/>
	<path class="st0" d="M569.8,22.2c1.6-0.2,4.5,0,6.1,0"/>
	<path class="st0" d="M660,60.8c-0.5-0.2-4-2-4.6-2.3"/>
	<path class="st0" d="M630.2,108.4c1.9,1.8,5.8,2.9,8,4.3"/>
	<path class="st0" d="M500,57.1c-3-1.9-7.4,0.8-10.7,1"/>
	<path class="st0" d="M477.4,2.3c-0.5-2.2-1.7-5.3-2.4-7.4"/>
	<path class="st0" d="M676.9,76.9c2.4-0.5,2.9-3.2,3.7-5.1"/>
	<path class="st0" d="M616.3,30.6c1-0.2,3.1-0.6,4.1-0.8"/>
	<path class="st0" d="M451.9,72c-0.4-0.8-1.1-2.1-1.5-2.9"/>
	<path class="st0" d="M515.9,42.6c2.2-3.6-2.3,0.4-1.2-7"/>
	<path class="st0" d="M567.8,15.1l1.4-3.8"/>
	<path class="st0" d="M684.8,101.5c0.4-1,1.2-3,1.7-4"/>
	<path class="st0" d="M563.9-1.8c1.6,0.6,5.3,2,7,2.6"/>
	<path class="st0" d="M537.6,109.6c0.4,1.2,0.6,2.6-0.4,3.6"/>
	<path class="st0" d="M500.7,5c-4.6-6.1-9.5-13-14-19"/>
	<path class="st0" d="M572.8,22.2c0.8-2.1,2.3-6.3,3.1-8.4"/>
	<path class="st0" d="M690.5,55c-1-0.8-2.5-1.1-3.7-1.3c-1.4-0.8-3.9-1.3-4.9-2.5c-0.4-0.6-0.2-1.5,0.3-2c4.3-4,5.6,1.1,6.1,4.7"/>
	<path class="st0" d="M730.7,39.7c1.6-0.2,5.1-1.2,6.6-1c3.2,3.3,7,6.6,10.3,9.8"/>
	<path class="st0" d="M663.7,123.7c2.4,0.8,5.5,1.8,7.9,2.7"/>
	<path class="st0" d="M676.4,128.4c0.4-0.6,2.8,0.6,3.3,0.7"/>
	<path class="st0" d="M520.1,110.2c1.1,0.8,2.9,2,4,2.8"/>
	<path class="st0" d="M559.6,12c2.1-6.1,3.1-12.7,6.7-18.3"/>
	<path class="st0" d="M694.4,116.4c-1.7,5.4-4,12-5.9,17.3"/>
	<path class="st0" d="M498.4,32.9c1.5-2.4,2.9-5.1,4.1-7.7"/>
	<path class="st0" d="M739.9,63.4c-2.3,1.4-5.4,3.4-6,6.2c-1.5,1.7-1.6,4.1-2.7,5.9c0.4,1.4,1.5,0,0.7-0.9"/>
	<path class="st0" d="M733.8,69.6c0.8,2.4,1.5,3.6,4.2,2.6c0.9-2.6,0.9-6,1.8-8.8"/>
	<path class="st0" d="M540.9,14.6l-1.3-5.1"/>
	<path class="st0" d="M665.8,115.2c-0.9,3.4-1.8,7.1-2.7,10.6"/>
	<path class="st0" d="M667.4,105.1c2,1.5-2,7.9-1.5,10.1"/>
	<path class="st0" d="M602.5,0.7h3.7"/>
	<path class="st0" d="M612.3,116.4c5.5-3.5,6.6-6.9,9.4-12.4"/>
	<path class="st0" d="M482.7,38.3c0.1,1.1,0.1,3.5,0.1,4.6"/>
	<path class="st0" d="M542.6,133.2c1.5,1.3,3.1,3.1,3.9,4.9"/>
	<path class="st0" d="M632.8,93.3c1.8,0.7,4,1.7,5.8,2.6"/>
	<path class="st0" d="M518.9,18.5c-1.1-0.4-1.5,2.4-2,3"/>
	<path class="st0" d="M673.3,91.4c2.2,1,5.4,2.5,7.6,3.5"/>
	<path class="st0" d="M446.6,61.8c2.9-1.6,6.1-3.4,9-5"/>
	<path class="st0" d="M491.3,40.1c-1-3.5-2.3-8.8-3.4-12.2"/>
	<path class="st0" d="M488.9,40.9c-1.8-6.8-3.8-13.7-5.8-20.4"/>
	<path class="st0" d="M551.5,39.5c-0.7-2.5,1.5-3.1,3-4.4c0.4-1.9,0.6-7,0.8-9"/>
	<path class="st0" d="M730.5,140c4.7-3.7,10.9-13.1,16.2-14.4"/>
	<path class="st0" d="M509.3,38.9c-4.3,1.3-10.3,2.5-14.7,3.7"/>
	<path class="st0" d="M692.8,11.3c3.9-3.8,8.1-7.9,12-11.7"/>
	<path class="st0" d="M654.4,89.7c4.6,3.7,9.9,7.7,14.7,11.1"/>
	<path class="st0" d="M688.1,100.7c2.3-5.9,5.4-11.9,8-17.7"/>
	<path class="st0" d="M731.1,15.3c0.4,1.8,0.8,4.3,1.1,6.1"/>
	<path class="st0" d="M584,4.1c1.7,0.7,6,2.3,7.8,2.9"/>
	<path class="st0" d="M511.7,126.1c-0.5,0.7-1.5,2.1-2,2.7"/>
	<path class="st0" d="M692.8,50.7c0.2,2.2,2.3,3.5,4,4.5c2.2,1.3,4.2,3,6,4.8c5.8,6.8,8.7,4.2,15.4,7.4"/>
	<path class="st0" d="M466.3,94.7c1.3,4.3,2.9,9,4.2,13.4"/>
	<path class="st0" d="M472.8,119.3c-0.5-2.6-0.7-5.9-1.4-8.4"/>
	<path class="st0" d="M668.7,58.9c1.5,0.8,3.8,1.4,5.2,2.4"/>
	<path class="st0" d="M561.8,4.2c5.4,2,11.3,4.2,16.6,6.2"/>
	<path class="st0" d="M599.5,16.9c1.1-0.6,0.4,1.2,0.4,1.7c0.1,1.8,0.8,4.7,1,6.5"/>
	<path class="st0" d="M585.8,100.8c0.2,1.4,1.8,2.3,1.8,3.8"/>
	<path class="st0" d="M520.9,66.6c-0.8,1-0.3,3.4-0.4,4.6"/>
	<path class="st0" d="M517.5,55.5c-0.6,5.1-1.1,6.9,2.5,11"/>
	<path class="st0" d="M499.7,37.4c-0.2-0.9-0.5-3,0.2-3.8"/>
	<path class="st0" d="M688.8,92.2c0.5-1.2,1.5-3.5,2.1-4.6"/>
	<path class="st0" d="M598.9,15.1c0-0.8-0.1-4-0.1-4.7"/>
	<path class="st0" d="M689.1,36c2-1.8,4.8-4.6,6.6-6.5"/>
	<path class="st0" d="M541.4,19.6c5.1,0.9,10.7-1.6,15.8-1.7"/>
	<path class="st0" d="M611.2,42.1c-1-3.4-2-8.9-2.6-12.5"/>
	<path class="st0" d="M619.9,112.6c2.3-4.5,5.3-9.8,7.5-14.4c1.4-2.1,2.2-8,5.8-6.1"/>
	<path class="st0" d="M443.7,91.7c1.7-13,2.5-13.1,13.6-19.4c4.3-2.8,8.3-6.4,12.7-9.2c7.2-4.4,9.2-4.6,13.8-12.1"/>
	<path class="st0" d="M736.4,12.1c0.6-6.5,1.5-14.3,2-20.7"/>
	<path class="st0" d="M497.6,138.8c0.9-0.7,1-2.4,2-3.1"/>
	<path class="st0" d="M633,37.9c1.8,0.9,1,3.7,2.6,5c7.4,7.8-3.6,14-3.5,21.9"/>
	<path class="st0" d="M684.5,68.1c3.7,1.6,8.7,4.9,12.8,5.1"/>
	<path class="st0" d="M593.7,41.8c0.1,0.3,1.1,4.3,1.2,4.5"/>
	<path class="st0" d="M685.1,107.1l-1.4,3.2"/>
	<path class="st0" d="M572.7,92.4c8.9-0.9,18.1-2.6,27-3.4"/>
	<path class="st0" d="M583.3-1.9c3,1.3,7,2.6,10.2,3.1"/>
	<path class="st0" d="M707.3,15.6C711,9.2,714.2,2,717.9-4.4"/>
	<path class="st0" d="M467.3,109c0.5,3.5,1.1,7.3,1.6,10.9"/>
	<path class="st0" d="M519.1,128.9c-3.2,5.3-7.5,10.6-11,15.8"/>
	<path class="st0" d="M531.5,38c1,0,2.9,1.2,3.8,0.6"/>
	<path class="st0" d="M693.2,128.3c-0.4,1.4-1.2,4.6-1.7,5.9"/>
	<path class="st0" d="M639.9,106.6c3-5.5,5.6-11.9,8.4-17.6"/>
	<path class="st0" d="M498.7,117c1.1,2.2,3.6,5.8,5.2,7.7"/>
	<path class="st0" d="M527.5,97.9c-0.3,0.3-2.1,2-2.4,2.3"/>
	<path class="st0" d="M607.4,131.2c8,5,17.6,8.2,26.1,12.6"/>
	<path class="st0" d="M486.6,76.4c0.1,1,0.3,4.5,0.4,5.5"/>
	<path class="st0" d="M465.4,35.9c-0.8-0.6-2.8-1.4-3.4-2.1"/>
	<path class="st0" d="M555.9,21.8c4.4,0.1,9.4,0.6,13.8,0.4"/>
	<path class="st0" d="M737.8,14.1c-0.8,8,0.5,16.4-0.4,24.4c-1.1,2.8-3.2,5.6-4.5,8.3"/>
	<path class="st0" d="M540.2,24.4c5.2-0.3,10.4-1.7,15.6-2.1"/>
	<path class="st0" d="M733.4,50.2c4.2,4.1,7.4,9.2,11.1,13.6"/>
	<path class="st0" d="M559.1,104.8c5.7-1.9,12.3-1.2,18.3-2c3.7,0,7.1-1.9,10.7-2.5"/>
	<path class="st0" d="M737.6,23.9c6.1-1.3,7.1,3.4,10.6,0.4"/>
	<path class="st0" d="M463.9,67.4c-2-2.8-3.9-5.9-5.9-8.8"/>
	<path class="st0" d="M619.4,121.6c-1.7,1.7-4.5,1.9-6.4,3.3c-3.9,2.3-7,6.8-5.7,11.5c2.6,14.5-2,9.3,7.7,23.6
		c2.5,4.1,5.4,8.1,8.1,12c1.2,1.8,2.7,3.9,4.7,5.1c2.8,1.8,6.1,3,8.9,4.8c2,1.4,3.6,3.9,6.1,4.4"/>
	<path class="st0" d="M541.8,18.4c-2.1-0.3-4.7-0.4-6.8-1"/>
	<path class="st0" d="M579.9,41.3c0.1,0,3.2-0.3,3.3-0.4"/>
	<path class="st0" d="M564,42.8c3.6-0.2,7.6-0.8,11.2-1"/>
	<path class="st0" d="M699.4,118.4c1.3-2.8,2.9-6.2,4.2-8.9"/>
	<path class="st0" d="M538.9,92.4c-0.1-0.1-2.5-1.9-2.6-2.1"/>
	<path class="st0" d="M469.7,136.1c-8,0.8-17,1.2-25,0.3"/>
	<path class="st0" d="M587.2,87.6c3.7-0.4,8.5-0.9,12.2-1.4"/>
	<path class="st0" d="M584,4.1c-0.7,1.8-2.3,5.1-2.8,6.9c0.1,1.6-0.1,4.2-0.8,5.6"/>
	<path class="st0" d="M501.5,126.3c-0.7,0.8-1.8,2-2.5,2.8"/>
	<path class="st0" d="M562.7,137.9c-2.1,0.5-9,2-10.2-0.3c-0.3-0.4-0.9-0.2-1.2-0.1"/>
	<path class="st0" d="M490.8,90.8c-0.2,1.6-0.4,4-0.6,5.6"/>
	<path class="st0" d="M507.6,27.5c0.5-1,1.3-2.8,1.8-3.7"/>
	<path class="st0" d="M498.9,43.2c3.7-0.9,8.8-2.1,12.5-3.1"/>
	<path class="st0" d="M609.1,138.5c2.8,1.3,7.2,3.3,10.1,4.7"/>
	<path class="st0" d="M522.7,124.7c-0.7,0.6-3.3,0.7-3.5,1.8"/>
	<path class="st0" d="M444.3,88c-2.9,1.5-6.6,0.2-9.8,0.3"/>
	<path class="st0" d="M587.6,67.3c-3.3,0.7-6.9,1.7-10.1,2.4"/>
	<path class="st0" d="M733,29.7c1.4-0.2,3.4-0.7,4.8-0.9"/>
	<path class="st0" d="M571.5-0.9c1.5,0.6,4.4,1.7,5.9,2.2"/>
	<path class="st0" d="M702.7,19.8c0.5,0.7,1.5,2.1,2,2.8"/>
	<path class="st0" d="M570.1,68.5c-0.2,0-3.5,0.4-3.7,0.5"/>
	<path class="st0" d="M538.1,87.2c1.3,0.2,2.7,0.2,4,0.4"/>
	<path class="st0" d="M470,2.7c0.2-2,0.8-6.8,1-8.9"/>
	<path class="st0" d="M492.2,126.5c1,1,2.7,2.7,3.7,3.7"/>
	<path class="st0" d="M612.8,64.7c0.2-0.9,0.8-3.3,1-4.2"/>
	<path class="st0" d="M587.6,50.9c9.8-2.4,20.2-5.2,30-7.7"/>
	<path class="st0" d="M533,49.4c-0.8-1.7,0.2-3.7-0.2-5.5"/>
	<path class="st0" d="M699.1,118.3c-1,2.9-2.8,8-3.7,11"/>
	<path class="st0" d="M549.6,23.1c-0.2-1.6-0.7-4.7-0.9-6.2"/>
	<path class="st0" d="M594.3,54.6c8.3-2.3,17.1-4,25.5-6.3"/>
	<path class="st0" d="M724.3,10.9c0.7-0.3,2.4-1,3.1-1.2"/>
	<path class="st0" d="M590.5,69.5c16.7-4.3,12-4.6,28.8-0.1"/>
	<path class="st0" d="M699.4,71.6c0.5-0.9,2.1-4,2.4-4.9"/>
	<path class="st0" d="M701.6,66.6c0.6-1.3,1.9-4,2.5-5.3"/>
	<path class="st0" d="M482.7,140.8c0.7-1.7-0.4-3.9-1.6-5.2"/>
	<path class="st0" d="M699.4,107.5c1.4,0.7,3.5,1.6,4.8,2.3"/>
	<path class="st0" d="M453.8,25.4c0.5-2.9,1.6-8.8,2.2-11.7"/>
	<path class="st0" d="M655.1,129.5c-1.5,3.4-3.7,8.8-5.2,12.3"/>
	<path class="st0" d="M545.1,75c2,6.8,6.6,12.4,10.8,17.9c3.7,5.2,7.4,10.7,10.9,16.1"/>
	<path class="st0" d="M685.6,79.4c-0.7-0.7-3.3-1-1.7,0.4c3.5-1,8.3,3.3,11.7,4.3"/>
	<path class="st0" d="M498.7,117c2.2-1.3,4.7-2.7,6.6-4.3"/>
	<path class="st0" d="M516.7,129.7c1-0.4,2.8-0.9,3.8-1.2"/>
	<path class="st0" d="M550.2,92c1.1-0.6,2.8-0.9,4-1.4"/>
	<path class="st0" d="M482.8,16.8c0.1-0.1,3.6-3,3.8-3.1"/>
	<path class="st0" d="M492.2,8.8c2.4-2.2,6-5.4,8.6-7.5"/>
	<path class="st0" d="M480.2,67.5c-1-1.9-3.3-6.2-4.4-8.1"/>
	<path class="st0" d="M527.2,70.2c-1.5,1.8-3.9,4.1-6.4,3.8"/>
	<path class="st0" d="M476.5,5.1l4.6,0.5"/>
	<path class="st0" d="M481,5.2c2.7-0.9,8.8-2.9,11.5-3.7"/>
	<path class="st0" d="M464.8,22.1c7.2,1.5,16.1,7.8,22.6,2"/>
	<path class="st0" d="M697.4,15.7c-0.7,0.7-2.4,2-3.2,2.5"/>
	<path class="st0" d="M459.8,57.6c-1.9-2.7-4.2-5.7-6-8.5"/>
	<path class="st0" d="M538.5,69.5c2.2-0.2,5.9-0.6,8-0.8"/>
	<path class="st0" d="M581.1,110.6c-0.2-1-0.5-2.5-0.6-3.6"/>
	<path class="st0" d="M517.4,38.1c0-1.2-0.1-3.5-0.1-4.6"/>
	<path class="st0" d="M698.2,22.9c0.9,1.2,2.6,3.6,3.5,4.8"/>
	<path class="st0" d="M508.8,128.2c-0.4-1.8-1.2-5-2.1-6.7"/>
	<path class="st0" d="M546.4,115.1c-3.1,1.6-6.4,3.4-9.5,5.2"/>
	<path class="st0" d="M538.1,80.1c-0.8,0.8-2,1.8-2.8,2.6"/>
	<path class="st0" d="M512.9,44.6c0.5,1.3,1.8,2.8,1.9,4.1"/>
	<path class="st0" d="M646.7,73.1c14.7,6.9,29.8,13.5,44.6,20.3"/>
	<path class="st0" d="M731.6,17.8c-0.3,0.1-1.7,0.1-1.6,0.6c0,1.5,0.6,1.6,1.9,1.2"/>
	<path class="st0" d="M581.7,94c1,3.6,2.7,7.6,4,11.1"/>
	<path class="st0" d="M700.4,21.3l2.7,3.7"/>
	<path class="st0" d="M559.1,32.5c0.1,0,3.9,0.1,4,0"/>
	<path class="st0" d="M493,82.1c-0.2,1.7-0.4,4.1-0.6,5.8"/>
	<path class="st0" d="M696,14.4c1.9-1.8,4.4-4.2,6.3-6.1"/>
	<path class="st0" d="M451.1,23.9c0.5-2.6,1.4-7.7,1.9-10.3"/>
	<path class="st0" d="M476.5,96.8c-6.5,2.6-14,4.8-20.7,6.7"/>
	<path class="st0" d="M456.8,69.4c-3.1,1.7-6.5,3.5-9.5,5.4"/>
	<path class="st0" d="M685.5,128.6c-0.2,0.9-0.9,2.1-1.4,2.8"/>
	<path class="st0" d="M595,36.1c1.4-0.4,3.8-1,5.2-1.4"/>
	<path class="st0" d="M540.9,83c-1.7-0.1-2.4,0.5-3.4,1.8"/>
	<path class="st0" d="M498.4,116.3c-10.6,0.7-21.3,2.2-31.8,3.9"/>
	<path class="st0" d="M513.6,121c-1,0.6-2.5,1.5-3.6,2"/>
	<path class="st0" d="M742,60.8c-0.7,0.6-1.7,1.8-2.1,2.6"/>
	<path class="st0" d="M618,164.7c9.8-13.9,21.7-26.7,28.5-42.5"/>
	<path class="st0" d="M701.3,129.4c0.3,0.1,4,1,4.1,1"/>
	<path class="st0" d="M490.6,2.1c-3.5-1.1-8.5-2.7-12-3.9"/>
	<path class="st0" d="M725.9,136.7c2.3-2.6,2.6-6.5,4.1-9.6c1.6-2.7,4.5-4.7,6.5-6.9c-0.7-5.7-4.9-10.9-7.1-16.3
		c-2.5-4.3-2.2-5.4-1.8-10.2"/>
	<path class="st0" d="M604.4,71.9c2.8,0.6,6.2,1.5,8.9,2.3"/>
	<path class="st0" d="M456.5,53.1c-3.3,2-7.1,3.9-10.4,5.9"/>
	<path class="st0" d="M581.1,36.2c2.1-0.9,5.2-1.1,4.5-4.2"/>
	<path class="st0" d="M497.7,15.2c-2.5-2.7-5.1-5.7-7.3-8.6"/>
	<path class="st0" d="M721-1.4c3,3,6.3,6.2,9.6,8.9c2,2,6.4,4,7.2,6.6"/>
	<path class="st0" d="M648.2,84.8c5.5,2.7,12.1,5.5,17.7,8"/>
	<path class="st0" d="M661.5,132c-2.4,6.7-3.7,13.6-5.1,20.5c-1.9,8.5-4.5,17-6.3,25.5"/>
	<path class="st0" d="M635.6,55.7c-5.8-0.2-13,2.9-18.6,4.1"/>
	<path class="st0" d="M473.2,41.2c-2.3,0-5.1,0.1-7.3,0"/>
	<path class="st0" d="M524.5,97.4c-0.6-0.6-1.9-2-2.5-2.6"/>
	<path class="st0" d="M497.3,91.4l-0.4,4.4"/>
	<path class="st0" d="M650.1,127.3c-0.8,1.8-1.7,4.2-2.5,6"/>
	<path class="st0" d="M648.3,133.6c-1.8,4.5-3.9,9.3-6.5,13.4"/>
	<path class="st0" d="M484.1,19.4l4.3-3.6"/>
	<path class="st0" d="M493.9,10.9c1.7-1.5,5.1-4.4,6.8-5.9"/>
	<path class="st0" d="M482.3,13.7c2.7-2.1,5.5-4.9,8.1-7.1"/>
	<path class="st0" d="M446.9,104.9c-0.9-0.1-4.2-0.5-5.1-0.6"/>
	<path class="st0" d="M478.8,102.2c-0.2,0.1-4.3,1.4-4.6,1.5"/>
	<path class="st0" d="M575.2,29.4c5.9-0.1,12.1-1.1,18-1.6"/>
	<path class="st0" d="M640.8,123.2c-1.7,3.8-4,8.4-5.8,12.2"/>
	<path class="st0" d="M512.2,118.3c-0.4-1.5-1.4-3.9-3.1-4.3"/>
	<path class="st0" d="M539.8,23.5c-1-0.3-2.2,0-3.2-0.3"/>
	<path class="st0" d="M465.4,32.5c0.6-2.5,1.3-7.1,2.1-9.6c1-2.3,2.4-4.7,2.8-7.2"/>
	<path class="st0" d="M449.7,51.2c0.4,0.7,1.9,3.8,2.4,4.3"/>
	<path class="st0" d="M500.8,115.4l-1.4-2.9"/>
	<path class="st0" d="M697.5,31.4c-2.5,2.8-5.3,6.7-8.3,9"/>
	<path class="st0" d="M459.7,121.4c-0.4-2.9-1.3-6.7-1.3-9.6"/>
	<path class="st0" d="M575.5,23.2c2.4,0.3,8.4-1.2,10.4-0.2"/>
	<path class="st0" d="M586.4,22.5c3.3-0.3,7.9-0.1,11.1-0.9"/>
	<path class="st0" d="M594.1,101.4c0.4,0,6.5-0.8,6.9-0.8"/>
	<path class="st0" d="M559.1,104.8c-0.7-0.7-1.6-1.9-2-2.7"/>
	<path class="st0" d="M563.1,111c2,2.4,3.9,5.6,5.7,8.1"/>
	<path class="st0" d="M514.7,54.2c0.9-1.8,1.8-4.2,2.5-6.1"/>
	<path class="st0" d="M473.2,107.2c-0.1-0.3-0.8-2.6-0.9-2.9"/>
	<path class="st0" d="M466.7,18l-4.1-0.7"/>
	<path class="st0" d="M447.7,76.2c-1.2,0-3.9-0.7-4.9-0.2"/>
	<path class="st0" d="M496.3,33l-5,1.5"/>
	<path class="st0" d="M445.1,83.4c-3.9-0.2-8.9-0.7-12.9-0.9"/>
	<path class="st0" d="M537.4,14.3c-1.3-4.9,0.9-4,4.5-5.8"/>
	<path class="st0" d="M702.7,19.8c-3.8-1.6-6.7-5.8-9.9-8.4c-6.8-7-4.1,2.8-18.4-1"/>
	<path class="st0" d="M548.6,82.9c-0.9,0.4-2.2,1.1-3.1,1.5"/>
	<path class="st0" d="M551.8,128c-0.3,0-3.5,0.2-3.7,0.2"/>
	<path class="st0" d="M547.2,128.2l-5.9,0.4"/>
	<path class="st0" d="M480.4,104.9c1.3,2.1,3.1,4.3,4.2,6.4"/>
	<path class="st0" d="M480,105c-2-5.2-4.8-10.5-6.3-15.9"/>
	<path class="st0" d="M722.3,5.7c1.1-0.4,3.2-1.3,4.2-1.7"/>
	<path class="st0" d="M538,116.6c0.9,1.8,2,4.1,3.1,5.8"/>
	<path class="st0" d="M535.9,59.6c1.1-0.2,3-0.5,4.2-0.6"/>
	<path class="st0" d="M450.4,39.5c0-0.6-1.2-2.6-0.3-2.8c2.8-0.3,3.6-0.8,3.5,2.5"/>
	<path class="st0" d="M458.1,71.7c-3.5-6.4-7.3-13-10.6-19.5c-1.5-9.2-3.3-19.1-5.3-28.2"/>
	<path class="st0" d="M587.8,81.9c3.3-0.4,7.7-0.9,11-1.2"/>
	<path class="st0" d="M554.1,35.6c4.4-0.2,9.6-0.2,14-0.3"/>
	<path class="st0" d="M481.8,125.1c-2.9,1-6,2-8.9,3.1"/>
	<path class="st0" d="M639,81.9c0.5-1,5.3,2,5.8,2.1"/>
	<path class="st0" d="M494.4,66.1c0.8-2.7-0.2-5.3-1.6-7.6c-1.4-2.9-2.8-6-4.3-8.8"/>
	<path class="st0" d="M575.6,111.7c-1-1.1-1.6-2.6-1.6-4.1"/>
	<path class="st0" d="M598.1,107c-2.3,1.5-1.7-1.7-2-3"/>
	<path class="st0" d="M576.4,20.4c2.1,0.1,4.8-0.5,6.9-0.4"/>
	<path class="st0" d="M612.3,116.4c-1.2,1.6-1.5,3.7-3,5"/>
	<path class="st0" d="M471.2,110.5l-3.6,0.5"/>
	<path class="st0" d="M493.7,0.2c-0.9-1.2-3.5-4.8-4.4-5.9"/>
	<path class="st0" d="M470.1,1.6c-1.3-0.1-3.9-0.4-5.2-0.6"/>
	<path class="st0" d="M674.9,4.5l3.8-0.6"/>
	<path class="st0" d="M740.9,47.7c0.1,0,2.6-2.7,2.8-2.8"/>
	<path class="st0" d="M503.7,33.8l1.6-3.1"/>
	<path class="st0" d="M545.4,9.6c5-0.1,10.5-0.9,15.5-1.4"/>
	<path class="st0" d="M492.2,20.1c-2.5-2.7-4.9-5.7-7.3-8.5"/>
	<path class="st0" d="M734,142.7c1.9-2,5.2-5.3,7.2-7.3"/>
	<path class="st0" d="M542,41.1c0.3,8.5,0.8,17.4,2.8,25.7"/>
	<path class="st0" d="M463.2,120.8c2.4,3.9,4.9,7.8,5.7,12.4"/>
	<path class="st0" d="M489.3,27.5c-1.1,0.3-2.7,0.7-3.8,1"/>
	<path class="st0" d="M697.2,117.6c1.2-2.7,3-6.4,4.3-9.1"/>
	<path class="st0" d="M473.6,45.6c0.5,3,2.1,5.8,3.8,8.3"/>
	<path class="st0" d="M735.4,42.3c3.1,3,6.4,6.3,9.4,9.3"/>
	<path class="st0" d="M545,42.8c0.1-0.1,3.2,0,3.4,0"/>
	<path class="st0" d="M548.4,43.1c0.1,0,3.4-0.3,3.4-0.3"/>
	<path class="st0" d="M641.4,77.1c1.4,1.4,10.6,3.3,8.8,5.4"/>
	<path class="st0" d="M499.1,124c-1.2,1.2-3.7,3.5-4.8,4.7"/>
	<path class="st0" d="M665.1,118c1.9,1,6,3,8,3.9"/>
	<path class="st0" d="M680.8,125.6l3.2,1.5"/>
	<path class="st0" d="M502.3,96.3c-2.2-0.3-4.6-0.4-6.8-0.7"/>
	<path class="st0" d="M737.6,54.9c0.5-0.6,2.7-1.6,1.4-2.4"/>
	<path class="st0" d="M739,52.5l3.6-3.2"/>
	<path class="st0" d="M569.3,56.6c4.5-1.9,9.1-4.1,12.9-7.1c11.9-3.2,24.1-6.1,36-9.4"/>
	<path class="st0" d="M546.3,58.5c0.8-0.1,3.2-0.3,4.1-0.3"/>
	<path class="st0" d="M657.2,130.5c-1.5,3.6-3.7,8.7-5.3,12.2"/>
	<path class="st0" d="M702.6,16.5c-2.2-1.8-5.9-5.2-7.8-7.2"/>
	<path class="st0" d="M688.9,1.5c-5.5-5.8-7.9-5.4-9.2-14.1"/>
	<path class="st0" d="M462.1,56.3c-14.4,8.9-15.3,8.5-31.8,10"/>
	<path class="st0" d="M465.5,124.6c-3.9,0.9-8.4,1.6-12.3,2.4"/>
	<path class="st0" d="M453.1,126.7c-1.4,0.1-3.8,0.1-5.2,0.4"/>
	<path class="st0" d="M739,52.5c-3-2.1,0.6-3.2,2-4.7"/>
	<path class="st0" d="M513.7,127.7c-2.5-1.3-3.6-5-5.1-7.2"/>
	<path class="st0" d="M690.7,137.5c-1.8,6.1-3,12.6-5.1,18.6"/>
	<path class="st0" d="M600.1,34.1c1.5-0.3,4.7-0.9,6.2-1.1"/>
	<path class="st0" d="M549.2,83.6c12.9-0.7,25.8-2.9,38.7-2.9"/>
	<path class="st0" d="M688.2,113.9c-0.6,2.1-1.5,5.5-2.2,7.6"/>
	<path class="st0" d="M605.8,57.7c3.9-0.9,8.5-2.2,12.4-3.1"/>
	<path class="st0" d="M482.3,107.7c-0.1,0.1-3.6,1-3.6,1.1"/>
	<path class="st0" d="M478.6,108.6c-2,0.6-5.2,1.7-7.2,2.3"/>
	<path class="st0" d="M501,82.9c-0.2,2.1-0.5,4.5-0.7,6.5"/>
	<path class="st0" d="M630.7,118.4c-6,12.6-11.7,25.7-17.8,38.2"/>
	<path class="st0" d="M485.3,103.4c-1.7-4.3-4-9.3-5.6-13.6"/>
	<path class="st0" d="M656,81l1.2-3"/>
	<path class="st0" d="M612.7,11.2c1-0.2,3-0.6,4-0.8"/>
	<path class="st0" d="M445.1,68.7c4.8-2.4,9.7-5.1,14.5-7.6"/>
	<path class="st0" d="M691,115c1.3-3.1,3.3-7.6,4.6-10.6"/>
	<path class="st0" d="M505.4,87.1c-1-1.2-3-0.8-4.4-1.1c-3.7-0.4-7.9-0.7-11.6-1.1"/>
	<path class="st0" d="M540.1,73.8c-0.7-1.6-1.5-3.2-1.8-4.9"/>
	<path class="st0" d="M553.3,71c0.2,0,4.9-0.7,5.1-0.7"/>
	<path class="st0" d="M602.5,3.5c0.4,0,3.1,0.1,3.4,0.1"/>
	<path class="st0" d="M588,99.1c4.6-0.5,9.5-1.1,14.1-1.6"/>
	<path class="st0" d="M521,136.6c-3.9-1.9-7.5-5.4-11.3-7.7"/>
	<path class="st0" d="M592.6,63.2c0.9-0.2,2.8-0.7,3.6-0.9"/>
	<path class="st0" d="M479.1,16.7c-2,6.6-4.2,13.6-6.1,20.2"/>
	<path class="st0" d="M568.3,26.2c9.1-24.5,18-49.2,27.1-73.8"/>
	<path class="st0" d="M643.2,124.3c-1.1,2.3-2.2,5-3.4,7.2"/>
	<path class="st0" d="M497.6,138.8c-3.8-0.3-8.4,0.6-12.2,0"/>
	<path class="st0" d="M652.9,128.6c-2.8,6.5-5.6,13.8-9.2,19.9"/>
	<path class="st0" d="M664.4,120.8l7.8,3.7"/>
	<path class="st0" d="M672.1,93.9c3.4,1.9,7.1,3.2,10.5,4.9"/>
	<path class="st0" d="M534.1,88.2c-0.5-0.5-1.7-1.9-2.2-2.3"/>
	<path class="st0" d="M650.3,97c3.1,1.6,7.3,3.5,10.4,5.1"/>
	<path class="st0" d="M589.8,47.6c0,0-1.1-4.4-1.2-4.5"/>
	<path class="st0" d="M473.5,3.1c0.1-2.6-0.2-6,0.3-8.5"/>
	<path class="st0" d="M663.6,80.9l-1.2,2.9"/>
	<path class="st0" d="M734.4,14.7c0.2,1.5,0.7,4.5,1,6"/>
	<path class="st0" d="M538,67.8c3.1-0.2,6.7-1.8,9.3,0.3"/>
	<path class="st0" d="M497.1,104.3c0.8,1.5,1.9,3.5,2.8,5"/>
	<path class="st0" d="M505.7,50.6c1.1-1.1-0.1-3.3-0.5-4.5"/>
	<path class="st0" d="M660.7,134.8c2.3,0.6,5.6,1.3,7.9,1.9"/>
	<path class="st0" d="M545.1,112.7c-4,2.2-8.3,4.5-12.3,6.7"/>
	<path class="st0" d="M492.7,122.8c-1.2-1.7-2.2-3.9-3.2-5.7"/>
	<path class="st0" d="M701.8,59.1c1.2-1.6,2.5-4,3.7-5.6"/>
	<path class="st0" d="M633.5,106.8c-0.8,1.8-1.8,4.1-2.7,5.9"/>
	<path class="st0" d="M643.1,106.6c2.1-4.6,4.7-9.7,6.5-14.5c1.1-2.6,3.3-5.2,4.2-8"/>
	<path class="st0" d="M570.1,3c1-3.5,2.9-7.1,3.8-10.6"/>
	<path class="st0" d="M564.8,17.2c1.7-4.3,3.5-9.4,5.1-13.7"/>
	<path class="st0" d="M682.9,73.6c3.3,1.6,13.4,6.4,16.9,8.1"/>
	<path class="st0" d="M688,76.1l-1.7,3.6"/>
	<path class="st0" d="M485.6,21.5c3-2.6,7-6.1,9.9-8.8"/>
	<path class="st0" d="M495.8,13l3.7-3.4"/>
	<path class="st0" d="M553.3,16.1c0.3,0,4.6-0.7,4.9-0.7"/>
	<path class="st0" d="M558.1,15.8c1.5,0.6,4.3,1.6,5.9,2.1"/>
	<path class="st0" d="M667.9,47.1c3.6,1.9,6.3,5.3,9.6,7.6c2.8,2.4,7,3.4,10.2,5.3"/>
	<path class="st0" d="M594.4,104.2c-2.7,0.4-5.6,0.3-8.3,0.6c-3.6,2-7.9,2.7-12.1,2.6"/>
	<path class="st0" d="M466.7,47c-0.4-2.6-1.2-5.8-0.6-8.4c1.6-0.2,3.7,0.2,5.3,0"/>
	<path class="st0" d="M686.1,7.5c-1.7,0.3-5.1,0.8-6.8,1.1"/>
	<path class="st0" d="M490.5,49.2c0-1.2,0-5.3,0-6.6"/>
	<path class="st0" d="M600.6,37c1.6-0.3,4.5-0.8,6.1-1.2"/>
	<path class="st0" d="M583.5,41.6c5.3-1.3,11.9-3,17.1-4.4"/>
	<path class="st0" d="M730.9,45.2c-0.5,0.4-3.2,2.4-3.8,2.8"/>
	<path class="st0" d="M701.4,72.2c0.6-1.1,1.8-3.4,2.4-4.5"/>
	<path class="st0" d="M525.6,85.5c-1,0.8-2,1.9-3,2.7"/>
	<path class="st0" d="M602.5,9.1c-1.6-0.3-3.7-0.1-5.4-0.1"/>
	<path class="st0" d="M520.5,81.1c3.3-1.4,6.7-3.4,10.2-4.5"/>
	<path class="st0" d="M616.1,109.4c1.5,0.3,3.8,0.5,5,1.5"/>
	<path class="st0" d="M580.6,95.8c0.7,1.8,1.5,4.2,2.2,6"/>
	<path class="st0" d="M616.5,122.5c-4.6,2.1-6.8,4-9.6,8c-1.8,0.5-1.8,1.7-2.2,3.3c0.4,1.3,1.7,2.3,2.5,3.4c0.7,2.6,0.9,5.8,0.4,8.5
		c0.1,1.6,0.6,3.7,1.2,5.2c0.6,1,2.3,3.2,2.5,4.4c2.3,2.9,5.2,7.9,7.3,11c1.5,2.6,5.4,6.6,6.2,9.5c-0.3,1.9-3.1,1.6-2.5,4.6"/>
	<path class="st0" d="M582.3,68.5c-0.3-1.2-1-4.7-1.3-5.8"/>
	<path class="st0" d="M734.4,3c1.1,0.1,3.5,0.3,4.5,0.4"/>
	<path class="st0" d="M455.7,112.6c0.6,3,1.1,6.3,1.7,9.2"/>
	<path class="st0" d="M485.3,39.8c1.4-2.2-1.4-3.2,2.4-3.7"/>
	<path class="st0" d="M465.5,112.4c-1.2,0.3-3.5,0.6-4.7,0.7"/>
	<path class="st0" d="M649.3,123.8c1.7,0.7,4.2,1.9,5.9,2.6"/>
	<path class="st0" d="M497.3,110.5l0.6,2.9"/>
	<path class="st0" d="M724.1,32.5c-0.1-0.8-0.4-2.6-0.5-3.4"/>
	<path class="st0" d="M723,36.3c1.2-0.9,1.8-2.3,1.2-3.8"/>
	<path class="st0" d="M505.4,99.9c-0.7-5,1.4-9.9,2.5-14.7"/>
	<path class="st0" d="M549.9-1c1,0.4,5.9-1,4.8,1.5"/>
	<path class="st0" d="M512.5,98.1c0.8-0.8,1.6-1.8,2.3-2.6"/>
	<path class="st0" d="M444.4,53.1c-0.1-3.7,0.2-8.1,0.1-11.8"/>
	<path class="st0" d="M667.1,109.7c-1.4-1-5.5-2-6.2-3.3"/>
	<path class="st0" d="M447.2,79.1c-0.8-1.3-3.4-0.6-4.6-1.2"/>
	<path class="st0" d="M583.2,49.3c-1.3-3.3-3.4-8.1-4.7-11.3"/>
	<path class="st0" d="M507.6,64.4c0.6,0.1,2.8,0.2,3.4,0.3"/>
	<path class="st0" d="M738.6,140.3c1.1-0.8,2.5-2.1,3.6-2.9"/>
	<path class="st0" d="M736.7,53.9l-3,2.5"/>
	<path class="st0" d="M500.6,104c-1.3,0.7-3.5,2-4.8,2.7"/>
	<path class="st0" d="M520.5,101.2c1,1,2.1,2.6,3,3.7"/>
	<path class="st0" d="M575.3,26.3c5.7-0.2,11.7-0.8,17.4-1.1"/>
	<path class="st0" d="M541.4,27.9c4.6-0.1,9.3-1.4,14-1.8"/>
	<path class="st0" d="M529.9,133.7c-1.9,0.6-4.2,1-6.3,1"/>
	<path class="st0" d="M538.1,80.1c1.8,1.3,2.7,3.5,3.4,5.6"/>
	<path class="st0" d="M535.1,76.8c-1.4-0.6-3.2-0.7-4.7-0.5"/>
	<path class="st0" d="M446.8,73.7l-3.7-0.3"/>
	<path class="st0" d="M674.3,135c0,0.5-0.8,3.4-0.9,4"/>
	<path class="st0" d="M466.2,117.1c-1.2,0.2-3.6,0.5-4.7,0.6"/>
	<path class="st0" d="M687.8,59.6c5.4,2.7,11.3,5.8,16.7,8.4"/>
	<path class="st0" d="M446.7,108.8c-1.4-1.3-3.6-1-5.3-1.3"/>
	<path class="st0" d="M696.6,117.3c-1.2,3.3-2.5,7.5-3.7,10.8"/>
	<path class="st0" d="M495.2,129.5c-0.9,0.8-2.6,2.5-3.5,3.4"/>
	<path class="st0" d="M604.2,21.6c2-0.4,6.7-1.2,8.6-1.7"/>
	<path class="st0" d="M614.3,19.7c1.8-0.3,4.2-0.8,5.9-1.1"/>
	<path class="st0" d="M727.8,22.4c3.1-0.7,6.6-1.5,9.7-2.1"/>
	<path class="st0" d="M479.7,32.6c-1-0.3-3.9-1.2-4.9-1.6"/>
	<path class="st0" d="M460.9,93.2c-2.4,2.6-3.2,7.2-5.1,10.3"/>
	<path class="st0" d="M730.4,44c-3.4-5.3-9.3-8.6-13.2-13.5c-2.3-4.5-5.5-8.5-8.5-12.6"/>
	<path class="st0" d="M475.6,94.5c-6,1.9-12.2,4-18.3,5.8"/>
	<path class="st0" d="M543.1,15c-1.7-0.5-3.9-0.6-5.7-0.7"/>
	<path class="st0" d="M489.3,27.5c1.3,3.8,2.3,8.2,3.4,12.1"/>
	<path class="st0" d="M659.3,131.4c-1.7,3.7-3.6,8.5-5.3,12.2"/>
	<path class="st0" d="M535.2,56.7c-0.7-1.8-1.1-4-1.6-5.8"/>
	<path class="st0" d="M603.1,15.9c4.7-0.9,9.6-1.8,14.3-2.6"/>
	<path class="st0" d="M512.9,72c-8.2-2.6-19.9-8.7-28.4-5.6"/>
	<path class="st0" d="M546.6,61.1c8-0.7,16.5-1.3,24.5-1.7"/>
	<path class="st0" d="M536.7,62.6c0.3-0.1,3.8-0.7,4.1-0.8"/>
	<path class="st0" d="M742.9,49.7c0.7-0.7,2.1-2.3,2.8-3"/>
	<path class="st0" d="M442.5,53.4c0.6,4.3,1.3,9.2,2.1,13.5"/>
	<path class="st0" d="M512.2,118.3c2.1,5.2,3.5,5.7,7.6,8.9"/>
	<path class="st0" d="M617.2,3.2c-0.5-2.2-0.6-5.4-1.6-7.4"/>
	<path class="st0" d="M623.2,42.2c-2.8-9.4-3.9-19.3-5.8-28.8"/>
	<path class="st0" d="M550.5,4.4c0.2-0.2,0.3-1.7,0.6-1.7c3.2,0,7.9,0.4,11.1-0.3"/>
	<path class="st0" d="M518.9,138.9c-1.3,2-4.1,5.7-5.4,7.6"/>
	<path class="st0" d="M665.8,65.5c5.7,2,11.7,5.1,17.4,7.2"/>
	<path class="st0" d="M554.9,98.9c1.6-0.7,3.3-2,4.8-2.9c3.9-0.2,8.3-0.4,12.2-0.8c9.3-1,18.8-2.2,28.1-3.1"/>
	<path class="st0" d="M599.9,45c0-0.3-1.1-4.2-1.2-4.5"/>
	<path class="st0" d="M494.1,106c-0.5-1.3-1.1-3.6-1.5-4.9"/>
	<path class="st0" d="M492.5,101.1c-0.1-0.3-0.8-2.7-1-3.1"/>
	<path class="st0" d="M507.6,127.4c-2.3,3.3-4.9,6.8-7.1,10.1"/>
	<path class="st0" d="M694.5,53.6c0.8-1,2-2.9,2.7-3.9"/>
	<path class="st0" d="M542.5,51.8c1.7,0,4.7-0.2,6.4-0.3"/>
	<path class="st0" d="M457.6,19.6c-3.5-0.6-7.6-1.4-11.1-2.1"/>
	<path class="st0" d="M468.1,114.5c-2.9,0.4-6.4,0.9-9.3,1.3"/>
	<path class="st0" d="M473.2,138.1c1.2,3.6,2.5,7.8,3.7,11.3"/>
	<path class="st0" d="M731.8,92.4c-0.3-1.2-0.7-3.9-0.9-5.1"/>
	<path class="st0" d="M511.6,53.6c1.3-2-2.4-6-3-8.2"/>
	<path class="st0" d="M505.7,69.4c2-5.1,3.7-10.7,6.3-15.5"/>
	<path class="st0" d="M695.7,129.5c-0.4,1.4-1.2,4.3-1.6,5.8"/>
	<path class="st0" d="M709.5,65c1.5-2.6,4.3-6.6,5.9-9.2"/>
	<path class="st0" d="M452.2,122.8c0.1,0.2,0.8,3.6,0.9,3.9"/>
	<path class="st0" d="M453.1,127c0.2,0.8,0.8,3.2,1,4.1"/>
	<path class="st0" d="M690.2,114.7c-1.4,4.1-3.3,9.8-4.7,14"/>
	<path class="st0" d="M729.2,15.7c1.5-8.6,2.7-17.8,3.4-26.5"/>
	<path class="st0" d="M649.3,134c3.2,1.4,6.9,3,10.2,4.4"/>
	<path class="st0" d="M574.3,65.7c3-1,6.5-1.6,9.6-2.3"/>
	<path class="st0" d="M696,24.6c0.9,1.2,2.7,3.7,3.5,4.9"/>
	<path class="st0" d="M528.5,72.6c1-1,2.3-2.6,3.3-3.6"/>
	<path class="st0" d="M495.5,95.6c-2.2,1.2-4.7,2.9-6.9,4.2"/>
	<path class="st0" d="M705.9,13.3c2.3-6.8,5.9-14,9.4-20.1"/>
	<path class="st0" d="M598.1,107c0.1-0.3-0.3-2.8-0.3-3.2"/>
	<path class="st0" d="M566.8,30.3c-1.9-0.8-5.8-0.9-7.6-0.3c0.5,3.5-1.6,2.7-1.2,5.5"/>
	<path class="st0" d="M679.7,11.1c-0.5-3.4-1.1-7.3-1.6-10.8c0.5-3.6,0.1-8-0.7-11.6"/>
	<path class="st0" d="M496.9,35.4l-5,1.4"/>
	<path class="st0" d="M622.8,67.2c-0.1,0-3.5-0.9-3.7-0.9"/>
	<path class="st0" d="M537.2,64.6c0.3,0,3.9-0.7,4.1-0.8"/>
	<path class="st0" d="M477.8,132c0.6-0.1,2.1-1.2,2.5-1.6"/>
	<path class="st0" d="M567.8,85.3c6.4-1,13.3-1.7,19.8-1.4"/>
	<path class="st0" d="M551.1,86.6c2.7-1,6.1-0.5,8.9-0.7"/>
	<path class="st0" d="M450.6,76.2c-3.6-7.2-4-15.5-5.6-23.3"/>
	<path class="st0" d="M696,24.6c-1.1-1.6-3.1-3.7-4.6-5"/>
	<path class="st0" d="M575.2,41.8c-0.7-3.9,0-8.4,0.1-12.4c-0.1-3.7,0.3-7.5,1.8-10.9"/>
	<path class="st0" d="M648.1,126.5l1.2-2.8"/>
	<path class="st0" d="M501.2,136.5c1,0.7,3.1,2.3,4.1,3"/>
	<path class="st0" d="M677,54.3c1.5-2,3.5-0.5,5.2,0.3c2.1,1,4.3,0.9,2.3,3.8"/>
	<path class="st0" d="M685.2,138.6c-4.3,16.9-9.3,33.9-13.6,50.9"/>
	<path class="st0" d="M557.6,64.6c-0.8-5.1-1.5-10.4-1.9-15.5c-4.3-4.2-3.7-3.4-4.2-9.5"/>
	<path class="st0" d="M560.2,93.4c0-3.4-0.2-7.2-0.3-10.6"/>
	<path class="st0" d="M665.1,94.5l4.9,3.8"/>
	<path class="st0" d="M651.1,72c7.4,4.7,17.4,8.2,25.2,12.2"/>
	<path class="st0" d="M512.2,102.2c1.2,1,2.1,3.3,3.6,3.6"/>
	<path class="st0" d="M695.2,116.7c1.1-3.1,3.4-7.1,4.7-10.1"/>
	<path class="st0" d="M737.8,61.3c-0.8-0.9-1.5-2-1.8-3.1"/>
	<path class="st0" d="M485.1,132.9c-2.8,1.9-5.6,4.3-8.9,5.1"/>
	<path class="st0" d="M492.2,126.5c-0.9,0.8-2.6,2.5-3.4,3.4"/>
	<path class="st0" d="M452.1,113.7c0.4,2.3,1.2,6.5,1.6,8.7"/>
	<path class="st0" d="M729.9,43.1c-1.6,1.2-3.8,2.9-5.4,4"/>
	<path class="st0" d="M599.9,19c0.1,0,3.5-0.6,3.7-0.6"/>
	<path class="st0" d="M599.9,106.6l-0.4-3"/>
	<path class="st0" d="M447.6,26.5l-4.6,0.9"/>
	<path class="st0" d="M721.6,35c-1.5,1.4-3.7,3.4-5.3,4.7"/>
	<path class="st0" d="M462.9,30.9c0.5-2.1,1.3-7.3,2.1-9.2c0.8-2.1,2.2-4.1,2.5-6.3"/>
	<path class="st0" d="M734.2,51c2.4-2.3,5.2-5.7,7.6-8.1"/>
	<path class="st0" d="M531.5,102.8c-0.5-0.4-2.8-2.1-3.2-2.4"/>
	<path class="st0" d="M496.8,60.3c-0.4-0.9-1.2-2.6-1.7-3.4"/>
	<path class="st0" d="M496.6,104.6c-0.6-2.4-1.8-5.7-2.5-8.1"/>
	<path class="st0" d="M548.9,51.7c4.4-0.4,12.1-0.7,16.5-1.3"/>
	<path class="st0" d="M683.5,18.6c2.4,2.8,5.5,6.5,7.9,9.3"/>
	<path class="st0" d="M685.5,21.1c-0.9,1-1.8-2.1-2.1-2.5"/>
	<path class="st0" d="M458,121.8c1,5.9,2.3,11.9,2.6,17.8"/>
	<path class="st0" d="M584.2,22.5c-1.3-1.6-0.9-4.4-1.1-6.4"/>
	<path class="st0" d="M536.6,23.2c0-1.1,0.8-2.4,0.9-3.7"/>
	<path class="st0" d="M503.9,55.9c-0.2,0.4-1.2,2.3-1.4,2.7"/>
	<path class="st0" d="M501,59.9c1.6,2.2,4,3.6,6.6,4.5"/>
	<path class="st0" d="M569.2,23.8c1.7,0.2,4.6,0.1,6.3,0.1"/>
	<path class="st0" d="M724.1,32.5c-0.3,0.1-4.2,0.6-4.3,0.7"/>
	<path class="st0" d="M729.3,31.7c-1.3,0.2-3.8,0.6-5.1,0.8"/>
	<path class="st0" d="M543.6,27.9c0,2.8,1.6,1.5,3.5,1.4c1.9-0.5,5,0.4,3.9-2.6"/>
	<path class="st0" d="M456.2,26.9c0.6-3.2,1.8-9.7,2.4-12.9"/>
	<path class="st0" d="M645.5,66.8c-3.9-0.6-10.4-1-14.3-1.1"/>
	<path class="st0" d="M622.3,73.3c3.5-0.2,3.9-5.5,8.7-6.5"/>
	<path class="st0" d="M599.3,8.9c0.1-2-0.3-4.3,0.3-6.3"/>
	<path class="st0" d="M481.5,7.6c1.5-0.4,6.1-1.9,7.7-2.5"/>
	<path class="st0" d="M523.5,42.9c0.4,2.4,1.9,4.5,2.7,6.7c-0.1,2.8,0.9,4.6,2.1,7"/>
	<path class="st0" d="M445.8,20.9c0.4-2,1.2-6.7,1.6-8.8"/>
	<path class="st0" d="M612.6,131c8.2,4.3,18.3,7.2,25.5,13c6.7,5.7,6.7,6.2,15.5,7.8"/>
	<path class="st0" d="M619.4,121.6c0.4,2.4-2.6,5.7-3.2,8.2c-2.8,5.5-5.1,11.6-8.1,16.9"/>
	<path class="st0" d="M471.8,112.8l-3.9,0.6"/>
	<path class="st0" d="M696.2,20.3c0.8-0.6,2.5-2,3.4-2.7"/>
	<path class="st0" d="M478.9,69.8c-3.2,1-7.7,1.4-10.8,2.3c-3.1,1.6-6.4,3.5-9.4,5.3"/>
	<path class="st0" d="M478.9,69.8c1.7-0.4,4.5-1.1,6.1-1.7"/>
	<path class="st0" d="M486.8,67.6c2.7-1,5.9,0.2,8.5,0.9"/>
	<path class="st0" d="M505.4,122.4c0.7,1.2,1.2,3.1,1.5,4.5"/>
	<path class="st0" d="M660.4,79.4c-0.8,2.1-1.9,4.4-3,6.4"/>
	<path class="st0" d="M509.8,0.6c12.1-11.8,15.9-14.2,18.3-31.7c0.5-3.7,1.9-7.7,3.6-11c1.1-2.1,2.8-4.5,2.7-6.9"/>
	<path class="st0" d="M523,29.2c1.7-1.6,2.2-4.1,3.3-6.1c1.4-3.4,3.5-7,4.4-10.6c0.2-2.1-0.6-4.7-0.9-6.8c-0.2-1.4-1.6-2.2-2.9-2"/>
	<path class="st0" d="M531.2,96.3c-1-0.7-2.1-1.7-3.1-2.5"/>
	<path class="st0" d="M520.5,71.2c0.2-1.2,1.1-3.5,0.4-4.6"/>
	<path class="st0" d="M635.7,120.8c-0.6,1.4-2,4.3-2.7,5.7"/>
	<path class="st0" d="M699.8,138.6c5,1.8,9.9,4.5,13.4,8.6"/>
	<path class="st0" d="M448.5,114.3c3.6-11,8.2-25.6,20.7-28.9"/>
	<path class="st0" d="M445.5,104.7l1.5-3.4"/>
	<path class="st0" d="M460.5,111.1c0.5,3.2,1,6.7,1.4,9.9"/>
	<path class="st0" d="M616.2,62.8c2.4-0.4,6-1.5,8.4-2.1"/>
	<path class="st0" d="M737.3,44.2l2.7-2.9"/>
	<path class="st0" d="M553.5,89.7c6.1-0.1,12.6-0.3,18.7-1.3"/>
	<path class="st0" d="M468.5-6.9l-0.9,8.2"/>
	<path class="st0" d="M518.5,96c1.1,1.1,2.5,2.6,3.6,3.7"/>
	<path class="st0" d="M512.7,93.7c-1.2-0.8-2.8-2.2-4-3.2"/>
	<path class="st0" d="M740.2,58.1c0.4-0.5,4.3-3.2,4-4"/>
	<path class="st0" d="M679.3,130.3c2.9,0.7,6.7,1.6,9.6,2.3"/>
	<path class="st0" d="M687.1,9.3c-0.6-1.5-2.2-3.2-3.4-4.2"/>
	<path class="st0" d="M486.3-1.8c-0.5,2.2-1.3,4.3-3.8,4.4"/>
	<path class="st0" d="M671,96.1c-1.4,1.6-1.8,7.5-3.4,7.5"/>
	<path class="st0" d="M671,96.1c-0.7,2-1.5,5.8-2,7.8"/>
	<path class="st0" d="M670.3,104.5c-1.9-0.2,1-7,1-8.6"/>
	<path class="st0" d="M710,19.7c-5.7,9-10.7,18.5-15.4,28.1"/>
	<path class="st0" d="M564.5,48.8c0.6,7.5,1.4,15.1,2.1,22.5"/>
	<path class="st0" d="M473.6,81.2c-0.5-2.9-3-6.3-2-9.3"/>
	<path class="st0" d="M617.8,56.4c3.1-0.6,9.5-2.4,12.6-3.1"/>
	<path class="st0" d="M683,83.9c0.3-0.3,0.8-2.5,1.5-2.1c3.2,1.4,6.8,3.3,10,4.7"/>
	<path class="st0" d="M543.7,12.4c17.1-1,11.2-2.5,28.2,4.1"/>
	<path class="st0" d="M705.3,62.5c1.4-2.1,3.2-4.8,4.6-6.9"/>
	<path class="st0" d="M644.2,131.8c-1.7,3.9-4.4,8-7.2,11.2"/>
	<path class="st0" d="M647.5,126.3c-0.6,1.5-1.8,4.5-2.4,5.9"/>
	<path class="st0" d="M484.9,92.4c-0.8,0.4-2.7,1.3-3.6,1.7"/>
	<path class="st0" d="M671.4,106.6c2.9,1,5.9,1.9,8.6,3.3"/>
	<path class="st0" d="M644.1,85.8c5.5,4.2,11.3,8.5,16.9,12.7"/>
	<path class="st0" d="M725.9,136.7c6.5,5.4,14,9.1,21.4,12.8c1.6,1.2,8.9,3.8,9.1,5.2"/>
	<path class="st0" d="M511.8,56.5c-19.5-8.6-7.1-6.7-30.2-2.7"/>
	<path class="st0" d="M596.4,29.7c-0.6-1.4-0.6-3.1-0.4-4.6"/>
	<path class="st0" d="M724.7,37.8l-3.1,2.9"/>
	<path class="st0" d="M479.3,118.3c-0.6-1-0.5-3.5-0.8-4.6"/>
	<path class="st0" d="M499,135.8c-3.7-0.5-8.2,0.9-11.8-0.2c-4.5-4.5-5.3-11.6-7.9-17.3"/>
	<path class="st0" d="M729.7,34.2c0.3-0.1,3.1-0.5,3.5-0.6"/>
	<path class="st0" d="M443.4,60c-4.4,0.5-9.4,1-13.7,1.6"/>
	<path class="st0" d="M478.5,134.5c1.1,2.7,2.1,6.3,3.1,9c0.5,1.6,1.6,3.6,1.2,5.3"/>
	<path class="st0" d="M473.4,119.2c1.5,4.1,2.6,9,4.4,12.8"/>
	<path class="st0" d="M666.2,138c1.5,0.3,3.3,2,4.8,1.8"/>
	<path class="st0" d="M570.1,3c1.5,0.5,4.4,1.5,5.9,2.1"/>
	<path class="st0" d="M595.9,60.9c2.9-0.8,7.2-1.7,10.1-2.5"/>
	<path class="st0" d="M495.5,95.6c3.5,5.5,6.8,11.3,9.8,17.1"/>
	<path class="st0" d="M495.3,95.3c-0.9-1.3-2-3.5-3.1-4.6"/>
	<path class="st0" d="M485,68.2c0.8,2.7,1.6,5.5,1.6,8.3"/>
	<path class="st0" d="M588.5,103.9c-1.3-8.3-1.8-16.6-0.5-24.9"/>
	<path class="st0" d="M688.4,113.9c1.5-3.2,3.2-7.6,4.7-10.8"/>
	<path class="st0" d="M650.6,120.8c0.9-2,2.2-5,3.1-6.9"/>
	<path class="st0" d="M609.9,48.6c-3.2-11.5-5.1-23.5-7.2-35.3c-0.5-12.6,0.1-25.3-0.5-37.9"/>
	<path class="st0" d="M543.4,108.1c-0.1-2-0.5-5.7-0.5-7.8"/>
	<path class="st0" d="M542.1,87.6c0.2,1.6,0.1,3.3,0.4,4.9"/>
	<path class="st0" d="M475.3,37.6c-0.1,2.2,0.2,5.2,0.3,7.4"/>
	<path class="st0" d="M689.6,56.5c2.9,1.6,6.6,3.6,9.4,5.2"/>
	<path class="st0" d="M614.7,4.4c-0.9-1.7-0.9-5.1-1.6-6.9"/>
	<path class="st0" d="M557.9,8.6l1.4-5.7"/>
	<path class="st0" d="M571.5,7.8c0.7-1.9,2.1-5.7,2.8-7.6"/>
	<path class="st0" d="M479.1,26.5c0.9-2.7,2-6.7,2.9-9.5"/>
	<path class="st0" d="M530,67.2c-1.3-1.9-2.3,0.4-3.3,1.3"/>
	<path class="st0" d="M479.6,29.6l-4-1.2"/>
	<path class="st0" d="M488.2,95c0.2-1.3,0.2-3.1,0.3-4.4"/>
	<path class="st0" d="M533.4,60.3c0.6,3,0.8,6.5,1.6,9.4"/>
	<path class="st0" d="M533.5,50.8c-0.2,1.3-0.4,3.2-0.5,4.6"/>
	<path class="st0" d="M500.9,34.2c1.2-2.4,2.9-5.6,4.2-8"/>
	<path class="st0" d="M577.2,77.1c3,0,7.6-0.1,10.7-0.1"/>
	<path class="st0" d="M571.9,38.5c0.1-2.1,0.3-6.4,0.3-8.4"/>
	<path class="st0" d="M584.7,44.1c14.8-3.9,29.8-7.8,44.6-11.5"/>
	<path class="st0" d="M547.1,65.4c3.4-0.4,7.7-0.6,11.1-0.9c0.8,0.1,1.2-0.4,1-1.2"/>
	<path class="st0" d="M565.8,63.1c1.1-0.1,2.6-0.3,3.7-0.4"/>
	<path class="st0" d="M689.8,103.6c2.3,1,5.2,2.3,7.5,3.2"/>
	<path class="st0" d="M501.8,144.4c4-5.5,7.9-11.2,11.9-16.7"/>
	<path class="st0" d="M633.2,119.6c-1.7,3.4-3.5,7.5-5.1,10.9"/>
	<path class="st0" d="M591.2,59.4c3.5-1.5,15.1-2.6,16.4-5.3c0.4-2.5,1.3-5,3.5-6.5"/>
	<path class="st0" d="M455.5,126.5c0.3,1.2,0.6,2.8,0.9,4.1"/>
	<path class="st0" d="M620.6,113.5c-1.1,2.8-2.9,6.2-4.1,9"/>
	<path class="st0" d="M606.4,63c0.5-0.9,0.3-2,0-2.9"/>
	<path class="st0" d="M445.6,110.7c-1.1-0.9-3.2-0.7-4.6-0.9"/>
	<path class="st0" d="M629.8,114.8c6.4,3,13.2,6,19.6,8.9"/>
	<path class="st0" d="M664.7,68.1c4.6,2,10.1,4.4,14.8,6.4"/>
	<path class="st0" d="M441.3,7.9c2.3,2.3,5.6,4.3,8.8,5.1"/>
	<path class="st0" d="M631.2,96.5c0.4-1,1.8-3.2,2-4.3"/>
	<path class="st0" d="M703.2,52.5c-0.9,1.5-2.3,3.4-3.2,4.9"/>
	<path class="st0" d="M464.6,84c-0.6-2.6-1.3-6.2-1.9-8.8"/>
	<path class="st0" d="M639.6,78.6c2.8,1.6,7.5,3.4,10.6,3.8c7.3,3.3,15.2,7.1,22.5,10.3"/>
	<path class="st0" d="M685.2,65.6c3.1,1.4,7,3.4,10.1,4.6"/>
	<path class="st0" d="M537.8,66.8c1.1-0.1,3.1-0.4,4.2-0.5"/>
	<path class="st0" d="M566.9,95.5c0,1.7,0.4,3.8,0.5,5.5"/>
	<path class="st0" d="M744.8,51.6c0.3,0,2.7-2.8,2.8-3.1"/>
	<path class="st0" d="M442,117.8c0.7-3.5,3.9-6.9,5.3-10.3"/>
	<path class="st0" d="M447.4,107.5c2.2-4.4,4.6-9.2,6.3-13.7"/>
	<path class="st0" d="M453.7,93.8c-1.1,2.5-4.2,5.6-5.5,8.1"/>
	<path class="st0" d="M655.5,106.7c-1.1-2.1-5.5-2.8-7.5-4.3"/>
	<path class="st0" d="M729.3,31.5c0.8-0.4,4.5,0,3.7-1.8c-0.1-1.9-3-0.3-4.1-0.3"/>
	<path class="st0" d="M717.4,129.5c-0.2,0.4-1.6,3.8-1.9,4.1"/>
	<path class="st0" d="M480.1,110.3c-1.6,1.3-7.6,1.7-6.3,4.5"/>
	<path class="st0" d="M538.3,68.9c-0.9,0.2-2.5,0.6-3.3,0.8"/>
	<path class="st0" d="M578.3-1c0,0,4,1.5,4.1,1.5"/>
	<path class="st0" d="M534.3,90c-1.3,1.3-3,2.8-4.3,4"/>
	<path class="st0" d="M671.8,106.7c-0.3,1.2-1.5,6.1-2.2,7.1"/>
	<path class="st0" d="M519.9,94.7c1.7,1.8,3.6,3.7,5.2,5.5"/>
	<path class="st0" d="M520.1,94.5c-0.7-0.7-1.7-1.7-2.4-2.5"/>
	<path class="st0" d="M680.8,11.2c0.1,2.2-1.3,4.1-1.5,6.2"/>
	<path class="st0" d="M680.8,110.3c-0.9,2.2-2.2,5.2-3.3,7.3"/>
	<path class="st0" d="M460.2,29.3c0.9-4.6,2-10,2.9-14.6"/>
	<path class="st0" d="M710,19.7c6-11.6,6.4-1,16.4-3.4"/>
	<path class="st0" d="M645.4,86.8c0.5-1.3,1.6-3.7,2.1-4.9"/>
	<path class="st0" d="M637,106.5c2.8-6.3,5.9-13.1,8.9-19.4"/>
	<path class="st0" d="M495.5,95.6c0.2-1.2,0.4-3.1,0.4-4.4"/>
	<path class="st0" d="M500.8,132.8c4.9,3.4,10,7.1,14.9,10.6"/>
	<path class="st0" d="M513.5,41.2c-3.3,0.9-10.9,2.7-14.2,3.5"/>
	<path class="st0" d="M476.7,44.7c0.7,3.5,1.8,7.9,2.3,11.4"/>
	<path class="st0" d="M610.6,8.2c5.6,0,2.1-4.5,5.8-4.4c0.5,0.4,1,0,0.8-0.6"/>
	<path class="st0" d="M556.1,8.8c0-0.4,0.6-5.8,0.6-5.9"/>
	<path class="st0" d="M632.1,64.7c0.1,7.1-4.2-0.1-5.2,9.3"/>
	<path class="st0" d="M719.5,33c-1.3,1.1-4,3.5-5.3,4.7"/>
	<path class="st0" d="M701.2,20.6c2.2-1.1,4.8-2.4,7-3.6"/>
	<path class="st0" d="M486.1,50.2c-0.3-2.3-0.9-5.6-1.3-7.8"/>
	<path class="st0" d="M498.1,39.9c2.2-0.7,6.6-1.4,8.7-2.3"/>
	<path class="st0" d="M692.4,115.6c-1.9,5.3-3.9,11.1-5.6,16.5"/>
	<path class="st0" d="M499.6,47.4c0.2-3-1.5-6.6-2-9.7"/>
	<path class="st0" d="M561.9,101.7c6.1-1.1,12.7-0.9,18.9-1.7c2.3-0.6,4.7-1.9,7.1-2"/>
	<path class="st0" d="M592.1,84.3c2-0.2,4.9-0.6,6.9-0.8"/>
	<path class="st0" d="M707.6,0.6c1.5,0.8,4.4,2.6,5.8,3.4"/>
	<path class="st0" d="M483.2,4.5c-0.4-1.2-1.4-4.2-1.9-5.4"/>
	<path class="st0" d="M701.1,58.4c-0.9,1.5-2.8,4.6-3.6,6.1"/>
	<path class="st0" d="M665.7,129.2c5.1,1.4,24.2,6.8,28.9,8"/>
	<path class="st0" d="M646.3,106.6c1.7-4.8,4.2-9.8,6.3-14.5c1.6-1.9,3-4.4,3.9-6.8"/>
	<path class="st0" d="M687,3.9c0.2-0.3,2.2-1.9,1.9-2.3"/>
	<path class="st0" d="M632.8,108.3c6.3,2.9,13,6.1,19.3,9.2"/>
	<path class="st0" d="M668.4,63.6c4.7,2.4,10.7,4.4,15.4,6.8"/>
	<path class="st0" d="M577.4,17.3c0.3-0.1,2.7-0.5,3-0.6"/>
	<path class="st0" d="M605.4,43.6c-0.2-1.1-0.9-3.4-1.2-4.5"/>
	<path class="st0" d="M592.7,25.1c1.8-0.3,3.7-0.1,5.4,0.5c6.6-1.1,14.1-2.6,20.8-3.8"/>
	<path class="st0" d="M697.5,31.4c-1.4-1.5-3.2-3.1-4.3-4.8"/>
	<path class="st0" d="M693.5,26.4c-1.8-1.2-5.3-9.1-7.9-5.3"/>
	<path class="st0" d="M520.8,131.9c-3.7,4.2-6.9,9.4-10.2,14.1"/>
	<path class="st0" d="M620.5,30.3c1.5-0.3,3.2-0.8,4.7-0.1c7.3-1.4,2.3,3.8,4.5,8.6"/>
	<path class="st0" d="M493.6,135.8c0.1,0.9,0.1,2.1,0.1,3"/>
	<path class="st0" d="M459.5,64.2c-1.8-3.1-3.5-6.6-5.3-9.8"/>
	<path class="st0" d="M614.8,126c9.4,4.1,18.7,8.9,28.2,12.8"/>
	<path class="st0" d="M643.4,139c1.9,0.8,4.5,2,6.4,2.8"/>
	<path class="st0" d="M600.4,22.1l3.7-0.7"/>
	<path class="st0" d="M707.3,63.9c1.4-2.3,3.7-5.5,5.1-7.8"/>
	<path class="st0" d="M509.2,51.4l-2.3-5.6"/>
	<path class="st0" d="M565.9,120c1.9-1.2,3.9-2.6,5.7-3.9"/>
	<path class="st0" d="M499.1,124c3.8,4.1,8.8,7,13.2,10.3c4.3,3.6,9.6,6,14.6,8.6"/>
	<path class="st0" d="M726.4,54.5c2.1,3.2,4.4,6.6,5.9,10.1"/>
	<path class="st0" d="M540.5,60.6c-1.2,0.2-2.9,0.6-4.1,0.8"/>
	<path class="st0" d="M700,65.8l-2.1,4.3"/>
	<path class="st0" d="M699.6,65.6c1.1-1.7,2.2-3.9,3.2-5.6"/>
	<path class="st0" d="M471,88.9c-0.1,1.4-0.3,3-0.3,4.4"/>
	<path class="st0" d="M467.8,33.9c1.4-4.9,4.1-13,5.4-17.8"/>
	<path class="st0" d="M633.5,106.8c3.4-6.9,6.7-14.5,10-21.5"/>
	<path class="st0" d="M485,108.2c-0.9-2-1.1-2.2-2.9-0.9"/>
	<path class="st0" d="M561.1,16.9c-1.2,4.1,6.9,1.8,9.6,2.6"/>
	<path class="st0" d="M533.7,114.1c1.6,3.2,3.4,6.5,5.1,9.6"/>
	<path class="st0" d="M674.7,107.7c-0.6,2.3-1.1,5.4-2.3,7.5"/>
	<path class="st0" d="M495.2,31.1c-1,0.3-3.4,1-4.4,1.3"/>
	<path class="st0" d="M548.8,49c0.3-0.1,6.2-0.3,6.4-0.6"/>
	<path class="st0" d="M616.8,72l-1.1,4.6"/>
	<path class="st0" d="M530.5,70.3c0.7,0.6,2.1,1.9,2.7,2.6"/>
	<path class="st0" d="M543.7,12.4c-2-1.9-1.5-5.7-3.2-7.9"/>
	<path class="st0" d="M705.3,100.6c-1.1,5.2,3.7,10.2,1.4,15.2"/>
	<path class="st0" d="M731.5,50.6c0.6-0.7,1.3-1.6,0.8-2.4c-0.6-2.3-0.6-5.3-1.4-7.5"/>
	<path class="st0" d="M542.3,46.6c2.9-0.8,7-0.2,9.9-1"/>
	<path class="st0" d="M678.5,81.9c3.1,1.2,6.8,3.1,9.9,4.4"/>
	<path class="st0" d="M723.2,36.5c-1,0.8-2.3,2.2-3.2,3"/>
	<path class="st0" d="M703.6,60.8c1.3-2.1,3.2-4.8,4.6-6.9"/>
	<path class="st0" d="M712.2,86.2c-0.9-0.6-2.1-0.9-3-0.3c-1.8-0.3-4.7-2.3-6.4-3.1"/>
	<path class="st0" d="M528.6,129c-1.3,0.3-3.5,1.3-4.8,0.9"/>
	<path class="st0" d="M493.1,43.9c-0.1,1.5-0.3,3.3-0.4,4.8"/>
	<path class="st0" d="M482,11.4l-6-0.7"/>
	<path class="st0" d="M599.3,5.3c-1.3,0.1-2.5-0.3-3.7-0.7"/>
	<path class="st0" d="M617.8,15.6c1-0.1,2-0.3,1.1-1.4c-0.1-2,0.5-5.6-2.3-5.9"/>
	<path class="st0" d="M593.3,65.9c-2.9-11.3-9.4-21.6-13.1-32.5"/>
	<path class="st0" d="M711.7,87.1c3.3,1.8,2.8,1.1,4.1-1.9"/>
	<path class="st0" d="M693.4,138.1c-1,3.8-2.2,8.1-3.2,11.9"/>
	<path class="st0" d="M472.8,101.4c-5.2,1.5-10.9,3.3-16,5"/>
	<path class="st0" d="M675.9,108.1c0.4-1.6,1.8-3.5,1.5-5.1"/>
	<path class="st0" d="M502.8,107.9c-2.8,1.2-5.7,3.1-8.8,2.9c-2.7,0-7.1,1.3-9.4,0.5"/>
	<path class="st0" d="M668.7,139c-1.2,2.9-2.8,5.7-3.3,8.8"/>
	<path class="st0" d="M613.7,128.5c7.6,3.7,15.6,7.1,23.2,10.9"/>
	<path class="st0" d="M482,43.2c0.4,1.9,1.3,5.8,1.7,7.7"/>
	<path class="st0" d="M584.1-4.3c5.9,1.6,12.4,3.5,18.4,4.6"/>
	<path class="st0" d="M554.3,22.4c-1.3-5.7-1-11.9-0.3-17.7"/>
	<path class="st0" d="M446.7,30.8c-4.6,0.9-9.7,2-14.2,3"/>
	<path class="st0" d="M470.8,122.2c-2,0.3-4.3,0.6-6.3,0.9"/>
	<path class="st0" d="M587.7,96.2c4.1-0.5,8.6-1,12.7-1.4"/>
	<path class="st0" d="M575,110.7c1.4-1.3,3.4-1.4,5.2-1.7c2.1-0.2,4.3-1.2,6.2-2"/>
	<path class="st0" d="M602.5,2.9c-5.4,0.4-5.7-3.8-7.2,3"/>
	<path class="st0" d="M483.3,75c-2.4,0.8-8.2,2.6-10.6,3.4"/>
	<path class="st0" d="M588.6,53.3c6.8-1.8,14.3-3.6,21.1-5.4"/>
	<path class="st0" d="M619.7,45.4c1.8-0.4,2.6-2.9,4.2-3.8c2.8-1.6,6-3.1,9.1-3.7"/>
	<path class="st0" d="M611.1,47.6c2.1-0.5,4.9-1.2,7.1-1.8"/>
	<path class="st0" d="M681.4,102.2c2.6-6.8,6-13.7,9.1-20.4"/>
	<path class="st0" d="M656.5,123.4c0.4-0.8,1.1-2.5,1.4-3.3"/>
	<path class="st0" d="M459.6,38.9c-0.1,0.9,0.4,0.9,1.1,1.3c2.6,0.9,2.4,4.2,3.1,6.4"/>
	<path class="st0" d="M526.4,52.8c-0.9,0.6-2.3,0.2-3.2,0.2"/>
	<path class="st0" d="M673.9,61.3c3.3,1.9,7.6,3.4,11.1,5"/>
	<path class="st0" d="M451.9,24.3c-0.8,1.6-2.4,4.9-1.4,6.5c2,0.2,2,1,1.8,2.7c-0.8,0.8-4,0.4-5.1,0.8"/>
	<path class="st0" d="M649,100c3.3,1.4,7.7,3.6,10.9,5"/>
	<path class="st0" d="M548.3,118.6c-0.4,0.6-0.4,4.1-0.6,4.8"/>
	<path class="st0" d="M578.3,33.4c-0.3-1.2-0.4-3-0.5-4.2"/>
	<path class="st0" d="M692.1,10.7c-0.7,0.4-2.6,1.5-3.3,2"/>
	<path class="st0" d="M679.8,136.8c-3.1,10.9-3.2,8.9,2.5,18.6c2,3.3,4.1,7,6,10.4c0.7,1,2.3,1,3.4,1.5"/>
	<path class="st0" d="M656.5,123.4c-1.7-0.7-4.1-1.9-5.8-2.6"/>
	<path class="st0" d="M631,112.2c4.2,2.1,9.8,4.6,13.9,6.6c1.3,0.3,5,3.3,5.7,2"/>
	<path class="st0" d="M686,62.9c2.6,1,5.6,2.5,8.1,3.6"/>
	<path class="st0" d="M697.7,130.5c1.2-3.5,2.6-7.7,3.9-11.2"/>
	<path class="st0" d="M671.5,71c0.8-2.2,2.2-5.1,3.1-7.2"/>
	<path class="st0" d="M722.4,0c2.9-0.9,2.4-4.7,3.4-7.1c0.5-1.8,1.2-3.8,0.8-5.7c0.4-1.6,1.9-3.8,2.6-5.2"/>
	<path class="st0" d="M494.7,62.4c2.2-2.3,5.5-4.7,6.6-7.8"/>
	<path class="st0" d="M582.5,39.4c5.6-2.4,11.1-5.5,16.7-7.9c8.2-1.7,16.7-3.1,24.9-4.7"/>
	<path class="st0" d="M477.3,118.6c0,0.1,0.5,3.6,0.5,3.8"/>
	<path class="st0" d="M477.8,122.4c0.4,2.6,1.9,5.6,2.5,8.1"/>
	<path class="st0" d="M487.8,102.5c0.4,1.8,1.4,3.8,2.4,5.4c0.6,2.7,0.6,6.3,1,9"/>
	<path class="st0" d="M732.5,124.1c2.1,2.1,4.8,4.9,6.9,7"/>
	<path class="st0" d="M492.3,1.3c2.3-2,5-4.2,7.3-6.2"/>
	<path class="st0" d="M619.3,50.4c0.4-1.6,1-3.4,0.4-5"/>
	<path class="st0" d="M647.4,72.6c3.8-1.8,9.7-3.9,13.6-5.5"/>
	<path class="st0" d="M659.4,67.4c-3,1.4-9.4,3.2-12,5.2"/>
	<path class="st0" d="M631.1,56c-0.6-2.2-1.3-4.8-2-6.9"/>
	<path class="st0" d="M615.3,46.5c-2.6-8.3-3.9-17.5-5.5-26c-0.6-3.4-1.4-7.5-2-10.9c-0.3-0.9-1.7-0.5-2.4-0.6"/>
	<path class="st0" d="M605.4,9.1c0.2-1.9-0.7-4.7,1-6c0.3-1.6-0.8-4.3-0.8-6"/>
	<path class="st0" d="M498.3,95.9c0.1-1.5,0.4-5.1,0.6-6.6"/>
	<path class="st0" d="M672.1,134.5c-0.2,1.3-1.1,3.9-1,5.3"/>
	<path class="st0" d="M622,37.5c1.8-0.4,5.4-1.4,7.2-1.8"/>
	<path class="st0" d="M481.7,132.3c1.7,2.8,4.8,5.3,3.5,8.8"/>
	<path class="st0" d="M613.8,16.9l4.2-0.7"/>
	<path class="st0" d="M603.6,18.7c2.6-0.5,6-1.1,8.6-1.6"/>
	<path class="st0" d="M504.7,86.5c0.1,0,0.3-3.1,0.3-3.2"/>
	<path class="st0" d="M594.4,104.2c-1-8.5-2-17.2-2.9-25.7"/>
	<path class="st0" d="M737.5,19.6c2.3-0.2,6.3-0.8,8.1,0.7c1.5,2.5,4.4,5.4,4.4,8.5"/>
	<path class="st0" d="M734.8,35.8c0.2-4.8-1.3-9.9-2-14.6"/>
	<path class="st0" d="M626.5,30.2c0.4-0.9,0.8-2.5,1.9-2.6c1.3,0.4,3.3-0.3,3.9,1.2c0.2,1.9-1,4.1-0.3,6c0.2,0.8,1.2,2.2,1,3"/>
	<path class="st0" d="M536.4,73.2c0.9-0.3,2.1-0.7,2.9-1"/>
	<path class="st0" d="M613.7,52.5c0,0.1,0.7,2.8,0.7,3"/>
	<path class="st0" d="M575.4,6.8c0.1,0,3.7,1.4,3.8,1.5"/>
	<path class="st0" d="M537.2,113.2c3.6,1.2,4.5,4.9,6.2,7.9"/>
	<path class="st0" d="M523.5,104.9c1.2,1.1,3.1,1.9,4.4,2.7"/>
	<path class="st0" d="M582.3,0.7c2.9,1.2,7.3,2.7,10.4,3.2"/>
	<path class="st0" d="M447.9,127c-2,4.1-3.2,3.3-3.1,8.2c0.2,1.4-1.2,2.6-1.6,3.8c-0.4,2.8-0.4,5.9-0.2,8.7"/>
	<path class="st0" d="M552,22.8c-0.7-2.2,0.4-6.6-3.2-5.1"/>
	<path class="st0" d="M583.4,91.1c-0.8-7.4-0.3-15-0.6-22.4"/>
	<path class="st0" d="M630.3,108c-2.5-0.2-5.3,0.4-7.4-1.1"/>
	<path class="st0" d="M685.5,101.4c-0.5,0.1-2.7,0.5-3.2,0.7"/>
	<path class="st0" d="M661.5,110.1c0.2,0.2,4.8,2.1,5,2.3"/>
	<path class="st0" d="M559.9,112.2l-5.5,3.1"/>
	<path class="st0" d="M495.3,68.5c5.9,1,11.9,3.8,17.5,5.2"/>
	<path class="st0" d="M522.1,84.2c-0.8,0.4-2,0.8-2.4,1.7"/>
	<path class="st0" d="M679,5.8c1.2-0.2,3.5-0.5,4.7-0.7"/>
	<path class="st0" d="M691.2,100.2c-2.7,6.4-5.8,13.5-8.5,19.9"/>
	<path class="st0" d="M467,90.9c-1.8,1.2-4.3,1.1-6.1,2.4"/>
	<path class="st0" d="M460.9,93.2c2.1-0.4,4.2-1.3,6.3-1.9"/>
	<path class="st0" d="M727.4,9.6c1.4-8.8,2.5-18.1,2.7-26.8c-6.1-5.4-11.4-12.1-18.2-16.7"/>
	<path class="st0" d="M643,138.8c-1,1.5-3.1,4.3-4.2,5.7"/>
	<path class="st0" d="M501.6,130c4.4,3.1,9,6.5,13.4,9.6"/>
	<path class="st0" d="M682.6,137.7c-1.2,3.8-1.9,8.6-3.4,12.2"/>
	<path class="st0" d="M584.6,110c-0.4-1.2-1.1-2.6-1.6-3.8"/>
	<path class="st0" d="M730.1,52.5c1.8,3.3,3.8,7.2,5.6,10.5"/>
	<path class="st0" d="M598.8,11.5l3.8,0"/>
	<path class="st0" d="M698.1,64.8c-0.8,1.5-1.8,4-2.8,5.3"/>
	<path class="st0" d="M468.9,133.1c-4.4,0.3-9.4,0.7-13.8,1.1"/>
	<path class="st0" d="M529.3,131.4c-1.6,0.5-4.1,0.9-5.7,0.9"/>
	<path class="st0" d="M480.1,2.7c-1.6-0.3-5-0.8-6.6-1.1"/>
	<path class="st0" d="M730.2,37c1.3-0.5,3.6-0.2,4.6-1.2"/>
	<path class="st0" d="M483.5,99.3c0.8-0.4,3-1.5,3.8-1.9"/>
	<path class="st0" d="M514.7,48.7c-1.9,1.1-4.6,2-6.3,3.3"/>
	<path class="st0" d="M451.9,50.1c-0.4-2-0.8-4.9-1.1-7"/>
	<path class="st0" d="M545.2,46.3c0-0.1-0.3-3.4-0.2-3.5"/>
	<path class="st0" d="M545,51.8l-0.4-5.4"/>
	<path class="st0" d="M547.6,73.4c-0.3-7.1-1.4-14.5-2-21.6"/>
	<path class="st0" d="M666.2,138c-1.4,2.5-3.1,6.3-3.5,9.2"/>
	<path class="st0" d="M493.4,103.8c-3.5,1.1-6.8,3.7-10.1,5.3"/>
	<path class="st0" d="M617.2,62.6c1.8,0.7,5.1,1.3,7,1.8"/>
	<path class="st0" d="M541.4,133.2c-3.7,0.2-7.7,0.2-11.4,0.5"/>
	<path class="st0" d="M466.6,120.3c-0.4-3-0.9-6.6-1.4-9.6"/>
	<path class="st0" d="M503.6,100.5c-2,1-4.5,2.7-6.5,3.8"/>
	<path class="st0" d="M496.6,104.6c-4.7,2.6-9.8,5.6-14.5,8.1c-4.5,1-9.1,2.5-13.7,3"/>
	<path class="st0" d="M448.4,39.8c-1.7-6.7-1.9-10.3,0-17"/>
	<path class="st0" d="M470.5,35.4c1.6-6.1,3.9-13.1,5.7-19.1"/>
	<path class="st0" d="M447.2,86.2c-0.2,1.7-0.6,4.2-0.9,5.9"/>
	<path class="st0" d="M517.3,35.7c-2.8,0.3-9.5-1.3-10.5,1.9"/>
	<path class="st0" d="M524.2,34.8c0.8,1.3,2.4,1.3,3.7,1.4"/>
	<path class="st0" d="M481.5,54.1c-0.6-2.9-1.6-7.2-2.1-10.1"/>
	<path class="st0" d="M727.9,40.7c-1,1.2-2.6,2.4-3.9,3.3"/>
	<path class="st0" d="M544.5,73.6c-1.2-1.1-3.1-0.3-4.4,0.2"/>
	<path class="st0" d="M575,33.8c3.1-0.2,6.5-0.4,9.5-1.5c2.1-0.7,4.7-0.5,6.9-1.1c7.2-2.6,14.9-4.3,22.5-5.5"/>
	<path class="st0" d="M615.3,25.4c1-0.2,3.1-0.6,4.1-0.8"/>
	<path class="st0" d="M480.1,43.8c0.2-5.4-1.5-11.7,0.3-16.9"/>
	<path class="st0" d="M517.3,33.4c-2.3-0.2-5.3-0.1-7.6-0.1"/>
	<path class="st0" d="M638.2,122c-2,3.8-3.8,8.3-5.8,12.2"/>
	<path class="st0" d="M478.8,108.8c2.3,2.8,5.5,5.5,7.4,8.5"/>
	<path class="st0" d="M467.2,91.3c2.6,4,4.5,8.4,7.1,12.4"/>
	<path class="st0" d="M449.7,51.2c-0.5-1.9-0.9-5.8-1.3-7.8"/>
	<path class="st0" d="M602.7,13.4c0.6-0.4,3.3-0.2,3.3-0.7c-0.1-0.5-0.8-0.3-0.7,0.2"/>
	<path class="st0" d="M549.6,54.9c5-0.5,12.8-0.9,17.8-1.4"/>
	<path class="st0" d="M562.7,0.8c1.6,0.6,5.6,2.1,7.3,2.7"/>
	<path class="st0" d="M549.3,0.4c3.8,0.1,9.7,0.1,13.5,0.1"/>
	<path class="st0" d="M596.9,64.9c-3.8-13.9-6.8-28.2-11-41.8"/>
	<path class="st0" d="M585.9,23.1c1.2-1.8-0.1-5,0.1-7.1"/>
	<path class="st0" d="M470.8,122.2c3.2,9.7,6.5,19.6,9.7,29.3c-2.1,7-4.5,14.2-6.8,21.1"/>
	<path class="st0" d="M705.9,5.5c1.2,0.5,2.6,1.6,3.6,2.3"/>
	<path class="st0" d="M448.4,22.8l-6.1,1.3"/>
	<path class="st0" d="M477.2,22.9c1.9,1.2,4.7,1.1,6.7,0.3"/>
	<path class="st0" d="M723.3,8.3c0.3-0.1,4.4-1.9,4.7-1.8"/>
	<path class="st0" d="M561,100.3c3.1-2.9,8.1-1.9,12-2.5c4.9,0,9.9-1.4,14.4-3.1"/>
	<path class="st0" d="M656.6,115.3c0.7-2.7,2.1-5.8,2.8-8.4"/>
	<path class="st0" d="M659.9,105c-0.5,1.7,1.1,1,2.1,1"/>
	<path class="st0" d="M662.2,99.4c-1.2-0.1-1.1,2-1.5,2.7"/>
	<path class="st0" d="M737.7,27.4c5.2,0.3,5.9,4.9,0.1,4.3"/>
	<path class="st0" d="M576.2,4.6c0,0,3.8,1.3,4,1.4"/>
	<path class="st0" d="M523.9,127.4c-0.1,2.2-0.4,5-0.2,7.2"/>
	<path class="st0" d="M521.6,107.9c-2.2-2.6-4.7-5.4-7.1-7.9"/>
	<path class="st0" d="M651.3,94.7c1.7,0.8,3.1,1.7,3.7-0.7"/>
	<path class="st0" d="M619.9,112.6c1,1.5,3.2,2,4.7,2.8"/>
	<path class="st0" d="M547.5,71.3c2.1-0.1,3.7-1.2,3.4,1.7"/>
	<path class="st0" d="M477.9,44.4c-0.1-2.1-0.2-4.8-0.3-6.9"/>
	<path class="st0" d="M689.7,8.7c-1.4-5.6-7.5-8.9-11.2-13.1"/>
	<path class="st0" d="M467.6,128.4c-4.3,0.9-9.1,1.7-13.4,2.6"/>
	<path class="st0" d="M454.3,131.5c-2.7,0.2-6.6,0.1-9.3,0.3"/>
	<path class="st0" d="M528.9,99.3c-0.9-0.8-2.3-2.3-3.2-3.2"/>
	<path class="st0" d="M733.7,9.8c0.8-6.2,1.3-13.7,2-20"/>
	<path class="st0" d="M732.1,15.1c0.3-1.1,0.8-4.5,1-5.7"/>
	<path class="st0" d="M698.5,22.7c-1.6-1.8-4.2-4.2-5.7-6c0-1.3,1.9-2,2.7-2.7"/>
	<path class="st0" d="M587.9,76c6.1-0.6,12.5-1.5,18.5-2"/>
	<path class="st0" d="M593,39.2c-0.1-1.3-0.5-2.9-1.1-4.1"/>
	<path class="st0" d="M535.3,38.6c0.9-1,0.1-4.1,2.1-4"/>
	<path class="st0" d="M508.3,27.9c-1.6-0.9-4-2.1-5.7-2.7"/>
	<path class="st0" d="M573.9,11c0.3,0.1,4.2,1.5,4.5,1.6"/>
	<path class="st0" d="M591.5,78.5c1.7-0.2,5.2-0.6,6.9-0.8"/>
	<path class="st0" d="M642.3,117.6c0.5-1,1.4-2.9,1.9-4"/>
	<path class="st0" d="M453.9,130.1c-2.3,0.1-5.5,0.6-7.6-0.3"/>
	<path class="st0" d="M671.1,74.4c1.9,0.8,3.8,1.7,5.8,2.5"/>
	<path class="st0" d="M646.2,132.7c-1.7,3.8-4,9.3-6.2,12.8"/>
	<path class="st0" d="M560.9,8.2c5.6,2,11.7,4.3,17.3,6.4"/>
	<path class="st0" d="M443.1,19.4l1.6-8.7"/>
	<path class="st0" d="M578.9,111.1c-0.2-1.1-0.5-2.7-0.7-3.8"/>
	<path class="st0" d="M525.5,111c-1.2-0.9-3-2-3.9-3.2"/>
	<path class="st0" d="M537.7,47.9c0.6,7.1,3.5,14,4.9,21"/>
	<path class="st0" d="M594.7,22.1c-0.6-1.3-0.1-5.8-2.7-4.6"/>
	<path class="st0" d="M476.8,68.4c-1.2-1.6-2.9-5.4-4-7.2"/>
	<path class="st0" d="M446.1,80.8c-1.6-0.3-4.5-0.2-6-0.7c-0.2-0.5-1.1-0.5-1.3,0.1"/>
	<path class="st0" d="M577.4,87.3c3.2,0,6.7-0.1,9.9-0.1"/>
	<path class="st0" d="M681,102.3c-0.3,0.6-2.6,6-2.9,6.8"/>
	<path class="st0" d="M740.8,58.9c-2.7,1.8-5.2,5.2-8.6,5.7"/>
	<path class="st0" d="M442.6,97.9l3.2,0.3"/>
	<path class="st0" d="M542.9,15.5c2.4-0.1,8.1-0.7,10.5-0.9"/>
	<path class="st0" d="M550.5,4.4c0.3,0.3,3,0.2,3.5,0.3"/>
	<path class="st0" d="M480.8,86.8c-3.6-0.1-7.4-1.1-11-0.7"/>
	<path class="st0" d="M546.3,23.6c-0.2-0.9-0.7-2.3,0.8-2.1"/>
	<path class="st0" d="M520.7,122.7c0.5,0.5,2.2,2.3,2.8,2.7"/>
	<path class="st0" d="M639.7,116.4c0.5-1.1,1.3-2.9,1.8-4"/>
	<path class="st0" d="M682.6,106.1c3.3,1.3,7.1,3.1,10.3,4.5"/>
	<path class="st0" d="M728.3,25.7c2.4-0.5,5-1.8,7.6-1.9"/>
	<path class="st0" d="M693.3,115.9c1.4-3.1,3.1-7.2,4.5-10.3"/>
	<path class="st0" d="M453.8,46.3c-0.4-1.7-0.6-4.3-0.8-6"/>
	<path class="st0" d="M565.1,106.4c5.5-0.6,11.7-1.2,17.2-2"/>
	<path class="st0" d="M677.7,10.9c0-0.2-0.7-4-0.8-4.3"/>
	<path class="st0" d="M517.1,22.8c1.8-4.3,3.9-8.8,5.7-13c1.1-2,1.5-5.4,4.1-6.1"/>
	<path class="st0" d="M526.9,3.7c-1.2-4-0.5-8.3,1.9-11.7"/>
	<path class="st0" d="M500.7,11c1.8-1.4,3.8-3.2,5.5-4.7"/>
	<path class="st0" d="M728.7,28.3c-3.4,0.7-8.4,1-11.7,1.9"/>
	<path class="st0" d="M566.9,29.8c2.5,0.2,5.8,0.2,8.3,0.3"/>
	<path class="st0" d="M676.3,10.7c-0.7,3.6,1.6,2.7,4.1,3.4"/>
	<path class="st0" d="M483.1,20.5c-1.4,0.7-3.8,0.6-5.2-0.1"/>
	<path class="st0" d="M541.2,76.2c1.2-0.3,2.7-1.2,4-1.1"/>
	<path class="st0" d="M529.6,98.5c1,0.6,2.5,1.5,3.5,2.1"/>
	<path class="st0" d="M702.3,53.9c4.1,2.6,8.4,5.5,12.5,8.2"/>
	<path class="st0" d="M643.8,75.3c15.1,7.5,31.2,13.3,46.4,20.7"/>
	<path class="st0" d="M546.8,6.4c0.4,0.1,6.5,0.4,7.1,0.4"/>
	<path class="st0" d="M731.4,48.3c-1.6,0.5-5.8,4.8-5.5,1"/>
	<path class="st0" d="M625.7,116c-5.5,11.5-10.6,23.7-16.3,35"/>
	<path class="st0" d="M696.6-31.7c-5.7,6.2-11.4,12.7-16.9,19.2c-1.2,0.9-3.3,1.5-4.2,2.6c-0.4,3.5-1.3,7.4-1.1,10.9
		c1,4.1,0.3,8.5-0.6,12.5c0.8,7.8,9.4,11.5,13.9,17"/>
	<path class="st0" d="M482.3,14.2l-6.7-0.7"/>
	<path class="st0" d="M520,66.5c-2-0.1-4.3-0.2-6.3-0.4"/>
	<path class="st0" d="M465.4,35.9c2.6,0.9,4.9,2.6,7.5,3.5"/>
	<path class="st0" d="M459.6,38.9c-8.9,0-18,1.9-26.6,3.5"/>
	<path class="st0" d="M479.1,57.4c0.7,1.7,1.5,3.5,2.7,4.9c1,1.3,2.5,2.3,2.7,4"/>
	<path class="st0" d="M433,42.4c3.4,1.5,7.1-0.6,10.6-1c5.1-1.3,10.9-1.2,16.1-1.7"/>
	<path class="st0" d="M517.7,23.5c0.7,1,0.3,2.8,0.4,4c1.1,2.9,4.3,5,6.1,7.4"/>
	<path class="st0" d="M554.4,83.2c-0.4-5.1-0.8-10.4-1.5-15.5c-2.3-8-4.5-16.2-4.5-24.6"/>
	<path class="st0" d="M481.6,8.5l-5.3-0.6"/>
	<path class="st0" d="M687.6,30.5c4.6-3,9.2-6.5,13.5-9.9c3.7-9.2,4.7-19.7,10.8-27.8"/>
	<path class="st0" d="M569,38.7c0.1-2.6,0.3-6.2,0.4-8.7"/>
	<path class="st0" d="M703.5,13.5c-2-1.5-4.9-4.4-6.6-6.3"/>
	<path class="st0" d="M628.2,117.1c-1.8,3.9-4,8.5-5.7,12.5"/>
	<path class="st0" d="M609,135.4c3.3,1.6,7.9,3.7,11.3,5.2"/>
	<path class="st0" d="M659.4,138.4c4.9,1,9.2,4,13.9,5.7"/>
	<path class="st0" d="M487.2,128.3c2.4,2.5,5,5.1,7.5,7.5"/>
	<path class="st0" d="M448.7,77.4c-1.9-2.3-2.5-6-3.6-8.8"/>
	<path class="st0" d="M701.2,7.3c1.6-1.3,4.2-4.6,5.8-5.4"/>
	<path class="st0" d="M453.3,43c-2.1,0.2-5.1,0.5-7.2,0.6"/>
	<path class="st0" d="M677.7,108.9c-1.3,6.8-5.2,13.1-6.9,19.9"/>
	<path class="st0" d="M644.9,118.9l1.9-4"/>
	<path class="st0" d="M544.3,87.4c1.2,0.1,1.5,2.4,2.2,3.2"/>
	<path class="st0" d="M520.7,122.7c-6.3,8.2-11.9,17.1-18.2,25.2"/>
	<path class="st0" d="M497.9,113.4c-4.5,0.4-9.4,0.8-13.8,1.3"/>
	<path class="st0" d="M510.2,70.3c-0.3,1.2-0.7,2.5-1.3,3.6"/>
	<path class="st0" d="M512.3,61.8c-0.6,2.6-1.4,6-2.2,8.5"/>
	<path class="st0" d="M508.8,73.8c-1.5,2.3-7,2.6-9.4,3.3c-1.8,0.4-3.7-0.9-4-2.7"/>
	<path class="st0" d="M495.4,74.5c-0.3-1,1.4-5.8,2.7-5.3"/>
	<path class="st0" d="M508,75c-1.2,1.7-3.8,3.4-2.6,5.7"/>
	<path class="st0" d="M498.2,80.2c1.3-0.2,2.8-0.5,4.1-0.4"/>
	<path class="st0" d="M517.2,48.2c1.1-2.1,2.1-4.9,3.8-6.6"/>
	<path class="st0" d="M520,40.5c0.4-1.3,0.2-3-0.1-4.3"/>
	<path class="st0" d="M519.9,36.1c-8-19.8-15.7-40.5-28.5-57.8"/>
	<path class="st0" d="M510.7,70.4c-0.4,1.6-1.3,4.9-1.8,6.6"/>
	<path class="st0" d="M512.9,63.7c0.1-3.2,0.7-6.5,1.8-9.5"/>
	<path class="st0" d="M507.9,85.2c0.4-1.3,1.6-5.9,1.9-7.3"/>
	<path class="st0" d="M506.9,84.9c-1,5.5-3.2,11.2-1.7,16.8"/>
	<path class="st0" d="M517.1,80.8c-3.2,0.2-5.4-3.2-8.4-3.4"/>
	<path class="st0" d="M502.3,80.2c2.2,0.4,3.5,2.5,3.7,4.6"/>
	<path class="st0" d="M511.9,77.4c-3-1.6-6.8,0-10,0.5"/>
	<path class="st0" d="M643.8,75.3c-1.3,1-3,2.2-4.2,3.3"/>
	<path class="st0" d="M667.5,64.1c3.2-1.2,6.9-3.3,10.2-4.2c2,0.5,4.5,1.9,6.5,2.4"/>
	<path class="st0" d="M624.2,64.4c1.5-3.9-1.2-8.2-1.7-12.1"/>
	<path class="st0" d="M682.1,75c-1.4,1.4-2.7,3.1-3.8,4.7"/>
	<path class="st0" d="M679.8,78.2c3.5-3.9,7,5.5-6.6,0.9"/>
	<path class="st0" d="M644.6,67.3c1.2,0.2,2.4,0.6,3.5,1.1"/>
	<path class="st0" d="M631.2,65.7c-2.4,0-4.5,1.5-6.8,1.8"/>
	<path class="st0" d="M548.1,68.5c1.2-0.2,3.7-0.5,4.9-0.6"/>
	<path class="st0" d="M518,32.8c1.5,5.3-1.1,10.5-2.2,15.5"/>
	<path class="st0" d="M504,92.1c-0.2,1.7-0.7,3.9-0.8,5.6"/>
	<path class="st0" d="M496.3,87.7c0.9,0.1,3.3,0.4,4.2,0.4"/>
	<path class="st0" d="M415.8,84.1c10.4,0.6,21,1.7,31.4,2.2"/>
	<path class="st0" d="M448.8,86.3c2.3,0.2,6.1,0.2,8.4,0.3"/>
	<path class="st0" d="M461.2,87.1l3.2,0.8"/>
	<path class="st0" d="M457.2,86.5c1.4-1.7,0.5-4.7,0.4-6.7"/>
	<path class="st0" d="M456.8,78.5c0,2.1,1.2,4.2,0.6,6.4"/>
	<path class="st0" d="M456.2,77.5c-0.7-1.1-1.3-2.3-2-3.4"/>
	<path class="st0" d="M631.2,107.8c1.9-1,4.1-1.5,6.2-1.2c3.9,0,8.1,0.1,12.1,0.1"/>
	<path class="st0" d="M490.6,80.3c-9,0.3-18.2,2.9-26.4,6.4c-9,5.5-12.8,16.4-16.3,25.8"/>
	<path class="st0" d="M720.1,142.9c-2.6-3.2-6.9-3.4-10.7-3.4c-3-0.1-6.1-1-9.1-1.5"/>
	<path class="st0" d="M636,117.4c0.1,0.1-1.2,2.7-1.3,2.9"/>
	<path class="st0" d="M647.4,120.2c0.1-0.2,1.9-3.9,2-4.1"/>
	<path class="st0" d="M630.1,114.2c-0.4,0.8-1.1,2.3-1.5,3.2"/>
	<path class="st0" d="M508,75c-1,0.9-2.3,2.6-3.7,3"/>
	<path class="st0" d="M505.5,80.7c2.3,3.9,5.2-0.1,8.5,0.8"/>
	<path class="st0" d="M508.7,77.4c-3.5,0.4-2.4,4.9-2.6,7.3"/>
	<path class="st0" d="M509.6,83c2.6-0.6,2.2-3.5,1.9-5.5c0-2.1,0.5-4.5,0.9-6.5"/>
	<path class="st0" d="M630.3,108c-1.9,0.8-5.9,0.2-7.9,0.5"/>
	<path class="st0" d="M621.9,109.3c-2.1-0.5-4.3-0.4-6.5-0.6"/>
	<path class="st0" d="M600.4,108.3c-2.6-0.2-5.3,0.3-7.9,0.9"/>
	<path class="st0" d="M624.9,112.6c1-0.1,2.8-2.1,3.6-2.7"/>
	<path class="st0" d="M711.7,87.1c2.2-4.3,4.4-8.8,5.6-13.6c0.5-5.1,1.2-10.1,4.9-14"/>
	<path class="st0" d="M542.5,92.6c0.2-1.1,0.2-3.5,0.2-4.6"/>
	<path class="st0" d="M621,111.2c0.4,0.2,3.4,3.1,1.6,2.4c-0.5-0.3-1.4-1.2-1.8-0.3"/>
	<path class="st0" d="M623.8,115.8c-1.6,1.8-3.1,1.8-3.9,4.5"/>
	<path class="st0" d="M622.4,108.5c-1.6,0-5.4-0.2-6.9,0.2"/>
	<path class="st0" d="M628.4,111.2c-0.2-3-3.9-2.4-6-2.7"/>
	<path class="st0" d="M662,127.3c-9.7-3.7-19.6-8.5-29-12.9c-3.5-2-7-4.3-11.1-5.1"/>
	<path class="st0" d="M600.5,109.1l15.6,0.4"/>
	<path class="st0" d="M472.9,36.9c-0.2,2.8,0.6,5.8,0.7,8.6"/>
	<path class="st0" d="M487.4,81.9l-0.4-5.5"/>
	<path class="st0" d="M487,76.4c-0.1-1.9-0.3-3.9-0.8-5.7"/>
	<path class="st0" d="M488.5,79.6c-1.4-0.3-1.2-2.2-1.3-3.2"/>
	<path class="st0" d="M492.2,90.7c0.1-0.1-1.8-2.8-1.8-2.9"/>
	<path class="st0" d="M484.9,66.3c-0.6-2.5-3.1-4.2-4-6.6"/>
	<path class="st0" d="M528.3,56.7c-4.1-0.7-8.6-0.8-12.7-1.5"/>
	<path class="st0" d="M501.3,130.8c3.3-8.8,3-7.8,10.9-12.5"/>
	<path class="st0" d="M490.2,162c0.4-3.6,0.5-7.3,1.4-10.8c1.8-4.1,3.9-8.4,6.1-12.3"/>
	<path class="st0" d="M520.9,66.6c1.2,0,2.6,0.5,3.6-0.3c2.8-2.4,5.2-5.8,3.8-9.6"/>
	<path class="st0" d="M515,81.6c1.8,0.2,3.7-0.2,5.5-0.5"/>
	<path class="st0" d="M519.7,80.7c-5.5,1.6-11.1-1.9-16.6-1.6"/>
	<path class="st0" d="M516.2,117.6c0.6,0.9,1.7,2.2,2.5,2.9"/>
	<path class="st0" d="M503.3,97.6c0.1,3.2,1.3,6.6,3.1,9.2"/>
	<path class="st0" d="M519.2,89.7c0.6-0.9,1.6-2,2.3-2.8"/>
	<path class="st0" d="M517.4,114c1.3-2,2.9-4.1,4.2-6.1"/>
	<path class="st0" d="M517.4,114c-2.2-1-3.5-3.6-4.8-5.4"/>
	<path class="st0" d="M563.1,111c0.8-0.4,1.9-0.8,2.8-1.2"/>
	<path class="st0" d="M528.4,81.3c-1.8,0.8-4.5,2.1-6.3,2.9"/>
	<path class="st0" d="M530.5,37.2c-4-4.3-8.2-8.6-12.2-13"/>
	<path class="st0" d="M511.8,10.5c0.1,0.9,0.8,3.5,1,4.4"/>
	<path class="st0" d="M501.9,77.9c-4.3,0.9-9,2.2-13.4,1.7"/>
	<path class="st0" d="M490.7,80.9c4.9,0,10.3,0.1,15-1.1c2.7,0.1,5.5,1.3,8.2,1.7"/>
	<path class="st0" d="M515.8,42.4c-7.7-4.2-15.6-8.4-23.2-13c-4.1-3.2-7.3-8-9.7-12.5"/>
	<path class="st0" d="M513.9,187.8c-5-5.2-4.6-13.1-6.8-19.5c-2.4-10.2-4.9-20.5-6.6-30.8"/>
	<path class="st0" d="M536.3,133.4c-0.2-2.8-4.9-2.2-7-2"/>
	<path class="st0" d="M558.4,129c0.6-0.5,10.8-8.4,11.7-9.1"/>
	<path class="st0" d="M536.9,95.1c-1.2,1.7-2.7,3.7-3.8,5.4"/>
	<path class="st0" d="M523.5,122.2c5.2,4.1,12.3,6.2,18.1,9.1"/>
	<path class="st0" d="M532.6,110.4c-0.8,1.1-2,2.8-2.7,3.9"/>
	<path class="st0" d="M573.4,117.3c0.5-0.3,3-1.6,3.5-1.8"/>
	<path class="st0" d="M570,120.6c0.9,0.2,2.6-1.7,3.2-2"/>
	<path class="st0" d="M577.1,115.8l3.2-2"/>
	<path class="st0" d="M603.8,105c-0.1-1.9-0.1-5.2-2.9-4.4"/>
	<path class="st0" d="M570.4,121.7c1.1-0.8,2.9-1.9,4-2.7"/>
	<path class="st0" d="M585.4,110.8c-4.8,0.7-9.3,2.9-12.9,6.1"/>
	<path class="st0" d="M569.5,119.1l-10,7.7"/>
	<path class="st0" d="M592.7,110c2.5-0.6,5.2-1.1,7.8-0.9"/>
	<path class="st0" d="M585.4,110.8c-3.8,0.1-7.8,1.3-11,3.3"/>
	<path class="st0" d="M556.9,101.9l4.4-1"/>
	<path class="st0" d="M559.9,112.2c0.9-0.2,2.4-0.7,3.1-1.2"/>
	<path class="st0" d="M551.1,138.5c-0.8,3.4,0.9,8.5-2.6,10.8"/>
	<path class="st0" d="M505.2,101.7c1.4,5.1,6,8.6,9.3,12.5"/>
	<path class="st0" d="M514.5,114.3c5.9,7.4,13.6,14,22.6,17.1"/>
	<path class="st0" d="M546.7,133.2c4.3,0.3,8.3-1.7,11.7-4.3"/>
	<path class="st0" d="M553.4,146.7c-2.8-7.5-1.7-13,5-17.7"/>
	<path class="st0" d="M554.4,131.3c-1.8,2-3,4.6-3.3,7.3"/>
	<path class="st0" d="M552.2,130c-1.8,0.3-3.7,0.4-5.5,0.2"/>
	<path class="st0" d="M557.9,128.3c-1.1,0.8-2.6,2-3.5,3"/>
	<path class="st0" d="M535.2,127.5c-6.7-2.4-12.4-6.6-17.5-11.5"/>
	<path class="st0" d="M546.4,135.1c-2.3-4.3-7.2-5.6-11.3-7.6"/>
	<path class="st0" d="M549.5,140.4c-0.6-1.6-1.3-3.7-1.9-5.3"/>
	<path class="st0" d="M547.6,135.1c-1-2.6-3.3-4.6-5.9-5.8"/>
	<path class="st0" d="M552.2,130c-1.7,0-3.8,0.1-5.5-0.1"/>
	<path class="st0" d="M543.5,129.3c-1.4-0.3-2.8-0.8-4.1-1.4"/>
	<path class="st0" d="M527,127.9c3.5,0.8,6.6,2.8,10,3.8"/>
	<path class="st0" d="M523.5,122.2c3.4,2.5,6.7,5.9,10.8,7.3"/>
	<path class="st0" d="M536.8,130.2c1.2,0.3,2.3,1.1,2.6,2.3"/>
	<path class="st0" d="M532.6,128.1c2.8,1.2,6.1,2.1,9,3.2"/>
	<path class="st0" d="M524.9,120.4l-3.8,1.9"/>
	<path class="st0" d="M531.2,124.4c-4.8-1.8-9.5-5.3-13.6-8.4"/>
	<path class="st0" d="M520.5,128.4l3.4-1"/>
	<path class="st0" d="M548.3,118.6c1.8-0.6,4.8-1.8,6.1-3.2"/>
	<path class="st0" d="M548.2,121.6c0-0.9,0.3-2.2,0.1-3"/>
	<path class="st0" d="M615.4,108.7c-1.5,0-5.3-0.1-6.8-0.2"/>
	<path class="st0" d="M528.6,129c1.2,3.8,2.5,8.1,3.2,12"/>
	<path class="st0" d="M525.5,111c-1.1,1.5-2.2,3.2-3.2,4.7"/>
	<path class="st0" d="M525.5,120.2c-2.6-2-5.4-4.2-8.1-6.2"/>
	<path class="st0" d="M700.3,138.1c-4.2-1.2-10.4-2.9-14.6-4.1"/>
	<path class="st0" d="M658.2,106.8c1.3,0.3,2.6-0.3,3.8-0.7"/>
	<path class="st0" d="M661.7,98.9c1.3-1.9,3.4-4,4.1-6.1"/>
	<path class="st0" d="M706.6,97.8c1.5-0.1,3.4-0.3,4.9-0.4"/>
	<path class="st0" d="M751.5,155.9c-14.8-10.3-34.3-12.3-51.1-17.8"/>
	<path class="st0" d="M483.8,68.6c1.1,0.1,1.6,1.6,2,2.4"/>
	<path class="st0" d="M456.6,78.1c-1.4,0.7-4.1,2-2.7,3.6c-0.5,0.3-1.4,0.3-1.9,0.6c-0.2,0.7-2.3,1.7-2.6,1.3"/>
	<path class="st0" d="M478.9,69.8c0.8,2.8,1.9,6.1,2.7,8.8"/>
	<path class="st0" d="M441.4,107.5c0.5-4,1-8.5,1.7-12.4"/>
	<path class="st0" d="M571.2,111.4c1-0.5,2-1.4,3-1.9"/>
	<path class="st0" d="M537.5,84.8c-5.6,5.5-11.5,10.9-17,16.5"/>
	<path class="st0" d="M569.1,103.4c-0.2-3.4-0.3-7.1-0.6-10.5"/>
	<path class="st0" d="M566.9,74.7c0.2,2.4,0.3,5,0.6,7.4"/>
	<path class="st0" d="M566.3,69.3c-0.2,0-3.6,0.4-3.8,0.5"/>
	<path class="st0" d="M566.1,66.7c-2.3,0.3-5.8,0.6-8.1,0.7"/>
	<path class="st0" d="M569.8,66.4c1.2-0.3,3.4-0.2,4.4-0.7"/>
	<path class="st0" d="M513.7,66.1c0.4-3.6,0-7.7,1.9-10.9"/>
	<path class="st0" d="M485.7,79.8c-4.5,0.7-9.1,2.2-13.3,3.9"/>
	<path class="st0" d="M666.9,112.5c6.3,2.7,12.8,6.6,19,8.9"/>
	<path class="st0" d="M671.4,95.4c1.8-3.6,3.4-7.5,5-11.2"/>
	<path class="st0" d="M681.9,110.8c7.5,4.3,16.2,6.3,23.7,10.4c3.2,2.3,6.8,4.4,10,6.6c3.4,2.9,6.6,6.3,10.3,8.8"/>
	<path class="st0" d="M666.9,112.5c2.2-1.6,0.3-8.1,4.5-6"/>
	<path class="st0" d="M679.8,78.2c0.8-1,1.8-2,2.3-3.2"/>
	<path class="st0" d="M661.8,74.5c1.3,0.6,3.3,1.5,4.7,2.1"/>
	<path class="st0" d="M666.4,76.6c2,1.5,9.6,4.5,10.3,6.4"/>
	<path class="st0" d="M673.2,79.1c-2.3-1-5.8-2.6-8.1-3.7"/>
	<path class="st0" d="M660.6,62.3c-2.2-4,10.4-18.9,12.8-23.5"/>
	<path class="st0" d="M652.7,71.1c2.9,2.2,7,3.5,9.7,0.3"/>
	<path class="st0" d="M654.5,70.4c-2.9-1.3-6-2.8-9-3.7"/>
	<path class="st0" d="M653.7,68.1c-2.8,0.2-5.5-1-8.2-1.4"/>
	<path class="st0" d="M646.7,71.9c-0.5,1.4-2.1,2.1-3,3.4"/>
	<path class="st0" d="M622,110c2.8,1.1,4.5,2.5,2.6,5.5"/>
	<path class="st0" d="M622,110c2,0.5,4,1.2,5.9,2.2"/>
	<path class="st0" d="M629.8,107.1c4.1-7.6,7.1-16,11.4-23.5"/>
	<path class="st0" d="M624.6,115.5c12.2,5.6,24.2,12,36.9,16.6"/>
	<path class="st0" d="M619.7,121.4c1.1-2.8,2.2-3.7,4.6-5.3"/>
	<path class="st0" d="M633.2,92.2c1.8-3.3,3-8.1,5.5-10.9"/>
	<path class="st0" d="M699.8,135.5c-3.5,1.6-10.3-1.1-14.1-1.5"/>
	<path class="st0" d="M699.8,135.5c1.5-6.8,3.5-13.6,6.9-19.7"/>
	<path class="st0" d="M730.8,40.6c-2-11.6-3.2-23.6-8.4-34.3c-1.4-3.5-1.6-8-4.6-10.7"/>
	<path class="st0" d="M675.4,131.1c-3.5-1-8.5-2.4-12-3.4"/>
	<path class="st0" d="M730.8,40.6c0.1,2.3,0.5,4.7,0.9,7"/>
	<path class="st0" d="M446.6,116.3c-0.8,3.3-1.7,8-2.7,11.3"/>
	<path class="st0" d="M726.4,16.3c6.5-1.6,13.3-2.3,20-3.4"/>
	<path class="st0" d="M508.9,18.2c-1.9,0.3-3.4-1.3-4.5-2.7c-2.2-2.6-4.5-5.4-6.8-7.9c-7.7-10-8.6-8.5-20.2-12.1"/>
	<path class="st0" d="M568.3,26.2c2.2,0,4.9-0.2,7.1-0.2"/>
	<path class="st0" d="M512.4,11.7c-0.2-0.9-0.3-2.3-0.7-3.2"/>
	<path class="st0" d="M508.3,85.3c0.5-2.1,1.4-5.3,1.6-7.4"/>
	<path class="st0" d="M520.5,81.1c0.5,1,1.1,2.1,1.6,3.1"/>
	<path class="st0" d="M507.5,91.1c0.1-0.5,0.2-2.5,0.3-3"/>
	<path class="st0" d="M453.7,93.8c1.2-2.3,2.4-4.9,3.5-7.2"/>
	<path class="st0" d="M448.1,108.3c0.1,1-0.2,3.2-0.3,4.3"/>
	<path class="st0" d="M511.3,83.3c2.4-2.5,6.5-0.5,9.2-2.2"/>
	<path class="st0" d="M512.4,70.9c0.2-2.3,0.8-4.8,0.5-7.1"/>
	<path class="st0" d="M487.2,76.4c-0.1-1.8-0.3-3.8-0.8-5.5c-0.3-1.1-0.9-2.6,0.4-3.3"/>
	<path class="st0" d="M504.9,81c1.1,1.5,2.8,2.6,4.7,2"/>
	<path class="st0" d="M509.2,85.9c0.6-1,1.3-1.9,2.1-2.6"/>
	<path class="st0" d="M443.9,127.6c-0.9,4.4-6.1,3.2-9.2,2.6"/>
	<path class="st0" d="M513.4,78.4c-1.7-2.2-1.1-5-0.9-7.5"/>
	<path class="st0" d="M520,75.8c-0.2,1.6-0.2,3.2,0.3,4.7"/>
	<path class="st0" d="M520.9,35.8c-2.7,3.6-3.5,8.4-5,12.5"/>
	<path class="st0" d="M568.8,113.1c-0.7,0.5-2.1,1.4-2.9,1.9"/>
	<path class="st0" d="M681.1,109.4c0.7-1.7,2-4.5,2.7-6.2"/>
	<path class="st0" d="M555.2,103c0.8,1.4,2.3,3.9,3.6,4.8"/>
	<path class="st0" d="M682.3,102c-3.9,0.8-8.1,1.7-12,2.5"/>
	<path class="st0" d="M662,106c2.2-0.2,5.1-1.6,7.2-0.7"/>
	<path class="st0" d="M755.4,87.2c7.8-1.4,15.5-3.7,23.1-5.8"/>
	<path class="st0" d="M501.3,130.8c-0.9,1.1-1.2,2.8-1.9,4.1"/>
	<path class="st0" d="M508.1,103.1c-0.8-0.7-1.1-2.2-1.5-3.2"/>
	<path class="st0" d="M434.6,130.5c3.4,0.4,8.5,2,10.4-1.9"/>
	<path class="st0" d="M498.2,80.2c1.3,0,2.8-0.2,4.1,0"/>
	<path class="st0" d="M446.1,125.9c0.6-3.6,1.2-8.1,2.4-11.6"/>
	<path class="st0" d="M469.2,85.4c6.3-2,13.1-4.3,19.7-4.3"/>
	<path class="st0" d="M447.8,112.5c-0.3,1-0.9,2.9-1.2,3.8"/>
	<path class="st0" d="M648.2,68.4c1.8,0.7,3.7,1.6,5.4,2.3"/>
	<path class="st0" d="M627.9,112.2c10.5,5.9,22.7,11,33.8,15.7"/>
	<path class="st0" d="M515.8,48.4c-1.1,3.8-3.4,9.4-3.5,13.4"/>
	<path class="st0" d="M514.7,54.2c2-5.9,3.1-12.5,6.5-17.7"/>
	<path class="st0" d="M509,77c-0.7,2.4-1.5,5.5-2.1,7.9"/>
	<path class="st0" d="M512.3,61.8c-0.2,2.9-0.8,5.9-1.6,8.7"/>
	<path class="st0" d="M509.9,77.9c0.4-1.7,1.6-5.5,2-7.1"/>
	<path class="st0" d="M512.7,111.2c-3.3-3-6.7-6.7-7.3-11.3"/>
	<path class="st0" d="M608.6,108.5l-8.2-0.2"/>
	<path class="st0" d="M551.1,138.5c0,3.7,0.3,10.6,0.3,14.3"/>
	<path class="st0" d="M503.1,79.1c-2.7,0.2-5.8,0.9-8.6,1"/>
	<path class="st0" d="M615.3,118.2c0.5-1.4,1.8-3,2.3-4.4"/>
	<path class="st0" d="M595.1,113c-0.3-0.4-0.9-0.8-0.9-1.3c0.7-1.1-0.4-0.6-0.9-0.4c-1.1-1.4,4.8-1.5,5.7-1.4"/>
	<path class="st0" d="M457.2,86.5c1.2,0.2,2.8,0.4,4,0.6"/>
	<path class="st0" d="M618.2,45.8c0.3,1.3,0.9,3.3,1.1,4.6"/>
	<path class="st0" d="M570.7,74.2c-0.5-3.7-0.9-7.8-1.2-11.5"/>
	<path class="st0" d="M615.5,65.4c1.2-4.9,2.5-10.1,3.8-15.1"/>
	<path class="st0" d="M585.7,105.1c0.3,1.4,1.2,2.9,1.5,4.3"/>
	<path class="st0" d="M588,79c0-1.6-0.2-4.2-0.2-5.8"/>
	<path class="st0" d="M457.2,86.5c16-5.7,32.6-10.3,49.2-13.6"/>
	<path class="st0" d="M600.9,100.3c-0.7-6.5-1.5-13.1-2.1-19.6"/>
	<path class="st0" d="M598.4,77.8c-0.4-4.1-0.9-8.8-1.5-12.9"/>
	<path class="st0" d="M620.7,76.6c1.7,0,3.6,0.1,5.2,0c0.7-0.2,0.6-1.1,0.9-1.7"/>
	<path class="st0" d="M616.5,122.5c-2.9,5.7-5.3,12.2-8.4,17.7"/>
	<path class="st0" d="M612.6,76.7c0.5-1.4,1.1-4,1.4-5.4"/>
	<path class="st0" d="M516.4,110.1c0.2,0.9,1.4,1.7,2.1,2.2"/>
	<path class="st0" d="M520,110.2c-1.7-1-2.9-3-4.2-4.5"/>
	<path class="st0" d="M692.8,50.7c-2.1,4.1-4.6,8.2-6.9,12.2c-1.3,3.9-1.9,8.5-3.8,12.1"/>
	<path class="st0" d="M747.5,12.7c2.2-0.4,5.2-0.5,7-2"/>
	<path class="st0" d="M722.7,58.8c3-5.7,6.3-4.1,8.8-8.3"/>
	<path class="st0" d="M567.5,82c0.3,3.5,0.7,7.3,1,10.9"/>
	<path class="st0" d="M515.6,55.2c1.1-3.5,2.1-7.1,3.8-10.4"/>
	<path class="st0" d="M537,124.6c-1.4,0.2-3,1-4.4,0.7"/>
	<path class="st0" d="M537,124.6c3.7-1.9,7.7-4,11.3-6"/>
	<path class="st0" d="M606.6,62.4c3.3-1,7-1.8,10.4-2.7"/>
	<path class="st0" d="M539.3,41.6c4-0.6,8.2-1.4,12.3-2"/>
	<path class="st0" d="M704.6,98c1.3,0,0.6,1.8,0.8,2.6"/>
	<path class="st0" d="M546.7,129.9c-1-0.1-2.2-0.4-3.2-0.6"/>
	<path class="st0" d="M546.6,130.3c-3.9-0.2-7.9-1.5-11.5-2.8"/>
	<path class="st0" d="M537.5,84.8c-0.7-0.6-1.6-1.5-2.2-2.1"/>
	<path class="st0" d="M526.4,126.7c0.5-0.2,4.1-0.7,4.8-0.8"/>
	<path class="st0" d="M526.4,126.7c2.1,0.1,4.3,0.5,6.2,1.4"/>
	<path class="st0" d="M512.7,111.2c-2.7-3.2-5.9-6.9-6.1-11.3"/>
	<path class="st0" d="M573.2,118.6c1.1-0.9,2.7-2,3.8-2.8"/>
	<path class="st0" d="M547.4,126.3c-0.1,1.2-0.3,3.1-0.3,4.3"/>
	<path class="st0" d="M539.2,128.2c-0.9-0.4-2.9-1.2-3.7-1.7"/>
	<path class="st0" d="M539.4,127.9c-1.2-0.5-2.6-1.1-3.9-1.4"/>
	<path class="st0" d="M515.3,44c-8.8,1.9-18,3.7-26.8,5.6"/>
	<path class="st0" d="M571.2,111.4c0.3,1.7,3.4,0.2,4.4,0.3"/>
	<path class="st0" d="M575.6,111.7c3.7-0.8,7.9-1.2,11.5-2.3"/>
	<path class="st0" d="M677.9,135.2c1.9-3.4,13.1,1.9,16.8,1.9"/>
	<path class="st0" d="M628.2,117.1c-1.1-1.2-0.9-2.8-0.1-4.1"/>
	<path class="st0" d="M465.2,69.8c0.9-1.8,2.7-2.1,4.5-2.4c1.6-0.7,3.4-1.8,5-2.6"/>
	<path class="st0" d="M583.8,63.4c0.2,0.2,0.9,4.3,1.1,4.5"/>
	<path class="st0" d="M505.4,89.7c-0.7,3.9-2.1,8.2-0.2,12"/>
	<path class="st0" d="M517.1,80.8c-1.5-0.4-2.9-1.1-3.8-2.4"/>
	<path class="st0" d="M522.8,84.8c1.7,0.6,4.3,0.5,5.7,1.8"/>
	<path class="st0" d="M533.9,81.2c0.8-0.7,2-1.9,2.8-2.7"/>
	<path class="st0" d="M534.1,92.3c2.1,2.2,4.5,4.3,6.9,6.2"/>
	<path class="st0" d="M530.5,76.3c-3.3,0.6-7,3.2-10.2,4.3"/>
	<path class="st0" d="M457.6,108.9c-0.3-0.9-0.7-2.2-1-3.1"/>
	<path class="st0" d="M455.4,104.1c-3.8,6.6,1.9,2.2,2.6,7.8"/>
	<path class="st0" d="M639.1,77.2c-9,8.9-14.5,22.6-20.4,33.6"/>
	<path class="st0" d="M599,129.2c-1.2,3.4-4.2,6.3-5,9.7c0.3,0.7-8.6,4.1-8.9,4.4"/>
	<path class="st0" d="M618.2,111.7c-1.7,4.2-5.8,7.8-9.2,10.6"/>
	<path class="st0" d="M587.8,73.2c2.9-0.6,6.9-1.5,9.8-2.3"/>
	<path class="st0" d="M535.1,55c1.1-0.2,2.7-0.3,3.8-0.5"/>
	<path class="st0" d="M486.7,65.8c-1.4-0.1-2-1.5-3.1-2"/>
	<path class="st0" d="M531.9,35.6c1.6-1.7,3.4-3.7,5-5.4"/>
	<path class="st0" d="M565.9,120c-1.5-2.5-4.4-5.1-4.4-8.2"/>
	<path class="st0" d="M497.5,37.7c-0.5-1.9-1.1-4.4-1.7-6.3"/>
	<path class="st0" d="M540,109c0.8,1.3,2,3.6,2.7,5"/>
	<path class="st0" d="M455.1,134.2c0.6,2.8,1.5,6,2.1,8.8"/>
	<path class="st0" d="M455.1,134.2c-2.7-0.2-7.5-0.5-10.2-0.7"/>
	<path class="st0" d="M463.2,120.8c1-0.2,2.4-0.4,3.4-0.5"/>
	<path class="st0" d="M447.6,122.7c4.6,0.8,9.7-1.1,14.3-1.7"/>
	<path class="st0" d="M465.1,109.7c-1.2-4.4-2.8-9.1-4.1-13.4"/>
	<path class="st0" d="M465.1,109.7c-1.4,0.4-3.2,1-4.6,1.4"/>
	<path class="st0" d="M512.6,101.8c-0.9,0.8-2.3,1.9-3.2,2.7"/>
	<path class="st0" d="M514.5,100c-1.3-1.7-3.7-2.8-4.7-4.6"/>
	<path class="st0" d="M510.7,94.9c-1.2,0.8-2.8,1.4-4.2,1.8"/>
	<path class="st0" d="M567.1,109.7c4.1,7.3,6,3.4,11.8,1.5"/>
	<path class="st0" d="M473.5,45.1c0.9-0.6,0.5-1.6,0.4-2.5c0.2-0.8,0.5-2.1-0.8-2"/>
	<path class="st0" d="M487.4,82.5c3.7-1,8,0,11.8,0.3c3,0.3,6.8,0.4,9.5,2"/>
	<path class="st0" d="M511.8,85c1.5,0,4.5-0.1,6-0.1"/>
	<path class="st0" d="M599,109.9c6.6,0.1,13.8,0.3,20.4,0.5"/>
	<path class="st0" d="M568,112.3c-0.3-0.3-2-2.2-2.2-2.5"/>
	<path class="st0" d="M576.8,117.2c2.8-2.5,6.3-3.8,9.9-4.5"/>
	<path class="st0" d="M574.4,119c0.6-0.5,1.8-1.4,2.4-1.8"/>
	<path class="st0" d="M581.5,113.3c1.7-0.7,4.4-1.2,6.1-1.7"/>
	<path class="st0" d="M588.5,111.8c1.5-0.4,3.5-1,4.9,0.1"/>
	<path class="st0" d="M574.4,114.1c-1.8,1.6-4.1,0.7-5.6-0.9"/>
	<path class="st0" d="M592.6,109.2l-4.8,1"/>
	<path class="st0" d="M759.2,107c-2.3,0.3-5.1,2-7.4,2"/>
	<path class="st0" d="M529.4,120c0,0,1.7,3.2,1.8,3.4"/>
	<path class="st0" d="M489,95.1c0.1-0.8,0.4-3.6,0.5-4.4"/>
	<path class="st0" d="M529.4,120c0.6-0.9,1.5-2.1,2.1-2.9"/>
	<path class="st0" d="M575.3,28c-2.6,0-5.3,0.7-7.9,0.5"/>
	<path class="st0" d="M670,101.5c2-0.3,5.1-1.4,7.1-1.1"/>
	<path class="st0" d="M517.2,48.2c0.9-2.4,2.2-5.2,2.7-7.7"/>
	<path class="st0" d="M537.8,88.6c0.9,0.3,2.6-0.1,3.3,0.7"/>
	<path class="st0" d="M513.7,127.7c1.7-2.2,3.4-4.9,5-7.2"/>
	<path class="st0" d="M534.8,77.1c-0.6,0.5-2,2.1-2.7,2.4"/>
	<path class="st0" d="M602.1,63.6c-4.4-17.9-10.6-35.7-10.6-54.4c0.6-5.4,3-10.7,4.5-15.9"/>
	<path class="st0" d="M542.7,95.7c-0.1-1-0.1-2.2-0.2-3.2"/>
	<path class="st0" d="M547.1,80.1c2.2-0.3,4.7-0.4,7-0.5"/>
	<path class="st0" d="M540.9,98.6c-1.4,2-3.7,5.3-5.2,7.3"/>
	<path class="st0" d="M554.4,115.3c-1.9,0.9-4.3,2.2-6.1,3.2"/>
	<path class="st0" d="M533.6,104.3c1.9-2.8,4.2-5.7,6-8.5"/>
	<path class="st0" d="M537.6,109.6c-1.4,0.2-3.2,0.2-4.7,0.3"/>
	<path class="st0" d="M464.9,1.1c0.3-2.1,0.8-6.5,1.1-8.6"/>
	<path class="st0" d="M662.4,71.4c0.9-1.1,1.1-2.9,0.3-4.1"/>
	<path class="st0" d="M657.4,71.8l-2.9-1.4"/>
	<path class="st0" d="M614,71.2c2.2,0.6,6,1.6,8.3,2.1"/>
	<path class="st0" d="M620.7,76.6c0.8,4.1-2.4,3.2-3.3,5.9c-1,1.8-2.6,0.2-3.8,1.3c-1.9,1.5-3,1.7-3.9,4.1c-3.2,1.6-4.4,5.7-6,8.5"
		/>
	<path class="st0" d="M708.3,17.3c-2.4-4.5-5.6-8.6-9.1-12.3"/>
	<path class="st0" d="M449.5,83c0.1-1.3-1.8,0.9-2.1,0.9c0,0-0.2,2.3-0.2,2.3"/>
	<path class="st0" d="M543.4,108.1c-0.1,1.7,0.9,3.2,1.6,4.6"/>
	<path class="st0" d="M463.1,14.7c6.4,1,13.3,1.9,19.7,2.3"/>
	<path class="st0" d="M459.6,38.9c2.6,0.5,4.4-1,5.8-3.1"/>
	<path class="st0" d="M488.5,49.7c-0.3-2.2-0.7-6-1.1-8.1"/>
	<path class="st0" d="M488.5,49.7c-1.4,0.4-3.5,0.5-4.8,1.3"/>
	<path class="st0" d="M631,66.8c2.9-0.8,7.8,0.1,10.9,0.2"/>
	<path class="st0" d="M668.4,77c-2.1-1.4-5.2-2.3-6.3-4.7"/>
	<path class="st0" d="M545,102.1c4.1-3.3,0.8-4.9-2.3-7"/>
	<path class="st0" d="M543,100.3c-0.1-1.4-0.1-3.2-0.3-4.6"/>
	<path class="st0" d="M535,69.7c0.6,1.9,1.6,3.7,2.4,5.4"/>
	<path class="st0" d="M538.3,68.9c-1-4-2.1-8.2-3.1-12.2"/>
	<path class="st0" d="M516.9,97.5c-0.7,0.7-1.7,1.7-2.5,2.5"/>
	<path class="st0" d="M529.9,88c1.3,1.4,2.8,3.1,4.1,4.4"/>
	<path class="st0" d="M699.8,138.6c2.9,0.8,10.1,2.8,12.9,3.6"/>
	<path class="st0" d="M694.7,137.2l5.2,1.5"/>
	<path class="st0" d="M708.4,94c1.1-2.2,2.3-4.6,3.3-6.9"/>
	<path class="st0" d="M685.5,101.4c5.4-1.2,11-2.1,16.4-3.1"/>
	<path class="st0" d="M647.4,72.6c-0.4,0.3-3.2,2.3-3.6,2.7"/>
	<path class="st0" d="M570.7,74.2c5.6-1,11.4-0.9,17.1-1"/>
	<path class="st0" d="M532,85.7c-0.7,0.6-1.4,1.6-2.1,2.2"/>
	<path class="st0" d="M543.9,81.4c-1.1-1.4-1.8-3.2-2.6-4.9"/>
	<path class="st0" d="M660.9,67.1c2.1-1,4.5-1.9,6.5-3.1"/>
	<path class="st0" d="M566.5,71.3c-7.2,0.8-14.7,1.8-22,2.4"/>
	<path class="st0" d="M608.7-2.3c3.1,16,5.3,32.4,9.5,48.1"/>
	<path class="st0" d="M625.9,8.8c-1.2-2.6-5.2-1.5-6-3.8c-0.4-2.3,1.5-4.5,1.5-6.8"/>
	<path class="st0" d="M619.7,45.4c-4.3-15.6-6.3-31.9-9.4-47.7"/>
	<path class="st0" d="M605.8,62.8c-0.8-0.2-2.9,0.6-3.7,0.8"/>
	<path class="st0" d="M605,69c0.4-1.6,1-4.4,1.4-6"/>
	<path class="st0" d="M604.7,77.1c-0.5-2.5-0.5-5.6,0.4-8"/>
	<path class="st0" d="M605,69c3,0.6,6.1,1.5,9,2.2"/>
	<path class="st0" d="M488.1,41.3c-5-2.6-6.9-4.8-12.8-3.7c-4.2-0.9-8.1-4.4-11.9-6.4c-18.7-12.3-40.3-20.6-57.2-35.5"/>
	<path class="st0" d="M482.8,17c-0.8-3.3-1-7.1-1.5-10.4c-0.8-3-2.5-7-3.3-10.1c-4.7-6.4-10.7-12.4-15.7-18.6"/>
	<path class="st0" d="M526.5,102.7c1.5-1.4,2.3-3.4,3.6-5"/>
	<path class="st0" d="M583.1,106.2c-2.7-6.3-5.6-12.9-5.7-19.9c-0.6-5.4,0.8-11.1-0.9-16.3"/>
	<path class="st0" d="M574,107.5c-0.5-5-0.6-10.2-1.4-15.1"/>
	<path class="st0" d="M566.9,74.7c1.1-0.2,2.7-0.3,3.9-0.5"/>
	<path class="st0" d="M546.3,140.4c0.4-2.8,0.6-7,0.9-9.9"/>
	<path class="st0" d="M508.4,110.9c-0.6,0.4-2.5,1.5-3.1,1.8"/>
	<path class="st0" d="M533.5-17.4c-0.6,5.4,0.2,18-0.1,23.5"/>
	<path class="st0" d="M568.9,55.9c-1.3-2.3-3.2-4.7-4.4-7.1"/>
	<path class="st0" d="M564.5,48.8c-0.2-4.6-1.7-9.5,0.5-13.8"/>
	<path class="st0" d="M530.7,76.7c1.3-0.3,2.9-0.1,4.2,0.4"/>
	<path class="st0" d="M598.4,77.8c3.2-0.3,6.9-0.8,10-1.1"/>
	<path class="st0" d="M588,79l3.5-0.4"/>
	<path class="st0" d="M590.2,66.7c0.2,1.7,0.5,4.2,0.7,5.9"/>
	<path class="st0" d="M601.3,103.4c-2.2,0.2-4.7,0.5-6.9,0.8"/>
	<path class="st0" d="M612.6,76.7c-1.1,0-3.1,0-4.2,0"/>
	<path class="st0" d="M540.9,83c-0.4-1.2-1.6-2.4-2.4-3.2"/>
	<path class="st0" d="M482.1,90c-5.9-0.8-12-0.7-17.8-2"/>
	<path class="st0" d="M484.1,90.2c0.9,3.2,3.1,6.6,4.4,9.7"/>
	<path class="st0" d="M545.1,75c0.3,0.3,0.8,0.1,1.2,0.1c1.2,0.2,1.7,1.7,3,1.6c5.8-0.6,11.8-1.2,17.6-2.1"/>
	<path class="st0" d="M532.6,42.5c-2.2-0.4-4.7,0.2-6.9,0.2"/>
	<path class="st0" d="M537.7,47.9c1.3-0.1,3.4-0.2,4.6-0.3"/>
	<path class="st0" d="M476.4,106.2c0,0,2.1,2.3,2.2,2.4"/>
	<path class="st0" d="M496.1,88.5c-1.7-0.4-4-0.5-5.8-0.7"/>
	<path class="st0" d="M505.3,112.7c-2.3,1-4.3,3.2-6.8,3.6"/>
	<path class="st0" d="M662.2,126c-1-0.5-4.7-2.3-5.7-2.6"/>
	<path class="st0" d="M652.1,117.4c3.6,1.8,8.1,3.7,11.7,5.4"/>
	<path class="st0" d="M587.8,73.2c-0.1-1.6-0.1-4.3-0.2-5.9"/>
	<path class="st0" d="M591.5,78.5c-0.2-1.5-0.5-4.5-0.6-6"/>
	<path class="st0" d="M719.2,63.9c-0.9,1.4-2.4,2.2-4,2"/>
	<path class="st0" d="M667.5,110.2c-0.4,1.6-1.4,3.4-1.7,5"/>
	<path class="st0" d="M665.8,115.2c0.5-1.3,1.6-3.6,1.7-5"/>
	<path class="st0" d="M667.5,110.2l1.1-4.5"/>
	<path class="st0" d="M545.1,112.7c1,1.8,2.2,4.1,3.2,5.9"/>
	<path class="st0" d="M457.6,47.2c2.1-1.4,4.6-1.1,6.9-0.5"/>
	<path class="st0" d="M464.5,46.8c2.8,0.8,5.9-0.6,8.6-1.1c5-1.3,10.1-2.7,15-4.4"/>
	<path class="st0" d="M513.3,54.5c-8.4-4.3-16.9-8.7-25.2-13.2"/>
	<path class="st0" d="M488.1,41.3c5.4-2.2,11-4.2,16.9-4.7"/>
	<path class="st0" d="M549.5,140.4l-2.5-4.3"/>
	<path class="st0" d="M524,125.8c0.7,0.7,2.2,1.5,3,2.1"/>
	<path class="st0" d="M541.6,131.3c2,1.2,3.6,3,4.7,5.1"/>
	<path class="st0" d="M548.1,128.2c2.1,5.5,3.7,11.5,5.6,17.1"/>
	<path class="st0" d="M512.6,108.6c-0.7-1.2-2.4-3-3.2-4.1"/>
	<path class="st0" d="M506.4,106.9c0.3,0.6,1.5,1.9,2,2.4"/>
	<path class="st0" d="M640.7,107.6c7.9,3.9,16.1,7.8,24.2,11.4"/>
	<path class="st0" d="M640.7,107.6c-1.2,2.4-2.6,5.4-3.8,7.9"/>
	<path class="st0" d="M655.2,126.3c2.1,0.9,4.9,2.1,7,3"/>
	<path class="st0" d="M549.8,104.2c1.6-0.5,3.4-0.4,4.9,0.2"/>
	<path class="st0" d="M726.2,15.7c0.6-1.2,0.9-4.7,1.2-6"/>
	<path class="st0" d="M569.8,66.4c-1,0.1-2.8,0.3-3.7,0.4"/>
	<path class="st0" d="M534.5-2.8c1.2,1.5,3.3,4.1,4.4,5.6"/>
	<path class="st0" d="M540,4c-1.4-2.4-3.7-4.7-5.3-7"/>
	<path class="st0" d="M538.3,35.7c0.4-2.1,0.8-4.7,1.1-6.8"/>
	<path class="st0" d="M537.9,40.9c0.1-1.6,0.2-3.6,0.5-5.2"/>
	<path class="st0" d="M535.2,56.7c-0.2-2,0.1-4.8,0.1-6.8"/>
	<path class="st0" d="M552.2-7.7c-4.3,11.1-10.3,21.9-13,33.5"/>
	<path class="st0" d="M525.7,43c1.1,0,2.8-0.1,3.9-0.2"/>
	<path class="st0" d="M705.3,100.6c0.1-1,0.8-2,1.2-2.8"/>
	<path class="st0" d="M453.8,46.3c0.9,1.6-1.5,1.2-2.4,1.5"/>
	<path class="st0" d="M494.6,42.6c-1.1-0.5-3.2-1.7-4.2-2.2"/>
	<path class="st0" d="M522.2,103.2c0.8-0.8,2.2-2.1,3-2.9"/>
	<path class="st0" d="M542.6,87.6c-0.3-1.5-1.2-3.2-1.7-4.6"/>
	<path class="st0" d="M603.8,96.8c0.1,0.5-0.3,0.8-0.4,1.2c-0.1,0.7,0,1.6-0.4,2.1c-0.6,0.2-1.2-0.2-1.8,0"/>
	<path class="st0" d="M612.6,76.7c2.4-0.1,5.7,0,8.1,0"/>
	<path class="st0" d="M601.4,107.1c0.2-2.1-0.3-4.8-0.5-6.8"/>
	<path class="st0" d="M516.9,97.5c0.8,0.9,2.5,2.6,3.3,3.4"/>
	<path class="st0" d="M468.9,133.1c0.5,1.9,1.2,4.3,1.7,6.2"/>
	<path class="st0" d="M563.7,110.9c0.9,0.2,2.5-1,3.4-1.2"/>
	<path class="st0" d="M565.5,109.5c-2-1.5-4.5-3-6.3-4.7"/>
	<path class="st0" d="M550.2,92c-2.6-3.2-4.3-7-6.3-10.6"/>
	<path class="st0" d="M549.7,95.3c1.8,2.4,3.8,5.2,5.5,7.7"/>
	<path class="st0" d="M588.1,111l4.6-1"/>
	<path class="st0" d="M573.4,117.3c3.8-3.6,9.1-5.3,14.1-6.1"/>
	<path class="st0" d="M538.4,29.6c-1.2,5-1.2,10.3-1.6,15.4"/>
	<path class="st0" d="M595.2,113.6c2,0.2,4.8,1.7,6.3-0.3"/>
	<path class="st0" d="M633,126.4c5,2.5,10.2,5,15.4,7.2"/>
	<path class="st0" d="M633,126.4c-2,4.5-4.4,9.6-6.5,14.1"/>
	<path class="st0" d="M501.9,77.9c-3.6,1-7.5,2.3-11.3,2.5"/>
	<path class="st0" d="M536.8,130.2c2.2,0.4,4.3,1.4,5.8,3"/>
	<path class="st0" d="M572.6,62.4c-1-2.2-2.4-4.5-3.7-6.5"/>
	<path class="st0" d="M514.8,89.5c-1.3-1-3.2-2.6-2.7-4.5"/>
	<path class="st0" d="M519.7,85.9c-1.1,1.2-2.5,2.9-3.5,4.1"/>
	<path class="st0" d="M523.5,118.5c3.2-4.4,7-9.8,10.1-14.2"/>
	<path class="st0" d="M540,109c1-0.3,2.4-0.8,3.5-1"/>
	<path class="st0" d="M520.5,128.4c1.1,6.4-0.1,12.9-1.1,19.2"/>
	<path class="st0" d="M449.2,131.6c-0.1,2.4-0.3,5.5-0.5,7.9"/>
	<path class="st0" d="M448.7,139.5c-0.5,0-5.1-0.4-5.5-0.4"/>
	<path class="st0" d="M498.7,117c-3.9,3.7-7.8,7.6-11.6,11.4c-5.2,3.9-10.9,7.7-16.3,11.3"/>
	<path class="st0" d="M506.4,106.9c-0.7,0.5-2.3,1.9-3,2.4"/>
	<path class="st0" d="M503.4,109.3c-0.7,0.5-1.9,1.5-2.5,2"/>
	<path class="st0" d="M530.3,84.8c0.9-1.2,2.4-2.5,3.5-3.5"/>
	<path class="st0" d="M513.4,16.1c-0.3-1.2-0.8-3.2-1-4.4"/>
	<path class="st0" d="M511.8,70.8c0.5-2.3,0.8-4.7,1.1-7"/>
	<path class="st0" d="M540,25.5c2.5-11.6,8.3-22.1,12.7-33"/>
	<path class="st0" d="M555.4,26.1c0.1-4.8,2.4-9.7,4.2-14.1"/>
	<path class="st0" d="M565,35c1-2.8,2.2-6.1,3.3-8.8"/>
	<path class="st0" d="M555.4,26.1c4,0,8.9,0.1,12.9,0"/>
	<path class="st0" d="M687.6,30.5c1.9,3.5,1.2,7.7,1.8,11.4c0.5,1.9,2.4,3.4,2.6,5.3"/>
	<path class="st0" d="M667.7,103.6c-0.1,0-5.3-4-5.4-4.2"/>
	<path class="st0" d="M727.5,93.7c1.9-0.4,4-1.2,6-1.7"/>
	<path class="st0" d="M706.6,97.8c0.5-1.1,1.3-2.7,1.8-3.8"/>
	<path class="st0" d="M677.7,136.1c6.7,2.3,13.5,4.6,20.2,6.9"/>
	<path class="st0" d="M662.2,66.2c-0.3-0.8-1.3-3.2-1.6-3.9"/>
	<path class="st0" d="M662.2,66.2c-0.9,0.3-1.9,0.8-2.8,1.1"/>
	<path class="st0" d="M667.5,64.1c-1.1,0.2-2.4,0.9-3.4,1.3"/>
	<path class="st0" d="M661.5,132c5.3,1.3,11,2.3,16.2,4"/>
	<path class="st0" d="M663.1,125.8c-0.6,2-1.1,4.3-1.7,6.2"/>
	<path class="st0" d="M685.7,134l-10.3-2.9"/>
	<path class="st0" d="M510.5,3.4c0.3,1.5,0.9,3.6,1.2,5.1"/>
	<path class="st0" d="M530.1,97.7c0.7-0.9,1.8-2.5,2.5-3.5"/>
	<path class="st0" d="M509.4,110.4c1,1.3,3,3.4,4.1,4.6"/>
	<path class="st0" d="M502.6,25.2c0.9-1.8,2.8-5.9,3.7-7.6"/>
	<path class="st0" d="M681.7,122.8l5,2.4"/>
	<path class="st0" d="M678.8,121.4l2.9,1.4"/>
	<path class="st0" d="M686.6,125.2c4.6,2.2,9.4,4.5,14.1,6.6"/>
	<path class="st0" d="M681.7,122.8c-0.6,1.7-1.5,4.6-2,6.3"/>
	<path class="st0" d="M577.3,1.7c0.1,0,3.9,1.4,4.1,1.5"/>
	<path class="st0" d="M538.3,52.2c0.8-0.3,3.4-0.4,4.3-0.4"/>
	<path class="st0" d="M498.1,39.9c-1.1,0.3-4.8,1.2-5.9,1.5"/>
	<path class="st0" d="M488.6,99.8l-3.8,2.3"/>
	<path class="st0" d="M638.5,80.5c0.4,2.4,4.1,3.7,5.7,5.3"/>
	<path class="st0" d="M683.2,111.5c-0.9,2.2-2.2,5.2-3.2,7.4"/>
	<path class="st0" d="M523.5,104.9c0.8-0.9,1.9-1.6,3-2.2"/>
	<path class="st0" d="M552.9,67.9c1.2-0.1,3.9-0.3,5.1-0.4"/>
	<path class="st0" d="M456,13.8c2.3,0.2,4.9,0.4,7.2,0.9"/>
	<path class="st0" d="M491.5,95.3c-3.3-0.6-6.2-0.6-9.1,1.4c-3.2,1.3-6.9,2.7-9.3,5.3"/>
	<path class="st0" d="M491.5,95.3l0.4-4.4"/>
	<path class="st0" d="M677.3,84c3.1,1.4,6.9,3.2,10,4.6"/>
	<path class="st0" d="M505.1,26.2c1.1-2.2,2.9-5.7,3.8-8"/>
	<path class="st0" d="M494.9,95.9c-0.3-0.7-2.8-0.4-3.4-0.6"/>
	<path class="st0" d="M505.5,113.1c0.6,1.8,2.9,0.8,4.2,1.5c1.3,0.7,1.5,2.7,2.5,3.6"/>
	<path class="st0" d="M683.9,96.2c1.2,0.6,3.8,1.8,5.1,2.4"/>
	<path class="st0" d="M452.6,113.6c1.6-0.5,4.2-1.3,5.7-1.8"/>
	<path class="st0" d="M465.1,109.7c11.9-3.8,24-7.5,35.9-11.3"/>
	<path class="st0" d="M476.6,89.4c1.4,4.6,4.3,10.2,6,14.8"/>
	<path class="st0" d="M548.3,104.5c-0.8,1.3-3,2.8-4.5,2.6"/>
	<path class="st0" d="M545.2,102.3c0.7,0.8,1.9,1.6,2.9,2.1"/>
	<path class="st0" d="M452.3,68.2c3-1.6,5.8-3.5,8.8-5"/>
	<path class="st0" d="M602.4,44.4c-2.4-9.6-3.9-19.5-6.2-29.1"/>
	<path class="st0" d="M713.1,97.2c4.9-0.6,9.6-2.4,14.4-3.4"/>
	<path class="st0" d="M447.1,101.3c-1.2-0.7-3.4-1.3-4.8-1.3"/>
	<path class="st0" d="M447.1,101.3l2.5-5.4"/>
	<path class="st0" d="M448.1,101.8c-1.1,1.6-1.9,4-0.8,5.7"/>
	<path class="st0" d="M474.3,103.7c-5.4,1.7-11.2,3.5-16.7,5.2"/>
	<path class="st0" d="M474.3,103.7c0.6,0.7,1.5,1.8,2.1,2.5"/>
	<path class="st0" d="M492.6,4.7c2.5-2.3,5.9-5.1,8.6-7.3"/>
	<path class="st0" d="M536.3,90.3c1.1-1,2-2.2,1.7-3.8"/>
	<path class="st0" d="M506-20.6c0.6,7,1.9,14.5,3.9,21.3"/>
	<path class="st0" d="M549.1,104.5c-0.3,1.6-3.9,2.6-5.3,3.3"/>
	<path class="st0" d="M548.1,104.4c-1.6-0.4-2.9,1-4.4,1"/>
	<path class="st0" d="M549.1,104.5c-0.1-1.2-0.5-2.7-1-3.8"/>
	<path class="st0" d="M548.1,100.6c-0.7,0.9-1.8,1.4-2.9,1.7"/>
	<path class="st0" d="M569.5,62.7c-0.2-2.2-0.6-4.6-0.6-6.8"/>
	<path class="st0" d="M569.5,62.7c0.3,0,2.8-0.2,3.1-0.3"/>
	<path class="st0" d="M557.1,102.1c-2.2-3.2-4.5-7.1-6.8-10.1"/>
	<path class="st0" d="M531.5,102.8c-1,1.4-2.5,3.5-3.5,4.9"/>
	<path class="st0" d="M538.9,92.4c-0.6,0.7-1.5,2-2,2.7"/>
	<path class="st0" d="M542.2,89.1c-1.3-0.2-1.8,1.1-2.4,2"/>
	<path class="st0" d="M528.1,93.8c-1-1-2.4-2.6-3.3-3.5"/>
	<path class="st0" d="M535.4,91.2c0.2,0.3,2.5,2,2.7,2.2"/>
	<path class="st0" d="M525.7,96.1c-0.6-0.6-1.9-2-2.5-2.5"/>
	<path class="st0" d="M522.2,92.5c-0.8-0.8-2-2.2-3-2.7"/>
	<path class="st0" d="M508.8,84.7c1,0.3,2.1,0.4,3.1,0.3"/>
	<path class="st0" d="M522.2,92.5c-0.4,0.4-1.9,1.8-2.3,2.2"/>
	<path class="st0" d="M537,120.3c-0.1,0.1-2.8,1.5-2.9,1.5"/>
	<path class="st0" d="M542.7,114c0.9,1.7,2.2,4.3,3.1,5.9"/>
	<path class="st0" d="M535.2,112c-0.6,1.3-2.1,2.7-2.9,3.9"/>
	<path class="st0" d="M529.8,114.3c-0.2,0.2-4,5.8-4.3,5.9"/>
	<path class="st0" d="M545.8,120c0.6,1,1.3,2.4,1.9,3.4"/>
	<path class="st0" d="M539.5,125.1c0.5,1,1.3,2.4,1.8,3.4"/>
	<path class="st0" d="M496,53.6c-5.2,1.4-11.7,2.1-16.8,3.8"/>
	<path class="st0" d="M501.3,54.6c-1-0.4-2.2-1.5-3.3-1.4"/>
	<path class="st0" d="M501.3,54.6c0.7-1.4,1.9-3.5,2.7-4.8"/>
	<path class="st0" d="M682,3.4c-0.9-0.8-2.9-3.1-3.8-3.9"/>
	<path class="st0" d="M469.1,90.7c-0.2,0.6,0.3,2.8-0.9,2.3"/>
	<path class="st0" d="M619.1,66.3c-4.1-1.1-8.7-2.1-12.7-3.3"/>
	<path class="st0" d="M493.5,3.9c-1,0.2-3.4,1-4.3,1.3"/>
	<path class="st0" d="M535.8,105.9c-0.1,0.1-2.7,3.8-2.8,4"/>
	<path class="st0" d="M532.3,110.5c-1.8,2.6-4.7,6.7-6.6,9.3"/>
	<path class="st0" d="M524.7,120.3l-3.7,1.9"/>
	<path class="st0" d="M500.4,89.5c-0.2,3-0.8,6.4-0.9,9.4"/>
	<path class="st0" d="M496.1,89.1c1.3,0.1,3,0.3,4.3,0.4"/>
	<path class="st0" d="M591.9,15.5c3.5-0.1,7.6-0.2,11-1"/>
	<path class="st0" d="M557.7,127.9c-0.9,0.5-1.8,1-2.8,1.4"/>
	<path class="st0" d="M616.7,10.4c-0.4-2.1,0.8-4.4,0-6.5"/>
	<path class="st0" d="M498.3,129.9c-0.5,0.6-1.3,1.6-1.8,2.2c1,0.9,2.1,1.6,3.3,2"/>
	<path class="st0" d="M503.8,124.8c0.6,0.4,2.4,1.7,3,2.1"/>
	<path class="st0" d="M612.3,116.4c2.2,1.5,5.2,2.9,7.6,4"/>
	<path class="st0" d="M488.9,87.6c-2.2-0.2-5.9-0.6-8.1-0.8"/>
	<path class="st0" d="M490.3,87.8c-0.6-0.8-1.5-2.1-2-2.9"/>
	<path class="st0" d="M685.3,71.7c4.5,2.1,9.5,4.6,13.9,6.6"/>
	<path class="st0" d="M601.3,100.7c0.2,1.1,0.4,3.1,0.5,4.2c0.5,1.1,2,1.6,1.6,3"/>
	<path class="st0" d="M588.3,102c1.6-0.2,4.2-0.5,5.7-0.6"/>
	<path class="st0" d="M665.8,115.2c4,2,8.9,4.2,12.9,6.2"/>
	<path class="st0" d="M515.8,90.4c-0.7,1-2.2,2.5-3.2,3.2"/>
	<path class="st0" d="M660.8,102.1c1,1,3.5,2,4,3.4"/>
	<path class="st0" d="M660.8,102.1c-0.2,0.7-0.7,2.2-0.8,2.9"/>
	<path class="st0" d="M580.5,114.1c2-0.9,4.6-1.5,6.7-2"/>
	<path class="st0" d="M576.9,115.5c0.8-0.3,2.8-1.1,3.6-1.4"/>
	<path class="st0" d="M649.3,107.5c5.4,2.6,11,5.4,16.5,7.7"/>
	<path class="st0" d="M649.5,106.7c2.8,0,5.9,0,8.8,0.1"/>
	<path class="st0" d="M620.8,120.8c3.9,1.8,8.2,3.9,12.1,5.6"/>
	<path class="st0" d="M589.2,112.3c1.4,0,2.8,0.6,4.2,0.9"/>
	<path class="st0" d="M588.2,111.4c0.6-0.1,3.9-1.2,4.5-1.4"/>
	<path class="st0" d="M603.3,109.7c-0.4,1.2-0.7,2.7-1.4,3.7"/>
	<path class="st0" d="M569.7,108.3c0.1,0.5,1.2,2.6,1.5,3.1"/>
	<path class="st0" d="M569.7,108.3c1.3-0.6,3-0.7,4.4-0.7"/>
	<path class="st0" d="M567.6,110.2c0.1,0.1,1.6,2.5,1.8,2.4"/>
	<path class="st0" d="M513.2,103.5c0.1-0.1,2.2-2.2,2.3-2.3"/>
	<path class="st0" d="M513.1,72.1l0.5-5.6"/>
	<path class="st0" d="M563.7,39.1c5.8-0.5,12.3-0.9,18.1-1.4"/>
	<path class="st0" d="M582.9,16.2c2.9-0.3,6.1-0.4,9-0.8"/>
	<path class="st0" d="M577.4,17.3c0.7-2.2,1.3-4.5,1-6.8c2.3-6.2,5.6-12.3,6.7-18.9"/>
	<path class="st0" d="M571.8,16.6c1.3,0.5,3.8,1.4,5.2,1.9"/>
	<path class="st0" d="M550.3,57.8c6-0.7,13.1-0.8,19.1-1.2"/>
	<path class="st0" d="M614,71.2c0.5-1.7,1.1-4.1,1.5-5.8"/>
	<path class="st0" d="M606.4,60.1c-1.3-5.2-2.7-10.6-4-15.7"/>
	<path class="st0" d="M597.7,70.9c2-0.5,5.4-1.4,7.4-1.9"/>
	<path class="st0" d="M602.1,63.6c-1.5,0.3-3.8,0.8-5.2,1.3"/>
	<path class="st0" d="M484.6,66.4c-1.5,0.4-4.6,1.2-6.1,1.6"/>
	<path class="st0" d="M487.4,24.1c4.5-3.7,9.6-8.4,14-12.2"/>
	<path class="st0" d="M543.9,81.4c1-0.5,2.1-1.1,3.2-1.3"/>
	<path class="st0" d="M674.4,10.3c-1.4-0.4-3.6-0.9-5.1-1.3"/>
	<path class="st0" d="M537.2,113.2c-0.5,1.1-1.4,2.3-2.6,2.7"/>
	<path class="st0" d="M532.6,110.4c1.4,0.9,3.2,1.9,4.7,2.8"/>
	<path class="st0" d="M521.6,107.9c0.5-0.8,1.4-2.1,1.9-2.9"/>
	<path class="st0" d="M535.2,49.4c-0.5,0.9-0.2,2.6-0.4,3.6c-0.7,1-1.6,0.8-1.7,2.4"/>
	<path class="st0" d="M535.2,49.4c0-0.4,1.2-3.5,1.4-3.9"/>
	<path class="st0" d="M536.7,45c0.8-1.2,1.1-2.7,1.2-4.1"/>
	<path class="st0" d="M558.8,107.8c0.5,0.4,3.4,2.4,3.9,2.8"/>
	<path class="st0" d="M410.1,52.1c2.6-0.3,5.3-0.8,7.9-1.1c4,0.5,8.3,1.5,12.3,2.1c11.8,1.4,17.1-0.2,27.3-6"/>
	<path class="st0" d="M441.3,7.9c1.8-8.1,3.7-16.6,5.1-24.8c-1.2-3.2,1.5-6.7,2.1-9.8c0.5-2.3,1.5-4.5,3.3-6"/>
	<path class="st0" d="M448.4,22.4c0.4-2.3,1.3-7,1.7-9.3"/>
	<path class="st0" d="M609,122.3c-1.7,0.8-4.4,3.1-6.4,3"/>
	<path class="st0" d="M529.9,88c1.3-1.1,2.6-2.6,3.9-3.8"/>
	<path class="st0" d="M618.6,53.2c0,0.1,3.3-0.8,3.5-0.8"/>
	<path class="st0" d="M622.7,52.2c1.6-0.5,5.3-1.4,6.9-1.8"/>
	<path class="st0" d="M514.5,114.3c2.7,2.9,5.8,5.6,9,7.9"/>
	<path class="st0" d="M533.5,23.2c1.3-3.5,0.8-8.5,0.8-12.2"/>
	<path class="st0" d="M534.3,11c-0.2-4.8-0.1-10.5-0.2-15.2"/>
	<path class="st0" d="M526.1,31.7c3-2.3,6-4.9,7.4-8.6"/>
	<path class="st0" d="M517.7,116c-1.6-1.5-3.4-3.2-5-4.8"/>
	<path class="st0" d="M531.2,124.4c-1.4-1.1-4.4-3.1-5.7-4.2"/>
	<path class="st0" d="M533.5,20.6c-0.7,4.7-4.1,8.1-7.8,10.7"/>
	<path class="st0" d="M533.5,6.1c0,4.3,0.3,10.2,0,14.5"/>
	<path class="st0" d="M572.2,88.4c-0.5-4.7-0.9-9.5-1.5-14.2"/>
	<path class="st0" d="M572.2,88.4c1.5-0.2,3.7-0.4,5.2-0.6"/>
	<path class="st0" d="M506.2,85.5c-0.5,1.4-1,3.1-1.6,4.5"/>
	<path class="st0" d="M539.9,132.3c2.2,0.6,4.5,0.9,6.8,1"/>
	<path class="st0" d="M494.6,80.1c-1.3,0.1-2.7,0.3-4,0.2"/>
	<path class="st0" d="M551.7,94.1c6.8-1.2,14-0.4,20.9-1.6"/>
	<path class="st0" d="M572.7,92.4c-0.1-0.9-0.3-2.3-0.4-3.2"/>
	<path class="st0" d="M546.9,137.4l2,3.5"/>
	<path class="st0" d="M533,57.2c0,0.8,0.3,2.3,0.4,3.1"/>
	<path class="st0" d="M442.5,139c1.4-8.6,3.8-18.9,6.7-27.1"/>
	<path class="st0" d="M507.4,7c3.5,8.4,7.5,17.3,10.6,25.8"/>
	<path class="st0" d="M503.7-1.2c0.9,1.8,2.9,6.3,3.7,8.2"/>
	<path class="st0" d="M537.7,47.9c0-0.8,0-3.3,0-4.1"/>
	<path class="st0" d="M502.2,91.9c-6-0.5-12.1-1.1-18.1-1.7"/>
	<path class="st0" d="M555.2,103.4c-3.4-5-7.5-10.2-10.4-15.5"/>
	<path class="st0" d="M456.3,77.1c0.6-0.4,3.2-0.9,2.7-1.9"/>
	<path class="st0" d="M461.8,73.9c0.8,0.1,1.5-0.6,2.1-1c1-0.6,2-1.3,3-1.9c1.5-0.6,7.5-0.8,7.6-2.2"/>
	<path class="st0" d="M463.1,8.5c-0.4-0.5-0.4,0-0.5,0.3c-0.2,0.2-0.4,0-0.3-0.3c0.2-0.2,0-0.5-0.2-0.3c-0.4,0.5,0.1,1.6-0.6,1.9
		c-0.3,0-0.8,0-0.8,0.4"/>
	<path class="st0" d="M576.4,69.9c-3.1,0.5-6.8,0.9-9.9,1.4"/>
	<path class="st0" d="M576.4,69.9c-1.2-2.4-2.6-5.1-3.8-7.5"/>
	<path class="st0" d="M596.9,64.9c-2.9,0.9-6.4,1.6-9.3,2.4"/>
	<path class="st0" d="M542.8,69.3c0.5,1.1,1,2.4,1.4,3.5"/>
	<path class="st0" d="M559.1,75.7c-0.5-3.7-0.9-7.4-1.5-11.1"/>
	<path class="st0" d="M458.3,111.8c0-0.8-0.6-2.1-0.7-2.9"/>
	<path class="st0" d="M535.8,105.9c-0.3-0.2-3,4-3.1,4.1"/>
	<path class="st0" d="M446.1,125.9c1.4-3.2,1.6-7.8,2.8-11.1"/>
	<path class="st0" d="M658.2,68.2c1.9-0.9,4.2,0.9,2.7,2.9"/>
	<path class="st0" d="M665.1,75.4c-0.2-0.1-3.7-1.7-3.8-1.7"/>
	<path class="st0" d="M665.1,75.4l-3.3-1"/>
	<path class="st0" d="M631,66.8c-2.1,0.5-4.6,0.8-6.7,0.6"/>
	<path class="st0" d="M509.1,15.2c0.1,0.9,0.4,2.1-0.1,3"/>
	<path class="st0" d="M639.1,77.2c1.3-0.8,3.3-1.3,4.7-2"/>
	<path class="st0" d="M639.6,78.2c0.3-1.1,1.7-1.7,2.5-2.3"/>
	<path class="st0" d="M660.6,62.3c-4.4,3.2-8.8,6.7-14.1,8.2c-3.1,0.8-5.3,4.5-7.4,6.7"/>
	<path class="st0" d="M551.5,39.5c3.9-0.5,8.3-0.2,12.1-0.4"/>
	<path class="st0" d="M444.1,122.7c-0.8,3.1-2,6.8-1.3,10.1"/>
	<path class="st0" d="M598.7,80.7c1.8-0.3,4.5-0.5,6.3-0.7"/>
	<path class="st0" d="M445.3,127.9c1.1-1.1,2.8-3.5,2-5"/>
</g>
</svg>
