<svg width="31" height="27" viewBox="0 0 31 27" fill="none" xmlns="http://www.w3.org/2000/svg">
<path d="M15.4207 0.1201L16.4095 3.53002L14.5973 3.99866L13.9205 4.65724L13.9198 4.65676L12.5391 3.65988L15.3853 0.000521824L15.3855 0.000160561L15.3859 0L15.4033 0.06005L15.4205 0.119337L15.4207 0.1201Z" fill="black"/>
<path d="M12.7961 7.16727L13.2369 9.13909L15.1938 8.06513L15.1941 8.06489L15.1943 8.06517L16.2549 10.0711L16.2545 10.0713L15.1239 10.6698L11.8829 11.5321L11.5527 9.42517L12.0986 9.31506L11.6656 7.42923L11.6656 7.42895L12.7961 7.16699V7.16727Z" fill="black"/>
<path d="M8.0654 8.57063L8.99525 13.5853L8.9946 13.5854L8.13492 13.7638L8.13123 13.664L6.53573 13.7994L6.28814 12.6475L5.53748 12.6462L4.57648 14.7331L4.57571 14.7327L2.83105 13.7043L3.091 12.6306L2.99142 9.01948L2.99138 9.01872V9.01844L8.06467 8.57043L8.06536 8.57031L8.0654 8.57063Z" fill="black"/>
<path d="M11.8843 11.5327L9.944 12.049L9.53324 9.83389L9.5332 9.83361L10.3635 9.66606L11.5541 9.42578L11.8843 11.5327Z" fill="black"/>
<path d="M15.7586 15.1372L16.4799 16.5014L17.2526 17.9628L17.885 19.159L18.6038 20.5185L18.6042 20.5192L16.4113 21.7085L16.4105 21.7081L10.4482 18.1935L11.922 15.71L12.291 15.8988L13.056 14.5918L15.3665 15.8435L15.7586 15.1372Z" fill="black"/>
<path d="M21.0717 19.1785L18.6039 20.5169L18.6036 20.5162L17.8848 19.1568L20.3522 17.8186L20.3526 17.8184L20.3527 17.8186L21.0717 19.1785Z" fill="black"/>
<path d="M20.3532 17.8203L20.3528 17.8205L17.8854 19.1587L17.2529 17.9625L19.7204 16.6243L19.7207 16.624L19.7208 16.6243L20.3532 17.8203Z" fill="black"/>
<path d="M19.7209 16.6246L19.7206 16.6248L17.2531 17.963L16.4805 16.5016L18.9556 15.1779L18.9559 15.1777L18.956 15.178L19.7209 16.6246Z" fill="black"/>
<path d="M18.9558 15.1767L18.9554 15.1769L16.4803 16.5006L15.759 15.1364L15.6299 14.8922L18.0973 13.554L18.0977 13.5537L18.0978 13.554L18.9558 15.1767Z" fill="black"/>
<path d="M18.0974 13.5525L18.097 13.5528L15.6296 14.891L15.7587 15.1352L15.3667 15.8414L13.0562 14.5898L12.2911 15.8968L11.9222 15.708L10.4484 18.1915L10.4476 18.1911L9.37402 17.5583L10.8226 14.9965L9.93567 14.4813L10.1523 14.0982L10.1524 14.098L10.214 13.5037L9.94406 12.0479L9.94402 12.0476L11.8843 11.5313L15.1252 10.669L16.2558 10.0705L16.2562 10.0703L16.2564 10.0706L18.0974 13.5525Z" fill="black"/>
<path d="M18.0974 13.5525L18.097 13.5528L15.6296 14.891L15.7587 15.1352L15.3667 15.8414L13.0562 14.5898L12.2911 15.8968L11.9222 15.708L10.4484 18.1915L10.4476 18.1911L9.37402 17.5583L10.8226 14.9965L9.93567 14.4813L10.1523 14.0982L10.1524 14.098L10.214 13.5037L9.94406 12.0479L9.94402 12.0476L11.8843 11.5313L15.1252 10.669L16.2558 10.0705L16.2562 10.0703L16.2564 10.0706L18.0974 13.5525Z" fill="black"/>
<path d="M18.7436 5.67842L19.5311 7.32365L22.1004 5.98657L22.1013 5.98609L22.1017 5.98589L22.1019 5.98617L25.3166 12.0603L25.3162 12.0605L25.3153 12.061L22.7566 13.4038L23.3437 14.5131L24.2103 16.1506L24.7685 17.2052L24.7689 17.206L22.1376 18.6029L22.1372 18.6023L15.7325 6.48877L15.7324 6.48853L16.6504 6.27587L18.7433 5.67773L18.7434 5.67802L18.7436 5.67842Z" fill="black"/>
<path d="M27.142 15.5045L27.1419 15.5048L27.0324 16.0033L25.896 16.6065L25.8957 16.6058L25.335 15.5463L26.7593 14.7824L26.7597 14.7822L26.7598 14.7825L27.142 15.5045Z" fill="black"/>
<path d="M26.7592 14.7817L26.7588 14.7819L25.3345 15.5458L24.2114 16.1481L23.3447 14.5106L25.8961 13.154L25.897 13.1535L25.8974 13.1533L25.8975 13.1536L26.7592 14.7817Z" fill="black"/>
<path d="M22.1016 5.98496L22.1012 5.98516L22.1003 5.98564L19.531 7.32272L18.7435 5.67748L18.7432 5.67708L18.7432 5.6768L21.5183 4.88399L21.5188 4.88379L21.5189 4.88407L22.1016 5.98496Z" fill="black"/>
<path d="M22.2215 21.354L22.2211 21.3542L20.59 22.2282L20.0128 21.1366L20.0127 21.1364L21.6394 20.2541L21.6398 20.2539L21.6399 20.2542L22.2215 21.354Z" fill="black"/>
<path d="M28.1635 23.709L25.5729 25.0971L25.5725 25.0965L24.8624 23.7534L24.8623 23.7531L27.4524 22.3652L28.1632 23.7083L28.1635 23.709Z" fill="black"/>
<path d="M24.5029 25.6686L22.0183 27L22.018 26.9993L20.8779 24.8431L23.3621 23.5119L23.3625 23.5117L23.3626 23.512L24.5029 25.6686Z" fill="black"/>
<path d="M23.3624 23.5111L23.362 23.5113L20.8778 24.8424L20.8065 24.7075L20.3076 23.764L22.7918 22.4328L22.7922 22.4326L22.7923 22.4329L23.3624 23.5111Z" fill="black"/>
<path d="M22.7921 22.4339L22.7917 22.4341L20.3075 23.7653L19.7373 22.6869L20.5904 22.2297L22.2215 21.3557L22.2219 21.3555L22.222 21.3557L22.7921 22.4339Z" fill="black"/>
<path d="M16.6226 25.572L16.6222 25.5722L15.1422 26.3749L14.0733 24.3608L14.0732 24.3605L15.5532 23.5579L15.5536 23.5576L15.5537 23.5579L16.6226 25.572Z" fill="black"/>
<path d="M30.749 22.3221L28.1627 23.708L28.1623 23.7073L27.4515 22.3642L26.7997 21.1325L26.8901 21.0841L26.2422 19.8599L28.7377 18.5227L28.7381 18.5225L28.7382 18.5227L30.749 22.3221Z" fill="black"/>
<path d="M30.749 22.3221L28.1627 23.708L28.1623 23.7073L27.4515 22.3642L26.7997 21.1325L26.8901 21.0841L26.2422 19.8599L28.7377 18.5227L28.7381 18.5225L28.7382 18.5227L30.749 22.3221Z" fill="black"/>
<path d="M25.8941 16.608L24.7685 17.2056L24.7682 17.2049L24.21 16.1502L25.333 15.5479L25.8938 16.6073L25.8941 16.608Z" fill="black"/>
<path d="M25.8985 13.154L25.8981 13.1542L25.8972 13.1547L23.3458 14.5113L22.7588 13.4021L25.3175 12.0593L25.3184 12.0588L25.3188 12.0586L25.3189 12.0589L25.8985 13.154Z" fill="black"/>
<path d="M28.7382 18.5232L28.7378 18.5234L26.2424 19.8606L26.8903 21.0848L26.7999 21.1332L27.4517 22.3649L24.8616 23.7528L22.7072 19.6779L22.707 19.6776L27.8919 16.925L27.8923 16.9248L27.8924 16.9251L28.7382 18.5232Z" fill="black"/>
<path d="M20.5895 22.2296L19.7364 22.6867L20.3066 23.7651L20.8055 24.7087L19.576 25.3674L19.9356 26.0475L18.6358 26.7783L16.6193 22.9782L16.6191 22.978L20.0122 21.1377L20.0124 21.138L20.5895 22.2296Z" fill="black"/>
<path d="M20.5895 22.2296L19.7364 22.6867L20.3066 23.7651L20.8055 24.7087L19.576 25.3674L19.9356 26.0475L18.6358 26.7783L16.6193 22.9782L16.6191 22.978L20.0122 21.1377L20.0124 21.138L20.5895 22.2296Z" fill="black"/>
<path d="M10.3135 3.87306L11.5857 4.80331L11.5864 4.80379L13.3596 6.10041L13.3603 6.10089L13.36 6.10097L13.3584 6.10137L11.9091 6.43714L10.5724 6.74691L9.00665 7.1097L7.85366 7.37691L7.8032 7.38767L7.67018 7.41472L7.60888 7.42668L7.4144 7.46474L7.21928 7.49974L7.0238 7.53229L6.92581 7.5471L6.82791 7.56244L6.63171 7.59022L6.43514 7.61554L6.23829 7.6383L6.04112 7.65817L5.84379 7.67644L5.74505 7.68487L5.64626 7.69209L5.44853 7.70514L5.25068 7.71658L5.05267 7.72465L0 7.9074L0.000200702 7.90688L0.621814 6.2126L0.622095 6.2118L2.05402 5.79245L4.61204 4.32251L4.97732 4.58623L4.97776 4.58663L4.97804 4.58675L7.14859 1.56069L7.14952 1.55981L7.14964 1.55957L7.76154 2.00705L7.7623 2.00754L10.3128 3.87258L10.3135 3.87306Z" fill="black"/>
</svg>
