<svg width="50" height="29" viewBox="0 0 50 29" fill="none" xmlns="http://www.w3.org/2000/svg">
<path d="M19.5476 5.27424L14.7366 5.86303L14.7366 5.86251L14.4092 2.32507L14.4092 2.32479L19.2227 1.7627V1.76298L19.5475 5.27366L19.5476 5.27424Z" fill="black"/>
<path d="M26.9086 4.37493L23.1639 4.83319L23.1638 4.83261L22.8486 1.3411V1.3408L26.4441 0.921018L26.4448 0.920898V0.921178L26.9086 4.37493Z" fill="black"/>
<path d="M31.5435 0.297175L31.9556 3.75703L32.9726 3.63256L32.9734 3.63248V3.63278L33.0465 4.23382L33.0466 4.23432L33.1366 4.22331L33.2265 4.21219V4.21247L33.6607 7.85824L33.6608 7.85884L28.9791 8.45229L28.979 8.45177L28.4068 4.19132L27.9434 0.739864V0.739565L31.5435 0.296875V0.297175Z" fill="black"/>
<path d="M31.5435 0.297175L31.9556 3.75703L32.9726 3.63256L32.9734 3.63248V3.63278L33.0465 4.23382L33.0466 4.23432L33.1366 4.22331L33.2265 4.21219V4.21247L33.6607 7.85824L33.6608 7.85884L28.9791 8.45229L28.979 8.45177L28.4068 4.19132L27.9434 0.739864V0.739565L31.5435 0.296875V0.297175Z" fill="black"/>
<path d="M34.3554 3.46053L33.1563 3.60817L33.1562 3.60757L32.7441 0.147736V0.147457L33.9434 0V0.00027988L34.3554 3.45993L34.3554 3.46053Z" fill="black"/>
<path d="M34.8604 7.70583L33.6618 7.85776L33.6618 7.85716L33.2275 4.21139V4.21111L34.4267 4.06348V4.06376L34.8604 7.70525L34.8604 7.70583Z" fill="black"/>
<path d="M27.4802 8.62042L24.8631 8.9005L24.863 8.89992L24.4658 5.28386V5.28358L26.9899 4.97475L26.9907 4.97461V4.97491L27.4802 8.62042Z" fill="black"/>
<path d="M22.3806 9.16621L21.1338 9.29961V9.29905L20.8037 5.73203V5.73175L22.0612 5.58105V5.58135L22.3805 9.16563L22.3806 9.16621Z" fill="black"/>
<path d="M21.134 9.29931L18.7281 9.5568L18.7281 9.55622L18.4014 6.02574V6.02546L20.8039 5.73145V5.73173L21.134 9.29875V9.29931Z" fill="black"/>
<path d="M18.728 9.55478L15.1147 9.94151L15.1146 9.94101L14.793 6.46533V6.46503L18.4012 6.02344V6.02372L18.7279 9.5542L18.728 9.55478Z" fill="black"/>
<path d="M2.4723 19.5738L0.331977 19.6701L0.331937 19.6696L0 16.3L0.758554 16.1955L2.13912 16.0547L2.47226 19.5732L2.4723 19.5738Z" fill="black"/>
<path d="M6.41441 19.3968L2.47283 19.5742L2.47279 19.5737L2.13965 16.0552L3.44952 15.9216L5.65857 15.6964L6.06148 15.6553L6.41437 19.3962L6.41441 19.3968Z" fill="black"/>
<path d="M7.90191 16.566L8.17723 19.3146L8.17727 19.3152L6.41543 19.3945L6.41539 19.394L6.0625 15.653L7.30832 15.526L7.7928 15.4766L7.90191 16.566Z" fill="black"/>
<path d="M10.0402 19.2323L8.17771 19.3162L8.17767 19.3157L7.90234 16.567L9.71097 16.4795L10.0401 19.2318L10.0402 19.2323Z" fill="black"/>
<path d="M13.7503 11.6126L14.4369 19.0325L10.0379 19.2305L10.0379 19.23L9.70871 16.4777L7.90009 16.5652L7.79098 15.4758L7.30651 15.5252L7.03906 12.331V12.3307L13.7496 11.6124L13.7503 11.6123V11.6126Z" fill="black"/>
<path d="M6.06103 15.6556L5.65813 15.6966L5.32719 12.5176L5.32715 12.5173L7.03941 12.334V12.3343L7.30686 15.5285L6.06103 15.6556Z" fill="black"/>
<path d="M4.08159 25.2864L4.35907 26.1096L5.02762 26.0861L5.01419 26.4815L4.84174 26.5576L4.29558 26.7985L4.07103 26.2915L3.77556 25.6147L3.51899 24.9809L3.23591 24.2815L2.9516 23.579L2.90797 23.4712L2.24418 20.9689L2.24414 20.9686L2.97079 20.7627L2.97083 20.763L4.08159 25.2864Z" fill="black"/>
<path d="M33.1553 3.60915L33.0645 3.62036L32.9738 3.63148L32.9731 3.63156L31.956 3.75603L31.5439 0.296174V0.295874L32.7431 0.148438V0.148717L33.1552 3.60855L33.1553 3.60915Z" fill="black"/>
<path d="M14.5494 20.2415L15.308 28.44L7.67956 29.0005V28.9999L7.4421 25.1295L5.94119 25.1995L4.07955 25.2863L2.96879 20.7628L2.96875 20.7626L14.5486 20.2413L14.5494 20.2412V20.2415Z" fill="black"/>
<path d="M14.5494 20.2415L15.308 28.44L7.67956 29.0005V28.9999L7.4421 25.1295L5.94119 25.1995L4.07955 25.2863L2.96879 20.7628L2.96875 20.7626L14.5486 20.2413L14.5494 20.2412V20.2415Z" fill="black"/>
<path d="M47.9046 7.57938L49.5802 25.3497L45.6651 25.7584L45.6651 25.7578L45.3282 22.1645L45.2335 22.166L40.7339 22.6412L38.7088 22.8551L39.0457 26.4489V26.4494L31.0558 27.2837L16.8157 28.3297L16.8156 28.3292L15.2539 11.4521L15.2539 11.4518L28.7235 10.0103L47.9038 7.57924L47.9045 7.5791L47.9046 7.57938Z" fill="black"/>
</svg>
