<svg class="separator" width="29" height="37" viewBox="0 0 29 37" fill="none" xmlns="http://www.w3.org/2000/svg">
    <path d="M4.17397 31.4706L0.494507 31.9471L0.494414 31.9465L0 28.004L0.360979 27.9687L3.7125 27.8858L3.71333 27.8857V27.8861L4.17397 31.4706Z"/>
    <path d="M23.6289 25.999L20.8747 26.3125L20.3369 22.8117V22.8113L23.2102 22.5337V22.534L23.6289 25.999Z"/>
    <path d="M24.981 25.8448L23.6306 25.9985L23.2119 22.5336V22.5332L24.5563 22.4033L24.5564 22.4036L24.981 25.8448Z"/>
    <path d="M27.7024 20.5145L23.7682 20.8947L23.7681 20.894L23.4043 17.1016L25.1004 16.9369L27.3368 16.7198L27.3376 16.7197V16.7201L27.7024 20.5145Z"/>
    <path d="M7.74018 22.4434L4.78119 22.7294L4.7811 22.7288L4.57724 21.3175L4.57715 21.3171L7.64274 21.0562L7.74018 22.4428V22.4434Z"/>
    <path d="M5.71231 5.84968L4.01115 5.94002L3.70801 2.34275V2.3424L5.4484 2.23682V2.23716L5.71231 5.84968Z"/>
    <path d="M25.8691 0.998859L26.6682 9.71727L26.6674 9.71734L23.0502 10.0351L22.9901 8.94585L20.9244 9.10323L20.6965 4.96447L20.4238 4.97747L20.2236 1.34119V1.34087L25.8683 0.998628L25.8691 0.998535V0.998859Z"/>
    <path d="M25.8691 0.998859L26.6682 9.71727L26.6674 9.71734L23.0502 10.0351L22.9901 8.94585L20.9244 9.10323L20.6965 4.96447L20.4238 4.97747L20.2236 1.34119V1.34087L25.8683 0.998628L25.8691 0.998535V0.998859Z"/>
    <path d="M25.8691 0.998859L26.6682 9.71727L26.6674 9.71734L23.0502 10.0351L22.9901 8.94585L20.9244 9.10323L20.6965 4.96447L20.4238 4.97747L20.2236 1.34119V1.34087L25.8683 0.998628L25.8691 0.998535V0.998859Z"/>
    <path d="M20.4226 4.97742L18.8124 5.05411L18.6133 1.43872V1.4384L20.2225 1.34082V1.34114L20.4226 4.97742Z"/>
    <path d="M20.3398 22.8124L20.8776 26.3132L23.6318 25.9997L24.9822 25.846L26.4414 25.6798L26.6726 28.3077L26.7037 28.6614V28.6621L26.784 29.3592L23.9117 29.7169L18.1441 30.4352L13.9695 30.9551L12.2806 31.1655L9.82425 31.4715L6.00034 31.9478L5.91095 31.2522V31.2519L5.91086 31.2513L5.0166 24.2931V24.2928L20.3398 22.812V22.8124Z"/>
    <path d="M23.3473 34.7571L18.8317 35.3123L18.8316 35.3116L18.2333 31.1294L18.1426 30.4337L23.9102 29.7153L23.9841 30.4131L24.3159 32.9033L24.543 34.6094L24.5431 34.6101L24.5424 34.6102L23.9916 34.6779L23.9023 34.6889L23.3473 34.7571Z"/>
    <path d="M24.6204 34.6018L24.5441 34.6111L24.544 34.6104L24.3168 32.9043L23.9851 30.4142L23.9111 29.7164L26.7834 29.3587L28.4716 29.1484V29.1488L28.506 29.8511V29.8514L28.6569 31.1331L28.9976 34.0249V34.0252L28.9998 34.044L28.9988 34.0441L27.1688 34.2885L24.6208 34.6017L24.6204 34.6018Z"/>
    <path d="M24.6204 34.6018L24.5441 34.6111L24.544 34.6104L24.3168 32.9043L23.9851 30.4142L23.9111 29.7164L26.7834 29.3587L28.4716 29.1484V29.1488L28.506 29.8511V29.8514L28.6569 31.1331L28.9976 34.0249V34.0252L28.9998 34.044L28.9988 34.0441L27.1688 34.2885L24.6208 34.6017L24.6204 34.6018Z"/>
    <path d="M6.14016 14.0226L6.04586 12.5588L3.31442 12.6713L3.30017 12.5771L3.2837 12.4682L3.2836 12.4678L3.0332 10.8127V10.8124L6.91893 10.5737L6.9267 10.6801L7.07559 10.6756L7.19441 12.1614L7.18432 12.4472L7.15536 12.6368L7.0556 12.977L6.89866 13.2948L6.68935 13.5805L6.43395 13.8256L6.14016 14.0226Z"/>
    <path d="M18.613 1.43929L18.8121 5.05467L20.4223 4.97799L20.695 4.96498L20.923 9.10375L22.9887 8.94637L23.0488 10.0356L26.666 9.71785L26.6668 9.71778V9.71811L26.7156 10.2512L26.7148 10.2513L24.3856 10.4674L24.745 14.5303L24.8674 14.5189L25.0994 16.9371L23.4034 17.1018L23.7672 20.8942L23.7673 20.8949L7.73821 22.4438V22.4432L7.64077 21.0565L7.54176 19.6485L7.43155 18.08L4.16211 18.4576L3.61347 14.6587L3.61338 14.6584L3.54111 14.1803L3.54102 14.18L6.13875 14.0236L6.43255 13.8266L6.68794 13.5816L6.89726 13.2958L7.0542 12.9781L7.15395 12.6378L7.18291 12.4483L7.193 12.1624L7.07418 10.6767L6.92529 10.6812L6.91752 10.5748L6.76465 8.48161L6.76447 8.47911L6.61012 6.36624L5.7514 6.41186L5.7104 5.85036L5.44649 2.23784V2.23749L18.613 1.43896V1.43929Z"/>
    <path d="M10.469 36.3408L6.6526 36.8101L6.6525 36.8095L6.09295 32.6422L6.09285 32.6419L5.99902 31.9469V31.9465L9.82294 31.4702L9.90844 32.1666L10.4689 36.3401L10.469 36.3408Z"/>
</svg>
