<svg class="separator" width="50" height="50" viewBox="0 0 39 35" fill="none" xmlns="http://www.w3.org/2000/svg">
    <path d="M19.5582 0.152327L20.8123 4.47725L18.5139 5.07164L17.6555 5.90694L17.6546 5.90633L15.9033 4.64195L19.5133 0.000661848L19.5136 0.000203646L19.514 0L19.5361 0.0761634L19.5579 0.15136L19.5582 0.152327Z" fill="black"/>
    <path d="M16.2293 9.0902L16.7884 11.5911L19.2704 10.229L19.2709 10.2287L19.271 10.229L20.6163 12.7732L20.6157 12.7735L19.1817 13.5326L15.0711 14.6263L14.6523 11.954L15.3446 11.8143L14.7955 9.42245L14.7955 9.42209L16.2293 9.08984V9.0902Z" fill="black"/>
    <path d="M10.2297 10.8705L11.4091 17.2308L11.4083 17.231L10.3179 17.4572L10.3132 17.3306L8.28958 17.5024L7.97556 16.0414L7.02347 16.0397L5.8046 18.6866L5.80363 18.6861L3.59082 17.3817L3.92052 16.02L3.79421 11.4398L3.79416 11.4388V11.4385L10.2288 10.8703L10.2297 10.8701L10.2297 10.8705Z" fill="black"/>
    <path d="M15.0728 14.6274L12.6118 15.2822L12.0909 12.4727L12.0908 12.4723L13.144 12.2598L14.654 11.9551L15.0728 14.6274Z" fill="black"/>
    <path d="M19.9872 19.1986L20.9021 20.9289L21.8821 22.7824L22.6843 24.2996L23.596 26.0239L23.5964 26.0248L20.8151 27.5332L20.8141 27.5327L13.252 23.075L15.1212 19.9251L15.5892 20.1645L16.5595 18.5068L19.49 20.0944L19.9872 19.1986Z" fill="black"/>
    <path d="M26.7257 24.3247L23.5957 26.0223L23.5953 26.0214L22.6836 24.2971L25.8131 22.5999L25.8136 22.5996L25.8137 22.5999L26.7257 24.3247Z" fill="black"/>
    <path d="M25.815 22.6022L25.8145 22.6025L22.685 24.2998L21.8828 22.7826L25.0123 21.0853L25.0128 21.085L25.0129 21.0853L25.815 22.6022Z" fill="black"/>
    <path d="M25.0123 21.0851L25.0119 21.0854L21.8823 22.7827L20.9023 20.9292L24.0416 19.2503L24.042 19.25L24.0422 19.2504L25.0123 21.0851Z" fill="black"/>
    <path d="M24.0426 19.2489L24.0421 19.2492L20.9029 20.9281L19.988 19.1978L19.8242 18.888L22.9537 17.1907L22.9543 17.1904L22.9544 17.1908L24.0426 19.2489Z" fill="black"/>
    <path d="M22.9538 17.1891L22.9533 17.1894L19.8238 18.8867L19.9876 19.1965L19.4903 20.0922L16.5599 18.5047L15.5895 20.1623L15.1216 19.923L13.2523 23.0729L13.2513 23.0723L11.8896 22.2697L13.7269 19.0205L12.602 18.367L12.8767 17.8812L12.8769 17.8809L12.955 17.1272L12.6126 15.2807L12.6126 15.2803L15.0735 14.6255L19.1841 13.5318L20.6181 12.7727L20.6186 12.7725L20.6188 12.7728L22.9538 17.1891Z" fill="black"/>
    <path d="M22.9538 17.1891L22.9533 17.1894L19.8238 18.8867L19.9876 19.1965L19.4903 20.0922L16.5599 18.5047L15.5895 20.1623L15.1216 19.923L13.2523 23.0729L13.2513 23.0723L11.8896 22.2697L13.7269 19.0205L12.602 18.367L12.8767 17.8812L12.8769 17.8809L12.955 17.1272L12.6126 15.2807L12.6126 15.2803L15.0735 14.6255L19.1841 13.5318L20.6181 12.7727L20.6186 12.7725L20.6188 12.7728L22.9538 17.1891Z" fill="black"/>
    <path d="M23.7733 7.20204L24.7722 9.28874L28.0308 7.59288L28.032 7.59227L28.0325 7.59202L28.0327 7.59237L32.1101 15.2964L32.1096 15.2967L32.1084 15.2973L28.8631 17.0004L29.6077 18.4073L30.7069 20.4842L31.4149 21.8219L31.4154 21.8229L28.078 23.5946L28.0775 23.5938L19.9542 8.22984L19.9541 8.22953L21.1183 7.9598L23.7729 7.20117L23.773 7.20153L23.7733 7.20204Z" fill="black"/>
    <path d="M34.4247 19.6651L34.4246 19.6655L34.2857 20.2977L32.8445 21.0628L32.844 21.0619L32.1328 19.7182L33.9394 18.7493L33.9398 18.749L33.94 18.7493L34.4247 19.6651Z" fill="black"/>
    <path d="M33.9401 18.7479L33.9396 18.7481L32.1331 19.717L30.7086 20.481L29.6094 18.4041L32.8454 16.6835L32.8465 16.6829L32.847 16.6826L32.8472 16.6829L33.9401 18.7479Z" fill="black"/>
    <path d="M28.0321 7.59099L28.0316 7.59124L28.0304 7.59185L24.7717 9.28771L23.7729 7.20101L23.7726 7.2005L23.7725 7.20014L27.2923 6.19459L27.2929 6.19434L27.293 6.19469L28.0321 7.59099Z" fill="black"/>
    <path d="M28.1843 27.0837L28.1838 27.084L26.115 28.1926L25.383 26.8081L25.3828 26.8077L27.446 25.6888L27.4466 25.6885L27.4467 25.6888L28.1843 27.0837Z" fill="black"/>
    <path d="M35.7212 30.0705L32.4355 31.8312L32.435 31.8304L31.5343 30.1269L31.5342 30.1265L34.8192 28.3662L35.7208 30.0697L35.7212 30.0705Z" fill="black"/>
    <path d="M31.0782 32.556L27.9269 34.2446L27.9264 34.2437L26.4805 31.5089L29.6313 29.8206L29.6318 29.8203L29.6319 29.8207L31.0782 32.556Z" fill="black"/>
    <path d="M29.6313 29.82L29.6308 29.8202L26.48 31.5086L26.3896 31.3375L25.7568 30.1408L28.9076 28.4524L28.9081 28.4521L28.9083 28.4525L29.6313 29.82Z" fill="black"/>
    <path d="M28.9077 28.4538L28.9072 28.454L25.7564 30.1424L25.0332 28.7746L26.1153 28.1948L28.184 27.0862L28.1845 27.0859L28.1847 27.0863L28.9077 28.4538Z" fill="black"/>
    <path d="M21.083 32.4338L21.0826 32.4341L19.2054 33.4522L17.8497 30.8976L17.8496 30.8972L19.7267 29.8792L19.7272 29.8789L19.7274 29.8792L21.083 32.4338Z" fill="black"/>
    <path d="M39.0003 28.3124L35.72 30.0701L35.7196 30.0692L34.818 28.3658L33.9913 26.8036L34.1059 26.7422L33.2842 25.1895L36.4493 23.4934L36.4498 23.4932L36.4499 23.4935L39.0003 28.3124Z" fill="black"/>
    <path d="M39.0003 28.3124L35.72 30.0701L35.7196 30.0692L34.818 28.3658L33.9913 26.8036L34.1059 26.7422L33.2842 25.1895L36.4493 23.4934L36.4498 23.4932L36.4499 23.4935L39.0003 28.3124Z" fill="black"/>
    <path d="M32.8421 21.0643L31.4145 21.8223L31.414 21.8214L30.7061 20.4837L32.1305 19.7197L32.8417 21.0635L32.8421 21.0643Z" fill="black"/>
    <path d="M32.8484 16.6833L32.8479 16.6836L32.8468 16.6842L29.6108 18.4048L28.8662 16.9979L32.1115 15.2948L32.1126 15.2942L32.1131 15.2939L32.1133 15.2943L32.8484 16.6833Z" fill="black"/>
    <path d="M36.4494 23.494L36.4489 23.4943L33.2838 25.1904L34.1055 26.743L33.9909 26.8045L34.8176 28.3667L31.5326 30.127L28.8 24.9586L28.7998 24.9582L35.376 21.4671L35.3765 21.4668L35.3766 21.4672L36.4494 23.494Z" fill="black"/>
    <path d="M26.1149 28.1944L25.0328 28.7742L25.756 30.142L26.3888 31.3387L24.8294 32.1743L25.2855 33.0369L23.6369 33.9638L21.0793 29.144L21.0791 29.1437L25.3827 26.8096L25.3828 26.8099L26.1149 28.1944Z" fill="black"/>
    <path d="M26.1149 28.1944L25.0328 28.7742L25.756 30.142L26.3888 31.3387L24.8294 32.1743L25.2855 33.0369L23.6369 33.9638L21.0793 29.144L21.0791 29.1437L25.3827 26.8096L25.3828 26.8099L26.1149 28.1944Z" fill="black"/>
    <path d="M13.081 4.9123L14.6945 6.09218L14.6954 6.09279L16.9444 7.73733L16.9453 7.73794L16.945 7.73804L16.9429 7.73855L15.1047 8.16442L13.4093 8.55731L11.4234 9.01744L9.96107 9.35636L9.89707 9.37L9.72835 9.40432L9.65061 9.41949L9.40394 9.46775L9.15646 9.51215L8.90853 9.55344L8.78425 9.57222L8.66008 9.59167L8.41122 9.6269L8.16191 9.65903L7.91224 9.68789L7.66216 9.7131L7.41188 9.73626L7.28664 9.74695L7.16135 9.75612L6.91056 9.77266L6.65962 9.78717L6.40847 9.7974L0 10.0292L0.000254557 10.0285L0.788668 7.87962L0.789025 7.87861L2.60519 7.34673L5.84962 5.48236L6.31291 5.81685L6.31347 5.81736L6.31383 5.81751L9.06681 1.97945L9.06798 1.97833L9.06813 1.97803L9.84423 2.54559L9.84519 2.5462L13.0801 4.91169L13.081 4.9123Z" fill="black"/>
</svg>
