<svg class="separator" width="42" height="35" viewBox="0 0 42 35" fill="none" xmlns="http://www.w3.org/2000/svg">
    <path d="M8.10702 3.98315L5.92802 4.24471L5.9279 4.24384L5.4502 0.255331L7.62991 0L8.1069 3.98231L8.10702 3.98315Z" fill="black"/>
    <path d="M5.92717 4.24524L3.68667 4.51412L3.68655 4.51329L3.20801 0.518371L4.41014 0.37758L5.44934 0.255859L5.92705 4.24437L5.92717 4.24524Z" fill="black"/>
    <path d="M3.06784 6.40862L3.52767 10.3256L2.74353 10.4217L2.51374 8.46465L2.4843 8.46837L2.25391 6.50632V6.50591L3.06784 6.4082V6.40862Z" fill="black"/>
    <path d="M14.0191 9.11418L11.644 9.38452L11.129 5.44005L11.1289 5.43963L14.6943 5.01172V5.01214L15.2122 8.97836L14.0191 9.11418Z" fill="black"/>
    <path d="M5.61028 12.3239L1.17338 12.868L0.953125 10.6403V10.6399L2.74595 10.42L3.53009 10.3239L5.35868 10.0996L5.61028 12.3239Z" fill="black"/>
    <path d="M14.2177 11.1252L9.69673 11.5606L10.3505 18.1757L10.3506 18.1765L6.22752 18.5736L6.2274 18.5727L5.82764 14.5269L5.61 12.3253L5.3584 10.1011L8.03167 9.79675L9.83785 9.59115L11.644 9.38558L14.0191 9.11523L14.2177 11.1252Z" fill="black"/>
    <path d="M14.4112 13.0973L14.87 17.7401L14.8701 17.741L10.3492 18.1763L10.3491 18.1755L9.69531 11.5603L14.2162 11.125L14.4112 13.0973Z" fill="black"/>
    <path d="M31.8209 10.5976L31.9907 15.0818V15.0825L22.0669 15.2255V15.2248L21.6445 4.07011V4.06966L31.5662 3.87109V3.87154L31.8209 10.5976Z" fill="black"/>
    <path d="M41.6927 10.4008L41.7899 14.9418L31.99 15.0828V15.0821L31.8203 10.5979L34.7954 10.5384L37.1378 10.4915L41.6916 10.4004L41.6927 10.4004V10.4008Z" fill="black"/>
    <path d="M19.7119 12.5848L19.7108 12.5848L14.4102 13.0953L14.2152 11.123L14.0166 9.11302L15.2097 8.9772L19.5555 8.48254L19.5566 8.48242V8.48284L19.7119 12.5848Z" fill="black"/>
    <path d="M3.68911 4.5148L0.389507 4.91086L0.389388 4.91011L0 0.895558V0.895111L3.21045 0.519043L3.68899 4.51396L3.68911 4.5148Z" fill="black"/>
    <path d="M19.8917 17.2569L14.872 17.7401L14.8718 17.7393L14.4131 13.0965L19.7137 12.586L19.7148 12.5859V12.5864L19.8917 17.2569Z" fill="black"/>
    <path d="M21.0831 26.0786L21.0821 26.0787L15.4183 26.6748L15.1622 26.7018L14.9131 24.4727L17.1855 24.2365L20.8029 23.8605L20.8038 23.8604L20.804 23.8608L21.0831 26.0786Z" fill="black"/>
    <path d="M7.86175 34.3833L3.38743 34.8543V34.8536L3.1543 32.5587V32.5582L7.59477 32.0908L7.86175 34.3825V34.3833Z" fill="black"/>
    <path d="M21.9404 32.904L16.212 33.5069L16.2118 33.5061L15.416 26.6724L21.0798 26.0763L21.0808 26.0762L21.0809 26.0766L21.9404 32.904Z" fill="black"/>
    <path d="M17.1828 24.2323L14.9103 24.4685L14.417 20.0528V20.0524L16.6952 19.833V19.8335L17.1828 24.2323Z" fill="black"/>
    <path d="M9.75137 27.2695L7.4104 27.5159L7.15104 25.2778L6.63281 20.805V20.8046L14.4197 20.0547V20.0551L14.9131 24.4708L15.1622 26.7L12.7319 26.9558L9.75137 27.2695Z" fill="black"/>
    <path d="M4.872 25.5175L2.46047 25.7682L2.00207 21.2538L2.00195 21.2534L4.38941 21.0234L4.38953 21.0239L4.872 25.5175Z" fill="black"/>
    <path d="M29.079 23.3815L27.5947 23.6082L27.5958 21.7518L27.5983 17.0105V17.0101L32.7102 16.9268L32.71 16.9272L32.7035 22.8277L29.079 23.3815Z" fill="black"/>
    <path d="M27.596 23.6114L23.1275 24.2941L22.8691 22.2414V22.241L27.5971 21.7549L27.596 23.6114Z" fill="black"/>
    <path d="M28.1453 31.9584L24.17 32.5903L24.1699 32.5895L23.6123 28.161V28.1606L27.4498 27.5029L28.1451 31.9575L28.1453 31.9584Z" fill="black"/>
    <path d="M36.5834 30.6169L28.1447 31.9583L28.1446 31.9574L27.4492 27.5028L29.6329 27.1286L29.0773 23.3823L32.7018 22.8286L35.2808 22.4346L36.5832 30.616L36.5834 30.6169Z" fill="black"/>
    <path d="M27.5957 21.7524L22.8678 22.2385L22.2207 17.0986L27.5982 17.0107V17.0112L27.5957 21.7524Z" fill="black"/>
    <path d="M41.972 21.233L41.9854 21.3222L41.9989 21.4113L41.9979 21.4114L37.4535 22.1057L35.2841 22.4371L32.7051 22.8311L32.7116 16.9306L32.7118 16.9301L41.8436 16.7813L41.8447 16.7812V16.7817L41.972 21.233Z" fill="black"/>
</svg>
