<svg xmlns="http://www.w3.org/2000/svg" height="29" fill="none" class="separator" viewBox="0 0 50 29"><path d="m19.55 5.27-4.81.6-.33-3.54 4.81-.57.33 3.51ZM26.9 4.37l-3.74.46-.31-3.49 3.6-.42.46 3.45ZM31.54.3l.42 3.46 1.01-.13.08.6h.09l.09-.02.43 3.65-4.68.6-.57-4.27-.47-3.45 3.6-.44Z"/><path d="m31.54.3.42 3.46 1.01-.13.08.6h.09l.09-.02.43 3.65-4.68.6-.57-4.27-.47-3.45 3.6-.44ZM34.36 3.46l-1.2.15-.42-3.46 1.2-.15.42 3.46Z"/><path d="m34.86 7.7-1.2.16-.43-3.65 1.2-.15.43 3.65ZM27.48 8.62l-2.62.28-.4-3.62 2.53-.3.49 3.64ZM22.38 9.17l-1.25.13-.33-3.57 1.26-.15.32 3.59ZM21.13 9.3l-2.4.26-.33-3.53 2.4-.3.33 3.57Z"/><path d="m18.73 9.55-3.62.4-.32-3.48 3.61-.45.33 3.53ZM2.47 19.57l-2.14.1L0 16.3l.76-.1 1.38-.15.33 3.52Z"/><path d="m6.41 19.4-3.94.17-.33-3.51 1.31-.14 2.2-.22.41-.04.35 3.74ZM7.9 16.57l.28 2.74-1.76.08-.36-3.74 1.25-.12.48-.05.11 1.09Z"/><path d="m10.04 19.23-1.86.09-.28-2.75 1.81-.09.33 2.75Z"/><path d="m13.75 11.61.69 7.42-4.4.2-.33-2.75-1.81.09-.1-1.1-.5.06-.26-3.2 6.71-.72Z"/><path d="m6.06 15.66-.4.04-.33-3.18 1.7-.19.28 3.2-1.25.13ZM4.08 25.29l.28.82.67-.02-.02.4-.17.07-.54.24-.23-.5-.3-.69-.25-.63-.28-.7-.29-.7-.04-.1-.67-2.51.73-.2 1.11 4.52ZM33.16 3.6l-.1.02-.09.01-1.01.13L31.54.3l1.2-.15.42 3.46Z"/><path d="m14.55 20.24.76 8.2-7.63.56-.24-3.87-1.5.07-1.86.09-1.11-4.53 11.58-.52Z"/><path d="m14.55 20.24.76 8.2-7.63.56-.24-3.87-1.5.07-1.86.09-1.11-4.53 11.58-.52ZM47.9 7.58l1.68 17.77-3.91.4-.34-3.59h-.1l-4.5.48-2.02.22.34 3.59-8 .83-14.23 1.05-1.57-16.88 13.47-1.44L47.9 7.58Z"/></svg>