<svg xmlns="http://www.w3.org/2000/svg" width="29" height="37" fill="none" class="separator"><path d="m4.17 31.47-3.68.48L0 28l.36-.03 3.35-.08.46 3.58ZM23.63 26l-2.76.31-.53-3.5 2.87-.28.42 3.47Z"/><path d="m24.98 25.84-1.35.16-.42-3.47 1.35-.13.42 3.44ZM27.7 20.51l-3.93.38-.37-3.79 1.7-.16 2.24-.22.36 3.8ZM7.74 22.44l-2.96.29-.2-1.41 3.06-.26.1 1.38ZM5.71 5.85l-1.7.09-.3-3.6 1.74-.1.26 3.61ZM25.87 1l.8 8.72-3.62.32-.06-1.1-2.07.16-.22-4.14-.28.02-.2-3.64L25.87 1Z"/><path d="m25.87 1 .8 8.72-3.62.32-.06-1.1-2.07.16-.22-4.14-.28.02-.2-3.64L25.87 1Z"/><path d="m25.87 1 .8 8.72-3.62.32-.06-1.1-2.07.16-.22-4.14-.28.02-.2-3.64L25.87 1Z"/><path d="m20.42 4.98-1.6.07-.2-3.61 1.6-.1.2 3.64ZM20.34 22.81l.54 3.5 2.75-.31 1.35-.15 1.46-.17.23 2.63.03.35.08.7-2.87.36-5.77.72-4.17.52-1.69.2-2.46.31-3.82.48-.09-.7-.9-6.96 15.33-1.48Z"/><path d="m23.35 34.76-4.52.55-.6-4.18-.09-.7 5.77-.71.07.7.34 2.48.22 1.7v.01l-.55.07h-.09l-.55.08Z"/><path d="m24.62 34.6-.08.01-.22-1.7-.33-2.5-.08-.7 2.87-.35 1.7-.21.03.7.15 1.28.34 2.9v.01l-1.83.25-2.55.31Z"/><path d="m24.62 34.6-.08.01-.22-1.7-.33-2.5-.08-.7 2.87-.35 1.7-.21.03.7.15 1.28.34 2.9v.01l-1.83.25-2.55.31ZM6.14 14.02l-.1-1.46-2.73.11-.01-.1-.02-.1-.25-1.66 3.89-.24v.11h.16l.11 1.48v.29l-.03.19-.1.34-.16.31-.21.3-.26.24-.29.2Z"/><path d="m18.61 1.44.2 3.61 1.61-.07.27-.02.23 4.14L23 8.95l.06 1.09 3.62-.32.05.53-2.33.22.36 4.06.12-.01.23 2.42-1.7.16.37 3.8-16.03 1.54-.1-1.38-.1-1.41-.1-1.57-3.28.38-.55-3.8-.07-.48 2.6-.16.3-.2.25-.24.2-.28.16-.32.1-.34.03-.2.01-.28-.12-1.48h-.14l-.01-.1-.16-2.1-.15-2.11-.86.04-.04-.56-.26-3.61 13.16-.8ZM10.47 36.34l-3.82.47-.56-4.17-.1-.7 3.83-.47.09.7.56 4.17Z"/></svg>