<svg xmlns="http://www.w3.org/2000/svg" width="50" height="50" fill="none" class="separator" viewBox="0 0 39 35"><path d="m19.56.15 1.25 4.33-2.3.6-.85.83-1.76-1.27L19.51 0l.03.08.02.07ZM16.23 9.09l.56 2.5 2.48-1.36 1.35 2.54-1.44.76-4.1 1.1-.43-2.68.7-.14-.55-2.39 1.43-.33ZM10.23 10.87l1.18 6.36-1.1.23v-.13l-2.02.17-.31-1.46h-.96L5.8 18.69l-2.2-1.3.32-1.37-.13-4.58 6.44-.57ZM15.07 14.63l-2.46.65-.52-2.8 1.05-.22 1.51-.3.42 2.67ZM19.99 19.2l.91 1.73.98 1.85.8 1.52.92 1.72-2.78 1.51-7.57-4.46 1.87-3.14.47.23.97-1.65 2.93 1.58.5-.9Z"/><path d="m26.73 24.32-3.13 1.7-.92-1.72 3.13-1.7.92 1.72Z"/><path d="m25.82 22.6-3.14 1.7-.8-1.52 3.13-1.7.8 1.52Z"/><path d="m25.01 21.09-3.13 1.7-.98-1.86 3.14-1.68.97 1.84Z"/><path d="m24.04 19.25-3.14 1.68L20 19.2l-.17-.31 3.13-1.7 1.1 2.06Z"/><path d="m22.95 17.19-3.13 1.7.17.3-.5.9-2.93-1.59-.97 1.66-.47-.24-1.87 3.15-1.36-.8 1.84-3.25-1.13-.65.28-.49.07-.75-.34-1.85 2.46-.65 4.11-1.1 1.44-.76 2.33 4.42Z"/><path d="m22.95 17.19-3.13 1.7.17.3-.5.9-2.93-1.59-.97 1.66-.47-.24-1.87 3.15-1.36-.8 1.84-3.25-1.13-.65.28-.49.07-.75-.34-1.85 2.46-.65 4.11-1.1 1.44-.76 2.33 4.42ZM23.77 7.2l1 2.09 3.26-1.7 4.08 7.7L28.86 17l.75 1.4 1.1 2.08.7 1.34-3.33 1.77-8.13-15.36 1.17-.27 2.65-.76ZM34.42 19.67l-.13.63-1.45.76-.7-1.34 1.8-.97.48.92Z"/><path d="m33.94 18.75-1.8.97-1.43.76-1.1-2.08 3.24-1.72 1.09 2.07ZM28.03 7.6l-3.26 1.69-1-2.09 3.52-1 .74 1.4ZM28.18 27.08l-2.07 1.11-.73-1.38 2.07-1.12.73 1.4ZM35.72 30.07l-3.28 1.76-.9-1.7 3.28-1.76.9 1.7ZM31.08 32.56l-3.15 1.68-1.45-2.73 3.15-1.69 1.45 2.74Z"/><path d="m29.63 29.82-3.15 1.69-.09-.17-.63-1.2 3.15-1.69.72 1.37Z"/><path d="m28.9 28.45-3.14 1.7-.73-1.38 1.09-.58 2.06-1.1.73 1.36ZM21.08 32.43l-1.87 1.02-1.36-2.55 1.88-1.02 1.35 2.55ZM39 28.31l-3.28 1.76-.9-1.7-.83-1.57.12-.06-.83-1.55 3.17-1.7L39 28.31Z"/><path d="m39 28.31-3.28 1.76-.9-1.7-.83-1.57.12-.06-.83-1.55 3.17-1.7L39 28.31ZM32.84 21.06l-1.43.76-.7-1.34 1.42-.76.71 1.34ZM32.85 16.68 29.6 18.4l-.74-1.4 3.24-1.7.74 1.38Z"/><path d="m36.45 23.5-3.17 1.69.83 1.55-.12.06.83 1.57-3.29 1.76-2.73-5.17 6.58-3.5 1.07 2.03ZM26.11 28.2l-1.08.57.73 1.37.63 1.2-1.56.83.46.87-1.65.92-2.56-4.82 4.3-2.33.73 1.38Z"/><path d="m26.11 28.2-1.08.57.73 1.37.63 1.2-1.56.83.46.87-1.65.92-2.56-4.82 4.3-2.33.73 1.38ZM13.08 4.91 14.7 6.1l2.25 1.65-1.84.42-1.7.4-1.98.46-1.46.34-.06.01-.17.03-.08.02-.25.05-.24.04-.25.04-.13.02-.12.02-.25.04-.25.03-.25.03-.25.02-.25.03H7.3l-.13.02-.25.01-.25.02h-.25L0 10.04l.79-2.15 1.82-.53 3.24-1.87.46.34 2.76-3.84.77.57 3.24 2.36Z"/></svg>