<svg xmlns="http://www.w3.org/2000/svg" width="42" height="35" fill="none" class="separator"><path d="m8.1 3.98-2.17.26L5.45.26 7.63 0l.48 3.98Z"/><path d="m5.93 4.25-2.24.26-.48-4L4.4.39 5.45.26l.48 3.98ZM3.07 6.4l.46 3.93-.79.1-.23-1.97h-.03l-.23-1.95.82-.1ZM14.02 9.11l-2.38.27-.51-3.94 3.56-.43.52 3.97-1.2.13Z"/><path d="m5.61 12.32-4.44.55-.22-2.23 1.8-.22.78-.1 1.83-.22.25 2.22Z"/><path d="m14.22 11.13-4.52.43.65 6.62-4.12.4-.4-4.05-.22-2.2-.25-2.23 2.67-.3 1.8-.2 1.81-.21 2.38-.27.2 2Z"/><path d="m14.41 13.1.46 4.64-4.52.44-.65-6.62 4.52-.44.2 1.98ZM31.82 10.6l.17 4.48-9.92.15-.43-11.16 9.93-.2.25 6.73Z"/><path d="m41.7 10.4.09 4.54-9.8.14-.17-4.48 2.98-.06 2.34-.05 4.55-.09ZM19.71 12.58l-5.3.52-.2-1.98-.2-2 1.2-.14 4.35-.5.15 4.1ZM3.69 4.51l-3.3.4L0 .9 3.21.52l.48 4ZM19.9 17.26l-5.03.48-.46-4.64 5.3-.51.18 4.67ZM21.08 26.08l-5.66.6-.26.02-.25-2.23 2.28-.23 3.61-.38.28 2.22ZM7.86 34.38l-4.47.47-.24-2.3 4.44-.46.27 2.3Z"/><path d="m21.94 32.9-5.73.6-.8-6.83 5.67-.6.86 6.83ZM17.18 24.23l-2.27.24-.5-4.42 2.29-.22.48 4.4Z"/><path d="m9.75 27.27-2.34.25-.26-2.24-.52-4.48 7.79-.75.5 4.42.24 2.23-2.43.26-2.98.3ZM4.87 25.52l-2.41.25L2 21.25l2.39-.23.48 4.5ZM29.08 23.38l-1.49.23V17l5.12-.08v5.9l-3.63.55Z"/><path d="m27.6 23.61-4.47.68-.26-2.05 4.73-.49v1.86ZM28.15 31.96l-3.98.63-.56-4.43 3.84-.66.7 4.46Z"/><path d="m36.58 30.62-8.44 1.34-.7-4.46 2.2-.37-.56-3.75 3.62-.55 2.58-.4 1.3 8.19ZM27.6 21.75l-4.73.49-.65-5.14L27.6 17v4.74Z"/><path d="m41.97 21.23.02.1v.08l-4.54.7-2.17.33-2.57.4v-5.91l9.13-.15.13 4.45Z"/></svg>